<svg id="vector" xmlns="http://www.w3.org/2000/svg" width="24" height="24" viewBox="0 0 512 512"><path fill="#d7dbe0" d="M 496 408 L 16 408 C 7.163 408 0 400.837 0 392 L 0 120 C 0 111.163 7.163 104 16 104 L 496 104 C 504.837 104 512 111.163 512 120 L 512 392 C 512 400.837 504.837 408 496 408 Z" stroke-width="1" id="path_0"/><path fill="#5c546a" d="M 56 368 C 51.578 368 48 364.422 48 360 L 48 152 C 48 147.578 51.578 144 56 144 C 60.422 144 64 147.578 64 152 L 64 360 C 64 364.422 60.422 368 56 368 Z M 88 368 C 83.578 368 80 364.422 80 360 L 80 152 C 80 147.578 83.578 144 88 144 C 92.422 144 96 147.578 96 152 L 96 360 C 96 364.422 92.422 368 88 368 Z M 424 368 C 419.578 368 416 364.422 416 360 L 416 152 C 416 147.578 419.578 144 424 144 C 428.422 144 432 147.578 432 152 L 432 360 C 432 364.422 428.422 368 424 368 Z M 456 368 C 451.578 368 448 364.422 448 360 L 448 152 C 448 147.578 451.578 144 456 144 C 460.422 144 464 147.578 464 152 L 464 360 C 464 364.422 460.422 368 456 368 Z M 120 320 C 115.578 320 112 316.422 112 312 L 112 152 C 112 147.578 115.578 144 120 144 C 124.422 144 128 147.578 128 152 L 128 312 C 128 316.422 124.422 320 120 320 Z M 144 320 C 139.578 320 136 316.422 136 312 L 136 152 C 136 147.578 139.578 144 144 144 C 148.422 144 152 147.578 152 152 L 152 312 C 152 316.422 148.422 320 144 320 Z M 176 320 C 171.578 320 168 316.422 168 312 L 168 152 C 168 147.578 171.578 144 176 144 C 180.422 144 184 147.578 184 152 L 184 312 C 184 316.422 180.422 320 176 320 Z M 208 320 C 203.578 320 200 316.422 200 312 L 200 152 C 200 147.578 203.578 144 208 144 C 212.422 144 216 147.578 216 152 L 216 312 C 216 316.422 212.422 320 208 320 Z M 272 320 C 267.578 320 264 316.422 264 312 L 264 152 C 264 147.578 267.578 144 272 144 C 276.422 144 280 147.578 280 152 L 280 312 C 280 316.422 276.422 320 272 320 Z M 296 320 C 291.578 320 288 316.422 288 312 L 288 152 C 288 147.578 291.578 144 296 144 C 300.422 144 304 147.578 304 152 L 304 312 C 304 316.422 300.422 320 296 320 Z M 328 320 C 323.578 320 320 316.422 320 312 L 320 152 C 320 147.578 323.578 144 328 144 C 332.422 144 336 147.578 336 152 L 336 312 C 336 316.422 332.422 320 328 320 Z M 360 320 C 355.578 320 352 316.422 352 312 L 352 152 C 352 147.578 355.578 144 360 144 C 364.422 144 368 147.578 368 152 L 368 312 C 368 316.422 364.422 320 360 320 Z M 384 320 C 379.578 320 376 316.422 376 312 L 376 152 C 376 147.578 379.578 144 384 144 C 388.422 144 392 147.578 392 152 L 392 312 C 392 316.422 388.422 320 384 320 Z M 248 320 C 243.578 320 240 316.422 240 312 L 240 152 C 240 147.578 243.578 144 248 144 C 252.422 144 256 147.578 256 152 L 256 312 C 256 316.422 252.422 320 248 320 Z" stroke-width="1" id="path_1"/><path fill="#8a8895" d="M 120 368 C 115.578 368 112 364.422 112 360 L 112 344 C 112 339.578 115.578 336 120 336 C 124.422 336 128 339.578 128 344 L 128 360 C 128 364.422 124.422 368 120 368 Z M 144 368 C 139.578 368 136 364.422 136 360 L 136 344 C 136 339.578 139.578 336 144 336 C 148.422 336 152 339.578 152 344 L 152 360 C 152 364.422 148.422 368 144 368 Z M 176 368 C 171.578 368 168 364.422 168 360 L 168 344 C 168 339.578 171.578 336 176 336 C 180.422 336 184 339.578 184 344 L 184 360 C 184 364.422 180.422 368 176 368 Z M 208 368 C 203.578 368 200 364.422 200 360 L 200 344 C 200 339.578 203.578 336 208 336 C 212.422 336 216 339.578 216 344 L 216 360 C 216 364.422 212.422 368 208 368 Z M 272 368 C 267.578 368 264 364.422 264 360 L 264 344 C 264 339.578 267.578 336 272 336 C 276.422 336 280 339.578 280 344 L 280 360 C 280 364.422 276.422 368 272 368 Z M 296 368 C 291.578 368 288 364.422 288 360 L 288 344 C 288 339.578 291.578 336 296 336 C 300.422 336 304 339.578 304 344 L 304 360 C 304 364.422 300.422 368 296 368 Z M 328 368 C 323.578 368 320 364.422 320 360 L 320 344 C 320 339.578 323.578 336 328 336 C 332.422 336 336 339.578 336 344 L 336 360 C 336 364.422 332.422 368 328 368 Z M 360 368 C 355.578 368 352 364.422 352 360 L 352 344 C 352 339.578 355.578 336 360 336 C 364.422 336 368 339.578 368 344 L 368 360 C 368 364.422 364.422 368 360 368 Z M 384 368 C 379.578 368 376 364.422 376 360 L 376 344 C 376 339.578 379.578 336 384 336 C 388.422 336 392 339.578 392 344 L 392 360 C 392 364.422 388.422 368 384 368 Z M 248 368 C 243.578 368 240 364.422 240 360 L 240 344 C 240 339.578 243.578 336 248 336 C 252.422 336 256 339.578 256 344 L 256 360 C 256 364.422 252.422 368 248 368 Z" stroke-width="1" id="path_2"/></svg>