<svg xmlns="http://www.w3.org/2000/svg" version="1.1" xmlns:xlink="http://www.w3.org/1999/xlink" width="512" height="512" x="0" y="0" viewBox="0 0 512 512" style="enable-background:new 0 0 512 512" xml:space="preserve" class=""><g><path d="M445.199 322.616h6.906c23.498 0 42.616-19.118 42.616-42.618V125.845c0-23.5-19.118-42.618-42.616-42.618H332.783c-47.696-32.365-110.811-32.335-158.461 0H50.18c-23.498 0-42.616 19.118-42.616 42.618v154.153c0 23.5 19.118 42.618 42.616 42.618h129.363c47.142 29.042 108.363 28.078 154.992-4.602l28.453 28.552c-4.439 16.751-.169 35.364 12.905 48.477l43.121 43.275c19.562 19.618 51.224 19.629 70.797 0 .002-.005.007-.01.01-.01 19.488-19.608 19.485-51.466-.005-71.01-27.608-27.673-40.668-41.025-44.617-44.682zm6.906-224.33c15.194 0 27.557 12.363 27.557 27.559v154.153c0 15.196-12.363 27.559-27.557 27.559h-57.208l-24.969-25.07c38.628-55.613 33.631-134.27-18.572-184.202h100.749zM50.18 307.557c-15.194 0-27.557-12.363-27.557-27.559V125.845c0-15.196 12.363-27.559 27.557-27.559h105.57c-59.624 57.058-58.644 153.637 3.608 209.272H50.18zm113.758-16.358c-49.412-49.608-49.412-130.315-.002-179.914 49.545-49.692 129.675-49.704 179.232 0 49.459 49.599 49.459 130.305 0 179.909-49.547 49.684-129.669 49.698-179.23.005zm205.609 40.619-23.076-23.157c5.653-4.934 9.277-8.574 14.141-14.185l23.075 23.168a50.23 50.23 0 0 0-14.14 14.174zm109.6 95.868c-13.684 13.715-35.787 13.717-49.469 0l-43.118-43.27c-13.677-13.721-13.677-36.04-.007-49.75 13.783-13.788 35.941-13.677 49.523-.01l43.074 43.275c13.654 13.691 13.652 36.01-.003 49.755z" fill="#000000" opacity="1" data-original="#000000" class=""></path><path d="M96.582 234.62H81.276v-63.412a7.535 7.535 0 0 0-4.654-6.961 7.538 7.538 0 0 0-8.208 1.647l-26.902 26.995a7.527 7.527 0 0 0 .02 10.647c2.944 2.941 7.713 2.922 10.647-.02l14.039-14.088v45.192H50.285a7.53 7.53 0 0 0 0 15.058h46.297a7.53 7.53 0 0 0 0-15.058zM278.118 234.62h-15.307v-63.412a7.535 7.535 0 0 0-4.654-6.961 7.536 7.536 0 0 0-8.208 1.647l-26.902 26.995a7.527 7.527 0 0 0 .02 10.647c2.944 2.941 7.713 2.922 10.647-.02l14.039-14.088v45.192h-15.932a7.53 7.53 0 0 0 0 15.058h46.297a7.53 7.53 0 0 0 0-15.058zM182.951 163.443c-16.718 0-30.319 13.579-30.319 30.265v25.902c0 16.716 13.601 30.319 30.319 30.319 16.689 0 30.267-13.603 30.267-30.319v-25.902c0-16.68-13.573-30.265-30.267-30.265zm15.208 56.167c0 8.417-6.824 15.26-15.208 15.26-8.414 0-15.26-6.843-15.26-15.26v-25.902c0-8.382 6.846-15.206 15.26-15.206 8.241 0 15.208 6.737 15.208 15.206zM323.55 163.443c-16.689 0-30.267 13.579-30.267 30.265v25.902c0 16.716 13.579 30.319 30.267 30.319 16.718 0 30.319-13.603 30.319-30.319v-25.902c0-16.653-13.528-30.265-30.319-30.265zm15.26 56.167c0 8.417-6.846 15.26-15.26 15.26-8.385 0-15.208-6.843-15.208-15.26v-25.902c0-8.382 6.824-15.206 15.208-15.206 8.419 0 15.26 6.843 15.26 15.206zM432.679 249.929c16.718 0 30.319-13.603 30.319-30.319v-25.902c0-16.653-13.534-30.265-30.319-30.265-16.691 0-30.27 13.579-30.27 30.265v25.902c0 16.716 13.578 30.319 30.27 30.319zm-15.211-56.221c0-8.382 6.824-15.206 15.211-15.206 8.461 0 15.26 6.877 15.26 15.206v25.902c0 8.417-6.846 15.26-15.26 15.26-8.387 0-15.211-6.843-15.211-15.26z" fill="#000000" opacity="1" data-original="#000000" class=""></path></g></svg>