<svg id="vector" xmlns="http://www.w3.org/2000/svg" width="24" height="24" viewBox="0 0 512 512"><path fill="#ed9700" d="M 32 382 L 480 382 L 480 392.597 C 480 397.211 478.165 401.64 474.903 404.903 C 471.64 408.165 467.211 410 462.597 410 L 49.403 410 C 44.789 410 40.36 408.165 37.097 404.903 C 33.835 401.64 32 397.211 32 392.597 L 32 382 Z" stroke-width="1" id="path_0"/><path fill="#ffb115" d="M 63.488 102 L 448.512 102 C 453.148 102 457.6 103.844 460.878 107.122 C 464.156 110.4 466 114.852 466 119.488 L 466 382 L 46 382 L 46 119.488 C 46 114.852 47.844 110.4 51.122 107.122 C 54.4 103.844 58.852 102 63.488 102 Z" stroke-width="1" id="path_1"/><path fill="#1299a0" d="M 444.997 123 L 444.997 381.999 L 66.997 381.999 L 66.997 123 Z" stroke-width="1" id="path_2"/><path fill="#ffefdc" d="M 364.406 303.272 C 358.819 303.331 353.285 302.175 348.189 299.884 C 338.721 295.53 323.726 283.078 329.666 248.624 C 334.471 220.764 344.749 203.944 360.21 198.632 C 382.13 191.108 404.01 210.736 404.932 211.575 C 406.674 213.204 407.706 215.455 407.803 217.838 C 407.9 220.22 407.055 222.548 405.451 224.313 C 403.848 226.078 401.612 227.142 399.231 227.274 C 396.849 227.405 394.51 226.593 392.722 225.015 C 388.597 221.308 375.783 212.453 366.073 215.816 C 357.616 218.75 351.043 231.497 347.563 251.71 C 345.529 263.502 345.304 278.572 355.777 283.39 C 366.753 288.442 386.233 281.647 396.611 269.117 C 397.831 267.634 399.491 266.576 401.351 266.095 C 403.21 265.615 405.175 265.737 406.961 266.444 C 408.746 267.15 410.263 268.406 411.29 270.028 C 412.317 271.651 412.804 273.559 412.679 275.475 C 412.554 277.391 411.824 279.22 410.594 280.695 C 400.163 293.295 381.753 303.27 364.406 303.272 Z M 301.368 255.679 C 296.699 250.589 290.334 246.884 283.478 244.189 C 285.318 242.89 287.009 241.391 288.52 239.721 C 290.918 237.089 292.72 233.97 293.803 230.577 C 294.886 227.185 295.225 223.599 294.796 220.064 C 291.971 193.456 255.594 189.387 234.631 191.174 C 232.516 191.35 230.528 192.264 229.018 193.755 C 227.507 195.246 226.567 197.221 226.363 199.334 C 226.158 201.446 226.703 203.565 227.9 205.318 C 229.097 207.07 230.873 208.348 232.915 208.926 C 230.727 229.662 231.093 262.765 231.467 279.456 C 229.647 280.029 228.053 281.163 226.915 282.696 C 225.777 284.228 225.152 286.081 225.129 287.99 C 225.106 289.898 225.687 291.766 226.788 293.325 C 227.89 294.884 229.456 296.056 231.262 296.672 C 234.388 297.742 254.199 304.278 273.035 304.275 C 282.042 304.275 290.825 302.783 297.455 298.48 C 304.305 294.036 308.337 287.156 309.099 278.595 C 309.52 274.445 309.049 270.253 307.715 266.3 C 306.382 262.348 304.218 258.726 301.369 255.679 Z M 276.746 221.985 C 276.905 222.992 276.831 224.022 276.529 224.995 C 276.227 225.969 275.705 226.86 275.003 227.599 C 270.423 232.721 259.035 235.436 249.531 236.471 C 249.761 226.464 250.229 216.819 251.093 209.414 C 262.58 210.344 275.836 213.424 276.746 221.984 Z M 291.014 276.985 C 290.677 280.752 289.087 282.265 287.574 283.246 C 280.468 287.871 263.954 286.329 249.716 283.036 C 249.561 276.926 249.356 266.796 249.341 255.554 C 262.951 256.692 280.895 260.208 287.999 267.966 C 289.147 269.146 290.015 270.57 290.536 272.131 C 291.058 273.693 291.221 275.352 291.013 276.985 Z M 195.246 254.78 C 195.156 252.953 194.52 251.195 193.419 249.734 C 192.319 248.274 190.805 247.176 189.074 246.586 C 182.869 220.844 170.771 193.287 147.391 194.794 C 124.509 196.281 112.226 227.747 105.785 255.921 C 103.919 257.241 102.624 259.223 102.165 261.462 C 101.706 263.701 102.117 266.033 103.313 267.981 C 100.917 281.137 99.783 292.292 99.353 297.337 C 99.216 298.924 99.5 300.52 100.176 301.963 C 100.852 303.406 101.896 304.645 103.203 305.556 C 104.51 306.467 106.034 307.018 107.622 307.153 C 107.887 307.177 108.148 307.189 108.408 307.189 C 110.679 307.186 112.868 306.331 114.539 304.794 C 116.211 303.257 117.246 301.148 117.438 298.885 C 118.277 289.456 119.591 280.075 121.375 270.779 C 132.175 269.109 151.929 266.388 174.13 264.907 C 175.534 272.765 176.564 280.679 177.12 287.981 C 177.316 290.37 178.451 292.586 180.274 294.142 C 182.097 295.699 184.463 296.472 186.853 296.291 C 189.243 296.111 191.467 294.991 193.036 293.178 C 194.604 291.366 195.393 289.004 195.228 286.613 C 194.588 278.333 193.575 270.085 192.192 261.896 C 193.198 261.011 193.994 259.913 194.522 258.683 C 195.05 257.452 195.298 256.118 195.246 254.78 Z M 125.746 251.763 C 131.473 230.61 139.492 213.503 148.573 212.913 C 157.436 212.363 164.974 227.714 170.157 246.976 C 152.557 248.229 136.817 250.179 125.745 251.763 Z M 345.83 360.999 L 415.79 360.999 C 416.723 360.999 417.619 361.37 418.278 362.03 C 418.938 362.689 419.309 363.585 419.309 364.518 L 419.309 378.482 C 419.309 379.414 418.938 380.31 418.279 380.969 C 417.62 381.628 416.724 381.999 415.792 381.999 L 345.828 381.999 C 344.895 381.999 343.999 381.628 343.34 380.968 C 342.68 380.309 342.309 379.413 342.309 378.48 L 342.309 364.52 C 342.309 363.902 342.471 363.295 342.78 362.759 C 343.089 362.224 343.534 361.779 344.069 361.47 C 344.605 361.161 345.212 360.999 345.83 360.999 Z" stroke-width="1" id="path_3"/></svg>