<svg id="vector" xmlns="http://www.w3.org/2000/svg" width="100" height="100" viewBox="0 0 30 30"><path fill="#494c4e" d="M 12.855 10.064 C 12.35 10.227 12 10.744 12 11.312 L 12 18.686 C 12 19.26 12.354 19.78 12.86 19.94 C 13.37 20.1 13.943 19.936 14.436 19.533 L 17.998 16.615 C 18.583 16.135 18.998 15.623 19 15 C 19.002 14.377 18.585 13.855 17.994 13.38 C 17.364 12.874 15.624 11.437 14.436 10.463 C 13.939 10.056 13.361 9.901 12.856 10.063 Z M 13.803 11.24 C 14.989 12.21 16.72 13.64 17.367 14.16 C 17.852 14.55 18.001 14.828 18 15 C 18 15.172 17.845 15.445 17.363 15.84 L 13.803 18.758 C 13.363 19.198 13 18.941 13 18.686 L 13 11.312 C 13 10.769 13.476 10.912 13.803 11.24 Z M 1.5 4 C 0.678 4 0 4.678 0 5.5 L 0 24.5 C 0 25.322 0.678 26 1.5 26 L 28.5 26 C 29.322 26 30 25.322 30 24.5 L 30 5.5 C 30 4.678 29.322 4 28.5 4 L 1.5 4 Z M 1.5 5 L 28.5 5 C 28.786 5 29 5.214 29 5.5 L 29 24.5 C 29 24.786 28.786 25 28.5 25 L 1.5 25 C 1.214 25 1 24.786 1 24.5 L 1 5.5 C 1 5.214 1.214 5 1.5 5 Z" stroke-width="1" id="path_0"/></svg>