<svg xmlns="http://www.w3.org/2000/svg" version="1.1" xmlns:xlink="http://www.w3.org/1999/xlink" width="512" height="512" x="0" y="0" viewBox="0 0 512 512" style="enable-background:new 0 0 512 512" xml:space="preserve" class=""><g><path d="M278.617 256h75.14v241H158.243V256h79.468" style="stroke-width:30;stroke-miterlimit:10;" fill="none" stroke="#000000" stroke-width="30" stroke-miterlimit="10" data-original="#000000" class=""></path><path d="M46.589 385.346h153.199v70.109H46.589z" style="stroke-width:30;stroke-miterlimit:10;" transform="rotate(-90 123.188 420.4)" fill="none" stroke="#000000" stroke-width="30" stroke-miterlimit="10" data-original="#000000" class=""></path><path d="M312.212 385.346h153.199v70.109H312.212z" style="stroke-width:30;stroke-miterlimit:10;" transform="rotate(-90 388.812 420.4)" fill="none" stroke="#000000" stroke-width="30" stroke-miterlimit="10" data-original="#000000" class=""></path><path d="M256 15c-57.944 0-104.917 46.973-104.917 104.917 0 25.959 9.428 49.716 25.046 68.035C195.373 210.522 256 275.764 256 275.764s60.627-65.242 79.871-87.812c15.618-18.318 25.046-42.075 25.046-68.035C360.917 61.973 313.944 15 256 15z" style="stroke-width:30;stroke-miterlimit:10;" fill="none" stroke="#000000" stroke-width="30" stroke-miterlimit="10" data-original="#000000" class=""></path><circle cx="256" cy="119.917" r="36.391" style="stroke-width:30;stroke-miterlimit:10;" fill="none" stroke="#000000" stroke-width="30" stroke-miterlimit="10" data-original="#000000" class=""></circle><path d="M219.609 364.801v-30M292.391 364.801v-30M219.609 440.909v-30M292.391 440.909v-30" style="stroke-width:30;stroke-miterlimit:10;" fill="none" stroke="#000000" stroke-width="30" stroke-miterlimit="10" data-original="#000000" class=""></path></g></svg>