<svg xmlns="http://www.w3.org/2000/svg" version="1.1" xmlns:xlink="http://www.w3.org/1999/xlink" width="512" height="512" x="0" y="0" viewBox="0 0 24 24" style="enable-background:new 0 0 512 512" xml:space="preserve" class=""><g><linearGradient id="a" x1="3.577" x2="20.158" y1="25.159" y2="3.272" gradientUnits="userSpaceOnUse"><stop offset="0" stop-color="#fff33b"></stop><stop offset=".04" stop-color="#fee72e"></stop><stop offset=".117" stop-color="#fed51b"></stop><stop offset=".196" stop-color="#fdca10"></stop><stop offset=".281" stop-color="#fdc70c"></stop><stop offset=".669" stop-color="#f3903f"></stop><stop offset=".888" stop-color="#ed683c"></stop><stop offset="1" stop-color="#e93e3a"></stop></linearGradient><linearGradient xlink:href="#a" id="b" x1="-.774" x2="15.806" y1="21.862" y2="-.024"></linearGradient><linearGradient xlink:href="#a" id="c" x1="2.046" x2="18.627" y1="23.999" y2="2.113"></linearGradient><linearGradient xlink:href="#a" id="d" x1="4.588" x2="21.168" y1="25.924" y2="4.038"></linearGradient><path fill="url(#a)" d="M19 7a1 1 0 0 0-1 1v11.191A1.92 1.92 0 0 1 15.99 21H8.01A1.92 1.92 0 0 1 6 19.191V8a1 1 0 0 0-2 0v11.191A3.918 3.918 0 0 0 8.01 23h7.98A3.918 3.918 0 0 0 20 19.191V8a1 1 0 0 0-1-1z" opacity="1" data-original="url(#a)"></path><path fill="url(#b)" d="M20 4h-4V2a1 1 0 0 0-1-1H9a1 1 0 0 0-1 1v2H4a1 1 0 0 0 0 2h16a1 1 0 0 0 0-2zM10 4V3h4v1z" opacity="1" data-original="url(#b)"></path><path fill="url(#c)" d="M11 17v-7a1 1 0 0 0-2 0v7a1 1 0 0 0 2 0z" opacity="1" data-original="url(#c)"></path><path fill="url(#d)" d="M15 17v-7a1 1 0 0 0-2 0v7a1 1 0 0 0 2 0z" opacity="1" data-original="url(#d)"></path></g></svg>