<svg xmlns="http://www.w3.org/2000/svg" version="1.1" xmlns:xlink="http://www.w3.org/1999/xlink" width="512" height="512" x="0" y="0" viewBox="0 0 512 512" style="enable-background:new 0 0 512 512" xml:space="preserve" class=""><g><path fill="#d06dca" d="M498.938 60.202v258.161c0 26.907-21.812 48.719-48.719 48.719H61.782c-26.907 0-48.719-21.812-48.719-48.719V60.202c0-26.907 21.812-48.719 48.719-48.719h388.437c26.907 0 48.719 21.812 48.719 48.719z" opacity="1" data-original="#d06dca"></path><path fill="#9b5297" d="M498.855 321.335c-1.516 25.527-22.74 45.725-48.659 45.725H61.805c-26.946 0-48.757-21.811-48.757-48.708V60.19c0-25.87 20.197-47.045 45.725-48.61a58.703 58.703 0 0 0-.098 2.983v258.161c0 26.897 21.811 48.708 48.708 48.708h388.44a59.442 59.442 0 0 0 3.032-.097z" opacity="1" data-original="#9b5297" class=""></path><path fill="#ffffff" d="M71.138 277.332V101.234c17.495 0 31.677-14.182 31.677-31.677h306.373c0 17.495 14.182 31.677 31.677 31.677v176.098c-17.495 0-31.677 14.182-31.677 31.677H102.814c0-17.495-14.182-31.677-31.676-31.677z" opacity="1" data-original="#ffffff" class=""></path><path fill="#bae3f5" d="M255.561 309.011H102.835c0-17.507-14.182-31.689-31.689-31.689V101.22c17.508 0 31.689-14.182 31.689-31.64h32.325c-5.379 17.801-8.265 36.727-8.265 56.288.001 84.358 53.648 156.149 128.666 183.143z" opacity="1" data-original="#bae3f5" class=""></path><path fill="#6db02f" d="M298.025 402.014v98.504l-42.024-46.03-42.025 46.03v-98.504z" opacity="1" data-original="#6db02f"></path><path fill="#fcd230" d="m336.862 366.606.52 3.64a19.364 19.364 0 0 1-11.973 20.714l-3.387 1.356a19.364 19.364 0 0 0-10.78 10.78l-1.353 3.38a19.363 19.363 0 0 1-20.723 11.971l-3.628-.52a19.37 19.37 0 0 0-14.697 3.931l-2.897 2.272a19.364 19.364 0 0 1-23.9 0l-2.902-2.276a19.364 19.364 0 0 0-14.687-3.933l-3.64.52a19.364 19.364 0 0 1-20.714-11.973l-1.357-3.389a19.366 19.366 0 0 0-10.777-10.779l-3.378-1.353a19.364 19.364 0 0 1-11.969-20.714l.518-3.628a19.364 19.364 0 0 0-3.933-14.689l-2.275-2.901a19.364 19.364 0 0 1 0-23.9l2.275-2.901a19.367 19.367 0 0 0 3.933-14.689l-.518-3.625a19.364 19.364 0 0 1 11.972-20.715l3.386-1.356a19.364 19.364 0 0 0 10.78-10.78l1.356-3.386a19.363 19.363 0 0 1 20.715-11.972l3.625.518a19.364 19.364 0 0 0 14.689-3.933l2.901-2.275a19.364 19.364 0 0 1 23.9 0l2.902 2.276a19.364 19.364 0 0 0 14.687 3.933l3.64-.52a19.364 19.364 0 0 1 20.714 11.973l1.354 3.382a19.36 19.36 0 0 0 10.789 10.783l3.371 1.348a19.363 19.363 0 0 1 11.981 20.717l-.519 3.633a19.364 19.364 0 0 0 3.933 14.687l2.276 2.901a19.364 19.364 0 0 1 0 23.9l-2.276 2.901a19.378 19.378 0 0 0-3.934 14.691z" opacity="1" data-original="#fcd230" class=""></path><path fill="#efb000" d="M273.645 420.008c-.999.526-1.92 1.157-2.814 1.841l-2.893 2.288a19.387 19.387 0 0 1-23.903 0l-2.893-2.288a19.297 19.297 0 0 0-14.699-3.918l-3.629.5c-8.835 1.262-17.408-3.681-20.721-11.965l-1.341-3.392a19.386 19.386 0 0 0-10.781-10.781l-3.392-1.341c-8.283-3.313-13.227-11.886-11.965-20.721l.526-3.629a19.368 19.368 0 0 0-3.944-14.673l-2.261-2.919c-5.496-6.995-5.496-16.882 0-23.903l2.261-2.893a19.39 19.39 0 0 0 3.944-14.673l-.526-3.629c-1.262-8.836 3.681-17.408 11.965-20.721l.053-.026a110.071 110.071 0 0 0-3.839 28.873c0 54.116 39.26 99.082 90.852 107.97z" opacity="1" data-original="#efb000" class=""></path><path fill="#ffffff" d="M303.046 337.069c0 25.986-21.063 47.041-47.049 47.041-25.978 0-47.041-21.055-47.041-47.041 0-25.978 21.063-47.041 47.041-47.041 25.986 0 47.049 21.062 47.049 47.041z" opacity="1" data-original="#ffffff" class=""></path><path fill="#bae3f5" d="M296.921 360.261c-8.063 14.251-23.377 23.856-40.92 23.856-25.981 0-47.046-21.064-47.046-47.046 0-17.543 9.605-32.857 23.856-40.92a46.683 46.683 0 0 0-6.126 23.19c0 25.982 21.064 47.046 47.046 47.046 8.439-.001 16.356-2.23 23.19-6.126z" opacity="1" data-original="#bae3f5" class=""></path><path d="M503.828 318.362V60.2c0-29.557-24.048-53.608-53.61-53.608H61.782c-29.562 0-53.61 24.051-53.61 53.608v258.162c0 29.562 24.048 53.612 53.61 53.612H169.64c-.432 10.197 5.482 19.649 15.132 23.516l3.374 1.347a14.577 14.577 0 0 1 8.059 8.061l1.359 3.386c2.251 5.628 6.433 9.943 11.524 12.535v79.699a4.89 4.89 0 0 0 3.121 4.561c1.874.712 4.021.229 5.38-1.266l38.414-42.069 38.414 42.069a4.889 4.889 0 0 0 8.501-3.295V420.83c5.085-2.596 9.263-6.917 11.514-12.537l1.354-3.381a14.545 14.545 0 0 1 8.052-8.057l3.391-1.352c9.655-3.868 15.572-13.325 15.136-23.53h107.856c29.559.001 53.607-24.05 53.607-53.611zM293.135 487.91l-33.523-36.716a4.885 4.885 0 0 0-7.221 0l-33.523 36.716v-64.454c1.529.077 3.076.047 4.64-.171l3.639-.521a14.52 14.52 0 0 1 10.979 2.942l2.899 2.273a24.212 24.212 0 0 0 29.937 0l2.896-2.273c3.092-2.431 7.097-3.524 10.984-2.937l3.632.521c1.57.225 3.125.256 4.661.181zm30.462-101.489-3.396 1.356c-6.13 2.46-11.051 7.379-13.499 13.501l-1.352 3.376c-2.491 6.223-8.854 9.919-15.49 8.95l-3.63-.521c-6.514-.936-13.222.86-18.408 4.924l-2.899 2.273a14.44 14.44 0 0 1-17.866 0l-2.896-2.268c-5.043-3.962-11.676-5.873-18.398-4.933l-3.639.521a14.434 14.434 0 0 1-15.483-8.95l-1.359-3.391a24.386 24.386 0 0 0-13.499-13.501l-3.376-1.352a14.433 14.433 0 0 1-8.947-15.478l.518-3.63a24.344 24.344 0 0 0-4.924-18.396l-2.276-2.904a14.44 14.44 0 0 1 0-17.861l2.273-2.904a24.337 24.337 0 0 0 4.926-18.396l-.518-3.625a14.437 14.437 0 0 1 8.952-15.483l3.384-1.356a24.398 24.398 0 0 0 13.506-13.506l1.352-3.381a14.434 14.434 0 0 1 15.485-8.95l3.62.516c6.509.936 13.212-.864 18.403-4.924l2.899-2.273a14.417 14.417 0 0 1 17.864-.005l2.904 2.278c5.177 4.059 11.887 5.836 18.396 4.929l3.641-.521c6.636-.96 12.99 2.727 15.481 8.95l1.354 3.381a24.382 24.382 0 0 0 13.513 13.506l3.372 1.347a14.44 14.44 0 0 1 8.957 15.483l-.521 3.634a24.373 24.373 0 0 0 4.924 18.396l2.278 2.904a14.436 14.436 0 0 1-.002 17.861l-2.276 2.904a24.377 24.377 0 0 0-4.924 18.396l.521 3.639a14.442 14.442 0 0 1-8.945 15.484zm3.618-107.784-3.369-1.347a14.54 14.54 0 0 1-8.066-8.061l-1.354-3.376c-4.167-10.421-14.833-16.577-25.944-15.001l-3.639.521a14.544 14.544 0 0 1-10.977-2.942l-2.904-2.278a24.206 24.206 0 0 0-29.937.005l-2.896 2.273a14.62 14.62 0 0 1-10.984 2.937l-3.625-.516c-11.108-1.533-21.775 4.585-25.947 15.001l-1.352 3.381a14.536 14.536 0 0 1-8.061 8.057l-3.384 1.356c-10.268 4.114-16.369 14.54-15.023 25.474H107.38c-2.183-16.261-15.091-29.17-31.353-31.353V105.799c16.261-2.183 29.17-15.091 31.353-31.353h297.242c2.183 16.261 15.091 29.17 31.353 31.353v166.969c-16.261 2.182-29.17 15.091-31.353 31.353h-62.37c1.344-10.943-4.764-21.378-15.037-25.484zm123.003 83.556h-108.5c.311-2.621 1.276-5.152 2.925-7.254l2.273-2.904a24.193 24.193 0 0 0 .002-29.934l-2.276-2.904a14.493 14.493 0 0 1-2.605-5.296h67.149a4.888 4.888 0 0 0 4.89-4.89c0-14.771 12.016-26.787 26.787-26.787a4.888 4.888 0 0 0 4.89-4.89v-176.1c0-2.703-2.19-4.89-4.89-4.89-14.771 0-26.787-12.016-26.787-26.787 0-2.703-2.19-4.89-4.89-4.89H102.815a4.888 4.888 0 0 0-4.89 4.89c0 14.771-12.016 26.787-26.787 26.787a4.888 4.888 0 0 0-4.89 4.89v176.1c0 2.703 2.19 4.89 4.89 4.89 14.771 0 26.787 12.016 26.787 26.787 0 2.703 2.19 4.89 4.89 4.89h67.147a14.449 14.449 0 0 1-2.606 5.296l-2.276 2.904a24.204 24.204 0 0 0 0 29.934l2.278 2.904c1.648 2.101 2.612 4.634 2.924 7.254h-108.5c-24.168 0-43.829-19.662-43.829-43.832V60.2c0-24.165 19.662-43.827 43.829-43.827h388.437c24.168 0 43.829 19.662 43.829 43.827v258.162c0 24.17-19.662 43.831-43.83 43.831z" fill="#000000" opacity="1" data-original="#000000" class=""></path><path d="M156.418 136.459h199.167c2.701 0 4.89-2.187 4.89-4.89s-2.19-4.89-4.89-4.89H156.418c-2.701 0-4.89 2.187-4.89 4.89s2.189 4.89 4.89 4.89zM360.475 185.276c0-2.703-2.19-4.89-4.89-4.89H156.418c-2.701 0-4.89 2.187-4.89 4.89s2.19 4.89 4.89 4.89h199.167a4.888 4.888 0 0 0 4.89-4.89zM255.996 285.137c-28.635 0-51.931 23.296-51.931 51.931S227.361 389 255.996 389c28.64 0 51.938-23.296 51.938-51.931s-23.298-51.932-51.938-51.932zm0 94.082c-23.241 0-42.151-18.907-42.151-42.151 0-23.243 18.91-42.151 42.151-42.151 23.246 0 42.158 18.907 42.158 42.151s-18.912 42.151-42.158 42.151z" fill="#000000" opacity="1" data-original="#000000" class=""></path></g></svg>