<svg xmlns="http://www.w3.org/2000/svg" version="1.1" xmlns:xlink="http://www.w3.org/1999/xlink" width="512" height="512" x="0" y="0" viewBox="0 0 64 64" style="enable-background:new 0 0 512 512" xml:space="preserve" class=""><g><path d="M50.985 32.849C50.903 30.715 49.154 29 47 29h-.965c-1.995-1.282-4.731-2.705-7.297-2.948l-.566-1.699A9.013 9.013 0 0 0 41.768 19H43c1.654 0 3-1.346 3-3v-1c0-1.654-1.346-3-3-3h-1c0-5.514-4.486-10-10-10S22 6.486 22 12h-1c-1.654 0-3 1.346-3 3v1c0 1.654 1.346 3 3 3h1.232a9.017 9.017 0 0 0 3.596 5.353l-.566 1.699c-2.566.243-5.302 1.666-7.297 2.948H17c-2.154 0-3.903 1.715-3.985 3.849C9.082 36.466 5 41.726 5 46c0 2.757 2.243 5 5 5h3v3c0 1.474.81 2.75 2 3.444V61a1 1 0 0 0 1 1h32a1 1 0 0 0 1-1v-3.556c1.19-.694 2-1.97 2-3.444v-3h3c2.757 0 5-2.243 5-5 0-4.274-4.082-9.534-8.015-13.151zM42 14h1c.551 0 1 .449 1 1v1c0 .551-.449 1-1 1h-1zm-20 3h-1c-.551 0-1-.449-1-1v-1c0-.551.449-1 1-1h1zm28 32h-2c-.551 0-1-.449-1-1v-4c0-.551.449-1 1-1h2c1.654 0 3 1.346 3 3s-1.346 3-3 3zM38.209 28.013c1.04.039 2.287.384 3.655.987h-5.628zM32 28.882l-4.777-2.388.387-1.161A8.962 8.962 0 0 0 31 26h2c1.199 0 2.342-.24 3.39-.668l.387 1.161zM32 4c4.072 0 7.436 3.06 7.931 7H32c-1.103 0-2-.897-2-2a1 1 0 0 0-2 0c0 1.103-.897 2-2 2h-1.931c.495-3.94 3.859-7 7.931-7zm-8 13v-4h2a3.99 3.99 0 0 0 3-1.357A3.99 3.99 0 0 0 32 13h8v4c0 3.86-3.14 7-7 7h-2c-3.86 0-7-3.14-7-7zm1.791 11.013 1.973.987h-5.628c1.368-.603 2.614-.947 3.655-.987zM14 49c-1.654 0-3-1.346-3-3s1.346-3 3-3h2c.551 0 1 .449 1 1v4c0 .551-.449 1-1 1zm-7-3c0-2.69 2.304-6.618 6-10.364v5.465A5.01 5.01 0 0 0 9 46c0 1.13.391 2.162 1.026 3H10c-1.654 0-3-1.346-3-3zm40 14H17v-2h30zm0-4H17c-1.103 0-2-.897-2-2v-3h1c1.654 0 3-1.346 3-3v-4c0-1.654-1.346-3-3-3h-1v-8c0-1.103.897-2 2-2h30c1.103 0 2 .897 2 2v8h-1c-1.654 0-3 1.346-3 3v4c0 1.654 1.346 3 3 3h1v3c0 1.103-.897 2-2 2zm7-7h-.026A4.948 4.948 0 0 0 55 46a5.01 5.01 0 0 0-4-4.899v-5.465c3.696 3.746 6 7.674 6 10.364 0 1.654-1.346 3-3 3zM34 17v-1a1 1 0 0 1 2 0v1a1 1 0 0 1-2 0zm-6 0v-1a1 1 0 0 1 2 0v1a1 1 0 0 1-2 0zm.498 28.865a1 1 0 0 0 .998.003l7-4a.999.999 0 0 0 0-1.736l-7-4A1 1 0 0 0 28 37v8c0 .356.19.686.498.865zM30 38.723 33.984 41 30 43.277zM47 53a1 1 0 0 1-1 1h-4a1 1 0 0 1-2 0H18a1 1 0 0 1 0-2h22a1 1 0 0 1 2 0h4a1 1 0 0 1 1 1z" fill="#000000" opacity="1" data-original="#000000" class=""></path></g></svg>