<svg id="vector" xmlns="http://www.w3.org/2000/svg" width="20" height="20" viewBox="0 0 20 20"><path fill="#494c4e" d="M3.49701,15.6017 C3.88363,15.6017,4.19705,15.9147,4.19705,16.3008 C4.19705,16.687,3.88363,17,3.49701,17 L0.700449,17 C0.313828,17,0.000408959,16.687,0.000408959,16.3008 C0.000408959,15.9147,0.313828,15.6017,0.700449,15.6017 L3.49701,15.6017 Z M19.3,15.6017 C19.6866,15.6017,20,15.9147,20,16.3008 C20,16.687,19.6866,17,19.3,17 L5.5287,17 C5.14208,17,4.82866,16.687,4.82866,16.3008 C4.82866,15.9147,5.14208,15.6017,5.5287,15.6017 L19.3,15.6017 Z M3.4966,9.33431 C3.88322,9.33431,4.19664,9.64733,4.19664,10.0335 C4.19664,10.4196,3.88322,10.7326,3.4966,10.7326 L0.70004,10.7326 C0.313419,10.7326,-1.79412e-12,10.4196,-1.79412e-12,10.0335 C-1.79412e-12,9.64733,0.313419,9.33431,0.70004,9.33431 L3.4966,9.33431 Z M19.2996,9.33431 C19.6862,9.33431,19.9996,9.64733,19.9996,10.0335 C19.9996,10.4196,19.6862,10.7326,19.2996,10.7326 L5.52829,10.7326 C5.14167,10.7326,4.82825,10.4196,4.82825,10.0335 C4.82825,9.64733,5.14167,9.33431,5.52829,9.33431 L19.2996,9.33431 Z M3.4966,3 C3.88322,3,4.19664,3.31302,4.19664,3.69916 C4.19664,4.08529,3.88322,4.39831,3.4966,4.39831 L0.70004,4.39831 C0.313419,4.39831,-1.79412e-12,4.08529,-1.79412e-12,3.69916 C-1.79412e-12,3.31302,0.313419,3,0.70004,3 L3.4966,3 Z M19.2996,3 C19.6862,3,19.9996,3.31302,19.9996,3.69916 C19.9996,4.08529,19.6862,4.39831,19.2996,4.39831 L5.52829,4.39831 C5.14167,4.39831,4.82825,4.08529,4.82825,3.69916 C4.82825,3.31302,5.14167,3,5.52829,3 L19.2996,3 Z" id="path_0"/></svg>