<svg id="vector" xmlns="http://www.w3.org/2000/svg" width="24" height="24" viewBox="0 0 46 46"><path fill="#494c4e" fill-rule="evenodd" d="M47,40 L47,40 A5,5,0,0,1,42,45 L6,45 A5,5,0,0,1,1,40 L1,11 A4,4,0,0,1,5,7 L25.171,7 L33.271,4.066 A0.99,0.99,0,0,1,34.539,4.655 L35.391,7 L39,7 A4,4,0,0,1,43,11 L43,13 L43,13 A4,4,0,0,1,47,17 Z M5,9 L5,9 A2,2,0,0,0,5,13 L8.634,13 C8.647,12.995,8.655,12.984,8.668,12.979 L19.65,9 Z M34.078,9.181 L33.016,6.257 L33.016,6.257 L30.964,7 L30.964,7 L25.453,9 L25.443,9 L14.4,13 L35.466,13 Z M41,11 A2,2,0,0,0,39,9 L36.117,9 L37.571,13 L41,13 Z M43,15 L5,15 A3.955,3.955,0,0,1,3,14.445 L3,40 A3,3,0,0,0,6,43 L42,43 A3,3,0,0,0,45,40 L45,33 L41,33 A4,4,0,0,1,41,25 L45,25 L45,17 A2,2,0,0,0,43,15 Z M45,31 L45,27 L41,27 A2,2,0,0,0,41,31 Z M41,28 L43,28 L43,30 L41,30 Z" id="path_0"/></svg>