<svg xmlns="http://www.w3.org/2000/svg" version="1.1" xmlns:xlink="http://www.w3.org/1999/xlink" width="512" height="512" x="0" y="0" viewBox="0 0 64 64" style="enable-background:new 0 0 512 512" xml:space="preserve" class=""><g><g data-name="Artboard 02"><path fill="#36393f" d="M54 62h4a4 4 0 0 0 4-4V6a4 4 0 0 0-4-4h-4z" opacity="1" data-original="#36393f"></path><path fill="#2b2e33" d="M26 46v12a4 4 0 0 0 4 4h24a4 4 0 0 0 4-4V6a4 4 0 0 0-4-4H30a4 4 0 0 0-4 4z" opacity="1" data-original="#2b2e33" class=""></path><rect width="30" height="58" x="27" y="3" fill="#eaebef" rx="3" opacity="1" data-original="#eaebef" class=""></rect><path fill="#f6f8ff" d="M54 3H34.1A3.1 3.1 0 0 0 31 6.1v39.357A9.544 9.544 0 0 0 40.543 55h11.6A4.858 4.858 0 0 0 57 50.141V6a3 3 0 0 0-3-3z" opacity="1" data-original="#f6f8ff" class=""></path><path fill="#2b2e33" d="m34 2 1 4h14l1-4z" opacity="1" data-original="#2b2e33" class=""></path><path fill="#1cb15f" d="M35.511 42H49a1 1 0 0 1 1 1v4a1 1 0 0 1-1 1H37.9z" opacity="1" data-original="#1cb15f" class=""></path><path fill="#f4c8ad" d="m26 38-4.26 2.569a1.49 1.49 0 0 0-.74 1.287v7.432a1.722 1.722 0 0 0 2.834 1.312l9.19-7.777A3.49 3.49 0 0 1 35.278 42h.233A3.489 3.489 0 0 1 39 45.489a3.488 3.488 0 0 1-1.1 2.545L24.85 60.266A6.415 6.415 0 0 1 20.464 62H2V48l3.167-.633a4.663 4.663 0 0 0 2.9-1.9l4.694-6.706a8.989 8.989 0 0 1 3.139-2.774l6.268-4.4a3.22 3.22 0 0 1 1.85-.587H26z" opacity="1" data-original="#f4c8ad"></path><path fill="#f2b9a1" d="M39 45.489a3.476 3.476 0 0 0-3.115-3.451l.1.723a6.085 6.085 0 0 1-1.946 5.359l-9.685 8.751a7.484 7.484 0 0 1-5.02 1.929h-5.66a6.456 6.456 0 0 1-6.457-6.456v-5.977a4.639 4.639 0 0 1-2.05 1L2 48v14h18.464a6.415 6.415 0 0 0 4.386-1.734L37.9 48.034a3.488 3.488 0 0 0 1.1-2.545zM22.277 37.055A2.855 2.855 0 0 0 21 39.435v2.421a1.49 1.49 0 0 1 .74-1.287L26 38v-2.927z" opacity="1" data-original="#f2b9a1"></path><rect width="9" height="5" x="40" y="42" fill="#27d674" rx="2.5" opacity="1" data-original="#27d674" class=""></rect><circle cx="42" cy="23" r="9" fill="#eaebef" opacity="1" data-original="#eaebef" class=""></circle><circle cx="42" cy="21" r="9" fill="#1cb15f" opacity="1" data-original="#1cb15f" class=""></circle><ellipse cx="42" cy="18.5" fill="#27d674" rx="8" ry="6.5" opacity="1" data-original="#27d674" class=""></ellipse><path fill="#f6f8ff" d="M4.794 44.175a1 1 0 0 1-.818-1.575l2.205-3.15a1 1 0 0 1 1.638 1.15l-2.2 3.15a1 1 0 0 1-.825.425zm4.694-6.706A1 1 0 0 1 8.67 35.9a14.085 14.085 0 0 1 4.578-4.156l3.641-2.557a1 1 0 1 1 1.15 1.636L14.368 33.4l-.056.038a.694.694 0 0 1-.052.03 12.064 12.064 0 0 0-3.951 3.578 1 1 0 0 1-.821.423zM41 26a1 1 0 0 1-.707-.293l-3-3a1 1 0 0 1 1.414-1.414l2.236 2.236 5.3-6.18a1 1 0 0 1 1.518 1.3l-6 7a1 1 0 0 1-.72.348z" opacity="1" data-original="#f6f8ff" class=""></path><path fill="#1cb15f" d="M52 35H32a1 1 0 0 1 0-2h20a1 1 0 0 1 0 2zM48 39H36a1 1 0 0 1 0-2h12a1 1 0 0 1 0 2z" opacity="1" data-original="#1cb15f" class=""></path><rect width="10" height="2" x="37" y="37" fill="#27d674" rx="1" opacity="1" data-original="#27d674" class=""></rect><rect width="18" height="2" x="33" y="33" fill="#27d674" rx="1" opacity="1" data-original="#27d674" class=""></rect><ellipse cx="42" cy="15" fill="#d4f7e3" rx="3" ry="2" opacity="1" data-original="#d4f7e3"></ellipse><rect width="4" height="52" x="58" y="6" fill="#3f4349" rx="2" opacity="1" data-original="#3f4349"></rect></g></g></svg>