<?xml version="1.0" encoding="iso-8859-1"?>
<!-- Generator: Adobe Illustrator 19.0.0, SVG Export Plug-In . SVG Version: 6.00 Build 0)  -->
<!-- License: CC0. Made by SVG Repo: https://www.svgrepo.com/svg/202960/image -->
<svg version="1.1" id="Layer_1" xmlns="http://www.w3.org/2000/svg" xmlns:xlink="http://www.w3.org/1999/xlink" x="0px" y="0px"
	 viewBox="0 0 512.001 512.001" style="enable-background:new 0 0 512.001 512.001;" xml:space="preserve">
<path style="fill:#F95428;" d="M356.914,375.668c2.892,6.104,6.846,11.721,11.76,16.635c11.26,11.248,26.219,17.454,42.137,17.454
	c15.931,0,30.89-6.206,42.15-17.454c4.978-4.978,8.88-10.608,11.721-16.635c10.454-22.124,6.539-49.393-11.721-67.652
	c-11.26-11.26-26.219-17.454-42.15-17.454c-15.918,0-30.877,6.193-42.137,17.454c-11.26,11.26-17.454,26.219-17.454,42.137
	C351.22,359.123,353.19,367.799,356.914,375.668z M477.478,287.35c33.858,35.906,33.231,92.438-1.894,127.576
	c-35.778,35.765-93.756,35.765-129.534,0c-18.401-18.413-27.332-42.7-26.795-66.808c0.282-12.911,3.289-25.784,9.008-37.671
	c4.351-9.06,10.288-17.543,17.786-25.055c8.266-8.266,17.722-14.626,27.819-19.066c33.577-14.792,74.204-8.433,101.715,19.066
	C476.224,286.032,476.863,286.698,477.478,287.35z"/>
<path style="fill:#F7B239;" d="M346.242,70.484c27.921,0,50.544,22.623,50.544,50.544c0,27.908-22.623,50.544-50.544,50.544
	c-27.908,0-50.544-22.636-50.544-50.544C295.698,93.107,318.334,70.484,346.242,70.484z"/>
<g>
	<path style="fill:#2BA5F7;" d="M452.961,308.016c18.26,18.26,22.175,45.528,11.721,67.652h-35.906l-60.103-67.652
		c11.26-11.26,26.219-17.454,42.137-17.454C426.742,290.562,441.7,296.755,452.961,308.016z"/>
	<path style="fill:#2BA5F7;" d="M477.478,17.38v269.97c-0.614-0.653-1.254-1.318-1.894-1.958
		c-27.511-27.499-68.139-33.858-101.715-19.066l-55.176-60.717l-42.854,47.166l-84.748-93.232L19.675,348.118H9.592V17.38H477.478z
		 M396.786,121.028c0-27.921-22.623-50.544-50.544-50.544c-27.908,0-50.544,22.623-50.544,50.544
		c0,27.908,22.636,50.544,50.544,50.544C374.163,171.572,396.786,148.936,396.786,121.028z"/>
</g>
<g>
	<path style="fill:#F7B239;" d="M368.673,308.016l60.103,67.652h-71.862c-3.724-7.87-5.694-16.545-5.694-25.515
		C351.22,334.235,357.413,319.276,368.673,308.016z"/>
	<path style="fill:#F7B239;" d="M318.692,205.609l55.176,60.717c-10.096,4.44-19.552,10.8-27.818,19.066
		c-7.498,7.511-13.436,15.995-17.786,25.055l-52.425-57.672L318.692,205.609z"/>
	<path style="fill:#F7B239;" d="M275.838,252.775l52.425,57.672c-5.72,11.887-8.727,24.76-9.008,37.671H189.158H19.675
		L191.09,159.544L275.838,252.775z"/>
</g>
<g>
	<path style="fill:#333333;" d="M346.242,181.165c33.162,0,60.141-26.979,60.141-60.141s-26.979-60.141-60.141-60.141
		s-60.141,26.979-60.141,60.141S313.08,181.165,346.242,181.165z M346.242,80.077c22.579,0,40.947,18.369,40.947,40.947
		s-18.369,40.947-40.947,40.947s-40.947-18.369-40.947-40.947S323.665,80.077,346.242,80.077z"/>
	<path style="fill:#333333;" d="M487.076,283.691V17.376c0-5.3-4.296-9.597-9.597-9.597H9.597C4.297,7.779,0,12.076,0,17.376
		v330.745c0,5.3,4.297,9.597,9.597,9.597H19.68h290.308c1.51,20.335,9.108,40.292,22.823,56.872l-73.248,73.249
		c-3.748,3.748-3.748,9.825,0,13.571c1.875,1.873,4.331,2.811,6.787,2.811c2.456,0,4.912-0.937,6.787-2.811l73.248-73.248
		c18.632,15.413,41.528,23.133,64.432,23.133c25.911,0,51.823-9.863,71.549-29.589c19.111-19.111,29.636-44.52,29.636-71.549
		C512,325.454,503.182,302.117,487.076,283.691z M467.882,26.973v239.649c-27.106-18.531-61.276-22.417-91.346-11.639
		l-50.739-55.833c-1.82-2.001-4.399-3.143-7.103-3.143c-2.704,0-5.283,1.141-7.103,3.143l-35.76,39.348l-77.642-85.412
		c-1.818-2-4.398-3.141-7.102-3.141c-2.704,0-5.282,1.141-7.102,3.143L19.194,334.388V26.973H467.882z M326.491,294.227
		l-37.688-41.46l29.893-32.892l39.737,43.726c-6.827,4.131-13.276,9.121-19.165,15.01
		C334.408,283.47,330.153,288.709,326.491,294.227z M41.373,338.524l149.716-164.713l125.896,138.495
		c-3.397,8.456-5.587,17.281-6.613,26.218H41.373z M468.792,408.134c-15.985,15.986-36.977,23.978-57.976,23.976
		c-20.993-0.001-41.994-7.995-57.976-23.976c-31.967-31.968-31.967-83.984,0-115.952c15.983-15.983,36.979-23.976,57.976-23.976
		s41.991,7.992,57.976,23.976c15.487,15.486,24.016,36.076,24.016,57.976C492.806,372.058,484.277,392.648,468.792,408.134z"/>
	<path style="fill:#333333;" d="M459.745,301.231c-13.07-13.069-30.446-20.266-48.928-20.266s-35.858,7.198-48.928,20.266
		c-13.069,13.069-20.266,30.446-20.266,48.928s7.198,35.858,20.266,48.927c13.07,13.07,30.447,20.268,48.928,20.268
		s35.858-7.198,48.928-20.268C486.723,372.108,486.723,328.209,459.745,301.231z M446.171,314.803
		c13.843,13.843,17.845,33.848,12.028,51.265h-25.112L382.4,309.016c8.291-5.752,18.111-8.859,28.416-8.859
		C424.172,300.159,436.728,305.359,446.171,314.803z M368.962,322.79l38.451,43.279h-44.011c-1.693-5.062-2.587-10.416-2.587-15.909
		C360.815,340.286,363.665,330.855,368.962,322.79z M410.816,400.16c-13.355,0-25.912-5.202-35.355-14.645
		c-0.082-0.082-0.159-0.169-0.241-0.252h71.189c-0.082,0.083-0.157,0.169-0.239,0.252
		C436.728,394.958,424.171,400.16,410.816,400.16z"/>
</g>
</svg>
