<svg id="vector" xmlns="http://www.w3.org/2000/svg" width="24" height="24" viewBox="0 0 115 115"><g id="group"/><g id="wallet_1_"><path fill="#96ceb4" d="M 75.198 1.546 C 74.161 -0.035 72.038 -0.476 70.457 0.561 L 24.617 30.631 L 42.822 24.081 C 44.509 22.499 46.61 21.313 49.021 20.736 C 50.392 20.407 51.764 20.299 53.101 20.383 L 68.945 14.682 C 68.938 14.672 68.929 14.666 68.922 14.656 C 68.11 13.447 68.05 11.64 69.327 10.343 L 68.739 9.468 C 68.686 9.388 68.69 9.293 68.754 9.25 L 69.915 8.47 C 70.042 8.384 70.107 8.48 70.737 9.419 C 72.404 8.738 74.107 9.349 75.047 10.749 C 75.111 10.844 75.09 10.951 74.99 11.041 L 72.885 12.617 C 72.774 12.692 72.081 12.279 71.954 12.365 C 71.811 12.461 71.833 12.631 71.908 12.743 C 72.073 12.988 72.492 13.091 73.174 13.16 L 80.975 10.353 L 75.198 1.546 Z" stroke-width="1"/><path fill="#71a58a" d="M 31.381 69.438 C 30.994 69.577 30.598 69.63 30.209 69.629 C 31.323 70.841 33.176 71.112 34.598 70.18 L 41.012 65.972 L 31.381 69.438 Z M 16.166 37.336 C 16.042 36.993 15.994 36.643 15.981 36.297 L 13.457 37.953 C 11.876 38.99 11.435 41.113 12.472 42.694 L 24.924 61.677 L 16.166 37.336 Z" stroke-width="1"/><path fill="#ffeead" d="M 49.021 20.736 C 46.611 21.313 44.509 22.499 42.822 24.081 L 53.101 20.383 C 51.764 20.299 50.392 20.407 49.021 20.736 Z M 72.886 12.617 L 74.991 11.041 C 75.092 10.95 75.112 10.844 75.048 10.749 C 74.107 9.349 72.404 8.738 70.738 9.419 C 70.108 8.48 70.043 8.385 69.916 8.47 L 68.755 9.25 C 68.691 9.293 68.687 9.388 68.74 9.468 L 69.328 10.343 C 68.051 11.639 68.111 13.446 68.923 14.656 C 68.93 14.666 68.939 14.672 68.946 14.682 L 73.176 13.16 C 72.493 13.09 72.074 12.988 71.91 12.743 C 71.835 12.632 71.813 12.462 71.956 12.365 C 72.082 12.279 72.775 12.692 72.886 12.617 Z" stroke-width="1"/><path fill="#96ceb4" d="M 29.857 69.195 L 24.924 61.675 L 26.97 67.361 C 27.475 68.765 28.798 69.626 30.209 69.629 C 30.084 69.494 29.961 69.355 29.857 69.195 Z" stroke-width="1"/><path fill="#71a58a" d="M 92.583 28.048 L 80.975 10.353 L 73.174 13.16 C 73.553 13.199 73.992 13.231 74.567 13.265 C 76.056 13.35 77.179 13.888 77.842 14.875 C 78.911 16.466 78.746 18.146 77.459 19.427 L 78.079 20.35 C 78.122 20.414 78.101 20.52 78.037 20.563 L 76.891 21.333 C 76.764 21.418 76.689 21.307 76.048 20.352 C 74.174 21.172 72.562 20.662 71.301 18.784 C 71.248 18.704 71.263 18.625 71.332 18.556 L 73.278 17.087 C 73.373 17.023 73.443 17.023 73.571 17.144 C 74.056 17.626 74.535 17.789 74.901 17.543 C 75.108 17.404 75.155 17.165 75.016 16.958 C 74.738 16.544 74.121 16.451 72.255 16.388 C 70.922 16.345 69.714 15.807 68.944 14.682 L 53.1 20.383 C 58.981 20.753 64.186 24.896 65.63 30.925 C 67.403 38.325 62.842 45.762 55.441 47.535 C 48.04 49.308 40.604 44.747 38.831 37.346 C 37.635 32.356 39.328 27.357 42.821 24.081 L 24.616 30.631 L 15.98 36.296 C 15.993 36.642 16.042 36.991 16.165 37.335 L 24.923 61.675 L 29.856 69.195 C 29.96 69.354 30.083 69.493 30.208 69.629 C 30.597 69.63 30.992 69.577 31.38 69.438 L 41.011 65.973 L 91.598 32.789 C 93.179 31.752 93.62 29.629 92.583 28.048 Z" stroke-width="1"/><path fill="#c9b77d" d="M 65.631 30.925 C 64.186 24.896 58.982 20.753 53.101 20.383 L 42.822 24.081 C 39.329 27.357 37.636 32.356 38.832 37.346 C 40.605 44.746 48.042 49.308 55.442 47.535 C 62.842 45.762 67.404 38.325 65.631 30.925 Z M 77.46 19.426 C 78.747 18.146 78.911 16.465 77.843 14.874 C 77.18 13.887 76.057 13.349 74.568 13.264 C 73.992 13.23 73.554 13.198 73.175 13.159 L 68.945 14.681 C 69.715 15.806 70.923 16.344 72.256 16.387 C 74.122 16.449 74.739 16.543 75.017 16.957 C 75.156 17.164 75.109 17.403 74.902 17.542 C 74.536 17.788 74.057 17.625 73.572 17.143 C 73.444 17.021 73.375 17.022 73.279 17.086 L 71.333 18.555 C 71.264 18.624 71.249 18.704 71.302 18.783 C 72.563 20.661 74.175 21.17 76.049 20.351 C 76.69 21.306 76.765 21.417 76.892 21.332 L 78.038 20.562 C 78.102 20.519 78.123 20.413 78.08 20.349 L 77.46 19.426 Z" stroke-width="1"/><path fill="#96ceb4" d="M 88.161 13.934 C 87.517 12.143 85.542 11.213 83.751 11.858 L 25.497 32.818 L 46.453 32.818 C 48.935 29.062 53.191 26.581 58.03 26.581 C 62.869 26.581 67.124 29.062 69.607 32.818 L 84.686 32.818 C 84.651 32.724 84.626 32.659 84.583 32.545 C 82.556 32.908 81.097 32.031 80.303 29.897 C 80.269 29.806 80.303 29.732 80.387 29.681 L 82.637 28.699 C 82.746 28.659 82.813 28.675 82.91 28.824 C 83.272 29.41 83.703 29.682 84.119 29.527 C 84.354 29.44 84.456 29.216 84.369 28.981 C 84.194 28.511 83.612 28.275 81.8 27.776 C 80.493 27.418 79.427 26.6 78.942 25.298 C 78.43 23.924 78.796 22.14 80.35 21.171 L 79.98 20.176 C 79.946 20.085 79.973 19.993 80.046 19.966 L 81.366 19.475 C 81.511 19.421 81.551 19.53 81.948 20.597 C 83.74 20.321 85.264 21.319 85.856 22.91 C 85.896 23.018 85.851 23.118 85.731 23.183 L 83.3 24.23 C 83.173 24.277 82.592 23.711 82.447 23.765 C 82.284 23.826 82.266 23.997 82.313 24.124 C 82.475 24.558 83.24 24.788 84.795 25.259 C 86.232 25.691 87.206 26.482 87.624 27.603 C 88.297 29.411 87.742 31.018 86.181 31.97 L 86.496 32.817 L 94.956 32.817 L 88.161 13.934 Z" stroke-width="1"/><path fill="#ffeead" d="M 58.03 26.581 C 53.191 26.581 48.936 29.062 46.453 32.818 L 69.606 32.818 C 67.124 29.062 62.869 26.581 58.03 26.581 Z M 87.624 27.604 C 87.207 26.483 86.233 25.692 84.795 25.26 C 83.24 24.788 82.475 24.559 82.313 24.125 C 82.266 23.998 82.284 23.827 82.447 23.766 C 82.592 23.712 83.173 24.278 83.3 24.231 L 85.73 23.182 C 85.85 23.117 85.895 23.018 85.855 22.909 C 85.263 21.317 83.738 20.32 81.947 20.596 C 81.55 19.529 81.509 19.42 81.365 19.474 L 80.045 19.965 C 79.973 19.992 79.946 20.084 79.979 20.175 L 80.349 21.17 C 78.795 22.14 78.429 23.923 78.941 25.297 C 79.426 26.599 80.492 27.417 81.799 27.775 C 83.612 28.274 84.193 28.51 84.368 28.98 C 84.456 29.215 84.353 29.439 84.118 29.526 C 83.702 29.681 83.271 29.409 82.909 28.823 C 82.812 28.674 82.745 28.658 82.636 28.698 L 80.386 29.68 C 80.302 29.731 80.268 29.806 80.302 29.896 C 81.096 32.03 82.555 32.908 84.582 32.544 C 84.625 32.659 84.65 32.723 84.685 32.817 L 86.496 32.817 L 86.181 31.97 C 87.742 31.019 88.297 29.412 87.624 27.604 Z" stroke-width="1"/><path fill="#71a58a" d="M 98.965 43.96 L 94.956 32.818 L 86.496 32.818 L 86.571 33.019 C 86.598 33.091 86.553 33.191 86.48 33.218 L 85.178 33.703 C 85.049 33.751 84.984 33.615 84.685 32.818 L 69.606 32.818 C 71.054 35.009 71.902 37.631 71.902 40.453 C 71.902 48.114 65.691 54.325 58.03 54.325 C 50.369 54.325 44.158 48.114 44.158 40.453 C 44.158 37.63 45.006 35.008 46.454 32.818 L 25.497 32.818 L 19.171 35.094 C 17.38 35.738 16.45 37.713 17.095 39.504 L 27.899 69.53 C 28.544 71.321 30.518 72.251 32.31 71.606 L 96.89 48.369 C 98.68 47.726 99.61 45.751 98.965 43.96 Z" stroke-width="1"/><path fill="#c9b77d" d="M 69.606 32.818 L 46.453 32.818 C 45.005 35.009 44.157 37.631 44.157 40.453 C 44.157 48.114 50.368 54.325 58.029 54.325 C 65.691 54.325 71.901 48.114 71.901 40.453 C 71.902 37.631 71.054 35.009 69.606 32.818 Z M 86.497 32.818 L 84.686 32.818 C 84.984 33.615 85.05 33.751 85.179 33.703 L 86.481 33.218 C 86.553 33.191 86.599 33.092 86.572 33.019 L 86.497 32.818 Z" stroke-width="1"/><g id="group_1"><path fill="#99734a" d="M 94.959 35.371 L 17.263 35.371 C 11.976 35.371 7.651 39.696 7.651 44.983 L 7.651 105.389 C 7.651 110.676 11.976 115.001 17.263 115.001 L 94.959 115.001 C 100.246 115.001 104.571 110.676 104.571 105.389 L 104.571 44.983 C 104.571 39.696 100.245 35.371 94.959 35.371 Z" stroke-width="1"/></g><g id="group_2"><path fill="#825e3b" d="M 102.84 67.625 L 79.231 67.625 C 75.38 67.625 72.257 70.747 72.257 74.599 L 72.257 85.153 C 72.257 89.004 75.379 92.127 79.231 92.127 L 102.84 92.127 C 103.453 92.127 104.035 92.002 104.571 91.785 L 104.571 67.967 C 104.035 67.75 103.453 67.625 102.84 67.625 Z" stroke-width="1"/></g><g id="group_3"><path fill="#c9b77d" d="M 102.84 64.073 L 79.231 64.073 C 75.38 64.073 72.257 67.195 72.257 71.047 L 72.257 81.601 C 72.257 85.453 75.379 88.575 79.231 88.575 L 102.84 88.575 C 105.39 88.575 107.457 86.508 107.457 83.958 L 107.457 68.69 C 107.457 66.14 105.39 64.073 102.84 64.073 Z" stroke-width="1"/></g><g id="group_4"><path fill="#c9b77d" d="M 12.871 44.095 L 8.431 44.095 C 7.94 44.095 7.543 44.492 7.543 44.983 C 7.543 45.474 7.94 45.871 8.431 45.871 L 12.871 45.871 C 13.362 45.871 13.759 45.474 13.759 44.983 C 13.759 44.493 13.362 44.095 12.871 44.095 Z M 32.04 44.095 L 22.456 44.095 C 21.965 44.095 21.568 44.492 21.568 44.983 C 21.568 45.474 21.965 45.871 22.456 45.871 L 32.04 45.871 C 32.531 45.871 32.928 45.474 32.928 44.983 C 32.928 44.493 32.531 44.095 32.04 44.095 Z M 51.209 44.095 L 41.624 44.095 C 41.133 44.095 40.736 44.492 40.736 44.983 C 40.736 45.474 41.133 45.871 41.624 45.871 L 51.209 45.871 C 51.7 45.871 52.097 45.474 52.097 44.983 C 52.097 44.493 51.7 44.095 51.209 44.095 Z M 89.545 44.095 L 79.961 44.095 C 79.47 44.095 79.073 44.492 79.073 44.983 C 79.073 45.474 79.47 45.871 79.961 45.871 L 89.545 45.871 C 90.036 45.871 90.433 45.474 90.433 44.983 C 90.433 44.493 90.036 44.095 89.545 44.095 Z M 70.377 44.095 L 60.793 44.095 C 60.302 44.095 59.905 44.492 59.905 44.983 C 59.905 45.474 60.302 45.871 60.793 45.871 L 70.377 45.871 C 70.868 45.871 71.265 45.474 71.265 44.983 C 71.265 44.493 70.868 44.095 70.377 44.095 Z M 103.569 44.095 L 99.129 44.095 C 98.638 44.095 98.241 44.492 98.241 44.983 C 98.241 45.474 98.638 45.871 99.129 45.871 L 103.569 45.871 C 104.06 45.871 104.457 45.474 104.457 44.983 C 104.457 44.493 104.06 44.095 103.569 44.095 Z" stroke-width="1"/></g><g id="group_5"><path fill="#c9b77d" d="M 12.871 104.949 L 8.431 104.949 C 7.94 104.949 7.543 105.346 7.543 105.837 C 7.543 106.328 7.94 106.725 8.431 106.725 L 12.871 106.725 C 13.362 106.725 13.759 106.328 13.759 105.837 C 13.759 105.346 13.362 104.949 12.871 104.949 Z M 51.209 104.949 L 41.624 104.949 C 41.133 104.949 40.736 105.346 40.736 105.837 C 40.736 106.328 41.133 106.725 41.624 106.725 L 51.209 106.725 C 51.7 106.725 52.097 106.328 52.097 105.837 C 52.097 105.346 51.7 104.949 51.209 104.949 Z M 32.04 104.949 L 22.456 104.949 C 21.965 104.949 21.568 105.346 21.568 105.837 C 21.568 106.328 21.965 106.725 22.456 106.725 L 32.04 106.725 C 32.531 106.725 32.928 106.328 32.928 105.837 C 32.928 105.346 32.531 104.949 32.04 104.949 Z M 89.545 104.949 L 79.961 104.949 C 79.47 104.949 79.073 105.346 79.073 105.837 C 79.073 106.328 79.47 106.725 79.961 106.725 L 89.545 106.725 C 90.036 106.725 90.433 106.328 90.433 105.837 C 90.433 105.346 90.036 104.949 89.545 104.949 Z M 70.377 104.949 L 60.793 104.949 C 60.302 104.949 59.905 105.346 59.905 105.837 C 59.905 106.328 60.302 106.725 60.793 106.725 L 70.377 106.725 C 70.868 106.725 71.265 106.328 71.265 105.837 C 71.265 105.346 70.868 104.949 70.377 104.949 Z M 103.569 104.949 L 99.129 104.949 C 98.638 104.949 98.241 105.346 98.241 105.837 C 98.241 106.328 98.638 106.725 99.129 106.725 L 103.569 106.725 C 104.06 106.725 104.457 106.328 104.457 105.837 C 104.457 105.346 104.06 104.949 103.569 104.949 Z" stroke-width="1"/></g><g id="group_6"><path fill="#c1821e" d="M 83.564 71.924 C 81.896 71.924 80.294 72.587 79.114 73.767 C 77.934 74.947 77.271 76.549 77.271 78.217 C 77.271 79.885 77.934 81.487 79.114 82.667 C 80.294 83.847 81.896 84.51 83.564 84.51 C 85.232 84.51 86.834 83.847 88.014 82.667 C 89.194 81.487 89.857 79.885 89.857 78.217 C 89.857 76.549 89.194 74.947 88.014 73.767 C 86.834 72.587 85.232 71.924 83.564 71.924 Z" stroke-width="1"/></g><g id="group_7"><path fill="#d6a041" d="M 83.564 69.643 C 81.896 69.643 80.294 70.306 79.114 71.486 C 77.934 72.666 77.271 74.268 77.271 75.936 C 77.271 77.604 77.934 79.206 79.114 80.386 C 80.294 81.566 81.896 82.229 83.564 82.229 C 85.232 82.229 86.834 81.566 88.014 80.386 C 89.194 79.206 89.857 77.604 89.857 75.936 C 89.857 74.268 89.194 72.666 88.014 71.486 C 86.834 70.306 85.232 69.643 83.564 69.643 Z" stroke-width="1"/></g><g id="group_8"><path fill="#ffcc5c" d="M 85.57 71.924 C 85.038 71.924 84.528 72.135 84.152 72.512 C 83.775 72.888 83.564 73.398 83.564 73.93 C 83.564 74.462 83.775 74.972 84.152 75.348 C 84.528 75.725 85.038 75.936 85.57 75.936 C 86.102 75.936 86.612 75.725 86.988 75.348 C 87.365 74.972 87.576 74.462 87.576 73.93 C 87.576 73.398 87.365 72.888 86.988 72.512 C 86.612 72.135 86.102 71.924 85.57 71.924 Z" stroke-width="1"/></g></g></svg>