<svg xmlns="http://www.w3.org/2000/svg" version="1.1" xmlns:xlink="http://www.w3.org/1999/xlink" width="512" height="512" x="0" y="0" viewBox="0 0 512 512" style="enable-background:new 0 0 512 512" xml:space="preserve" class=""><g><path d="M196.206 155.971a33.85 33.85 0 0 0-19.012-5.807c-18.78 0-34.004 15.224-34.004 34.004s15.224 34.004 34.004 34.004 29.354-15.224 29.354-34.004h-20.344M320.447 150.163l23.252 66.987c.487 1.371 2.431 1.358 2.9-.02l22.206-66.843" style="stroke-width:15;stroke-linecap:round;stroke-linejoin:round;stroke-miterlimit:10;" fill="none" stroke="#000000" stroke-width="15" stroke-linecap="round" stroke-linejoin="round" stroke-miterlimit="10" data-original="#000000" class=""></path><circle cx="266.342" cy="184.167" r="34.004" style="stroke-width:15;stroke-linecap:round;stroke-linejoin:round;stroke-miterlimit:10;" fill="none" stroke="#000000" stroke-width="15" stroke-linecap="round" stroke-linejoin="round" stroke-miterlimit="10" data-original="#000000" class=""></circle><path d="M337.974 117.639h54.713c6.867 0 12.434 5.567 12.434 12.434v108.189c0 6.867-5.567 12.434-12.434 12.434H119.308c-6.867 0-12.434-5.567-12.434-12.434V130.073c0-6.867 5.567-12.434 12.434-12.434H302.92M106.87 221.196H31.31v-37.03h75.56" style="stroke-width:15;stroke-linecap:round;stroke-linejoin:round;stroke-miterlimit:10;" fill="none" stroke="#000000" stroke-width="15" stroke-linecap="round" stroke-linejoin="round" stroke-miterlimit="10" data-original="#000000" class=""></path><path d="M405.12 184.166h75.56v37.03h-75.56M31.313 256.219v184.402h45.728V221.192H31.313M211.59 250.696v189.93h-45.73v-189.93M346.13 250.696v189.93h-45.72v-189.93" style="stroke-width:15;stroke-linecap:round;stroke-linejoin:round;stroke-miterlimit:10;" fill="none" stroke="#000000" stroke-width="15" stroke-linecap="round" stroke-linejoin="round" stroke-miterlimit="10" data-original="#000000" class=""></path><path d="M434.953 221.192h45.728v219.43h-45.728zM405.12 184.166h92.78c3.64 0 6.6-2.96 6.6-6.6v-20.8a6.6 6.6 0 0 0-6.6-6.6h-92.78M106.87 150.166H14.1a6.6 6.6 0 0 0-6.6 6.6v20.8c0 3.64 2.96 6.6 6.6 6.6H106.87M106.87 150.166H31.31v-26.15a27.75 27.75 0 0 1 17.13-25.64l199.18-82.53a21.896 21.896 0 0 1 16.75 0l199.18 82.53a27.75 27.75 0 0 1 17.13 25.64v26.15h-75.56M268.1 58.235l-24.206 24.206" style="stroke-width:15;stroke-linecap:round;stroke-linejoin:round;stroke-miterlimit:10;" fill="none" stroke="#000000" stroke-width="15" stroke-linecap="round" stroke-linejoin="round" stroke-miterlimit="10" data-original="#000000" class=""></path><path d="M31.313 469.22v-28.599h449.368v28.599M408.407 469.22h89.488a6.605 6.605 0 0 1 6.605 6.605v15.389a6.605 6.605 0 0 1-6.605 6.605H14.105a6.605 6.605 0 0 1-6.605-6.605v-15.389a6.605 6.605 0 0 1 6.605-6.605h359.166M300.346 440.621h-88.758v-91.738a20.126 20.126 0 0 1 7.303-15.512l25.513-21.09a18.186 18.186 0 0 1 23.185.009l25.465 21.082a20.127 20.127 0 0 1 7.292 15.503v91.746zM390.871 281.901v18.402M390.871 333.486v18.402M390.871 385.071v18.402M122.403 281.901v18.402M122.403 333.486v18.402M122.403 385.071v18.402M256 351.888v88.733" style="stroke-width:15;stroke-linecap:round;stroke-linejoin:round;stroke-miterlimit:10;" fill="none" stroke="#000000" stroke-width="15" stroke-linecap="round" stroke-linejoin="round" stroke-miterlimit="10" data-original="#000000" class=""></path></g></svg>