<svg id="vector" xmlns="http://www.w3.org/2000/svg" width="150" height="150" viewBox="0 0 500 500"><path fill="#dbdbdb" d="M 97.33 461.45 L 60.18 461.45 L 60.18 381.77 L 97.33 381.77 Z" stroke-width="1" id="path_0"/><path fill="#ebebeb" d="M 62.73 456 Q 66.87 447.5 70.91 439 L 79 421.77 L 87 404.56 Q 91 395.94 94.84 387.26 Q 90.7 395.76 86.66 404.31 L 78.6 421.45 L 70.6 438.66 Q 66.61 447.29 62.73 456 Z" stroke-width="1" id="path_1"/><path fill="#ebebeb" d="M 62.73 387.26 Q 66.61 395.95 70.57 404.56 L 78.57 421.77 L 86.63 438.91 Q 90.68 447.46 94.81 455.91 Q 90.93 447.23 86.97 438.61 L 78.97 421.4 L 70.91 404.26 Q 66.86 395.76 62.73 387.26 Z M 97.32 261.44 L 169.27 261.44 L 169.27 335.62 L 97.32 335.62 Z" stroke-width="1" id="path_2"/><path fill="#dbdbdb" d="M 97.33 335.63 L 60.18 335.63 L 60.18 261.44 L 97.33 261.44 Z M 127.19 278.66 L 129.86 278.66 L 130.51 277.33 L 131.43 278.66 L 132.67 275.93 L 133.85 278.66 L 138.75 278.66 L 139.31 276.84 L 139.83 278.66 L 140.83 278.66 L 140.83 261.44 L 127.19 261.44 L 127.19 278.66 Z" stroke-width="1" id="path_3"/><path fill="#ebebeb" d="M 62.73 330.9 Q 66.87 323 70.91 315 L 78.97 299 L 86.97 283 Q 90.97 275 94.81 266.89 Q 90.67 274.81 86.63 282.77 L 78.57 298.72 L 70.57 314.72 Q 66.61 322.81 62.73 330.9 Z" stroke-width="1" id="path_4"/><path fill="#ebebeb" d="M 62.73 266.93 Q 66.61 275 70.57 283 L 78.57 299 L 86.63 315 Q 90.68 323 94.81 330.88 Q 90.93 322.8 86.97 314.77 L 78.97 298.77 L 70.91 282.82 Q 66.86 274.85 62.73 266.93 Z" stroke-width="1" id="path_5"/><path fill="#ffffff" d="M 110.05 331.02 L 102.06 331.02 L 102.06 323.03 L 110.05 323.03 Z" stroke-width="1" id="path_6"/><path fill="#dbdbdb" d="M 92.53 335.63 L 164.48 335.63 L 164.48 381.77 L 92.53 381.77 Z" stroke-width="1" id="path_7"/><path fill="#c7c7c7" d="M 92.53 381.77 L 55.38 381.77 L 55.38 335.63 L 92.53 335.63 Z" stroke-width="1" id="path_8"/><path fill="#ffffff" d="M 122.4 352.85 L 125.07 352.85 L 125.72 351.52 L 126.64 352.85 L 127.88 350.12 L 129.06 352.85 L 133.96 352.85 L 134.51 351.03 L 135.04 352.85 L 136.04 352.85 L 136.04 335.63 L 122.4 335.63 L 122.4 352.85 Z" stroke-width="1" id="path_9"/><path fill="#dbdbdb" d="M 57.94 379 Q 62.07 374 66.12 368.91 L 74.18 358.77 L 82.18 348.58 Q 86.12 343.48 90.01 338.34 Q 85.89 343.34 81.83 348.43 L 73.77 358.58 L 65.77 368.76 Q 61.82 373.89 57.94 379 Z" stroke-width="1" id="path_10"/><path fill="#dbdbdb" d="M 57.94 338.37 Q 61.83 343.51 65.78 348.61 L 73.78 358.8 L 81.84 368.94 Q 85.84 374 90 379 Q 86.13 373.86 82.17 368.76 L 74.17 358.58 L 66.11 348.43 Q 62.07 343.41 57.94 338.37 Z M 372.67 391.75 L 444.62 391.75 L 444.62 461.45 L 372.67 461.45 Z" stroke-width="1" id="path_11"/><path fill="#c7c7c7" d="M 372.68 461.45 L 335.53 461.45 L 335.53 391.75 L 372.68 391.75 Z" stroke-width="1" id="path_12"/><path fill="#ffffff" d="M 402.54 408.97 L 405.21 408.97 L 405.86 407.64 L 406.78 408.97 L 408.02 406.24 L 409.2 408.97 L 414.1 408.97 L 414.66 407.14 L 415.18 408.97 L 416.18 408.97 L 416.18 391.75 L 402.54 391.75 L 402.54 408.97 Z" stroke-width="1" id="path_13"/><path fill="#dbdbdb" d="M 338.08 457.3 Q 342.21 449.71 346.26 442.06 L 354.32 426.74 L 362.32 411.36 Q 366.32 403.65 370.15 395.9 Q 366.03 403.49 361.97 411.14 L 353.91 426.45 L 345.96 441.84 Q 342 449.55 338.08 457.3 Z" stroke-width="1" id="path_14"/><path fill="#dbdbdb" d="M 338.08 395.9 Q 341.97 403.65 345.92 411.36 L 353.87 426.74 L 361.93 442.06 Q 365.98 449.71 370.11 457.3 Q 366.24 449.54 362.28 441.84 L 354.28 426.45 L 346.22 411.14 Q 342.21 403.49 338.08 395.9 Z" stroke-width="1" id="path_15"/><g id="group_1"><path fill="#ffc727" d="M 239.03 379.05 L 338.71 379.05 L 338.71 461.41 L 239.03 461.41 Z" stroke-width="1"/><path fill="#ffc727" d="M 239.03 379.05 L 338.71 379.05 L 338.71 461.41 L 239.03 461.41 Z" stroke-width="1"/><path fill="#ffc727" d="M 338.71 379.06 L 378.21 379.06 L 378.21 461.42 L 338.71 461.42 Z" stroke-width="1"/><path fill="#ffc727" d="M 338.71 379.06 L 378.21 379.06 L 378.21 461.42 L 338.71 461.42 Z" stroke-width="1"/><path fill="#ffc727" d="M 375.48 455.74 Q 371.1 446.96 366.79 438.12 L 358.22 420.4 L 349.76 402.61 Q 345.56 393.7 341.43 384.73 Q 345.83 393.52 350.13 402.35 L 358.69 420.07 L 367.15 437.86 Q 371.37 446.77 375.48 455.74 Z" stroke-width="1"/><path fill="#ffc727" d="M 375.48 384.73 Q 371.36 393.73 367.15 402.61 L 358.69 420.4 L 350.13 438.12 Q 345.82 446.95 341.43 455.74 Q 345.56 446.74 349.76 437.86 L 358.22 420.07 L 366.79 402.36 Q 371.1 393.51 375.48 384.73 Z" stroke-width="1"/><path fill="#ffffff" d="M 295.92 396.85 L 293.16 396.85 L 292.49 395.48 L 291.54 396.85 L 290.25 394.03 L 289.04 396.85 L 283.97 396.85 L 283.39 394.97 L 282.85 396.85 L 281.82 396.85 L 281.82 379.06 L 295.92 379.06 L 295.92 396.85 Z" stroke-width="1"/><path fill="#ffc727" d="M 270.35 296.7 L 344.72 296.7 L 344.72 379.05 L 270.35 379.05 Z M 344.72 296.7 L 383.12 296.7 L 383.12 379.06 L 344.72 379.06 Z" stroke-width="1"/><path fill="#ffc727" d="M 344.72 296.7 L 383.12 296.7 L 383.12 379.06 L 344.72 379.06 Z" stroke-width="1"/><g id="group"><path fill="#000" d="M 339.27 373.38 Q 331.08 364.59 323.03 355.76 L 307 338 L 291.21 320.21 Q 283.35 311.3 275.65 302.33 Q 283.85 311.12 291.89 319.96 L 307.89 337.67 L 323.68 355.46 Q 331.57 364.41 339.27 373.38 Z" stroke-width="1"/><path fill="#000" d="M 339.27 302.37 Q 331.56 311.37 323.71 320.25 L 307.92 338 L 291.92 355.72 Q 283.92 364.55 275.68 373.34 Q 283.39 364.34 291.24 355.46 L 307 337.71 L 323 320 Q 331.07 311.15 339.27 302.37 Z" stroke-width="1"/></g><path fill="#ffffff" d="M 370.99 365.12 L 377.72 365.12 L 377.72 374.62 L 370.99 374.62 Z" stroke-width="1"/></g><g id="group_2"><path fill="#263238" d="M 41.45 461.45 L 93.59 461.2 L 145.73 461.12 L 250 460.95 L 354.27 461.12 L 406.41 461.2 L 458.55 461.45 L 406.41 461.69 L 354.27 461.78 L 250 461.95 L 145.73 461.78 L 93.59 461.69 L 41.45 461.45 Z" stroke-width="1"/></g><g id="group_3"><path fill="#263238" d="M 289.72 177.8 Q 288.88 177.26 288.04 176.75 L 288.43 176.1 L 290.13 177.17 Z M 265.3 278 L 264.58 278 L 264.58 277.25 C 265.915 277.28 267.251 277.23 268.58 277.1 L 268.66 277.85 C 267.57 277.93 266.43 278 265.3 278 Z M 272.72 277.18 L 272.56 276.45 C 273.861 276.155 275.138 275.764 276.38 275.28 L 276.65 275.98 C 275.371 276.47 274.057 276.865 272.72 277.16 Z M 280.35 274.18 L 279.98 273.53 C 281.129 272.859 282.223 272.096 283.25 271.25 L 283.73 271.82 C 282.672 272.703 281.541 273.496 280.35 274.19 Z M 286.68 268.98 L 286.13 268.47 C 287.027 267.484 287.853 266.434 288.6 265.33 L 289.22 265.75 C 288.453 266.894 287.604 267.98 286.68 269 Z M 291.26 262.19 L 290.58 261.87 C 291.15 260.666 291.615 259.414 291.97 258.13 L 292.69 258.33 C 292.327 259.659 291.848 260.954 291.26 262.2 Z M 293.42 254.27 L 292.67 254.21 C 292.67 253.67 292.74 253.12 292.74 252.59 C 292.737 251.848 292.694 251.107 292.61 250.37 C 291.832 250.318 291.057 250.221 290.29 250.08 L 290.42 249.34 C 291.641 249.56 292.879 249.674 294.12 249.68 L 294.38 249.68 L 294.38 250.43 L 293.36 250.43 C 293.44 251.154 293.48 251.882 293.48 252.61 C 293.49 253.15 293.46 253.72 293.42 254.28 Z M 298.49 249.93 L 298.32 249.2 C 299.606 248.895 300.852 248.439 302.03 247.84 L 302.37 248.51 C 301.138 249.138 299.835 249.618 298.49 249.94 Z M 286.31 249 C 285.017 248.534 283.763 247.965 282.56 247.3 L 282.93 246.65 C 284.094 247.293 285.308 247.841 286.56 248.29 Z M 291.69 246.36 C 291.251 245.11 290.674 243.912 289.97 242.79 L 290.6 242.39 C 291.341 243.557 291.945 244.805 292.4 246.11 Z M 305.81 246.2 L 305.33 245.63 C 306.344 244.773 307.272 243.818 308.1 242.78 L 308.68 243.25 C 307.826 244.337 306.864 245.335 305.81 246.23 Z M 279.17 245 L 278.96 244.8 C 277.97 243.93 277.182 242.855 276.65 241.65 L 277.35 241.37 C 277.838 242.473 278.561 243.457 279.47 244.25 L 279.67 244.43 Z M 311 239.89 L 310.36 239.5 C 311.06 238.34 311.71 237.15 312.28 235.98 L 312.96 236.31 C 312.38 237.5 311.72 238.71 311 239.89 Z M 287.48 239.74 C 286.566 238.855 285.561 238.071 284.48 237.4 L 284.33 237.3 L 284.72 236.66 L 284.88 236.76 C 285.995 237.464 287.031 238.285 287.97 239.21 Z M 277.55 237.81 L 276.93 237.39 C 277.358 236.788 277.926 236.299 278.584 235.965 C 279.242 235.631 279.972 235.461 280.71 235.47 L 280.71 236.22 C 280.095 236.216 279.488 236.359 278.939 236.635 C 278.39 236.911 277.914 237.314 277.55 237.81 Z M 314.55 232.54 L 313.85 232.28 C 314.313 231.025 314.71 229.747 315.04 228.45 L 315.76 228.63 C 315.438 229.956 315.037 231.261 314.56 232.54 Z M 316.55 224.61 L 315.8 224.51 C 315.979 223.184 316.082 221.848 316.11 220.51 L 316.86 220.51 C 316.833 221.881 316.729 223.25 316.55 224.61 Z M 315.97 216.51 C 315.85 215.168 315.659 213.833 315.4 212.51 L 316.14 212.36 C 316.401 213.699 316.595 215.051 316.72 216.41 Z M 314.42 208.65 C 314.04 207.39 313.59 206.12 313.07 204.86 L 313.77 204.58 C 314.29 205.85 314.77 207.15 315.14 208.43 Z M 311.42 201.2 C 310.82 200.03 310.15 198.85 309.42 197.69 L 310.06 197.3 C 310.78 198.47 311.46 199.67 312.06 200.86 Z M 307.21 194.34 C 306.44 193.26 305.61 192.19 304.75 191.15 L 305.33 190.67 C 306.2 191.72 307.04 192.81 307.82 193.9 Z M 302.09 188.12 C 301.18 187.12 300.22 186.19 299.24 185.27 L 299.75 184.72 C 300.75 185.66 301.75 186.63 302.63 187.61 Z M 296.22 182.59 C 295.22 181.74 294.13 180.9 293.06 180.1 L 293.5 179.5 C 294.59 180.3 295.67 181.15 296.7 182.02 Z M 260.39 277.64 C 259.717 277.556 259.05 277.436 258.39 277.28 L 258.57 276.55 C 258.57 276.55 259.29 276.73 260.49 276.9 Z" stroke-width="1"/><path fill="#263238" d="M 250.3 276.15 C 249.83 280.15 258 282.39 258.62 277.15 C 259.24 271.91 250.77 272.12 250.3 276.15 Z" stroke-width="1"/><path fill="#ebebeb" d="M 261 282.77 C 260.24 284.28 257.55 284.49 254.77 282.55 C 252.882 281.109 251.287 279.32 250.07 277.28 C 252.421 277.035 254.797 277.242 257.07 277.89 C 260.36 279 261.8 281.24 261 282.77 Z" stroke-width="1"/><path fill="#263238" d="M 250.1 277.28 C 251.68 277.99 253.23 278.76 254.78 279.52 C 256.33 280.28 257.86 281.09 259.37 281.93 C 257.79 281.22 256.24 280.45 254.69 279.69 C 253.14 278.93 251.61 278.12 250.1 277.28 Z" stroke-width="1"/><path fill="#263238" d="M 257.36 282.74 C 257.001 282.324 256.667 281.886 256.36 281.43 C 256.058 280.977 255.784 280.506 255.54 280.02 C 255.899 280.436 256.233 280.874 256.54 281.33 C 256.844 281.781 257.118 282.252 257.36 282.74 Z M 254 279.23 C 254.55 279.087 255.108 278.973 255.67 278.89 C 256.237 278.81 256.808 278.76 257.38 278.74 C 256.273 279.016 255.14 279.18 254 279.23 Z M 253.13 279.89 C 252.786 279.462 252.54 278.963 252.41 278.43 C 252.754 278.858 253 279.357 253.13 279.89 Z" stroke-width="1"/><path fill="#ebebeb" d="M 262.32 272.3 C 261.93 270.65 259.37 269.83 256.22 271.07 C 254.046 272.038 252.077 273.413 250.42 275.12 C 252.668 275.898 255.044 276.238 257.42 276.12 C 260.79 275.84 262.72 274 262.32 272.3 Z" stroke-width="1"/><path fill="#263238" d="M 250.42 275.12 C 252.12 274.8 253.81 274.4 255.49 274.01 C 257.17 273.62 258.85 273.2 260.49 272.73 C 258.8 273.05 257.11 273.45 255.43 273.84 C 253.75 274.23 252.09 274.65 250.42 275.12 Z" stroke-width="1"/><path fill="#263238" d="M 258.75 271.48 C 258.315 271.789 257.897 272.123 257.5 272.48 C 257.103 272.854 256.726 273.247 256.37 273.66 C 256.81 273.356 257.227 273.022 257.62 272.66 C 258.019 272.289 258.397 271.895 258.75 271.48 Z M 254.65 274.12 C 255.663 274.647 256.729 275.066 257.83 275.37 C 256.819 274.838 255.753 274.419 254.65 274.12 Z M 254 273.28 C 253.782 273.443 253.584 273.631 253.41 273.84 C 253.237 274.054 253.086 274.285 252.96 274.53 C 253.178 274.364 253.376 274.172 253.55 273.96 C 253.732 273.756 253.883 273.527 254 273.28 Z" stroke-width="1"/><path fill="#455a64" d="M 250.3 276.15 C 250.684 276.195 251.035 276.39 251.275 276.693 C 251.515 276.996 251.626 277.382 251.582 277.766 C 251.538 278.15 251.343 278.502 251.041 278.742 C 250.738 278.983 250.352 279.094 249.968 279.051 C 249.584 279.008 249.232 278.814 248.991 278.512 C 248.749 278.21 248.638 277.824 248.68 277.44 C 248.725 277.055 248.921 276.703 249.224 276.461 C 249.528 276.22 249.915 276.108 250.3 276.15 Z" stroke-width="1"/><path fill="#455a64" d="M 250.64 273.24 C 250.948 273.275 251.237 273.407 251.465 273.616 C 251.694 273.826 251.85 274.103 251.911 274.407 C 251.972 274.711 251.935 275.026 251.805 275.308 C 251.676 275.589 251.46 275.823 251.19 275.974 C 250.919 276.125 250.608 276.187 250.3 276.15 C 249.915 276.104 249.564 275.907 249.324 275.602 C 249.084 275.298 248.975 274.91 249.02 274.526 C 249.065 274.141 249.261 273.789 249.564 273.548 C 249.868 273.307 250.255 273.196 250.64 273.24 Z" stroke-width="1"/></g><g id="group_4"><path fill="#d3766a" d="M 160 370.31 C 160 370.31 138.68 413 138.67 413 C 136.91 421.81 135.53 429.58 135.18 433.66 C 135.175 433.683 135.175 433.707 135.18 433.73 C 134.995 434.676 135.033 435.651 135.29 436.58 C 135.285 436.603 135.285 436.627 135.29 436.65 C 137.56 438.95 207.62 455.08 210.29 454.82 C 212.96 454.56 212.39 447.03 210.17 444.24 C 207.95 441.45 183.88 423.24 183.88 423.24 L 204.72 380.48 Z" stroke-width="1"/><path fill="#ebebeb" d="M 209.23 454.86 C 206.6 455.12 137.59 438.98 135.33 436.69 C 135.327 436.667 135.327 436.643 135.33 436.62 C 135.068 435.692 135.027 434.716 135.21 433.77 C 135.202 433.747 135.202 433.723 135.21 433.7 C 135.55 429.62 136.94 421.85 138.69 413.03 L 143.79 402.81 L 188 414.93 L 183.92 423.31 C 183.92 423.31 206.92 441.48 209.15 444.31 C 211.38 447.14 211.87 454.61 209.23 454.86 Z" stroke-width="1"/><path fill="#263238" d="M 210.19 453.74 C 207.52 453.94 137.29 436.04 135.05 433.66 C 134.19 432.77 136.2 422.38 138.99 409.9 L 139.08 409.51 L 184.52 420.56 L 184.31 421.32 C 184.31 421.32 208.12 440.2 210.31 443.08 C 212.5 445.96 212.85 453.55 210.19 453.74 Z" stroke-width="1"/><path fill="#ffffff" d="M 210.08 450.81 C 198.32 447.51 150.56 435.27 138.68 432.89 C 138.58 432.89 138.56 432.94 138.68 432.97 C 150.27 436.5 198.13 448.35 210.06 450.97 C 210.29 451.06 210.33 450.88 210.08 450.81 Z M 188.08 422.43 C 183.64 420.37 177.76 419.63 173.36 422.05 C 173.19 422.14 173.36 422.38 173.48 422.37 C 178.299 422.068 183.137 422.282 187.91 423.01 C 187.98 423.014 188.05 422.995 188.107 422.954 C 188.164 422.914 188.206 422.855 188.226 422.788 C 188.246 422.72 188.242 422.648 188.216 422.583 C 188.189 422.518 188.141 422.464 188.08 422.43 Z M 190.92 425.31 C 186.49 423.26 180.61 422.52 176.2 424.93 C 176.03 425.02 176.2 425.26 176.33 425.26 C 181.149 424.953 185.987 425.167 190.76 425.9 C 190.833 425.907 190.906 425.888 190.966 425.847 C 191.027 425.805 191.07 425.743 191.089 425.673 C 191.108 425.602 191.102 425.527 191.071 425.46 C 191.04 425.394 190.986 425.341 190.92 425.31 Z M 193.77 428.2 C 189.33 426.14 183.45 425.4 179.05 427.81 C 178.88 427.91 179.05 428.15 179.18 428.14 C 183.996 427.838 188.83 428.053 193.6 428.78 C 193.67 428.784 193.74 428.765 193.797 428.724 C 193.854 428.684 193.896 428.625 193.916 428.558 C 193.936 428.49 193.932 428.418 193.906 428.353 C 193.879 428.288 193.831 428.234 193.77 428.2 Z" stroke-width="1"/><path fill="#ffc727" d="M 211.9 451.5 C 213.03 452.3 211.68 456.45 210.69 456.56 C 209.7 456.67 133.21 436.81 132 436.18 C 130.79 435.55 132.45 431.01 134 431.18 C 135.55 431.35 211.9 451.5 211.9 451.5 Z" stroke-width="1"/><path fill="#ffffff" d="M 148.67 420.33 C 144.23 416.49 138.25 423.39 142.67 427.24 C 147.09 431.09 153.12 424.18 148.67 420.33 Z" stroke-width="1"/><path fill="#455a64" d="M 143.92 399.4 L 195.16 412.32 C 195.16 412.32 242.92 326.13 241.85 304.22 C 240.38 274 204.9 181.08 204.9 181.08 L 162.42 181.08 C 162.42 181.08 190.61 281.53 191 298.43 C 191.17 307.27 143.92 399.4 143.92 399.4 Z" stroke-width="1"/><path fill="#263238" d="M 197.35 401.92 C 194.62 400.83 170.23 393.79 152.03 389.92 C 152.01 389.927 151.993 389.939 151.98 389.956 C 151.968 389.973 151.961 389.994 151.961 390.015 C 151.961 390.036 151.968 390.057 151.98 390.074 C 151.993 390.091 152.01 390.103 152.03 390.11 C 157.76 392.11 193.92 401.64 197.31 402.11 C 197.39 402.14 197.47 402 197.35 401.92 Z M 194.52 276.85 C 191.14 262.67 187.52 248.53 183.72 234.48 C 179.92 220.43 175.85 206.25 171.38 192.31 C 170.84 190.6 170.27 188.91 169.72 187.21 C 169.704 187.156 169.667 187.11 169.617 187.083 C 169.568 187.056 169.509 187.05 169.455 187.066 C 169.401 187.082 169.355 187.118 169.328 187.168 C 169.301 187.217 169.294 187.276 169.31 187.33 C 173.31 201.22 177.31 215.08 181.1 229.02 C 184.89 242.96 188.5 256.94 191.9 271.02 C 192.75 274.5 193.58 277.97 194.39 281.46 C 195.331 285.037 196.059 288.667 196.57 292.33 C 196.99 295.83 196.75 299.379 195.86 302.79 C 194.895 306.142 193.633 309.402 192.09 312.53 Q 182.9 332.48 173.72 352.44 C 167.6 365.78 166.61 368.82 160.72 382.27 C 159.99 383.94 159.26 385.61 158.56 387.27 C 158.56 387.38 158.67 387.48 158.73 387.36 C 165.43 374.18 166.46 371.01 172.73 357.59 C 179 344.17 185.23 330.59 191.45 317.08 C 194.25 310.98 197.54 304.76 197.96 297.94 C 198.38 290.82 196.14 283.68 194.52 276.85 Z" stroke-width="1"/><path fill="#d3766a" d="M 196.84 387.19 L 198.48 434.19 C 198.75 443.19 199.14 451.06 199.73 455.11 C 199.725 455.133 199.725 455.157 199.73 455.18 C 199.764 456.141 200.017 457.082 200.47 457.93 L 200.53 457.99 C 203.26 459.72 275.15 459.68 277.66 458.83 C 280.17 457.98 277.95 450.78 275.16 448.55 C 272.37 446.32 244.83 434.03 244.83 434.03 L 242.74 387.08 Z" stroke-width="1"/><path fill="#ebebeb" d="M 198.14 424.57 C 198.14 424.57 198.48 434.19 198.48 434.22 C 198.75 443.22 199.14 451.09 199.73 455.14 C 199.725 455.163 199.725 455.187 199.73 455.21 C 199.867 456.153 200.115 457.076 200.47 457.96 L 200.53 458.02 C 203.26 459.75 275.15 459.71 277.66 458.86 C 280.17 458.01 277.95 450.81 275.16 448.58 C 272.37 446.35 244.83 434.06 244.83 434.06 L 244.62 424.27 Z" stroke-width="1"/><path fill="#263238" d="M 277.7 458.78 C 275.16 459.59 202.7 458.47 199.96 456.67 C 198.96 456 198.46 445.44 198.28 432.67 L 198.28 432.27 L 245.04 432.47 L 245.04 433.27 C 245.04 433.27 272.59 446.1 275.38 448.39 C 278.17 450.68 280.25 458 277.7 458.78 Z" stroke-width="1"/><path fill="#ffffff" d="M 276.93 456 C 264.72 455.51 215.42 454.69 203.31 455.14 C 203.21 455.14 203.21 455.21 203.31 455.21 C 215.4 455.96 264.71 456.39 276.93 456.21 C 277.18 456.15 277.19 456 276.93 456 Z M 248.94 433.45 C 244.15 432.45 238.25 433.12 234.53 436.45 C 234.38 436.58 234.53 436.78 234.73 436.74 C 239.347 435.331 244.1 434.416 248.91 434.01 C 248.968 433.991 249.019 433.956 249.056 433.908 C 249.093 433.859 249.115 433.801 249.118 433.74 C 249.121 433.68 249.106 433.619 249.074 433.567 C 249.042 433.516 248.996 433.475 248.94 433.45 Z M 252.38 435.59 C 247.58 434.59 241.69 435.27 237.97 438.64 C 237.82 438.77 237.97 438.97 238.16 438.92 C 242.779 437.509 247.536 436.598 252.35 436.2 C 252.422 436.191 252.489 436.157 252.539 436.103 C 252.589 436.05 252.618 435.98 252.621 435.908 C 252.625 435.835 252.603 435.763 252.559 435.705 C 252.514 435.647 252.451 435.606 252.38 435.59 Z M 255.81 437.74 C 251.02 436.74 245.13 437.41 241.4 440.74 C 241.26 440.87 241.4 441.07 241.6 441.03 C 246.217 439.622 250.97 438.707 255.78 438.3 C 255.838 438.281 255.889 438.246 255.926 438.198 C 255.963 438.149 255.985 438.091 255.988 438.03 C 255.991 437.97 255.976 437.909 255.944 437.857 C 255.912 437.806 255.866 437.765 255.81 437.74 Z" stroke-width="1"/><path fill="#ffc727" d="M 278.85 456.2 C 280.14 456.72 279.79 461.07 278.85 461.4 C 277.91 461.73 198.85 460.16 197.56 459.84 C 196.27 459.52 196.79 454.71 198.36 454.48 C 199.93 454.25 278.85 456.2 278.85 456.2 Z" stroke-width="1"/><path fill="#ffffff" d="M 210.12 440.55 C 204.91 437.84 200.69 445.94 205.91 448.65 C 211.13 451.36 215.34 443.26 210.12 440.55 Z" stroke-width="1"/><path fill="#455a64" d="M 204.37 181 C 204.18 181.87 193.59 223.74 192.27 224.52 C 190.77 225.41 230.75 279.2 235.49 305.61 C 238.49 322.5 245.49 420.95 245.49 420.95 L 194.51 420.95 C 194.51 420.95 189.51 337.34 187.85 309.79 C 187.2 299.1 147.1 249.68 143.29 216.73 C 142.09 206.35 149.55 180.96 149.55 180.96 Z" stroke-width="1"/><path fill="#263238" d="M 193.22 381.17 C 192.62 367.32 192.07 353.44 191.06 339.61 C 190.49 331.77 189.37 324.18 188.59 316.37 C 188.59 315.96 188.22 315.86 188.23 316.28 C 188.59 330.19 189.74 343.95 190.48 357.85 C 191.22 371.75 191.93 374.99 192.72 388.85 C 193.16 396.69 193.55 404.53 194.16 412.36 C 194.167 412.38 194.179 412.397 194.196 412.41 C 194.213 412.422 194.234 412.429 194.255 412.429 C 194.276 412.429 194.297 412.422 194.314 412.41 C 194.331 412.397 194.343 412.38 194.35 412.36 C 194.38 398.44 193.83 395.07 193.22 381.17 Z M 235.54 306.27 C 235.104 302.612 234.395 298.992 233.42 295.44 C 232.37 291.997 230.987 288.665 229.29 285.49 C 225.82 278.83 221.87 272.39 218.06 265.92 C 214.25 259.45 210.28 252.84 206.26 246.38 Q 202.87 240.94 199.45 235.51 C 197.13 231.86 194.68 228.28 192.29 224.68 C 192.271 224.65 192.241 224.628 192.207 224.619 C 192.172 224.611 192.136 224.617 192.105 224.635 C 192.075 224.654 192.053 224.684 192.044 224.718 C 192.036 224.753 192.042 224.79 192.06 224.82 C 195.96 231.36 199.82 237.91 203.72 244.45 C 207.62 250.99 211.46 257.55 215.3 264.11 C 219.14 270.67 222.87 277.03 226.49 283.59 C 228.272 286.705 229.807 289.955 231.08 293.31 C 232.264 296.787 233.124 300.365 233.65 304 C 235.01 312.47 236.12 321 237.82 329.39 C 237.827 329.41 237.839 329.427 237.856 329.44 C 237.873 329.452 237.894 329.459 237.915 329.459 C 237.936 329.459 237.957 329.452 237.974 329.44 C 237.991 329.427 238.003 329.41 238.01 329.39 C 237.48 321.67 236.56 313.94 235.54 306.27 Z M 241 412.21 C 238.09 411.83 215.88 411.06 197.3 411.86 C 197.18 411.86 197.19 412.04 197.3 412.05 C 203.35 412.58 237.56 412.82 240.97 412.42 C 241.06 412.41 241.1 412.23 241 412.21 Z" stroke-width="1"/><path fill="#263238" d="M 198.92 221.66 C 193.726 223.552 188.707 225.895 183.92 228.66 C 183.879 228.679 183.847 228.713 183.831 228.755 C 183.815 228.797 183.817 228.844 183.835 228.885 C 183.854 228.926 183.888 228.958 183.93 228.974 C 183.972 228.99 184.019 228.988 184.06 228.97 C 189.12 226.79 194.29 224.71 199.23 222.26 C 199.309 222.219 199.369 222.148 199.396 222.063 C 199.423 221.977 199.415 221.885 199.374 221.805 C 199.333 221.726 199.262 221.666 199.177 221.639 C 199.092 221.612 199 221.619 198.92 221.66 Z M 200.45 187 C 200.45 186.83 200.13 186.79 200.13 187 C 200.131 192.651 199.847 198.298 199.28 203.92 C 199.04 206.53 196.94 220.92 192.42 219.92 C 191.66 219.74 191.28 219 191.16 217.85 C 191.173 216.357 191.374 214.872 191.76 213.43 C 192.26 210.43 192.66 207.43 192.92 204.34 C 193.45 198.662 193.39 192.945 192.74 187.28 C 192.732 187.248 192.713 187.22 192.686 187.2 C 192.66 187.179 192.628 187.168 192.595 187.168 C 192.562 187.168 192.53 187.179 192.504 187.2 C 192.477 187.22 192.458 187.248 192.45 187.28 C 192.581 195.15 192.12 203.019 191.07 210.82 C 190.5 214.57 188.61 220.22 192.54 220.82 C 196.47 221.42 199.12 211.95 199.6 209.36 C 200.851 201.975 201.137 194.459 200.45 187 Z" stroke-width="1"/><path fill="#263238" d="M 192.54 220.23 C 192.139 221.206 191.805 222.209 191.54 223.23 C 191.252 224.014 191.11 224.845 191.12 225.68 C 191.125 225.714 191.14 225.746 191.163 225.771 C 191.187 225.797 191.217 225.814 191.251 225.822 C 191.284 225.829 191.32 225.827 191.352 225.814 C 191.384 225.801 191.411 225.779 191.43 225.75 C 191.902 225.013 192.257 224.207 192.48 223.36 C 192.83 222.43 193.19 221.52 193.48 220.58 C 193.526 220.456 193.521 220.318 193.465 220.197 C 193.41 220.077 193.309 219.983 193.184 219.936 C 193.06 219.89 192.922 219.895 192.802 219.95 C 192.681 220.005 192.587 220.106 192.54 220.23 Z M 194.67 323.23 C 194.19 316.11 194.22 308.6 191.19 302 C 189.581 298.784 187.729 295.695 185.65 292.76 Q 182.55 288.02 179.53 283.23 C 171.53 270.46 163.81 257.43 156.78 244.08 C 153.39 237.65 150.27 231.01 148.57 223.91 C 146.912 216.439 146.597 208.732 147.64 201.15 C 147.88 199.26 148.14 197.38 148.45 195.5 C 148.451 195.475 148.443 195.449 148.428 195.429 C 148.412 195.409 148.39 195.395 148.366 195.389 C 148.341 195.383 148.315 195.386 148.292 195.397 C 148.269 195.408 148.251 195.427 148.24 195.45 C 146.595 202.66 146.032 210.074 146.57 217.45 C 147.34 224.502 149.326 231.367 152.44 237.74 C 155.54 244.45 159.23 250.91 162.87 257.34 Q 168.5 267.34 174.46 277.05 C 178.46 283.51 182.58 289.84 186.71 296.2 C 188.817 299.2 190.458 302.5 191.58 305.99 C 192.489 309.632 193.012 313.359 193.14 317.11 C 194.14 332.85 198.14 385.18 199.56 400.84 C 199.73 402.84 199.91 404.84 200.1 406.84 C 200.091 406.873 200.094 406.909 200.11 406.94 C 200.126 406.971 200.152 406.995 200.185 407.008 C 200.217 407.02 200.253 407.02 200.285 407.008 C 200.318 406.995 200.344 406.971 200.36 406.94 C 200.376 406.909 200.379 406.873 200.37 406.84 C 199.77 391.12 195.7 338.92 194.67 323.23 Z" stroke-width="1"/><path fill="#263238" d="M 170.2 194.8 C 170.2 194.69 170.02 194.73 170.02 194.8 C 169.87 199.17 170.02 203.69 168.31 207.8 C 166.77 211.59 163.67 214.25 160.2 216.24 C 158.182 217.372 156.102 218.391 153.97 219.29 C 153.82 219.36 153.88 219.6 154.05 219.55 C 158.05 218.27 162.18 216.88 165.53 214.2 C 169.11 211.32 170.68 207.15 170.85 202.65 C 170.911 200.018 170.693 197.386 170.2 194.8 Z" stroke-width="1"/><path fill="#d3766a" d="M 192.39 123.57 C 198.11 141.13 213.56 171.04 219.08 174.65 C 223.97 177.84 246.98 174.28 257.08 171.85 C 260.84 170.94 252.38 142.28 248.37 143.33 C 243.56 144.59 229.23 147.82 228.19 147.02 C 227.15 146.22 212.7 128.42 202.46 117.94 C 193.14 108.45 190.23 116.93 192.39 123.57 Z" stroke-width="1"/><path fill="#d3766a" d="M 254.87 172.07 C 256.8 171.83 273.13 171.07 280.62 167 C 284.62 164.83 294.83 157.65 293.81 155.07 C 292.88 152.72 289.6 154 289.6 154 C 289.6 154 294.11 150.73 292.79 147.47 C 291.47 144.21 286.02 146.66 286.02 146.66 C 286.02 146.66 290.41 142.96 288.86 139.81 C 287.31 136.66 282.25 140.03 282.25 140.03 C 282.25 140.03 286.42 136.84 284.05 134.78 C 281.19 132.3 274.16 139.06 269.41 140.64 C 268.33 141 247.05 146.38 247.05 146.38 Z" stroke-width="1"/><path fill="#263238" d="M 282.07 139.94 C 276.89 144.89 273.76 146.16 266.84 147.56 C 266.71 147.56 266.72 147.8 266.84 147.78 C 273.74 147.03 277.89 146 282.3 140.18 C 282.54 139.89 282.31 139.7 282.07 139.94 Z M 285.85 146.54 C 280.02 151.22 276.64 152.62 269.5 154.62 C 269.4 154.62 269.44 154.83 269.55 154.81 C 276.71 153.43 280.83 152.31 286.04 146.87 C 286.28 146.63 286.12 146.33 285.85 146.54 Z M 289.25 154.08 C 283.25 158.2 279.64 159.91 272.46 160.96 C 272.426 160.96 272.392 160.974 272.368 160.998 C 272.344 161.022 272.33 161.056 272.33 161.09 C 272.33 161.124 272.344 161.158 272.368 161.182 C 272.392 161.206 272.426 161.22 272.46 161.22 C 279.89 160.86 284.46 158.77 289.33 154.28 C 289.69 154 289.62 153.83 289.25 154.08 Z" stroke-width="1"/><path fill="#d3766a" d="M 241.47 147.3 C 241.47 147.3 247.42 140.57 250.68 138.19 C 253.94 135.81 269.38 131.41 270.52 134.69 C 271.99 138.93 263.58 143.22 259.19 144.78 C 259.19 144.78 262.6 154.58 257.19 158.96 C 251.78 163.34 241.47 147.3 241.47 147.3 Z" stroke-width="1"/><path fill="#263238" d="M 270.55 136 C 269.1 140.83 263.2 142.51 259.05 144.34 C 258.968 144.375 258.899 144.436 258.852 144.512 C 258.806 144.589 258.785 144.678 258.792 144.767 C 258.798 144.856 258.833 144.941 258.89 145.01 C 260.05 149.21 260.45 155.47 257.51 159.01 C 257.43 159.11 257.56 159.25 257.66 159.16 C 261.33 155.8 261.43 149.61 259.87 145.09 C 264.16 143.28 270 141.33 270.59 136.02 C 270.6 136 270.56 136 270.55 136 Z" stroke-width="1"/><path fill="#ffc727" d="M 254.86 177 L 247.32 142.66 L 228.66 146.05 C 221.3 137.62 206.59 120.77 200.66 115.71 C 193.66 109.77 189.08 114.23 191.66 123.23 C 197.49 143.8 214.54 174 219 176.85 C 225.47 181 254.86 177 254.86 177 Z" stroke-width="1"/><path fill="#ffc727" d="M 228.22 156.5 C 229.144 156.701 230.085 156.811 231.03 156.83 C 233.03 157.1 233.91 160.05 232.09 161.17 C 231.134 161.759 230.054 162.115 228.935 162.211 C 227.817 162.306 226.692 162.138 225.65 161.72 C 223.65 160.94 221.96 159 222.39 156.72 C 222.49 156.151 222.784 155.634 223.221 155.257 C 223.659 154.88 224.214 154.666 224.792 154.652 C 225.37 154.638 225.934 154.825 226.39 155.18 C 226.944 155.693 227.559 156.136 228.22 156.5 Z M 223.06 148.33 C 222.34 151.73 227.6 154.65 230.29 152.84 C 230.58 152.62 230.797 152.318 230.913 151.973 C 231.029 151.628 231.038 151.257 230.939 150.906 C 230.841 150.556 230.639 150.244 230.36 150.01 C 229.57 149.37 228.91 149.27 228.21 148.69 C 227.965 148.499 227.75 148.273 227.57 148.02 C 227.173 147.473 226.666 147.017 226.08 146.68 C 225.672 146.506 225.222 146.459 224.787 146.547 C 224.353 146.635 223.955 146.852 223.647 147.17 C 223.338 147.488 223.134 147.893 223.06 148.33 Z M 214.67 148.51 C 213.59 149.92 214.4 152.04 215.35 153.32 C 215.778 153.957 216.367 154.47 217.057 154.806 C 217.747 155.141 218.515 155.288 219.28 155.23 C 219.654 155.177 219.993 154.982 220.226 154.685 C 220.459 154.388 220.567 154.011 220.529 153.636 C 220.491 153.26 220.308 152.914 220.02 152.67 C 219.419 152.213 218.938 151.615 218.62 150.93 C 218.15 149.87 217.84 148.5 216.62 148.04 C 216.287 147.903 215.919 147.875 215.569 147.959 C 215.219 148.043 214.904 148.236 214.67 148.51 Z M 236.82 170.75 C 235.41 173.6 239.7 176.84 242.3 176.28 C 243.17 176.09 244.01 174.95 243.24 174.13 C 242.62 173.47 241.88 172.95 241.3 172.25 C 240.59 171.4 240.2 170.31 239.09 169.88 C 238.672 169.705 238.203 169.698 237.781 169.86 C 237.358 170.022 237.014 170.341 236.82 170.75 Z M 196.54 135.8 C 196.294 135.332 195.953 134.92 195.54 134.59 Q 196.38 136.74 197.31 138.9 C 197.343 137.816 197.077 136.743 196.54 135.8 Z M 202.11 132.8 C 201.914 130.33 200.949 127.983 199.35 126.09 C 198.15 124.54 196.07 122.09 193.87 122.62 C 193.636 122.693 193.432 122.84 193.288 123.038 C 193.144 123.236 193.067 123.475 193.07 123.72 C 192.93 125.41 194.87 127.22 195.71 128.57 C 196.71 130.27 197.5 132.15 198.58 133.84 C 198.806 134.187 199.138 134.453 199.527 134.596 C 199.915 134.739 200.34 134.752 200.737 134.634 C 201.134 134.516 201.483 134.273 201.73 133.94 C 201.978 133.608 202.111 133.204 202.11 132.79 Z M 201.46 143.55 C 201.851 143.53 202.225 143.385 202.527 143.137 C 202.829 142.888 203.044 142.549 203.14 142.17 C 203.295 141.394 203.244 140.59 202.99 139.84 C 202.841 139.126 202.494 138.468 201.99 137.94 C 201.748 137.716 201.436 137.584 201.108 137.565 C 200.779 137.546 200.453 137.642 200.188 137.836 C 199.922 138.03 199.732 138.311 199.65 138.63 C 199.57 139.214 199.57 139.806 199.65 140.39 L 199.65 141.15 C 199.645 141.527 199.685 141.903 199.77 142.27 C 199.878 142.635 200.1 142.956 200.405 143.185 C 200.709 143.414 201.079 143.538 201.46 143.54 Z" stroke-width="1"/><path fill="#263238" d="M 248.33 174 C 247.47 172 245.33 163.12 244.86 160.91 C 244.39 158.7 242.65 149.76 242.14 147.49 C 242.14 147.36 242.28 147.29 242.31 147.41 C 242.85 149.65 245.26 158.47 245.79 160.67 C 246.32 162.87 248.31 171.74 248.45 173.97 C 248.454 173.986 248.451 174.003 248.443 174.017 C 248.434 174.031 248.421 174.041 248.405 174.045 C 248.389 174.049 248.372 174.046 248.358 174.038 C 248.344 174.029 248.334 174.016 248.33 174 Z" stroke-width="1"/><path fill="#ffc727" d="M 231 178.72 C 225.75 178.72 221.14 178.22 219 176.85 C 214.51 173.95 197.46 143.85 191.59 123.24 C 190.11 118.08 191 114.4 193.34 113.33 Z" stroke-width="1"/><path fill="#ffc727" d="M 146.38 185.71 C 146.51 185.9 208.91 193.9 209.58 193.32 C 209.933 191.583 210.183 189.827 210.33 188.06 C 210.33 188.06 204.61 120.12 201.65 116.13 C 199.06 112.65 191.2 110.13 185.85 112.4 C 174.62 117.16 147.73 177.86 148.02 180.4 C 148 180.37 146.22 185.47 146.38 185.71 Z" stroke-width="1"/><path fill="#ffc727" d="M 168.88 177.44 C 169.842 177.907 170.847 178.282 171.88 178.56 C 173.96 179.39 174.15 182.86 171.88 183.56 C 170.673 183.943 169.394 184.038 168.144 183.839 C 166.894 183.639 165.707 183.15 164.68 182.41 C 162.68 181.01 161.39 178.41 162.47 176.09 C 162.735 175.499 163.196 175.017 163.775 174.726 C 164.354 174.435 165.016 174.352 165.648 174.491 C 166.281 174.63 166.847 174.983 167.25 175.49 C 167.81 176.14 168.15 177 168.88 177.44 Z M 165.46 167.11 C 163.75 170.64 168.7 175.25 172.13 174 C 172.514 173.846 172.842 173.577 173.067 173.229 C 173.291 172.882 173.403 172.473 173.386 172.059 C 173.368 171.646 173.223 171.248 172.97 170.92 C 172.29 170.01 171.59 169.72 170.97 168.92 C 170.756 168.644 170.584 168.337 170.46 168.01 C 170.164 167.312 169.733 166.68 169.19 166.15 C 168 165 166.09 165.81 165.46 167.11 Z M 159.68 163.35 C 157.81 164.05 157.33 166.57 157.47 168.35 C 157.499 169.215 157.756 170.056 158.217 170.789 C 158.677 171.521 159.323 172.119 160.09 172.52 C 160.478 172.693 160.918 172.709 161.317 172.565 C 161.716 172.42 162.044 172.126 162.231 171.745 C 162.418 171.364 162.45 170.924 162.32 170.52 C 162.003 169.72 161.892 168.853 162 168 C 162.17 166.72 162.68 165.22 161.83 164.07 C 161.593 163.739 161.258 163.49 160.872 163.361 C 160.486 163.232 160.068 163.228 159.68 163.35 Z M 180.18 175.25 C 179.707 175.209 179.236 175.352 178.864 175.647 C 178.492 175.943 178.247 176.37 178.18 176.84 C 178.129 177.345 178.256 177.853 178.539 178.274 C 178.822 178.696 179.243 179.006 179.73 179.15 C 180.412 179.375 181.148 179.375 181.83 179.15 C 182.179 179.012 182.467 178.753 182.64 178.42 C 182.841 178.098 182.922 177.716 182.87 177.34 C 182.815 176.989 182.654 176.664 182.409 176.407 C 182.165 176.149 181.847 175.973 181.5 175.9 C 181.437 175.817 181.363 175.743 181.28 175.68 C 180.963 175.433 180.58 175.284 180.18 175.25 Z M 164.85 151.12 C 163.17 152.84 163.85 156.75 165.77 158.07 C 166.101 158.322 166.51 158.449 166.925 158.431 C 167.341 158.413 167.737 158.25 168.044 157.97 C 168.352 157.691 168.552 157.312 168.61 156.9 C 168.64 156.504 168.64 156.106 168.61 155.71 C 168.61 155.28 168.55 155.01 168.61 154.71 C 168.76 153.855 168.79 152.983 168.7 152.12 C 168.596 151.571 168.287 151.082 167.836 150.753 C 167.385 150.424 166.825 150.279 166.27 150.347 C 165.716 150.415 165.208 150.691 164.85 151.12 Z M 154 176 C 151.69 178.74 155.5 183.44 158.49 183.53 C 159.49 183.53 160.72 182.53 160.1 181.43 C 159.6 180.55 158.93 179.77 158.49 178.86 C 157.95 177.74 157.82 176.43 156.72 175.67 C 156.31 175.369 155.8 175.235 155.295 175.296 C 154.789 175.357 154.326 175.609 154 176 Z M 209.17 175.13 C 208.794 175.186 208.442 175.353 208.161 175.61 C 207.88 175.866 207.681 176.2 207.59 176.57 C 207.27 177.68 207.23 178.67 206.4 179.57 C 205.502 180.277 204.695 181.093 204 182 C 203.845 182.303 203.799 182.651 203.872 182.984 C 203.945 183.317 204.131 183.614 204.399 183.825 C 204.667 184.036 204.999 184.147 205.34 184.14 C 207.086 183.925 208.685 183.052 209.81 181.7 C 209.61 179.8 209.41 177.57 209.18 175.09 Z M 204.17 166.88 C 203.61 168.24 203.71 169.78 203.24 171.2 C 202.828 172.502 202.337 173.777 201.77 175.02 C 201.35 175.92 202.19 177.34 203.28 176.86 C 205.052 176.18 206.503 174.854 207.34 173.15 C 208.1 171.58 208.94 168.94 208.21 167.27 C 207.48 165.6 205 164.87 204.15 166.84 Z M 198.47 180.51 C 197.639 181.584 196.576 182.455 195.36 183.06 C 194.894 183.205 194.491 183.505 194.219 183.91 C 193.946 184.315 193.82 184.801 193.862 185.287 C 193.904 185.773 194.111 186.231 194.449 186.584 C 194.786 186.936 195.234 187.163 195.718 187.226 C 196.202 187.289 196.693 187.184 197.11 186.93 C 198.145 186.486 199.07 185.821 199.819 184.982 C 200.569 184.142 201.126 183.148 201.45 182.07 C 201.92 180.34 199.58 179.21 198.45 180.47 Z M 189.33 131.51 C 189.889 131.628 190.472 131.525 190.956 131.224 C 191.441 130.922 191.79 130.443 191.93 129.89 C 192.49 127.74 190.57 125.53 189.05 124.19 C 187.53 122.85 185.39 121.63 183.26 122.32 C 182.88 122.443 182.554 122.692 182.335 123.026 C 182.117 123.36 182.019 123.759 182.058 124.156 C 182.097 124.553 182.271 124.925 182.55 125.21 C 183.48 126.37 184.77 127.21 185.76 128.35 C 186.75 129.49 187.57 131.18 189.31 131.47 Z M 197 140 C 197.84 138.79 197.19 137 196.59 135.85 C 196.271 135.216 195.774 134.688 195.16 134.33 C 194.747 134.066 194.246 133.975 193.767 134.078 C 193.288 134.181 192.868 134.47 192.6 134.88 C 192.327 135.448 192.284 136.101 192.48 136.7 C 192.564 137.014 192.677 137.318 192.82 137.61 L 192.82 137.78 C 192.999 138.735 193.403 139.633 194 140.4 C 194.276 140.678 194.632 140.864 195.018 140.932 C 195.404 141 195.802 140.947 196.157 140.78 C 196.512 140.614 196.806 140.341 197 140 Z M 202.16 132.84 C 201.964 130.37 200.999 128.023 199.4 126.13 C 198.2 124.58 196.12 122.13 193.92 122.66 C 193.686 122.733 193.482 122.88 193.338 123.078 C 193.194 123.276 193.117 123.515 193.12 123.76 C 192.98 125.45 194.92 127.26 195.76 128.61 C 196.76 130.31 197.55 132.19 198.63 133.88 C 198.865 134.208 199.199 134.454 199.582 134.582 C 199.965 134.71 200.379 134.714 200.764 134.593 C 201.15 134.473 201.487 134.233 201.729 133.909 C 201.971 133.586 202.104 133.194 202.11 132.79 Z M 194.61 149.96 C 194.976 150.04 195.354 150.04 195.72 149.96 C 196.274 149.789 196.743 149.414 197.03 148.91 C 197.299 148.374 197.433 147.78 197.42 147.18 C 197.402 146.612 197.248 146.056 196.97 145.56 L 196.64 145.15 L 196.2 144.83 C 195.832 144.64 195.415 144.566 195.004 144.616 C 194.593 144.667 194.206 144.84 193.895 145.114 C 193.584 145.388 193.363 145.749 193.26 146.15 C 193.094 146.732 192.976 147.328 192.91 147.93 L 193 148.48 C 193.07 148.756 193.207 149.01 193.4 149.22 C 193.702 149.569 194.109 149.811 194.56 149.91 Z M 201.51 143.59 C 201.901 143.57 202.275 143.425 202.577 143.177 C 202.879 142.928 203.094 142.589 203.19 142.21 C 203.345 141.434 203.294 140.63 203.04 139.88 C 202.891 139.166 202.544 138.508 202.04 137.98 C 201.798 137.756 201.486 137.624 201.158 137.605 C 200.829 137.586 200.503 137.682 200.238 137.876 C 199.972 138.07 199.782 138.351 199.7 138.67 C 199.62 139.254 199.62 139.846 199.7 140.43 L 199.7 141.19 C 199.695 141.567 199.735 141.943 199.82 142.31 C 199.932 142.66 200.15 142.966 200.444 143.187 C 200.738 143.407 201.093 143.53 201.46 143.54 Z" stroke-width="1"/><path fill="#d3766a" d="M 198 126.78 C 194.19 126.43 189.31 118.29 188.38 113.12 C 188.32 112.76 189.84 109.75 191.51 106.01 C 192.51 103.74 193.59 101.18 194.39 98.78 L 208.23 107.49 C 206.363 110.207 204.835 113.142 203.68 116.23 C 203.577 116.556 203.503 116.891 203.46 117.23 C 203.464 117.287 203.464 117.343 203.46 117.4 C 203.11 119.4 201.69 127.12 198 126.78 Z" stroke-width="1"/><path fill="#263238" d="M 203.46 117.25 C 203.463 117.307 203.463 117.363 203.46 117.42 C 202.927 117.316 202.402 117.172 201.89 116.99 C 193.23 113.87 194.76 102.51 195.37 99.37 L 198.82 101.55 L 208.27 107.55 C 206.403 110.266 204.879 113.201 203.73 116.29 C 203.611 116.601 203.521 116.922 203.46 117.25 Z" stroke-width="1"/><path fill="#d3766a" d="M 195.84 82.75 C 192.98 87.9 192.48 104.44 195.65 108.83 C 200.23 115.19 209.43 117.67 215.26 111.83 C 220.91 106.11 221.17 84.54 217.49 80.38 C 212.05 74.2 200.06 75.14 195.84 82.75 Z" stroke-width="1"/><path fill="#263238" d="M 209.12 96.12 C 209.12 96.12 209.03 96.12 209.03 96.22 C 209.03 97.36 208.83 98.66 207.79 99 L 207.79 99.07 C 209.06 98.93 209.3 97.2 209.12 96.12 Z" stroke-width="1"/><path fill="#263238" d="M 208.15 94.9 C 206.32 94.7 206.05 98.36 207.74 98.55 C 209.43 98.74 209.68 95.07 208.15 94.9 Z M 215.68 96.51 C 215.68 96.51 215.76 96.57 215.76 96.62 C 215.63 97.75 215.68 99.07 216.67 99.52 L 216.67 99.59 C 215.42 99.31 215.38 97.56 215.68 96.51 Z" stroke-width="1"/><path fill="#263238" d="M 216.79 95.41 C 218.62 95.41 218.47 99.08 216.79 99.08 C 215.11 99.08 215.25 95.4 216.79 95.41 Z M 209.63 94.16 C 209.12 94.27 208.63 94.28 208.13 94.34 C 207.612 94.475 207.064 94.437 206.57 94.23 C 206.426 94.135 206.318 93.996 206.262 93.833 C 206.206 93.67 206.205 93.493 206.26 93.33 C 206.424 93.032 206.664 92.782 206.955 92.607 C 207.247 92.431 207.58 92.336 207.92 92.33 C 208.611 92.197 209.326 92.333 209.92 92.71 C 210.086 92.834 210.198 93.017 210.234 93.221 C 210.271 93.425 210.229 93.635 210.117 93.809 C 210.005 93.983 209.831 94.109 209.63 94.16 Z M 218.43 92 C 217.944 91.864 217.467 91.7 217 91.51 C 216.474 91.411 215.996 91.14 215.64 90.74 C 215.551 90.593 215.514 90.421 215.534 90.251 C 215.553 90.081 215.63 89.922 215.75 89.8 C 216.023 89.591 216.348 89.46 216.69 89.422 C 217.031 89.383 217.377 89.438 217.69 89.58 C 218.365 89.765 218.949 90.192 219.33 90.78 C 219.436 90.967 219.465 91.188 219.412 91.396 C 219.358 91.604 219.226 91.784 219.043 91.896 C 218.86 92.009 218.64 92.046 218.43 92 Z M 208.29 105.14 C 209.762 104.787 211.298 104.787 212.77 105.14 C 212.9 105.14 213.03 104.88 213.06 104.76 C 213.09 104.64 213.14 102.36 213.14 102.36 C 213.45 102.54 215.01 103.36 215.01 102.92 C 215.173 99.019 214.935 95.112 214.3 91.26 C 214.293 91.238 214.279 91.218 214.26 91.204 C 214.241 91.19 214.218 91.183 214.195 91.183 C 214.172 91.183 214.149 91.19 214.13 91.204 C 214.111 91.218 214.097 91.238 214.09 91.26 C 213.93 94.87 214.39 98.47 214.28 102.1 C 213.728 101.794 213.136 101.569 212.52 101.43 C 212.39 101.43 212.52 103.98 212.52 104.36 C 211.144 103.886 209.636 103.969 208.32 104.59 C 207.8 104.92 207.59 105.36 208.29 105.14 Z M 205.33 107.52 C 205.58 107.8 205.83 108.18 206.23 108.24 C 206.65 108.26 207.07 108.188 207.46 108.03 C 207.46 108.03 207.53 108.03 207.46 108.09 C 207.288 108.302 207.06 108.463 206.803 108.555 C 206.545 108.646 206.268 108.666 206 108.61 C 205.781 108.54 205.588 108.409 205.442 108.231 C 205.297 108.054 205.206 107.838 205.18 107.61 C 205.2 107.5 205.29 107.48 205.33 107.52 Z" stroke-width="1"/><path fill="#263238" d="M 200.67 77.5 C 200.52 80.07 199.91 88.04 198.67 89.66 C 197.43 91.28 194.81 95.05 193.48 95.66 C 193.66 90.35 194.48 85.3 195.85 82.66 C 196.973 80.545 198.636 78.764 200.67 77.5 Z" stroke-width="1"/><path fill="#263238" d="M 214.92 85.29 C 214.221 86.002 213.351 86.522 212.393 86.803 C 211.436 87.083 210.422 87.113 209.45 86.89 C 208.455 86.669 207.533 86.194 206.775 85.513 C 206.016 84.831 205.446 83.966 205.12 83 C 205.12 82.94 205.01 83 205.03 83 C 205.284 84.043 205.819 84.996 206.578 85.756 C 207.336 86.516 208.288 87.053 209.33 87.31 C 210.37 87.509 211.445 87.428 212.445 87.077 C 213.444 86.726 214.333 86.116 215.02 85.31 C 215.08 85.32 215 85.23 214.92 85.29 Z M 209.9 70.47 C 208.363 70.366 206.825 70.651 205.427 71.297 C 204.029 71.944 202.816 72.932 201.9 74.17 C 201.12 75.43 200.788 76.918 200.96 78.39 L 201.09 78.39 C 201.109 77.098 201.477 75.835 202.155 74.735 C 202.832 73.635 203.795 72.738 204.94 72.14 C 206.192 71.439 207.589 71.037 209.022 70.966 C 210.455 70.895 211.885 71.157 213.2 71.73 C 214.493 72.263 215.557 73.238 216.2 74.48 C 216.26 74.61 216.52 74.55 216.47 74.42 C 215.65 72.24 213 70.62 209.9 70.47 Z M 229 79.19 C 228.565 77.497 227.544 76.012 226.12 75 C 224.12 73.57 221.78 73.59 219.44 73.67 C 219.37 73.67 219.38 73.77 219.44 73.76 C 221.429 73.552 223.437 73.924 225.22 74.83 C 226.671 75.701 227.777 77.047 228.35 78.64 C 228.895 80.273 228.832 82.05 228.172 83.64 C 227.513 85.231 226.301 86.531 224.76 87.3 C 223.863 87.722 222.889 87.955 221.899 87.986 C 220.908 88.017 219.922 87.845 219 87.48 C 218.93 87.48 218.87 87.55 218.94 87.59 C 220.611 88.328 222.498 88.414 224.229 87.83 C 225.959 87.247 227.41 86.036 228.293 84.437 C 229.176 82.838 229.428 80.965 229 79.19 Z" stroke-width="1"/><path fill="#263238" d="M 194.84 86 C 194.84 86 192.08 79.71 195.03 76.41 C 196.7 74.55 201.72 75.19 201.72 75.19 C 203.219 73.287 205.415 72.056 207.82 71.77 C 212.11 71.1 217 74 217 74 C 217 74 221.18 72 224.77 74.43 C 229.77 77.82 228.52 85.75 223.06 87.91 C 219.22 89.44 214.44 85.78 214.44 85.78 C 213.96 85.78 208.78 88.42 205.37 83.72 C 205.37 83.72 202.13 86.19 199.54 84.09 C 199.048 84.852 198.332 85.445 197.491 85.786 C 196.651 86.128 195.725 86.203 194.84 86 Z" stroke-width="1"/><path fill="#d3766a" d="M 196.47 96.45 C 196.47 96.45 193.85 90.58 191.26 91.45 C 188.67 92.32 189.93 100.3 192.49 101.86 C 192.907 102.15 193.394 102.323 193.901 102.361 C 194.408 102.398 194.915 102.299 195.37 102.074 C 195.826 101.849 196.212 101.505 196.49 101.08 Z" stroke-width="1"/><path fill="#263238" d="M 191.68 93.71 L 191.68 93.78 C 193.46 94.93 194.13 96.92 194.48 98.91 C 194.379 98.623 194.198 98.372 193.957 98.186 C 193.716 98.001 193.427 97.889 193.124 97.865 C 192.821 97.841 192.517 97.905 192.25 98.05 C 192.19 98.05 192.25 98.16 192.25 98.16 C 192.614 98.118 192.982 98.192 193.302 98.371 C 193.622 98.551 193.877 98.827 194.03 99.16 C 194.301 99.701 194.509 100.271 194.65 100.86 C 194.65 101.05 195.03 101.02 195.01 100.86 C 195.52 98.28 194.27 94.47 191.68 93.71 Z" stroke-width="1"/><path fill="#ffc727" d="M 227.415 141.078 L 335.078 108.101 L 354.49 171.474 L 246.827 204.452 Z" stroke-width="1"/><path fill="#ffc727" d="M 227.415 141.078 L 335.078 108.101 L 354.49 171.474 L 246.827 204.452 Z" stroke-width="1"/><path fill="#ffc727" d="M 298.892 119.183 L 335.073 108.101 L 354.484 171.475 L 318.304 182.557 Z" stroke-width="1"/><path fill="#ffc727" d="M 333.34 111.33 Q 331.51 119.75 329.78 128.17 L 326.37 145.05 L 323.07 162 Q 321.45 170.46 319.91 178.95 Q 321.74 170.54 323.47 162.11 L 326.88 145.23 L 330.18 128.32 Q 331.8 119.82 333.34 111.33 Z" stroke-width="1"/><path fill="#ffc727" d="M 351.11 169.35 Q 345.11 163.19 339 157.08 L 326.8 144.92 L 314.52 132.85 Q 308.36 126.85 302.14 120.85 Q 308.14 127.02 314.25 133.12 L 326.45 145.28 L 338.73 157.35 Q 344.9 163.41 351.11 169.35 Z" stroke-width="1"/><path fill="#263238" d="M 248.686 149.063 L 248.093 149.245 L 245.542 140.917 L 246.135 140.735 Z M 247.278 149.486 L 246.685 149.668 L 244.134 141.34 L 244.727 141.158 Z M 245.857 149.94 L 245.264 150.121 L 242.713 141.793 L 243.306 141.611 Z M 244.45 150.348 L 243.857 150.529 L 241.308 142.201 L 241.901 142.019 Z M 243.031 150.788 L 242.438 150.97 L 239.887 142.642 L 240.48 142.46 Z M 241.62 151.212 L 241.027 151.393 L 238.476 143.065 L 239.069 142.884 Z M 240.192 151.678 L 239.599 151.859 L 237.048 143.531 L 237.641 143.35 Z M 238.779 152.098 L 238.186 152.28 L 235.634 143.952 L 236.226 143.77 Z M 237.353 152.547 L 236.76 152.729 L 234.209 144.401 L 234.802 144.219 Z M 252.13 139.59 L 249.67 139.65 L 255 138 L 252.92 139.34 L 253.86 142.4 C 255.55 142.11 256.69 143.52 257.55 146.32 L 252.22 148 C 251.36 145.21 251.51 143.4 253.07 142.69 Z M 257.49 141.72 L 258.88 141.29 L 257.63 137.21 L 261.19 136.12 L 262.44 140.2 L 263.84 139.77 L 261.96 144.99 L 257.49 141.72 Z" stroke-width="1"/><path fill="#ffc727" d="M 227.42 141.08 L 229.01 146.28 L 303.43 134 L 298.89 119.19 L 227.42 141.08 Z" stroke-width="1"/><path fill="#ffc727" d="M 368.44 178.66 L 332.25 189.74 L 318.3 182.56 L 354.49 171.47 L 368.44 178.66 Z" stroke-width="1"/><path fill="#ffc727" d="M 368.44 178.66 L 332.25 189.74 L 318.3 182.56 L 354.49 171.47 L 368.44 178.66 Z" stroke-width="1"/><path fill="#ffc727" d="M 239.29 218.22 L 275.48 207.13 L 283.01 193.37 L 246.82 204.45 L 239.29 218.22 Z" stroke-width="1"/><path fill="#ffc727" d="M 239.29 218.22 L 275.48 207.13 L 283.01 193.37 L 246.82 204.45 L 239.29 218.22 Z" stroke-width="1"/><path fill="#d3766a" d="M 179.73 131.3 C 185.02 148.99 199.73 179.3 205.19 183 C 210 186.31 233.09 183.3 243.19 181.11 C 246.97 180.3 239.19 151.44 235.19 152.39 C 230.35 153.54 215.94 156.39 214.92 155.6 C 213.9 154.81 199.92 136.6 189.92 125.92 C 180.84 116.2 177.73 124.61 179.73 131.3 Z" stroke-width="1"/><path fill="#d3766a" d="M 233.11 154.74 C 233.11 154.74 240.76 146.12 246.18 142.83 C 251.901 139.556 258.333 137.719 264.92 137.48 C 272.03 137.2 289.42 141.42 289.07 146.64 C 288.76 151.37 271.21 146.15 271.21 146.15 C 271.21 146.15 289.98 148.52 288.56 154.15 C 287.14 159.78 267.11 152.55 267.11 152.55 C 267.11 152.55 286.34 155.41 284 161 C 282.2 165.21 263.69 159.69 263.69 159.69 C 263.69 159.69 280.21 162.27 278.54 166.69 C 276.7 171.56 259.29 167.54 259.29 167.54 C 253.18 178.02 245.97 180.54 240.64 181.67 C 239.31 181.9 233.11 154.74 233.11 154.74 Z" stroke-width="1"/><path fill="#263238" d="M 264.77 144.91 C 266.98 145.11 269.23 145.3 271.42 145.69 C 273.61 146.08 275.78 146.56 277.93 147.16 C 280.746 147.884 283.471 148.927 286.05 150.27 C 281.3 148.22 273.48 146.68 271.29 146.27 C 269.1 145.86 266.93 145.37 264.75 144.98 C 264.69 145 264.71 144.91 264.77 144.91 Z M 263.2 152.8 C 266.01 153.17 268.83 153.44 271.63 153.94 C 274.43 154.44 277.02 155.16 279.77 155.85 C 279.98 155.9 279.88 156 279.67 155.95 C 276.89 155.37 274.29 155.05 271.51 154.51 C 268.73 153.97 265.97 153.31 263.18 152.86 C 263.14 152.86 263.15 152.79 263.2 152.8 Z M 260.63 159.32 C 264.966 159.791 269.243 160.709 273.39 162.06 C 273.6 162.12 273.46 162.23 273.24 162.18 C 269.02 161.18 265.71 160.38 260.62 159.47 C 260.54 159.46 260.54 159.31 260.63 159.32 Z" stroke-width="1"/><path fill="#ffc727" d="M 240.9 186.23 L 234.18 151.71 L 215.45 154.65 C 208.29 146.05 193.99 128.85 188.15 123.65 C 181.3 117.54 176.61 121.9 178.96 130.95 C 184.34 151.64 200.66 182.2 205.08 185.2 C 211.42 189.5 240.9 186.23 240.9 186.23 Z" stroke-width="1"/><path fill="#ffc727" d="M 228.22 156.5 C 229.144 156.701 230.085 156.811 231.03 156.83 C 233.03 157.1 233.91 160.05 232.09 161.17 C 231.134 161.759 230.054 162.115 228.935 162.211 C 227.817 162.306 226.692 162.138 225.65 161.72 C 223.65 160.94 221.96 159 222.39 156.72 C 222.49 156.151 222.784 155.634 223.221 155.257 C 223.659 154.88 224.214 154.666 224.792 154.652 C 225.37 154.638 225.934 154.825 226.39 155.18 C 226.944 155.693 227.559 156.136 228.22 156.5 Z M 226.22 152.96 C 226.847 153.262 227.538 153.409 228.235 153.389 C 228.931 153.368 229.612 153.179 230.22 152.84 C 230.444 152.69 230.624 152.483 230.74 152.24 Z M 216.49 154.48 C 217.286 155.061 218.269 155.329 219.25 155.23 C 219.588 155.184 219.9 155.02 220.13 154.768 C 220.36 154.516 220.494 154.191 220.51 153.85 Z M 237.69 169.89 C 237.294 170.056 236.974 170.362 236.79 170.75 C 235.95 172.44 237.12 174.26 238.79 175.35 Z M 207.57 176.53 C 207.25 177.64 207.21 178.63 206.38 179.53 C 205.486 180.25 204.687 181.08 204 182 C 203.845 182.303 203.799 182.651 203.872 182.984 C 203.945 183.317 204.131 183.614 204.399 183.825 C 204.667 184.036 204.999 184.147 205.34 184.14 C 207.082 183.926 208.681 183.064 209.818 181.727 C 210.955 180.39 211.548 178.674 211.48 176.92 C 211.424 176.471 211.217 176.053 210.892 175.737 C 210.568 175.421 210.146 175.223 209.695 175.178 C 209.245 175.133 208.792 175.242 208.411 175.488 C 208.031 175.733 207.745 176.101 207.6 176.53 Z M 204.12 166.84 C 203.56 168.2 203.66 169.74 203.19 171.16 C 202.778 172.462 202.287 173.737 201.72 174.98 C 201.3 175.88 202.14 177.3 203.23 176.82 C 205.002 176.14 206.453 174.814 207.29 173.11 C 208.05 171.54 208.89 168.9 208.16 167.23 C 207.43 165.56 205 164.87 204.15 166.84 Z M 189.28 131.47 C 189.839 131.588 190.422 131.485 190.906 131.184 C 191.391 130.882 191.74 130.403 191.88 129.85 C 192.44 127.7 190.52 125.49 189 124.15 C 187.48 122.81 185.34 121.59 183.21 122.28 C 182.83 122.403 182.504 122.652 182.285 122.986 C 182.067 123.32 181.969 123.719 182.008 124.116 C 182.047 124.513 182.221 124.885 182.5 125.17 C 183.43 126.33 184.72 127.17 185.71 128.31 C 186.7 129.45 187.57 131.18 189.31 131.47 Z M 197 140 C 197.84 138.79 197.19 137 196.59 135.85 C 196.271 135.216 195.774 134.688 195.16 134.33 C 194.747 134.066 194.246 133.975 193.767 134.078 C 193.288 134.181 192.868 134.47 192.6 134.88 C 192.327 135.448 192.284 136.101 192.48 136.7 C 192.564 137.014 192.677 137.318 192.82 137.61 L 192.82 137.78 C 192.999 138.735 193.403 139.633 194 140.4 C 194.276 140.678 194.632 140.864 195.018 140.932 C 195.404 141 195.802 140.947 196.157 140.78 C 196.512 140.614 196.806 140.341 197 140 Z M 194.61 150 C 194.976 150.08 195.354 150.08 195.72 150 C 196.274 149.829 196.743 149.454 197.03 148.95 C 197.299 148.414 197.433 147.82 197.42 147.22 C 197.402 146.652 197.248 146.096 196.97 145.6 L 196.64 145.19 L 196.2 144.87 C 195.832 144.68 195.415 144.606 195.004 144.656 C 194.593 144.707 194.206 144.88 193.895 145.154 C 193.584 145.428 193.363 145.789 193.26 146.19 C 193.094 146.772 192.976 147.368 192.91 147.97 L 193 148.52 C 193.07 148.796 193.207 149.05 193.4 149.26 C 193.708 149.594 194.114 149.822 194.56 149.91 Z M 203 139.85 L 201 137.6 C 200.681 137.562 200.358 137.643 200.094 137.827 C 199.831 138.012 199.644 138.287 199.57 138.6 C 199.49 139.184 199.49 139.776 199.57 140.36 L 199.57 141.12 C 199.565 141.497 199.605 141.873 199.69 142.24 C 199.799 142.621 200.033 142.954 200.354 143.186 C 200.675 143.418 201.064 143.535 201.46 143.52 C 201.851 143.5 202.225 143.355 202.527 143.107 C 202.829 142.858 203.044 142.519 203.14 142.14 C 203.29 141.377 203.242 140.589 203 139.85 Z" stroke-width="1"/><path fill="#263238" d="M 234.44 183.06 C 233.63 181.01 231.73 172.11 231.28 169.88 C 230.83 167.65 229.34 158.69 228.89 156.4 C 228.89 156.28 229.03 156.2 229.06 156.33 C 229.54 158.58 231.75 167.45 232.22 169.67 C 232.69 171.89 234.48 180.79 234.56 183.03 C 234.564 183.046 234.561 183.063 234.553 183.077 C 234.544 183.091 234.531 183.101 234.515 183.105 C 234.499 183.109 234.482 183.106 234.468 183.098 C 234.454 183.089 234.444 183.076 234.44 183.06 Z M 228.26 187.2 C 225.19 187.38 222.12 187.45 219.05 187.43 C 215.969 187.443 212.889 187.266 209.83 186.9 C 208.262 186.745 206.73 186.34 205.29 185.7 C 203.996 184.786 202.872 183.652 201.97 182.35 C 200.157 179.848 198.517 177.225 197.06 174.5 C 194.06 169.11 191.48 163.5 188.96 157.92 C 186.44 152.34 184.15 146.6 182.05 140.82 C 184.6 146.41 187.12 152.01 189.74 157.56 C 192.36 163.11 195.01 168.64 197.87 174.05 C 199.297 176.748 200.873 179.366 202.59 181.89 C 203.391 183.147 204.407 184.253 205.59 185.16 C 206.954 185.789 208.408 186.197 209.9 186.37 C 215.99 187.108 222.128 187.385 228.26 187.2 Z" stroke-width="1"/><path fill="#263238" d="M 184 145.7 C 183.589 145.285 183.218 144.833 182.89 144.35 C 182.551 143.871 182.291 143.341 182.12 142.78 C 182.271 143.028 182.434 143.269 182.61 143.5 L 183.1 144.21 C 183.429 144.688 183.73 145.186 184 145.7 Z M 199.79 136.43 C 202.32 138.97 204.59 141.76 206.94 144.43 C 209.29 147.1 211.54 149.92 213.94 152.58 L 214.83 153.58 C 214.99 153.73 215.14 153.9 215.29 154.04 C 215.44 154.18 215.44 154.17 215.51 154.23 C 215.58 154.29 215.58 154.23 215.62 154.23 C 216.38 154.23 217.34 154.06 218.2 153.95 L 223.52 153.16 C 227.06 152.64 230.61 152.1 234.16 151.62 L 234.3 152.5 L 234.09 151.63 L 234.14 151.63 C 230.63 152.38 227.14 153.05 223.58 153.7 C 221.81 154.02 220.04 154.3 218.26 154.57 C 217.35 154.728 216.432 154.835 215.51 154.89 C 215.437 154.899 215.363 154.899 215.29 154.89 C 215.192 154.861 215.1 154.813 215.02 154.75 C 214.919 154.672 214.822 154.588 214.73 154.5 L 214.24 154.02 C 213.92 153.69 213.62 153.36 213.32 153.02 C 210.97 150.29 208.69 147.53 206.45 144.73 L 203.1 140.52 C 202 139.21 201 137.77 199.79 136.43 Z" stroke-width="1"/><path fill="#263238" d="M 201.1 136.73 C 201.477 137.193 201.811 137.688 202.1 138.21 C 202.382 138.726 202.581 139.282 202.69 139.86 C 202.57 139.59 202.42 139.35 202.28 139.09 L 201.87 138.32 C 201.585 137.804 201.328 137.273 201.1 136.73 Z" stroke-width="1"/></g><g id="group_5"><path fill="#ffffff" d="M 281 60.77 C 280.999 66.283 278.946 71.603 275.243 75.687 C 271.54 79.771 266.445 82.333 260.958 82.872 C 255.472 83.41 249.976 81.886 245.55 78.6 L 234.66 81.38 L 239.19 71.25 C 236.622 66.453 235.904 60.877 237.172 55.586 C 238.44 50.295 241.608 45.65 246.07 42.538 C 250.533 39.426 255.987 38.059 261.39 38.698 C 266.793 39.337 271.778 41.939 275.391 46.006 C 279.005 50.073 281.002 55.329 281 60.77 Z" stroke-width="1"/><path fill="#263238" d="M 281 60.76 C 280.999 64.88 279.864 68.922 277.72 72.44 C 277.198 73.327 276.624 74.182 276 75 C 275.337 75.783 274.625 76.525 273.87 77.22 C 272.378 78.626 270.695 79.815 268.87 80.75 C 267.04 81.684 265.087 82.358 263.07 82.75 C 262.057 82.952 261.031 83.079 260 83.13 C 258.972 83.215 257.938 83.215 256.91 83.13 C 252.751 82.807 248.762 81.336 245.39 78.88 L 245.69 78.94 L 234.83 81.8 L 233.95 82.03 L 234.32 81.19 L 238.81 71.04 L 238.81 71.46 C 237.177 68.424 236.264 65.052 236.143 61.607 C 236.021 58.161 236.695 54.734 238.11 51.59 C 239.527 48.455 241.637 45.682 244.28 43.48 C 246.92 41.31 250.017 39.766 253.339 38.965 C 256.66 38.163 260.121 38.124 263.46 38.85 C 266.769 39.603 269.868 41.086 272.53 43.19 C 275.178 45.288 277.316 47.959 278.783 51.002 C 280.25 54.045 281.008 57.382 281 60.76 Z M 281 60.76 C 280.998 55.681 279.238 50.756 276.019 46.827 C 272.801 42.898 268.319 40.202 263.34 39.2 C 260.063 38.548 256.681 38.65 253.45 39.5 C 250.229 40.332 247.243 41.892 244.72 44.06 C 242.22 46.252 240.227 48.961 238.88 52 C 237.551 55.03 236.929 58.324 237.06 61.63 C 237.214 64.903 238.088 68.103 239.62 71 L 239.73 71.21 L 239.63 71.42 L 235.06 81.54 L 234.55 80.94 L 245.46 78.24 L 245.63 78.24 L 245.76 78.34 C 248.993 80.796 252.848 82.302 256.89 82.69 C 257.889 82.763 258.891 82.763 259.89 82.69 C 262.946 82.585 265.944 81.824 268.68 80.46 C 270.505 79.571 272.19 78.419 273.68 77.04 C 274.435 76.355 275.146 75.624 275.81 74.85 C 276.447 74.054 277.038 73.223 277.58 72.36 C 279.763 68.881 280.946 64.867 281 60.76 Z" stroke-width="1"/><path fill="#ffc727" d="M 260.33 63.17 L 260.33 65.62 C 260.339 65.947 260.259 66.271 260.098 66.556 C 259.937 66.841 259.701 67.077 259.416 67.238 C 259.131 67.399 258.807 67.479 258.48 67.47 C 258.156 67.47 257.837 67.384 257.557 67.222 C 257.277 67.059 257.044 66.825 256.883 66.544 C 256.722 66.263 256.638 65.944 256.64 65.62 L 256.64 61.71 L 256.64 61.63 L 256.64 61.56 C 256.653 61.075 256.85 60.613 257.192 60.269 C 257.534 59.925 257.995 59.725 258.48 59.71 C 259.398 59.755 260.306 59.498 261.065 58.98 C 261.824 58.462 262.393 57.709 262.686 56.838 C 262.978 55.967 262.978 55.023 262.686 54.152 C 262.393 53.281 261.824 52.528 261.065 52.01 C 260.306 51.492 259.398 51.235 258.48 51.28 C 257.75 51.278 257.031 51.468 256.398 51.831 C 255.764 52.195 255.237 52.718 254.87 53.35 C 254.705 53.635 254.469 53.871 254.183 54.035 C 253.898 54.199 253.575 54.285 253.246 54.284 C 252.917 54.283 252.594 54.196 252.31 54.03 C 252.031 53.865 251.801 53.629 251.642 53.346 C 251.484 53.063 251.403 52.743 251.408 52.419 C 251.413 52.095 251.503 51.778 251.67 51.5 C 252.55 49.984 253.91 48.803 255.535 48.143 C 257.159 47.484 258.958 47.383 260.646 47.856 C 262.334 48.329 263.818 49.351 264.862 50.758 C 265.907 52.166 266.455 53.882 266.419 55.635 C 266.383 57.388 265.765 59.08 264.663 60.444 C 263.561 61.807 262.036 62.767 260.33 63.17 Z M 260.33 71.42 L 260.33 72.1 C 260.337 72.426 260.256 72.748 260.094 73.032 C 259.933 73.315 259.697 73.55 259.413 73.709 C 259.129 73.869 258.806 73.949 258.48 73.94 C 257.992 73.94 257.524 73.746 257.179 73.401 C 256.834 73.056 256.64 72.588 256.64 72.1 L 256.64 71.42 C 256.645 70.933 256.84 70.466 257.184 70.121 C 257.528 69.776 257.993 69.578 258.48 69.57 C 258.806 69.566 259.127 69.65 259.409 69.812 C 259.692 69.974 259.926 70.208 260.088 70.491 C 260.25 70.773 260.334 71.094 260.33 71.42 Z" stroke-width="1"/></g></svg>