<svg id="vector" xmlns="http://www.w3.org/2000/svg" width="24" height="24" viewBox="0 0 24 24"><path fill="#16a085" d="M 0 3 L 24 3 L 24 17 L 0 17 Z" stroke-width="1" id="path_0"/><path fill="#1abc9c" d="M 0 4 L 24 4 L 24 18 L 0 18 Z" stroke-width="1" id="path_1"/><path fill="#ecf0f1" d="M 5 5 C 5 5 5 5 5 5 C 5 7.2 3.209 9 1 9 L 1 12.9 C 3.209 12.9 5 14.7 5 17 L 19 17 L 19 16.9 C 19 14.7 20.791 12.9 23 12.9 L 23 9 C 20.791 9 19 7.2 19 5 L 5 5 Z" stroke-width="1" id="path_2"/><path fill="#1abc9c" d="M 16 11 C 16 13.761 14.209 16 12 16 C 9.791 16 8 13.761 8 11 C 8 8.239 9.791 6 12 6 C 14.209 6 16 8.239 16 11 Z" stroke-width="1" id="path_3"/><g id="group_4"><path fill="#f39c12" d="M 4 18.972 C 3.125 18.972 2.358 19.174 1.812 19.472 L 1 19.472 L 1 20.472 C 1 21.301 2.343 21.972 4 21.972 C 5.657 21.972 7 21.301 7 20.472 L 7 19.472 L 6.188 19.472 C 5.642 19.174 4.875 18.972 4 18.972 Z" stroke-width="1"/><path fill="#f1c40f" d="M 7 19.46 C 7 20.288 5.657 20.96 4 20.96 C 2.343 20.96 1 20.288 1 19.46 C 1 18.632 2.343 17.96 4 17.96 C 5.657 17.96 7 18.632 7 19.46 Z" stroke-width="1"/><g id="group_3"><path fill="#f39c12" d="M 4 16.972 C 3.125 16.972 2.358 17.174 1.812 17.472 L 1 17.472 L 1 18.472 C 1 19.301 2.343 19.972 4 19.972 C 5.657 19.972 7 19.301 7 18.472 L 7 17.472 L 6.188 17.472 C 5.642 17.174 4.875 16.972 4 16.972 Z" stroke-width="1"/><path fill="#f1c40f" d="M 7 17.46 C 7 18.289 5.657 18.96 4 18.96 C 2.343 18.96 1 18.289 1 17.46 C 1 16.632 2.343 15.96 4 15.96 C 5.657 15.96 7 16.632 7 17.46 Z" stroke-width="1"/><path fill="#f39c12" d="M 4 14.972 C 3.125 14.972 2.358 15.175 1.812 15.472 L 1 15.472 L 1 16.472 C 1 17.301 2.343 17.973 4 17.973 C 5.657 17.973 7 17.301 7 16.472 L 7 15.472 L 6.188 15.472 C 5.642 15.175 4.875 14.972 4 14.972 Z" stroke-width="1"/><path fill="#f1c40f" d="M 7 15.46 C 7 16.289 5.657 16.96 4 16.96 C 2.343 16.96 1 16.289 1 15.46 C 1 14.632 2.343 13.96 4 13.96 C 5.657 13.96 7 14.632 7 15.46 Z" stroke-width="1"/><path fill="#f39c12" d="M 4 12.972 C 3.125 12.972 2.358 13.174 1.812 13.472 L 1 13.472 L 1 14.472 C 1 15.301 2.343 15.972 4 15.972 C 5.657 15.972 7 15.301 7 14.472 L 7 13.472 L 6.188 13.472 C 5.642 13.174 4.875 12.972 4 12.972 Z" stroke-width="1"/><path fill="#f1c40f" d="M 7 13.46 C 7 14.289 5.657 14.96 4 14.96 C 2.343 14.96 1 14.289 1 13.46 C 1 12.632 2.343 11.96 4 11.96 C 5.657 11.96 7 12.632 7 13.46 Z" stroke-width="1"/><g id="group"><path fill="#f39c12" d="M 10.999 18.972 C 10.124 18.972 9.358 19.174 8.812 19.472 L 8 19.472 L 8 20.472 C 8 21.301 9.343 21.972 10.999 21.972 C 12.656 21.972 13.999 21.301 13.999 20.472 L 13.999 19.472 L 13.187 19.472 C 12.641 19.174 11.874 18.972 10.999 18.972 Z" stroke-width="1"/><path fill="#f1c40f" d="M 13.999 19.46 C 13.999 20.288 12.656 20.96 10.999 20.96 C 9.342 20.96 7.999 20.288 7.999 19.46 C 7.999 18.632 9.342 17.96 10.999 17.96 C 12.656 17.96 13.999 18.632 13.999 19.46 Z" stroke-width="1"/></g><g id="group_1"><path fill="#f39c12" d="M 13 17.973 C 12.125 17.973 11.358 18.175 10.812 18.473 L 10 18.473 L 10 19.473 C 10 20.301 11.343 20.973 13 20.973 C 14.657 20.973 16 20.301 16 19.473 L 16 18.473 L 15.188 18.473 C 14.642 18.175 13.875 17.973 13 17.973 Z" stroke-width="1"/><path fill="#f1c40f" d="M 15.999 18.461 C 15.999 19.289 14.656 19.961 12.999 19.961 C 11.342 19.961 9.999 19.289 9.999 18.461 C 9.999 17.632 11.342 16.961 12.999 16.961 C 14.656 16.961 15.999 17.632 15.999 18.461 Z" stroke-width="1"/></g><g id="group_2"><path fill="#f39c12" d="M 4 10.972 C 3.125 10.972 2.358 11.174 1.812 11.472 L 1 11.472 L 1 12.472 C 1 13.301 2.343 13.972 4 13.972 C 5.657 13.972 7 13.301 7 12.472 L 7 11.472 L 6.188 11.472 C 5.642 11.174 4.875 10.972 4 10.972 Z" stroke-width="1"/><path fill="#f1c40f" d="M 7 11.46 C 7 12.289 5.657 12.96 4 12.96 C 2.343 12.96 1 12.289 1 11.46 C 1 10.632 2.343 9.96 4 9.96 C 5.657 9.96 7 10.632 7 11.46 Z" stroke-width="1"/></g></g></g></svg>