<svg xmlns="http://www.w3.org/2000/svg" version="1.1" xmlns:xlink="http://www.w3.org/1999/xlink" width="512" height="512" x="0" y="0" viewBox="0 0 511.902 511.902" style="enable-background:new 0 0 512 512" xml:space="preserve" class=""><g><path d="m282.042 103.358 37.266 31.458c4.521 3.817 11.245 3.398 15.259-.949l27.306-29.581c4.276-4.633 3.82-11.898-1.003-15.959l-36.813-31.001a11.058 11.058 0 0 0-15.128.829L281.17 87.278c-4.394 4.611-3.995 11.971.872 16.08z" style="" fill="#0ed290" data-original="#0ed290" class=""></path><path d="m360.87 88.326-36.813-31.001a11.058 11.058 0 0 0-15.128.829l-6.184 6.488 28.124 23.684c4.823 4.061 5.279 11.326 1.003 15.959l-21.342 23.121 8.778 7.41a11.06 11.06 0 0 0 15.259-.949l27.306-29.582c4.276-4.632 3.819-11.898-1.003-15.959z" style="" fill="#00c285" data-original="#00c285" class=""></path><path d="M503.316 214.706c-4.205-27.416-21.367-59.254-78.407-59.254-80.348 0-133.725 72.044-151.701 100.553-2.838 4.5-9.576 3.872-11.517-1.082-5.182-13.226-12.752-31.747-20.468-47.822-3.454-7.196-13.207-8.391-18.333-2.273l-26.883 32.086a11 11 0 0 0-1.82 11.052l31.517 81.015a11.06 11.06 0 0 1-.507 9.155c-7.017 13.374-31.927 50.42-92.569 50.42-71.1 0-93.76-52.167-67.978-120.699 1.866-4.961-.013-10.549-4.536-13.312l-7.189-4.393c-5.182-3.167-11.947-1.542-15.116 3.638C27.486 270.667 7.5 308.623 7.5 349.539c0 55.164 32.291 107.637 121.091 107.637 83.52 0 132.719-50.441 142.735-97.433 1.097-5.148 5.589-8.858 10.852-8.858h95.252c65.56-.656 100.073-46.677 115.176-75.167 9.917-18.707 13.919-40.084 10.71-61.012zm-47.829 33.138c-4.904 6.927-23.035 26.886-74.904 38.427-35.433 7.885-54.573 7.75-63.282 6.827-3.097-.328-4.931-3.615-3.606-6.433 7.709-16.393 34.106-64.982 77.597-68.594 43.26-3.592 59.897 17.381 64.379 24.795a4.533 4.533 0 0 1-.184 4.978z" style="" fill="#0ed290" data-original="#0ed290" class=""></path><path d="M503.316 214.706c-2.549-16.618-9.862-34.859-27.927-46.651 3.045 6.787 4.885 13.855 5.927 20.651 3.21 20.928 2.237 54.611-7.68 73.318-15.104 28.49-52.646 62.205-118.206 62.861h-95.252c-5.263 0-9.755 3.71-10.852 8.858-10.017 46.992-59.215 97.433-142.735 97.433-38.335 0-66.131-9.785-85.352-25.338 16.905 29.888 50.578 51.338 107.352 51.338 83.52 0 132.719-50.441 142.735-97.433 1.097-5.148 5.589-8.858 10.852-8.858h95.252c65.56-.656 100.073-46.677 115.176-75.167 9.917-18.707 13.919-40.084 10.71-61.012z" style="" fill="#00c285" data-original="#00c285" class=""></path><path d="m282.042 103.358 37.266 31.458c4.521 3.817 11.245 3.398 15.259-.949l27.306-29.581c4.276-4.633 3.82-11.898-1.003-15.959l-36.813-31.001a11.058 11.058 0 0 0-15.128.829L281.17 87.278c-4.394 4.611-3.995 11.971.872 16.08zM424.909 155.452c-80.348 0-133.725 72.044-151.701 100.553-2.838 4.5-9.576 3.872-11.517-1.082-5.182-13.226-12.752-31.747-20.468-47.822-3.454-7.196-13.207-8.391-18.333-2.273l-26.883 32.086a11 11 0 0 0-1.82 11.052l31.517 81.015a11.06 11.06 0 0 1-.507 9.155c-7.017 13.374-31.927 50.42-92.569 50.42-71.1 0-93.76-52.167-67.978-120.699 1.866-4.961-.013-10.549-4.536-13.312l-7.189-4.393c-5.182-3.167-11.947-1.542-15.116 3.638C27.486 270.667 7.5 308.623 7.5 349.539c0 12.745 1.724 25.347 5.47 37.191m21.562 37.09c19.161 20.14 49.494 33.356 94.059 33.356 83.52 0 132.719-50.441 142.735-97.433 1.097-5.148 5.589-8.858 10.852-8.858h95.252c65.56-.656 100.073-46.677 115.176-75.167 9.917-18.707 13.919-40.084 10.709-61.011-2.907-18.958-12.011-40.03-36.211-51.228m-11.617 84.365c-4.904 6.927-23.035 26.886-74.904 38.427-35.433 7.885-54.573 7.75-63.282 6.827-3.097-.328-4.931-3.615-3.606-6.433 7.709-16.393 34.106-64.982 77.597-68.594 43.26-3.592 59.897 17.381 64.379 24.795a4.533 4.533 0 0 1-.184 4.978z" style="stroke-width:15;stroke-linecap:round;stroke-linejoin:round;stroke-miterlimit:10;" fill="none" stroke="#000000" stroke-width="15" stroke-linecap="round" stroke-linejoin="round" stroke-miterlimit="10" data-original="#000000" class=""></path></g></svg>