<svg xmlns="http://www.w3.org/2000/svg" version="1.1" xmlns:xlink="http://www.w3.org/1999/xlink" width="512" height="512" x="0" y="0" viewBox="0 0 24 24" style="enable-background:new 0 0 512 512" xml:space="preserve" class=""><g><linearGradient id="b" x1="12" x2="12" y1="0" y2="24" gradientUnits="userSpaceOnUse"><stop offset="0" stop-color="#f12711"></stop><stop offset="1" stop-color="#f5ba3d"></stop></linearGradient><clipPath id="a"><path d="M0 0h24v24H0z" fill="#000000" opacity="1" data-original="#000000"></path></clipPath><g clip-path="url(#a)"><path fill="url(#b)" fill-rule="evenodd" d="M0 12C0 5.373 5.373 0 12 0s12 5.373 12 12-5.373 12-12 12S0 18.627 0 12zM12 2C6.477 2 2 6.477 2 12s4.477 10 10 10 10-4.477 10-10S17.523 2 12 2zM8.293 8.293a1 1 0 0 1 1.414 0L12 10.586l2.293-2.293a1 1 0 1 1 1.414 1.414L13.414 12l2.293 2.293a1 1 0 0 1-1.414 1.414L12 13.414l-2.293 2.293a1 1 0 0 1-1.414-1.414L10.586 12 8.293 9.707a1 1 0 0 1 0-1.414z" clip-rule="evenodd" opacity="1" data-original="url(#b)" class=""></path></g></g></svg>