<svg id="vector" xmlns="http://www.w3.org/2000/svg" width="256" height="256" viewBox="0 0 256 256"><path fill="#70d6f9" d="M 91.271 12.149 C 42.245 12.149 2.501 51.893 2.501 100.919 C 2.501 149.383 41.339 188.77 89.588 189.668 L 89.588 129.524 C 89.588 126.811 91.808 124.591 94.521 124.591 L 176.845 124.591 C 178.925 117.054 180.042 109.117 180.042 100.919 C 180.041 51.893 140.297 12.149 91.271 12.149 Z" stroke-width="1" id="path_0"/><path fill="#edf4fc" d="M 91.271 27.485 C 50.779 27.485 17.837 60.427 17.837 100.919 C 17.837 140.847 49.873 173.41 89.588 174.311 L 89.588 129.524 C 89.588 126.811 91.808 124.591 94.521 124.591 L 160.769 124.591 C 163.308 117.158 164.706 109.201 164.706 100.919 C 164.705 60.427 131.763 27.485 91.271 27.485 Z" stroke-width="1" id="path_1"/><path fill="#f5c84c" d="M 91.271 91.282 C 85.957 91.282 81.634 95.605 81.634 100.919 C 81.634 106.233 85.957 110.556 91.271 110.556 C 96.585 110.556 100.908 106.233 100.908 100.919 C 100.908 95.605 96.585 91.282 91.271 91.282 Z" stroke-width="1" id="path_2"/><path fill="#5290db" d="M 136.594 95.021 L 98.875 95.021 C 100.144 96.653 100.908 98.697 100.908 100.919 C 100.908 103.141 100.144 105.185 98.875 106.817 L 136.593 106.817 C 139.851 106.817 142.491 104.177 142.491 100.919 C 142.492 97.662 139.851 95.021 136.594 95.021 Z M 91.271 49.698 C 88.013 49.698 85.373 52.338 85.373 55.596 L 85.373 93.315 C 87.005 92.046 89.049 91.282 91.271 91.282 C 93.493 91.282 95.537 92.046 97.169 93.315 L 97.169 55.597 C 97.169 52.339 94.529 49.698 91.271 49.698 Z" stroke-width="1" id="path_3"/><path fill="#ffffff" d="M 91.271 27.485 L 91.271 49.698 C 94.529 49.698 97.169 52.338 97.169 55.596 L 97.169 93.315 C 97.807 93.811 98.379 94.383 98.875 95.021 L 136.593 95.021 C 139.851 95.021 142.491 97.661 142.491 100.919 C 142.491 100.922 142.49 100.924 142.49 100.927 L 164.704 100.927 L 164.704 100.919 C 164.705 60.427 131.763 27.485 91.271 27.485 Z" stroke-width="1" id="path_4"/><path fill="#000" d="M 91.271 9.649 C 40.945 9.649 0.001 50.592 0.001 100.92 C 0.001 124.87 9.209 147.501 25.93 164.644 C 42.618 181.754 64.951 191.526 88.81 192.158 C 88.832 192.159 88.855 192.159 88.877 192.159 C 90.228 192.159 91.339 191.083 91.375 189.725 C 91.412 188.344 90.322 187.196 88.942 187.16 C 66.391 186.562 45.284 177.326 29.508 161.153 C 13.705 144.949 5.001 123.559 5.001 100.92 C 5.001 53.351 43.701 14.649 91.271 14.649 C 138.841 14.649 177.542 53.35 177.542 100.92 C 177.542 108.478 176.564 115.974 174.637 123.202 C 174.282 124.537 175.075 125.906 176.408 126.263 C 177.737 126.618 179.112 125.825 179.469 124.492 C 181.508 116.844 182.542 108.913 182.542 100.921 C 182.541 50.593 141.598 9.649 91.271 9.649 Z" stroke-width="1" id="path_5"/><path fill="#000" d="M 91.271 24.985 C 49.401 24.985 15.336 59.049 15.336 100.92 C 15.336 120.774 22.978 139.566 36.855 153.832 C 50.703 168.069 69.217 176.233 88.99 176.82 C 89.015 176.821 89.041 176.821 89.065 176.821 C 90.412 176.821 91.523 175.75 91.563 174.395 C 91.604 173.015 90.518 171.863 89.138 171.822 C 70.671 171.274 53.376 163.647 40.439 150.345 C 27.476 137.017 20.336 119.464 20.336 100.919 C 20.336 61.806 52.157 29.984 91.271 29.984 C 130.385 29.984 162.206 61.805 162.206 100.919 C 162.206 108.448 161.027 115.863 158.702 122.958 C 158.272 124.27 158.987 125.682 160.3 126.112 C 161.615 126.54 163.025 125.827 163.454 124.514 C 165.943 116.915 167.206 108.977 167.206 100.918 C 167.205 59.05 133.141 24.985 91.271 24.985 Z" stroke-width="1" id="path_6"/><path fill="#000" d="M 91.271 26.165 C 89.89 26.165 88.771 27.284 88.771 28.665 L 88.771 36.923 C 88.771 38.304 89.89 39.423 91.271 39.423 C 92.652 39.423 93.771 38.304 93.771 36.923 L 93.771 28.665 C 93.771 27.284 92.651 26.165 91.271 26.165 Z M 61.438 44.246 L 57.309 37.095 C 56.619 35.899 55.087 35.49 53.894 36.18 C 52.699 36.87 52.289 38.4 52.979 39.595 L 57.108 46.746 C 57.571 47.548 58.412 47.996 59.275 47.996 C 59.7 47.996 60.129 47.889 60.523 47.661 C 61.718 46.971 62.128 45.441 61.438 44.246 Z M 37.098 66.756 L 29.947 62.627 C 28.754 61.937 27.222 62.346 26.532 63.542 C 25.842 64.737 26.252 66.267 27.447 66.957 L 34.598 71.086 C 34.992 71.314 35.421 71.421 35.846 71.421 C 36.709 71.421 37.55 70.973 38.013 70.171 C 38.703 68.976 38.293 67.446 37.098 66.756 Z M 27.273 98.42 L 19.015 98.42 C 17.634 98.42 16.515 99.539 16.515 100.92 C 16.515 102.301 17.634 103.42 19.015 103.42 L 27.273 103.42 C 28.654 103.42 29.773 102.301 29.773 100.92 C 29.773 99.539 28.654 98.42 27.273 98.42 Z M 163.525 98.42 L 155.267 98.42 C 153.886 98.42 152.767 99.539 152.767 100.92 C 152.767 102.301 153.886 103.42 155.267 103.42 L 163.525 103.42 C 164.906 103.42 166.025 102.301 166.025 100.92 C 166.025 99.539 164.906 98.42 163.525 98.42 Z M 38.013 131.668 C 37.323 130.472 35.79 130.063 34.598 130.753 L 27.447 134.882 C 26.252 135.572 25.842 137.102 26.532 138.297 C 26.995 139.099 27.836 139.547 28.699 139.547 C 29.124 139.547 29.553 139.44 29.947 139.212 L 37.098 135.083 C 38.293 134.393 38.703 132.863 38.013 131.668 Z M 156.01 63.542 C 155.32 62.346 153.788 61.937 152.595 62.627 L 145.444 66.756 C 144.249 67.446 143.839 68.976 144.529 70.171 C 144.992 70.973 145.833 71.421 146.696 71.421 C 147.121 71.421 147.55 71.314 147.944 71.086 L 155.095 66.957 C 156.29 66.267 156.7 64.737 156.01 63.542 Z M 60.522 154.178 C 59.33 153.489 57.797 153.898 57.107 155.093 L 52.978 162.244 C 52.288 163.439 52.698 164.969 53.893 165.659 C 54.287 165.887 54.716 165.994 55.141 165.994 C 56.004 165.994 56.845 165.546 57.308 164.744 L 61.437 157.593 C 62.128 156.397 61.718 154.868 60.522 154.178 Z M 128.648 36.18 C 127.455 35.49 125.923 35.899 125.233 37.095 L 121.104 44.246 C 120.414 45.441 120.824 46.971 122.019 47.661 C 122.413 47.889 122.842 47.996 123.267 47.996 C 124.13 47.996 124.971 47.548 125.434 46.746 L 129.563 39.595 C 130.254 38.399 129.844 36.87 128.648 36.18 Z M 91.271 88.782 C 84.579 88.782 79.134 94.227 79.134 100.92 C 79.134 107.613 84.578 113.057 91.271 113.057 C 97.964 113.057 103.409 107.613 103.409 100.92 C 103.409 94.227 97.963 88.782 91.271 88.782 Z M 91.271 108.057 C 87.335 108.057 84.134 104.856 84.134 100.92 C 84.134 96.984 87.335 93.782 91.271 93.782 C 95.207 93.782 98.409 96.984 98.409 100.92 C 98.409 104.856 95.206 108.057 91.271 108.057 Z" stroke-width="1" id="path_7"/><path fill="#000" d="M 136.594 92.521 L 99.938 92.521 C 98.557 92.521 97.438 93.64 97.438 95.021 C 97.438 96.402 98.557 97.521 99.938 97.521 L 136.594 97.521 C 138.468 97.521 139.992 99.045 139.992 100.919 C 139.992 102.793 138.468 104.317 136.594 104.317 L 99.656 104.317 C 98.275 104.317 97.156 105.436 97.156 106.817 C 97.156 108.198 98.275 109.317 99.656 109.317 L 136.594 109.317 C 141.225 109.317 144.992 105.549 144.992 100.919 C 144.992 96.289 141.225 92.521 136.594 92.521 Z" stroke-width="1" id="path_8"/><path fill="#000" d="M 91.271 47.198 C 86.64 47.198 82.873 50.966 82.873 55.596 L 82.873 93.221 C 82.873 94.602 83.992 95.721 85.373 95.721 C 86.754 95.721 87.873 94.602 87.873 93.221 L 87.873 55.597 C 87.873 53.723 89.397 52.199 91.271 52.199 C 93.145 52.199 94.669 53.723 94.669 55.597 L 94.669 93.159 C 94.669 94.54 95.788 95.659 97.169 95.659 C 98.55 95.659 99.669 94.54 99.669 93.159 L 99.669 55.597 C 99.669 50.966 95.901 47.198 91.271 47.198 Z" stroke-width="1" id="path_9"/><path fill="#87d147" d="M 248.567 124.592 L 94.52 124.592 C 91.807 124.592 89.587 126.812 89.587 129.525 L 89.587 217.618 C 89.587 220.331 91.807 222.551 94.52 222.551 L 248.567 222.551 C 251.28 222.551 253.5 220.331 253.5 217.618 L 253.5 129.524 C 253.499 126.812 251.28 124.592 248.567 124.592 Z" stroke-width="1" id="path_10"/><path fill="#b2e26d" d="M 242.354 152.618 C 234.273 150.19 227.902 143.819 225.473 135.738 C 225.214 134.875 224.413 134.291 223.513 134.291 L 119.574 134.291 C 118.673 134.291 117.873 134.875 117.614 135.738 C 115.186 143.819 108.815 150.19 100.734 152.618 C 99.872 152.877 99.287 153.677 99.287 154.578 L 99.287 192.564 C 99.287 193.464 99.872 194.265 100.734 194.524 C 108.815 196.953 115.186 203.323 117.614 211.404 C 117.873 212.266 118.674 212.851 119.574 212.851 L 223.513 212.851 C 224.414 212.851 225.214 212.266 225.473 211.404 C 227.901 203.322 234.272 196.952 242.354 194.524 C 243.217 194.265 243.801 193.464 243.801 192.564 L 243.801 154.578 C 243.801 153.678 243.216 152.877 242.354 152.618 Z" stroke-width="1" id="path_11"/><path fill="#87d147" d="M 160.971 148.035 C 155.56 150.256 150.992 154.138 147.927 159.119 C 144.861 164.1 143.455 169.927 143.91 175.758 C 144.365 181.589 146.659 187.128 150.46 191.572 C 154.262 196.017 159.377 199.143 165.067 200.498 C 170.756 201.852 176.732 201.367 182.128 199.111 C 187.521 196.878 192.07 192.993 195.119 188.016 C 198.169 183.04 199.566 177.223 199.108 171.404 C 198.65 165.585 196.361 160.058 192.57 155.62 C 188.779 151.182 183.678 148.056 178.003 146.693 C 172.327 145.331 166.363 145.801 160.971 148.035 Z" stroke-width="1" id="path_12"/><path fill="#000" d="M 248.566 122.092 L 94.521 122.092 C 90.422 122.092 87.087 125.427 87.087 129.526 L 87.087 217.619 C 87.087 221.718 90.422 225.053 94.521 225.053 L 248.567 225.053 C 252.666 225.053 256 221.718 256 217.619 L 256 129.525 C 255.999 125.426 252.665 122.092 248.566 122.092 Z M 250.999 217.618 C 250.999 218.96 249.908 220.052 248.566 220.052 L 94.521 220.052 C 93.179 220.052 92.087 218.96 92.087 217.618 L 92.087 129.525 C 92.087 128.183 93.179 127.091 94.521 127.091 L 248.567 127.091 C 249.909 127.091 251 128.182 251 129.524 L 251 217.618 Z" stroke-width="1" id="path_13"/><path fill="#000" d="M 128.868 171.071 L 123.049 171.071 C 121.668 171.071 120.549 172.19 120.549 173.571 C 120.549 174.952 121.668 176.071 123.049 176.071 L 128.868 176.071 C 130.249 176.071 131.368 174.952 131.368 173.571 C 131.368 172.19 130.249 171.071 128.868 171.071 Z M 220.038 171.071 L 214.219 171.071 C 212.838 171.071 211.719 172.19 211.719 173.571 C 211.719 174.952 212.838 176.071 214.219 176.071 L 220.038 176.071 C 221.419 176.071 222.538 174.952 222.538 173.571 C 222.538 172.19 221.419 171.071 220.038 171.071 Z" stroke-width="1" id="path_14"/><path fill="#000" d="M 243.072 150.224 C 235.752 148.025 230.067 142.34 227.867 135.021 C 227.298 133.12 225.507 131.792 223.513 131.792 L 119.573 131.792 C 117.55 131.792 115.8 133.089 115.219 135.02 C 113.019 142.341 107.335 148.025 100.015 150.225 C 98.115 150.795 96.786 152.586 96.786 154.579 L 96.786 192.565 C 96.786 194.558 98.114 196.349 100.014 196.919 C 107.335 199.119 113.02 204.804 115.22 212.126 C 115.801 214.056 117.551 215.353 119.574 215.353 L 223.513 215.353 C 225.506 215.353 227.297 214.025 227.867 212.125 C 230.067 204.804 235.752 199.119 243.072 196.919 C 244.972 196.349 246.301 194.558 246.301 192.565 L 246.301 154.579 C 246.301 152.585 244.973 150.794 243.072 150.224 Z M 241.301 192.232 C 232.639 194.953 225.903 201.69 223.181 210.352 L 119.905 210.352 C 117.185 201.69 110.449 194.954 101.786 192.232 L 101.786 154.91 C 110.448 152.189 117.184 145.452 119.905 136.791 L 223.18 136.791 C 225.902 145.454 232.638 152.19 241.3 154.91 L 241.3 192.232 Z" stroke-width="1" id="path_15"/><path fill="#000" d="M 171.543 143.43 C 154.923 143.43 141.401 156.951 141.401 173.572 C 141.401 190.193 154.922 203.715 171.543 203.715 C 188.164 203.715 201.686 190.194 201.686 173.572 C 201.686 156.951 188.164 143.43 171.543 143.43 Z M 171.543 198.714 C 157.68 198.714 146.401 187.435 146.401 173.571 C 146.401 159.707 157.679 148.429 171.543 148.429 C 185.407 148.429 196.686 159.707 196.686 173.571 C 196.686 187.435 185.406 198.714 171.543 198.714 Z" stroke-width="1" id="path_16"/></svg>