<svg id="vector" xmlns="http://www.w3.org/2000/svg" width="24" height="24" viewBox="0 0 1990 2262"><path fill="#bed0d4" d="M 1626.191 1995.02 L 1615.43 1995.02 L 1615.43 1799.871 C 1622.051 1793.398 1626.191 1784.398 1626.191 1774.469 L 1626.191 279.949 C 1626.191 260.391 1610.191 244.391 1590.629 244.391 L 503.727 244.391 C 503.727 244.391 380.605 238.512 353.109 344.898 L 353.109 1882.949 C 353.109 2024.602 439.18 2017.43 439.18 2017.43 L 1626.191 2017.43 C 1631.98 2016.469 1636.41 2014.41 1636.5 2008.02 C 1636.66 1995.922 1626.191 1995.02 1626.191 1995.02" stroke-width="1" id="path_0"/><path fill="#bd5c5c" d="M 1626.191 1995.02 L 1615.43 1995.02 L 1615.43 1973.199 L 396.184 1973.199 C 372.906 1941.578 375.574 1886.93 375.574 1886.93 C 377.969 1796.672 503.727 1810.031 503.727 1810.031 L 1590.629 1810.031 C 1600.25 1810.031 1609.012 1806.141 1615.43 1799.871 C 1622.051 1793.398 1626.191 1784.398 1626.191 1774.469 L 1626.191 279.949 C 1626.191 260.391 1610.191 244.391 1590.629 244.391 L 503.727 244.391 C 503.727 244.391 380.605 238.512 353.109 344.898 L 353.109 1882.949 C 353.109 2024.602 439.18 2017.43 439.18 2017.43 L 1626.191 2017.43 C 1631.98 2016.469 1636.41 2014.41 1636.5 2008.02 C 1636.66 1995.922 1626.191 1995.02 1626.191 1995.02" stroke-width="1" id="path_1"/><path fill="#8b3c3f" d="M 503.727 1793.301 L 503.727 244.391 C 503.727 244.391 380.605 238.512 353.109 344.898 L 353.109 1882.949 C 353.109 1882.949 353.109 1787.922 503.727 1793.301 M 1418.191 552.5 L 654.348 552.5 L 654.348 893.18 L 1418.191 893.18 L 1418.191 552.5" stroke-width="1" id="path_2"/><path fill="#e79d40" d="M 410.07 418.789 C 431.223 408.859 453.648 403.59 471.234 400.93 C 488.82 398.25 501.547 398.141 503.352 398.141 L 503.727 398.141 L 503.727 367.66 L 503.352 367.66 C 498.086 367.711 457.508 368.039 413.672 384.27 C 393.031 391.949 371.598 403.328 353.109 420.289 L 353.109 468 C 358.223 459.398 364.242 451.852 371.016 445.199 C 382.438 434.039 395.957 425.398 410.07 418.789 M 417.504 501.738 C 438.711 489.359 460.641 482.809 477.156 479.449 C 485.41 477.77 492.301 476.891 497.039 476.422 C 499.41 476.191 501.242 476.059 502.438 476 C 503.031 475.961 503.461 475.949 503.727 475.941 L 503.727 445.449 L 503.434 445.449 C 502.199 445.531 462.766 446.219 418.77 466.711 C 396.801 476.98 373.648 492.359 354.227 515.328 C 353.844 515.781 353.488 516.281 353.109 516.738 L 353.109 575.891 C 359.637 559.711 368.012 546.262 377.504 535.012 C 389.516 520.801 403.352 510 417.504 501.738 M 410.07 1612.75 C 431.223 1602.82 453.648 1597.551 471.234 1594.891 C 488.82 1592.211 501.547 1592.102 503.352 1592.102 L 503.727 1592.102 L 503.727 1561.621 L 503.352 1561.621 C 498.086 1561.672 457.508 1562 413.672 1578.23 C 393.031 1585.91 371.598 1597.289 353.109 1614.25 L 353.109 1661.961 C 358.223 1653.359 364.246 1645.809 371.016 1639.16 C 382.438 1628 395.957 1619.359 410.07 1612.75 M 417.504 1695.699 C 438.711 1683.32 460.641 1676.77 477.156 1673.41 C 485.41 1671.73 492.301 1670.852 497.039 1670.379 C 499.41 1670.148 501.242 1670.031 502.438 1669.961 C 503.031 1669.93 503.461 1669.91 503.727 1669.898 L 503.727 1639.41 L 503.434 1639.41 C 502.199 1639.488 462.766 1640.18 418.77 1660.672 C 396.801 1670.941 373.648 1686.32 354.227 1709.281 C 353.844 1709.738 353.488 1710.238 353.109 1710.699 L 353.109 1769.852 C 359.637 1753.672 368.012 1740.219 377.504 1728.969 C 389.516 1714.762 403.352 1703.961 417.504 1695.699" stroke-width="1" id="path_3"/><path fill="#e27070" d="M 1626.191 1995.02 L 435.59 1995.02 C 417.633 1993.949 405.039 1985.238 396.184 1973.199 C 372.906 1941.578 375.574 1886.93 375.574 1886.93 C 377.969 1796.672 503.727 1810.031 503.727 1810.031 L 1590.629 1810.031 C 1600.25 1810.031 1609.012 1806.141 1615.43 1799.871 C 1622.051 1793.398 1626.191 1784.398 1626.191 1774.469 L 1626.191 1757.738 C 1626.191 1777.301 1610.191 1793.301 1590.629 1793.301 L 503.727 1793.301 C 353.109 1787.922 353.109 1882.949 353.109 1882.949 C 353.109 2024.602 439.18 2017.43 439.18 2017.43 L 1626.191 2017.43 C 1631.98 2016.469 1636.41 2014.41 1636.5 2008.02 C 1636.66 1995.922 1626.191 1995.02 1626.191 1995.02" stroke-width="1" id="path_4"/><path fill="#9eb1b5" d="M 478.09 1887.609 C 566.406 1860.172 662.391 1852.078 754.348 1848.031 C 853.961 1843.66 953.695 1846.891 1053.301 1849.66 C 1152.172 1852.41 1250.488 1851.859 1349.352 1849.219 C 1398.762 1847.898 1449 1846.211 1498.172 1852.059 C 1537.039 1856.68 1576.18 1865.051 1615.43 1865.531 L 1615.43 1799.871 C 1609.012 1806.141 1600.25 1810.031 1590.629 1810.031 L 503.727 1810.031 C 503.727 1810.031 377.969 1796.672 375.574 1886.93 C 375.574 1886.93 374.539 1908.191 379.402 1931.859 C 410.188 1913.578 442.961 1898.52 478.09 1887.609" stroke-width="1" id="path_5"/></svg>