<svg xmlns="http://www.w3.org/2000/svg" version="1.1" xmlns:xlink="http://www.w3.org/1999/xlink" width="512" height="512" x="0" y="0" viewBox="0 0 32 32" style="enable-background:new 0 0 512 512" xml:space="preserve" class=""><g><linearGradient id="a" x1="16" x2="16" y1="29" y2="3.303" gradientUnits="userSpaceOnUse"><stop offset=".011" stop-color="#ef4136"></stop><stop offset="1" stop-color="#fbb040"></stop></linearGradient><path fill="url(#a)" d="M20 19a3.003 3.003 0 0 0 3 3h5v-6h-5a3.003 3.003 0 0 0-3 3zm4 0a1 1 0 1 1-1-1 1 1 0 0 1 1 1zM9.866 7.141l9.751-3.592A3.992 3.992 0 0 1 24.99 7.14zM18 19a5.006 5.006 0 0 0 5 5h5v1a4.004 4.004 0 0 1-4 4H8a4.004 4.004 0 0 1-4-4V12.092a4.003 4.003 0 0 1 1.32-2.95H25A3.996 3.996 0 0 1 28 13v1h-5a5.006 5.006 0 0 0-5 5z" opacity="1" data-original="url(#a)" class=""></path></g></svg>