<svg width="256" height="256" viewBox="0 0 256 256" fill="none" xmlns="http://www.w3.org/2000/svg">
<path d="M122.061 188.602H23.1987C22.4237 188.6 21.6809 188.199 21.1329 187.485C20.5849 186.771 20.2765 185.803 20.2751 184.794V3.77471C20.2832 2.77109 20.5946 1.81205 21.1419 1.10546C21.6891 0.398885 22.4281 0.00169948 23.1987 0H122.061C122.835 0.00176673 123.578 0.403752 124.125 1.11771C124.672 1.83167 124.979 2.79925 124.979 3.80806V184.794C124.979 185.803 124.672 186.77 124.125 187.484C123.578 188.198 122.835 188.6 122.061 188.602ZM23.1987 0.133382C22.4577 0.135145 21.7474 0.51935 21.2234 1.20185C20.6995 1.88435 20.4045 2.80951 20.4031 3.77471V184.794C20.4045 185.759 20.6995 186.684 21.2234 187.367C21.7474 188.049 22.4577 188.434 23.1987 188.435H122.061C122.801 188.434 123.511 188.049 124.034 187.367C124.557 186.684 124.851 185.759 124.851 184.794V3.77471C124.851 2.81012 124.557 1.88495 124.034 1.20226C123.511 0.519569 122.801 0.135149 122.061 0.133382H23.1987Z" fill="#E6E6E6"/>
<path d="M232.806 188.602H133.939C133.165 188.6 132.422 188.198 131.875 187.484C131.328 186.77 131.021 185.803 131.021 184.794V3.77471C131.027 2.77169 131.338 1.81265 131.884 1.10588C132.431 0.39912 133.169 0.00171822 133.939 0H232.806C233.576 0.00171822 234.315 0.39912 234.861 1.10588C235.408 1.81265 235.718 2.77169 235.725 3.77471V184.794C235.725 185.803 235.417 186.77 234.87 187.484C234.323 188.198 233.581 188.6 232.806 188.602ZM133.939 0.133382C133.199 0.135149 132.489 0.519569 131.966 1.20226C131.443 1.88495 131.149 2.81012 131.149 3.77471V184.794C131.149 185.759 131.443 186.684 131.966 187.367C132.489 188.049 133.199 188.434 133.939 188.435H232.806C233.548 188.434 234.259 188.05 234.783 187.367C235.308 186.685 235.604 185.76 235.607 184.794V3.77471C235.604 2.8089 235.308 1.88375 234.783 1.20144C234.259 0.519129 233.548 0.135138 232.806 0.133382H133.939Z" fill="#E6E6E6"/>
<path d="M44.0014 222.401H22.9019V222.568H44.0014V222.401Z" fill="#E0E0E0"/>
<path d="M87.0093 221.067H65.8484V221.234H87.0093V221.067Z" fill="#E0E0E0"/>
<path d="M114.545 221.067H109.425V221.234H114.545V221.067Z" fill="#E0E0E0"/>
<path d="M63.3702 226.763H39.6902V226.929H63.3702V226.763Z" fill="#E0E0E0"/>
<path d="M145.275 222.314H134.216V222.481H145.275V222.314Z" fill="#E0E0E0"/>
<path d="M164.132 222.314H149.832V222.481H164.132V222.314Z" fill="#E0E0E0"/>
<path d="M233.098 225.135H201.129V225.302H233.098V225.135Z" fill="#E0E0E0"/>
<path d="M256 215.859H0V216.025H256V215.859Z" fill="#EBEBEB"/>
<path opacity="0.8" d="M171.433 13.8383L170.158 36.7C170.115 37.4747 169.863 38.2046 169.447 38.7607C169.209 39.0903 168.923 39.3537 168.605 39.5348C168.288 39.7159 167.945 39.8111 167.598 39.8145H153.523C153.216 39.8186 152.911 39.7391 152.629 39.5812C152.346 39.4233 152.092 39.1903 151.882 38.8973C151.673 38.6042 151.512 38.2574 151.411 37.8791C151.31 37.5008 151.271 37.0992 151.296 36.7L152.576 13.8383C152.628 12.9971 152.92 12.2116 153.393 11.6356C153.867 11.0595 154.488 10.7344 155.136 10.7239H169.211C169.519 10.7176 169.824 10.7957 170.107 10.9529C170.39 11.1102 170.645 11.3433 170.854 11.6369C171.064 11.9305 171.223 12.2782 171.323 12.6575C171.423 13.0367 171.46 13.439 171.433 13.8383Z" fill="#E0E0E0"/>
<path d="M165.228 25.2073C165.762 21.8834 164.519 18.732 162.451 18.1684C160.384 17.6048 158.275 19.8425 157.741 23.1664C157.207 26.4903 158.45 29.6418 160.517 30.2054C162.585 30.769 164.694 28.5313 165.228 25.2073Z" fill="white"/>
<path d="M167.106 38.2406H154.225C153.405 38.2406 152.842 37.7271 152.822 37.0135C152.791 35.9732 156.969 31.4715 160.932 31.865H161.024C163.458 31.9773 165.794 33.1516 167.654 35.1995C169.569 37.1603 167.762 38.2406 167.106 38.2406Z" fill="white"/>
<path d="M98.816 38.9809C97.4699 38.974 96.1737 38.3156 95.1793 37.1337C94.1849 35.9518 93.5632 34.3307 93.4349 32.5852C93.3752 31.7562 93.4486 30.9202 93.6504 30.1301C93.8522 29.3401 94.178 28.6134 94.607 27.9962C95.0361 27.379 95.559 26.8848 96.1426 26.5451C96.7262 26.2054 97.3576 26.0275 97.9968 26.0228C99.343 26.0297 100.639 26.6881 101.634 27.87C102.628 29.0519 103.25 30.673 103.378 32.4185C103.438 33.2475 103.364 34.0835 103.162 34.8736C102.961 35.6636 102.635 36.3903 102.206 37.0075C101.777 37.6247 101.254 38.1189 100.67 38.4586C100.087 38.7983 99.4552 38.9762 98.816 38.9809ZM98.217 29.4641C97.9169 29.4641 97.6201 29.5459 97.3458 29.7043C97.0714 29.8626 96.8255 30.094 96.6239 30.3836C96.4223 30.6732 96.2695 31.0145 96.1753 31.3857C96.0811 31.7568 96.0475 32.1495 96.0768 32.5385C96.1399 33.3559 96.4323 34.1142 96.8982 34.6681C97.364 35.2219 97.9703 35.5322 98.601 35.5396C98.9007 35.5387 99.1969 35.4562 99.4706 35.2974C99.7444 35.1387 99.9896 34.9071 100.191 34.6176C100.392 34.3281 100.544 33.9871 100.638 33.6165C100.732 33.2458 100.765 32.8536 100.736 32.4652C100.673 31.6512 100.383 30.8956 99.9204 30.3423C99.4578 29.7889 98.8552 29.4764 98.2272 29.4641H98.217Z" fill="#E0E0E0"/>
<path d="M99.072 28.9639L97.1878 28.9973L96.1843 13.1782L98.0736 13.1515L99.072 28.9639Z" fill="#E0E0E0"/>
<path d="M99.8605 13.8584L96.3174 13.9184L96.1638 11.4575L99.7069 11.3975L99.8605 13.8584Z" fill="#E0E0E0"/>
<path d="M100.065 17.0195L96.7322 17.0728L96.5786 14.6119L99.9066 14.5586L100.065 17.0195Z" fill="#E0E0E0"/>
<path d="M100.352 21.4745L97.4439 21.5212L97.2852 19.0669L100.193 19.0203L100.352 21.4745Z" fill="#E0E0E0"/>
<path d="M40.6066 173.423C40.6175 173.622 40.6363 173.82 40.663 174.017C40.8394 175.296 41.3299 176.466 42.0607 177.351C42.8909 178.377 43.9884 178.956 45.1327 178.972H88.3916C89.4167 178.993 90.4069 178.487 91.147 177.563C91.8872 176.639 92.3174 175.372 92.3442 174.037C92.3558 173.246 92.2471 172.46 92.0246 171.723C91.802 170.987 91.4699 170.316 91.0474 169.747C90.6248 169.179 90.1202 168.725 89.5625 168.412C89.0048 168.098 88.405 167.932 87.7977 167.921H44.5439C44.0003 167.912 43.4612 168.051 42.9612 168.33C42.4613 168.608 42.0115 169.02 41.6408 169.538C41.2701 170.056 40.9866 170.669 40.8085 171.338C40.6304 172.007 40.5616 172.717 40.6066 173.423Z" fill="#F0F0F0"/>
<path d="M92.3598 174.017C92.3565 174.196 92.3428 174.374 92.3188 174.55C92.194 173.095 91.6649 171.749 90.8313 170.766C89.9977 169.784 88.917 169.232 87.7927 169.215L41.7896 169.308C42.5328 168.381 43.525 167.869 44.5543 167.881H87.8132C88.4242 167.875 89.0298 168.031 89.5933 168.338C90.1568 168.646 90.6665 169.099 91.0916 169.671C91.5166 170.243 91.8482 170.921 92.0662 171.665C92.2842 172.408 92.384 173.202 92.3598 173.997V174.017Z" fill="#E0E0E0"/>
<path d="M84.956 170.562L85.0994 173.23L87.0399 172.29L87.4802 173.623L85.5039 174.504L86.8863 176.765L86.0159 177.618L84.6693 175.271L83.5941 177.618L82.6367 176.765L83.758 174.504L81.71 173.657L82.0018 172.323L84.0498 173.23L83.9064 170.562H84.956Z" fill="white"/>
<path d="M73.1237 170.562L73.2722 173.23L75.2076 172.289L75.6479 173.623L73.6665 174.47L75.054 176.731L74.158 177.585L72.8114 175.237L71.7362 177.585L70.7788 176.731L71.9001 174.47L69.8521 173.623L70.149 172.289L72.197 173.196L72.0537 170.529L73.1237 170.562Z" fill="white"/>
<path d="M61.2966 170.562L61.4399 173.23L63.3804 172.289L63.8207 173.623L61.8393 174.47L63.2217 176.731L62.3257 177.585L60.9791 175.237L59.9039 177.585L58.9465 176.731L60.0678 174.47L58.0198 173.623L58.3167 172.289L60.3647 173.196L60.2214 170.529L61.2966 170.562Z" fill="white"/>
<path d="M49.4643 170.562L49.6077 173.23L51.5481 172.29L51.9885 173.623L50.007 174.47L51.3894 176.731L50.4985 177.585L49.152 175.271L48.0717 177.618L47.104 176.765L48.2304 174.504L46.1824 173.657L46.4793 172.323L48.5273 173.23L48.384 170.562H49.4643Z" fill="white"/>
<path d="M78.2028 165.954H76.1855L76.1907 165.287H78.2079L78.2028 165.954Z" fill="#E0E0E0"/>
<path d="M86.8709 165.954H80.2917L80.302 165.287H86.8812L86.8709 165.954Z" fill="#E0E0E0"/>
<g opacity="0.8">
<path d="M137.923 162.593L146.084 178.952L172.995 143.899C173.021 143.869 173.042 143.832 173.058 143.791C173.073 143.75 173.082 143.706 173.084 143.66C173.086 143.615 173.081 143.569 173.07 143.526C173.059 143.483 173.041 143.443 173.018 143.409C172.994 143.375 172.966 143.347 172.935 143.327C172.903 143.307 172.869 143.295 172.834 143.292C172.799 143.29 172.764 143.296 172.731 143.311C172.698 143.326 172.668 143.349 172.641 143.379L146.995 169.575L142.152 159.405L137.923 162.593Z" fill="#E0E0E0"/>
</g>
<path opacity="0.1" d="M133.048 46.1635L113.725 140.304H120.222L139.33 46.1635H133.048Z" fill="white"/>
<path opacity="0.1" d="M143.078 46.1635L123.755 140.304H136.648L155.755 46.1635H143.078Z" fill="white"/>
<path d="M212.638 131.101L216.734 55.5402C216.772 54.9596 216.717 54.3751 216.57 53.8245C216.424 53.2739 216.19 52.7695 215.885 52.3439C215.579 51.9182 215.209 51.5809 214.797 51.3538C214.385 51.1266 213.941 51.0147 213.493 51.0252L112.251 51.1386C111.309 51.1555 110.405 51.6275 109.716 52.463C109.026 53.2985 108.599 54.438 108.518 55.6602L104.448 131.228C104.41 131.809 104.467 132.393 104.614 132.944C104.761 133.495 104.995 133.999 105.301 134.424C105.607 134.85 105.978 135.187 106.39 135.414C106.802 135.641 107.246 135.753 107.694 135.743L208.896 135.629C209.84 135.617 210.748 135.146 211.44 134.309C212.132 133.471 212.559 132.327 212.638 131.101Z" fill="#263238"/>
<path d="M211.338 129.454L215.434 53.893C215.473 53.3122 215.418 52.7273 215.271 52.1762C215.125 51.6251 214.892 51.1202 214.586 50.6944C214.281 50.2686 213.91 49.9313 213.497 49.7045C213.085 49.4777 212.641 49.3665 212.193 49.378L110.95 49.4914C110.009 49.507 109.105 49.9787 108.416 50.8146C107.727 51.6506 107.302 52.7908 107.223 54.013L103.127 129.581C103.089 130.161 103.145 130.746 103.291 131.296C103.437 131.847 103.671 132.351 103.976 132.777C104.282 133.203 104.653 133.54 105.065 133.767C105.477 133.994 105.921 134.106 106.368 134.096L207.606 133.982C208.548 133.967 209.453 133.494 210.143 132.657C210.833 131.82 211.259 130.678 211.338 129.454Z" fill="#4341AF"/>
<path opacity="0.6" d="M208.655 130.574C208.447 130.823 208.175 130.961 207.892 130.961L106.649 131.074C106.487 131.072 106.327 131.027 106.178 130.941C106.029 130.856 105.895 130.732 105.784 130.578C105.673 130.423 105.587 130.241 105.532 130.042C105.477 129.843 105.453 129.632 105.462 129.42L109.558 53.8596C109.573 53.4927 109.698 53.1483 109.906 52.8992C110.112 52.6473 110.386 52.5088 110.669 52.5124L211.911 52.399C212.074 52.4014 212.234 52.4466 212.383 52.532C212.532 52.6173 212.666 52.741 212.777 52.8955C212.888 53.0501 212.973 53.2323 213.029 53.4312C213.084 53.6302 213.108 53.8417 213.099 54.053L209.003 129.614C208.985 129.98 208.86 130.323 208.655 130.574Z" fill="white"/>
<path d="M174.981 89.0324H139.443C139.13 89.0392 138.829 89.1936 138.596 89.467C138.364 89.7405 138.215 90.1144 138.178 90.5196L137.63 97.2887C137.613 97.4768 137.627 97.6676 137.67 97.8484C137.714 98.0292 137.786 98.1958 137.883 98.3372C137.98 98.4785 138.099 98.5913 138.232 98.6681C138.365 98.745 138.509 98.784 138.654 98.7826H174.192C174.507 98.7744 174.808 98.6188 175.041 98.3444C175.275 98.0699 175.424 97.6951 175.462 97.2887L176.005 90.5196C176.022 90.332 176.007 90.1419 175.963 89.9619C175.92 89.782 175.847 89.6162 175.75 89.4756C175.653 89.335 175.535 89.2228 175.402 89.1464C175.269 89.07 175.126 89.0311 174.981 89.0324Z" fill="white"/>
<path d="M143.672 116.676H138.127C137.813 116.684 137.511 116.84 137.278 117.114C137.045 117.388 136.896 117.763 136.857 118.17L136.315 124.939C136.298 125.126 136.312 125.317 136.356 125.496C136.4 125.676 136.473 125.842 136.57 125.983C136.666 126.123 136.785 126.236 136.918 126.312C137.05 126.388 137.194 126.427 137.339 126.426H142.884C143.197 126.418 143.498 126.263 143.731 125.99C143.964 125.717 144.114 125.344 144.153 124.939L144.696 118.17C144.714 117.982 144.7 117.791 144.656 117.61C144.613 117.429 144.54 117.263 144.443 117.121C144.346 116.98 144.228 116.867 144.095 116.79C143.962 116.713 143.818 116.674 143.672 116.676Z" fill="white"/>
<path d="M153.247 116.676H147.702C147.387 116.684 147.086 116.84 146.853 117.114C146.619 117.388 146.47 117.763 146.432 118.17L145.889 124.939C145.872 125.126 145.887 125.317 145.93 125.496C145.974 125.676 146.047 125.842 146.144 125.983C146.241 126.123 146.359 126.236 146.492 126.312C146.625 126.388 146.768 126.427 146.913 126.426H152.458C152.772 126.418 153.072 126.263 153.305 125.99C153.539 125.717 153.689 125.344 153.728 124.939L154.271 118.17C154.288 117.982 154.275 117.791 154.231 117.61C154.187 117.429 154.115 117.263 154.018 117.121C153.921 116.98 153.802 116.867 153.669 116.79C153.536 116.713 153.392 116.674 153.247 116.676Z" fill="white"/>
<path d="M162.816 116.676H157.276C156.962 116.684 156.66 116.84 156.427 117.114C156.194 117.388 156.044 117.763 156.006 118.17L155.464 124.939C155.447 125.126 155.461 125.317 155.505 125.496C155.549 125.676 155.622 125.842 155.718 125.983C155.815 126.123 155.934 126.236 156.066 126.312C156.199 126.388 156.343 126.427 156.488 126.426H162.033C162.346 126.418 162.647 126.263 162.88 125.99C163.113 125.717 163.263 125.344 163.302 124.939L163.84 118.17C163.857 117.982 163.844 117.791 163.8 117.61C163.757 117.429 163.684 117.263 163.587 117.121C163.49 116.98 163.371 116.867 163.238 116.79C163.105 116.713 162.961 116.674 162.816 116.676Z" fill="white"/>
<path d="M172.395 116.676H166.85C166.536 116.684 166.235 116.84 166.001 117.114C165.768 117.388 165.619 117.763 165.581 118.17L165.038 124.939C165.021 125.126 165.035 125.317 165.079 125.496C165.123 125.676 165.196 125.842 165.293 125.983C165.389 126.123 165.508 126.236 165.641 126.312C165.773 126.388 165.917 126.427 166.062 126.426H171.607C171.92 126.418 172.221 126.263 172.454 125.99C172.687 125.717 172.837 125.344 172.877 124.939L173.419 118.17C173.437 117.982 173.423 117.791 173.38 117.61C173.336 117.429 173.263 117.263 173.166 117.121C173.07 116.98 172.951 116.867 172.818 116.79C172.685 116.713 172.541 116.674 172.395 116.676Z" fill="white"/>
<path d="M166.128 112.401H143.902C143.618 112.41 143.335 112.338 143.074 112.192C142.812 112.045 142.578 111.826 142.388 111.551C142.197 111.275 142.054 110.949 141.969 110.595C141.884 110.241 141.859 109.868 141.895 109.5L142.162 106.165C142.235 105.393 142.52 104.682 142.964 104.161C143.408 103.641 143.981 103.346 144.578 103.331H166.804C167.089 103.323 167.372 103.396 167.633 103.543C167.895 103.691 168.129 103.91 168.319 104.186C168.51 104.462 168.652 104.788 168.737 105.142C168.822 105.497 168.847 105.871 168.811 106.239L168.545 109.573C168.47 110.344 168.185 111.054 167.741 111.573C167.297 112.093 166.725 112.386 166.128 112.401ZM144.578 104.005C144.107 104.019 143.655 104.253 143.304 104.664C142.954 105.075 142.728 105.636 142.669 106.245L142.402 109.58C142.374 109.855 142.392 110.135 142.455 110.4C142.518 110.665 142.625 110.91 142.767 111.116C142.91 111.322 143.086 111.485 143.282 111.594C143.478 111.703 143.689 111.756 143.902 111.747H166.128C166.599 111.735 167.051 111.502 167.402 111.092C167.752 110.682 167.978 110.122 168.038 109.513L168.304 106.179C168.333 105.904 168.315 105.624 168.252 105.358C168.189 105.093 168.082 104.849 167.939 104.643C167.797 104.437 167.621 104.273 167.425 104.164C167.229 104.055 167.017 104.003 166.804 104.011L144.578 104.005Z" fill="#4341AF"/>
<path d="M176.261 74.934H140.723C140.41 74.9438 140.11 75.1001 139.877 75.3744C139.645 75.6486 139.496 76.0226 139.458 76.4278L138.911 83.197C138.894 83.3846 138.908 83.5747 138.952 83.7546C138.996 83.9346 139.069 84.1004 139.165 84.241C139.262 84.3815 139.381 84.4938 139.513 84.5702C139.646 84.6466 139.79 84.6854 139.935 84.6842H175.467C175.781 84.6762 176.082 84.5215 176.315 84.2485C176.548 83.9754 176.698 83.6022 176.737 83.197L177.28 76.4278C177.297 76.2403 177.284 76.0501 177.241 75.8697C177.197 75.6894 177.125 75.5232 177.029 75.3819C176.932 75.2407 176.814 75.1277 176.682 75.0505C176.55 74.9733 176.406 74.9335 176.261 74.934Z" fill="white"/>
<path d="M143.764 93.9075C143.786 93.6984 143.772 93.4857 143.725 93.2841C143.677 93.0825 143.596 92.8967 143.488 92.7396C143.38 92.5824 143.248 92.4576 143.099 92.3737C142.95 92.2898 142.79 92.2488 142.628 92.2535C142.28 92.2643 141.947 92.437 141.688 92.7405C141.43 93.044 141.264 93.458 141.22 93.9075C141.2 94.1164 141.215 94.3285 141.263 94.5292C141.312 94.73 141.393 94.9148 141.502 95.0711C141.61 95.2274 141.743 95.3514 141.891 95.4349C142.039 95.5183 142.2 95.5592 142.361 95.5547C142.708 95.5454 143.041 95.3738 143.298 95.0714C143.556 94.7689 143.721 94.3557 143.764 93.9075Z" fill="#263238"/>
<path d="M147.676 93.9076C147.697 93.6981 147.682 93.4854 147.634 93.2838C147.586 93.0822 147.505 92.8965 147.396 92.7395C147.288 92.5825 147.155 92.4578 147.006 92.3739C146.857 92.2901 146.696 92.249 146.534 92.2536C146.187 92.2632 145.853 92.4357 145.596 92.7396C145.338 93.0434 145.173 93.4581 145.131 93.9076C145.111 94.1161 145.125 94.3281 145.173 94.5289C145.221 94.7297 145.301 94.9146 145.409 95.071C145.517 95.2274 145.65 95.3516 145.798 95.4351C145.946 95.5186 146.107 95.5595 146.268 95.5548C146.615 95.5457 146.949 95.3744 147.207 95.072C147.465 94.7696 147.632 94.3564 147.676 93.9076Z" fill="#263238"/>
<path d="M151.582 93.9076C151.603 93.6981 151.589 93.4854 151.541 93.2838C151.492 93.0822 151.411 92.8965 151.303 92.7395C151.194 92.5825 151.061 92.4578 150.913 92.3739C150.764 92.2901 150.603 92.249 150.441 92.2536C150.093 92.2632 149.76 92.4357 149.502 92.7396C149.245 93.0434 149.08 93.4581 149.038 93.9076C149.018 94.1165 149.033 94.3286 149.081 94.5293C149.13 94.7301 149.211 94.9149 149.32 95.0712C149.428 95.2275 149.561 95.3515 149.709 95.435C149.858 95.5184 150.018 95.5593 150.18 95.5548C150.526 95.5455 150.859 95.3739 151.117 95.0715C151.374 94.769 151.54 94.3558 151.582 93.9076Z" fill="#263238"/>
<path d="M155.489 93.9075C155.511 93.6984 155.497 93.4857 155.449 93.2841C155.402 93.0825 155.321 92.8967 155.213 92.7396C155.105 92.5824 154.972 92.4576 154.824 92.3737C154.675 92.2898 154.514 92.2488 154.352 92.2535C154.005 92.2631 153.672 92.4356 153.414 92.7395C153.156 93.0433 152.991 93.458 152.95 93.9075C152.928 94.1186 152.943 94.3333 152.993 94.5362C153.042 94.7392 153.125 94.9255 153.236 95.082C153.347 95.2385 153.483 95.3613 153.634 95.4419C153.785 95.5224 153.949 95.5587 154.112 95.5481C154.453 95.5312 154.779 95.357 155.031 95.0566C155.284 94.7562 155.446 94.349 155.489 93.9075Z" fill="#263238"/>
<path d="M159.477 93.9076C159.498 93.6981 159.484 93.4854 159.436 93.2838C159.387 93.0822 159.306 92.8965 159.198 92.7395C159.089 92.5825 158.956 92.4578 158.808 92.3739C158.659 92.2901 158.498 92.249 158.336 92.2536C157.988 92.2632 157.655 92.4357 157.397 92.7396C157.14 93.0434 156.975 93.4581 156.933 93.9076C156.912 94.1161 156.926 94.3281 156.974 94.5289C157.022 94.7297 157.103 94.9146 157.211 95.071C157.319 95.2274 157.451 95.3516 157.6 95.4351C157.748 95.5186 157.908 95.5595 158.069 95.5548C158.417 95.5457 158.75 95.3744 159.008 95.072C159.267 94.7696 159.433 94.3564 159.477 93.9076Z" fill="#263238"/>
<path d="M145.044 79.8091C145.066 79.6003 145.052 79.3879 145.005 79.1866C144.957 78.9853 144.876 78.7999 144.768 78.6433C144.66 78.4866 144.527 78.3624 144.379 78.2793C144.23 78.1961 144.069 78.156 143.908 78.1618C143.561 78.1711 143.228 78.3427 142.971 78.6452C142.713 78.9477 142.548 79.3608 142.505 79.8091C142.483 80.0178 142.497 80.2302 142.544 80.4315C142.592 80.6328 142.673 80.8182 142.781 80.9749C142.889 81.1315 143.022 81.2557 143.171 81.3389C143.319 81.422 143.48 81.4621 143.641 81.4563C143.989 81.4484 144.322 81.2773 144.58 80.9745C144.837 80.6718 145.002 80.2579 145.044 79.8091Z" fill="#263238"/>
<path d="M148.956 79.8091C148.976 79.6002 148.961 79.3881 148.912 79.1873C148.864 78.9866 148.783 78.8018 148.674 78.6455C148.566 78.4892 148.433 78.3652 148.285 78.2817C148.136 78.1983 147.976 78.1574 147.814 78.1618C147.471 78.1774 147.143 78.3518 146.89 78.6537C146.637 78.9556 146.474 79.3653 146.432 79.8091C146.411 80.0177 146.425 80.2296 146.473 80.4304C146.521 80.6312 146.602 80.8161 146.71 80.9725C146.818 81.1289 146.95 81.2531 147.099 81.3366C147.247 81.4201 147.407 81.461 147.568 81.4564C147.913 81.4423 148.241 81.2686 148.496 80.9666C148.75 80.6645 148.913 80.254 148.956 79.8091Z" fill="#263238"/>
<path d="M152.862 79.809C152.883 79.6004 152.869 79.3885 152.821 79.1877C152.773 78.9869 152.692 78.802 152.584 78.6456C152.476 78.4892 152.344 78.365 152.196 78.2815C152.048 78.198 151.887 78.1571 151.726 78.1617C151.379 78.1709 151.045 78.3422 150.787 78.6446C150.528 78.9469 150.362 79.3602 150.318 79.809C150.297 80.0181 150.311 80.2306 150.36 80.4319C150.408 80.6332 150.489 80.8185 150.598 80.975C150.706 81.1315 150.839 81.2556 150.988 81.3387C151.137 81.4217 151.298 81.4619 151.46 81.4563C151.807 81.4483 152.14 81.2772 152.398 80.9745C152.655 80.6717 152.821 80.2578 152.862 79.809Z" fill="#263238"/>
<path d="M156.769 79.8091C156.791 79.6003 156.777 79.3879 156.729 79.1866C156.682 78.9853 156.601 78.7999 156.493 78.6433C156.385 78.4866 156.252 78.3624 156.103 78.2793C155.955 78.1961 155.794 78.156 155.632 78.1618C155.286 78.1711 154.953 78.3427 154.695 78.6452C154.438 78.9477 154.272 79.3608 154.229 79.8091C154.208 80.0178 154.221 80.2302 154.269 80.4315C154.317 80.6328 154.397 80.8182 154.506 80.9749C154.614 81.1315 154.747 81.2557 154.895 81.3389C155.044 81.422 155.204 81.4621 155.366 81.4563C155.713 81.4484 156.046 81.2773 156.304 80.9745C156.562 80.6718 156.727 80.2579 156.769 79.8091Z" fill="#263238"/>
<path d="M160.681 79.8091C160.701 79.6002 160.686 79.3881 160.637 79.1873C160.589 78.9866 160.507 78.8018 160.399 78.6455C160.291 78.4892 160.158 78.3652 160.01 78.2817C159.861 78.1983 159.701 78.1574 159.539 78.1618C159.192 78.1712 158.86 78.3428 158.602 78.6452C158.345 78.9477 158.179 79.3608 158.136 79.8091C158.115 80.0182 158.13 80.2307 158.178 80.432C158.226 80.6333 158.307 80.8186 158.416 80.9751C158.524 81.1316 158.658 81.2557 158.806 81.3388C158.955 81.4218 159.116 81.462 159.278 81.4564C159.625 81.4484 159.958 81.2773 160.216 80.9746C160.474 80.6718 160.639 80.2579 160.681 79.8091Z" fill="#263238"/>
<path d="M164.587 79.809C164.608 79.6004 164.594 79.3885 164.546 79.1877C164.498 78.9869 164.417 78.802 164.309 78.6456C164.201 78.4892 164.069 78.365 163.921 78.2815C163.772 78.198 163.612 78.1571 163.451 78.1617C163.103 78.1709 162.77 78.3422 162.512 78.6446C162.253 78.9469 162.087 79.3602 162.043 79.809C162.022 80.0181 162.036 80.2306 162.084 80.4319C162.133 80.6332 162.214 80.8185 162.322 80.975C162.431 81.1315 162.564 81.2556 162.713 81.3387C162.862 81.4217 163.023 81.4619 163.184 81.4563C163.532 81.4483 163.865 81.2772 164.122 80.9745C164.38 80.6717 164.545 80.2578 164.587 79.809Z" fill="#263238"/>
<path d="M161.28 60.0085L161.003 63.4298C160.984 63.5786 160.926 63.7145 160.839 63.815C160.753 63.9156 160.643 63.9749 160.527 63.9833C160.472 63.9859 160.418 63.973 160.368 63.9453C160.318 63.9176 160.273 63.876 160.236 63.8232C160.199 63.7704 160.172 63.7079 160.156 63.6399C160.14 63.5719 160.136 63.5002 160.143 63.4298L160.42 60.0085C160.444 59.7552 160.426 59.4981 160.367 59.2545C160.308 59.011 160.21 58.7867 160.079 58.5969C159.948 58.4072 159.787 58.2564 159.607 58.1547C159.428 58.0531 159.233 58.003 159.037 58.0078H158.09C157.669 58.0209 157.266 58.2298 156.953 58.5969C156.64 58.9639 156.439 59.4647 156.385 60.0085L156.144 63.183H155.284L155.525 60.0085C155.606 59.1599 155.919 58.3778 156.407 57.8057C156.896 57.2336 157.526 56.91 158.182 56.8941H159.124C159.43 56.884 159.734 56.9603 160.015 57.1176C160.296 57.2749 160.547 57.5096 160.752 57.8055C160.957 58.1014 161.11 58.4515 161.201 58.8317C161.292 59.212 161.319 59.6135 161.28 60.0085Z" fill="#4341AF"/>
<path d="M161.28 63.303L160.742 69.9721C160.721 70.1791 160.644 70.3697 160.525 70.5091C160.406 70.6486 160.252 70.7278 160.092 70.7324H154.972C154.898 70.7333 154.825 70.7136 154.758 70.6744C154.691 70.6352 154.631 70.5775 154.582 70.5053C154.533 70.4331 154.497 70.3481 154.476 70.2561C154.455 70.1641 154.45 70.0672 154.46 69.9721L154.997 63.303C155.008 63.166 155.042 63.034 155.099 62.918C155.156 62.802 155.234 62.7054 155.325 62.6361C155.423 62.5615 155.534 62.5223 155.648 62.5227H160.768C160.872 62.5213 160.975 62.5583 161.065 62.6295C161.147 62.7024 161.211 62.8049 161.249 62.9246C161.287 63.0442 161.298 63.1757 161.28 63.303Z" fill="#4341AF"/>
<path d="M188.861 49.3646C188.793 49.3646 188.728 49.3295 188.68 49.267C188.632 49.2044 188.605 49.1196 188.605 49.0312C188.605 48.9428 188.632 48.8579 188.68 48.7954C188.728 48.7329 188.793 48.6977 188.861 48.6977L201.375 48.6044C201.442 48.6044 201.508 48.6395 201.556 48.702C201.604 48.7646 201.631 48.8494 201.631 48.9378C201.631 49.0263 201.604 49.1111 201.556 49.1736C201.508 49.2361 201.442 49.2713 201.375 49.2713L188.866 49.3646H188.861Z" fill="#263238"/>
<path d="M203.776 49.2513C203.708 49.2513 203.643 49.2161 203.595 49.1536C203.547 49.0911 203.52 49.0062 203.52 48.9178C203.52 48.8294 203.547 48.7445 203.595 48.682C203.643 48.6195 203.708 48.5844 203.776 48.5844H208.199C208.267 48.5844 208.332 48.6195 208.38 48.682C208.428 48.7445 208.455 48.8294 208.455 48.9178C208.455 49.0062 208.428 49.0911 208.38 49.1536C208.332 49.2161 208.267 49.2513 208.199 49.2513H203.776Z" fill="#263238"/>
<g opacity="0.3">
<path d="M120.371 52.4924H134.707L120.13 131.074H108.574C108.241 131.066 107.913 130.959 107.616 130.762C107.319 130.566 107.06 130.284 106.858 129.938C106.656 129.592 106.517 129.192 106.45 128.766C106.384 128.34 106.393 127.901 106.475 127.48L120.371 52.4924Z" fill="white"/>
<path d="M141.056 52.4924H147.133L132.572 131.074H126.494L141.056 52.4924Z" fill="white"/>
</g>
<path d="M44.365 27.9635H47.2731C46.5918 27.9509 45.9161 28.1244 45.2895 28.473C44.6628 28.8216 44.0993 29.3374 43.6352 29.9872C43.1711 30.637 42.8167 31.4063 42.5949 32.2455C42.3732 33.0847 42.2889 33.9751 42.3477 34.8593L48.5173 149.768C48.6343 151.629 49.2791 153.366 50.326 154.641C51.373 155.916 52.747 156.637 54.18 156.664H51.277C49.8434 156.637 48.4688 155.916 47.421 154.641C46.3732 153.366 45.7273 151.629 45.6091 149.768L39.4242 34.8593C39.3653 33.9734 39.4499 33.0813 39.6726 32.2406C39.8952 31.4 40.251 30.6297 40.7168 29.9796C41.1826 29.3295 41.748 28.8141 42.3765 28.4668C43.0049 28.1195 43.6824 27.948 44.365 27.9635Z" fill="#4341AF"/>
<path d="M44.3649 27.9635H47.273C46.5917 27.9509 45.916 28.1245 45.2893 28.473C44.6627 28.8216 44.0992 29.3374 43.6351 29.9872C43.1709 30.637 42.8166 31.4063 42.5948 32.2455C42.373 33.0847 42.2888 33.9752 42.3476 34.8594L48.5172 149.768C48.6341 151.629 49.279 153.366 50.3259 154.641C51.3728 155.916 52.7468 156.637 54.1799 156.664H51.2769C48.3533 156.664 45.4042 153.576 45.1994 149.768L39.0298 34.8594C38.825 31.0513 41.4413 27.9635 44.3649 27.9635Z" fill="#263238"/>
<path d="M52.1422 156.67H87.7262C88.4092 156.687 89.0872 156.516 89.7163 156.169C90.3454 155.822 90.9114 155.307 91.3778 154.657C91.8441 154.007 92.2003 153.236 92.4233 152.395C92.6463 151.554 92.7311 150.661 92.6721 149.775L86.482 34.8593C86.3662 32.9964 85.7212 31.2567 84.673 29.9802C83.6249 28.7037 82.249 27.9823 80.8142 27.9568H45.2353C44.5535 27.9441 43.8773 28.1178 43.2503 28.4668C42.6233 28.8158 42.0595 29.3322 41.5953 29.9827C41.1311 30.6333 40.7768 31.4034 40.5554 32.2434C40.334 33.0834 40.2503 33.9746 40.3099 34.8593L46.4539 149.768C46.5712 151.635 47.2194 153.377 48.2717 154.654C49.3239 155.931 50.7042 156.65 52.1422 156.67Z" fill="#4341AF"/>
<g opacity="0.6">
<path d="M80.7221 30.191C81.7189 30.2115 82.6743 30.7145 83.4021 31.6021C84.1299 32.4897 84.5781 33.6984 84.6593 34.9927L90.8289 149.901C90.8708 150.488 90.8172 151.079 90.6715 151.637C90.5258 152.194 90.2913 152.705 89.9834 153.137C89.6755 153.568 89.3011 153.91 88.8848 154.139C88.4684 154.369 88.0195 154.482 87.5675 154.47H51.9886C50.9912 154.449 50.0352 153.946 49.3066 153.059C48.5779 152.172 48.1287 150.963 48.0462 149.668L41.9022 34.7593C41.8606 34.1758 41.9136 33.5873 42.0577 33.0321C42.2019 32.4769 42.4341 31.9675 42.7392 31.5367C43.0444 31.1059 43.4156 30.7635 43.8288 30.5317C44.2421 30.2999 44.6881 30.1838 45.1381 30.191H80.7221Z" fill="white"/>
</g>
<g opacity="0.3">
<path d="M70.656 154.456H56.4788L68.1831 30.191H79.6058C80.0991 30.1886 80.5874 30.3188 81.0402 30.5736C81.4931 30.8283 81.9007 31.2021 82.2375 31.6715L70.656 154.456Z" fill="white"/>
<path d="M53.9341 154.456H50.7393L62.4436 30.1776H65.6385L53.9341 154.456Z" fill="white"/>
</g>
<path d="M78.6023 84.8108H52.8283C52.7604 84.8108 52.6953 84.7757 52.6472 84.7132C52.5992 84.6506 52.5723 84.5658 52.5723 84.4774C52.5723 84.3889 52.5992 84.3041 52.6472 84.2416C52.6953 84.1791 52.7604 84.1439 52.8283 84.1439H78.6023C78.6698 84.1456 78.7342 84.1813 78.7819 84.2435C78.8296 84.3057 78.857 84.3895 78.8583 84.4774C78.8583 84.5658 78.8314 84.6506 78.7834 84.7132C78.7354 84.7757 78.6702 84.8108 78.6023 84.8108Z" fill="white"/>
<path d="M76.3392 89.7793H56.151C56.0831 89.7793 56.018 89.7442 55.97 89.6817C55.922 89.6191 55.895 89.5343 55.895 89.4459C55.895 89.3574 55.922 89.2726 55.97 89.2101C56.018 89.1476 56.0831 89.1124 56.151 89.1124H76.3392C76.4071 89.1124 76.4722 89.1476 76.5202 89.2101C76.5682 89.2726 76.5952 89.3574 76.5952 89.4459C76.5952 89.5343 76.5682 89.6191 76.5202 89.6817C76.4722 89.7442 76.4071 89.7793 76.3392 89.7793Z" fill="white"/>
<path d="M53.5961 61.589L53.632 62.9228H52.9715L52.9357 61.589L51.7632 59.1948H52.4646L53.2736 60.8488L53.9904 59.1948H54.6406L53.5961 61.589Z" fill="#4341AF"/>
<path d="M54.6664 61.0422C54.6577 60.7801 54.6919 60.5185 54.7669 60.2749C54.8418 60.0314 54.9558 59.8114 55.1011 59.6297C55.2464 59.448 55.4198 59.3087 55.6097 59.221C55.7996 59.1334 56.0016 59.0995 56.2024 59.1215C56.4054 59.1081 56.6084 59.1473 56.7997 59.2368C56.991 59.3263 57.1667 59.4644 57.3168 59.6431C57.4668 59.8217 57.5881 60.0374 57.6736 60.2776C57.7592 60.5177 57.8073 60.7776 57.8152 61.0422C57.8246 61.3049 57.7909 61.5672 57.7163 61.8116C57.6417 62.056 57.5278 62.2768 57.3824 62.4592C57.237 62.6417 57.0634 62.7816 56.8731 62.8696C56.6829 62.9576 56.4804 62.9917 56.2792 62.9696C56.0757 62.983 55.8723 62.9436 55.6807 62.8537C55.4891 62.7637 55.3131 62.625 55.163 62.4457C55.0129 62.2663 54.8917 62.0499 54.8065 61.8089C54.7212 61.568 54.6736 61.3073 54.6664 61.0422ZM57.124 61.0422C57.1247 60.8844 57.1011 60.7279 57.0546 60.5822C57.0081 60.4364 56.9396 60.3043 56.8532 60.1936C56.7668 60.0829 56.6642 59.9959 56.5515 59.9378C56.4389 59.8797 56.3184 59.8515 56.1972 59.8551C56.0785 59.8486 55.9601 59.8754 55.85 59.9337C55.7399 59.992 55.6408 60.0804 55.5592 60.193C55.4776 60.3056 55.4156 60.4396 55.3773 60.5861C55.339 60.7327 55.3252 60.8882 55.3371 61.0422C55.3357 61.2006 55.3588 61.3578 55.405 61.5043C55.4512 61.6508 55.5196 61.7838 55.606 61.8952C55.6925 62.0066 55.7953 62.0941 55.9083 62.1527C56.0213 62.2112 56.1422 62.2396 56.2638 62.236C56.3826 62.2404 56.5007 62.212 56.6104 62.1525C56.72 62.0931 56.8188 62.004 56.9001 61.8912C56.9814 61.7784 57.0434 61.6443 57.082 61.498C57.1206 61.3516 57.1349 61.1963 57.124 61.0422Z" fill="#4341AF"/>
<path d="M58.2707 61.2689L58.2195 59.1815H58.88L58.9312 61.2356C58.9312 61.9425 59.1974 62.236 59.5968 62.236C59.9961 62.236 60.2214 61.9425 60.206 61.2356L60.1497 59.1815H60.8L60.8563 61.2689C60.8832 61.4933 60.8701 61.7227 60.8181 61.9395C60.766 62.1562 60.6764 62.3544 60.5561 62.5188C60.4358 62.6832 60.2881 62.8094 60.1245 62.8876C59.9608 62.9657 59.7855 62.9938 59.6121 62.9696C59.4351 62.9902 59.2567 62.9607 59.0892 62.8832C58.9217 62.8057 58.769 62.682 58.6416 62.5205C58.5142 62.359 58.4151 62.1635 58.3511 61.9475C58.2871 61.7315 58.2596 61.5001 58.2707 61.2689Z" fill="#4341AF"/>
<path d="M63.3753 62.9095L62.7968 61.8692H62.1875L62.2182 62.9095H61.5577L61.4553 59.1815H62.6944C63.4572 59.1815 63.9488 59.7017 63.9692 60.5153C63.9858 60.7632 63.9404 61.0114 63.8399 61.223C63.7393 61.4345 63.5889 61.598 63.4112 61.6891L64.087 62.8895L63.3753 62.9095ZM62.6739 59.8884H62.1619L62.1977 61.1822H62.7097C63.1142 61.1822 63.3088 60.9422 63.2985 60.5153C63.2883 60.0885 63.0784 59.8884 62.6739 59.8884Z" fill="#4341AF"/>
<path d="M65.4849 61.0422C65.4743 60.7841 65.5059 60.526 65.5776 60.2849C65.6492 60.0438 65.7594 59.8253 65.9007 59.6438C66.042 59.4622 66.2112 59.3218 66.3973 59.2318C66.5833 59.1418 66.7819 59.1042 66.98 59.1216C67.2041 59.1125 67.4271 59.1676 67.6332 59.2828C67.8393 59.398 68.0235 59.5706 68.1729 59.7885L67.7633 60.2953C67.6727 60.1582 67.5603 60.0484 67.4339 59.9736C67.3074 59.8987 67.17 59.8606 67.0311 59.8618C66.9112 59.8536 66.7913 59.879 66.6795 59.9363C66.5677 59.9936 66.4667 60.0815 66.3832 60.194C66.2997 60.3066 66.2357 60.4411 66.1956 60.5886C66.1555 60.736 66.1401 60.893 66.1505 61.0489C66.1497 61.2094 66.1739 61.3684 66.2216 61.5163C66.2693 61.6643 66.3396 61.7981 66.4281 61.9096C66.5167 62.0212 66.6216 62.1083 66.7367 62.1655C66.8518 62.2227 66.9746 62.249 67.0977 62.2427C67.2337 62.2463 67.3684 62.2084 67.4911 62.132C67.6138 62.0555 67.7211 61.9427 67.8043 61.8025L68.2395 62.3094C68.1002 62.5308 67.9229 62.7066 67.7219 62.8224C67.5209 62.9383 67.3018 62.991 67.0823 62.9763C66.8798 62.987 66.6776 62.9453 66.4874 62.8538C66.2972 62.7622 66.1229 62.6225 65.9744 62.4427C65.8259 62.2629 65.7062 62.0466 65.6222 61.8062C65.5381 61.5658 65.4915 61.3062 65.4849 61.0422Z" fill="#4341AF"/>
<path d="M68.4136 61.0423C68.4053 60.7831 68.4389 60.5246 68.5123 60.2835C68.5858 60.0425 68.6974 59.8242 68.8399 59.643C68.9823 59.4619 69.1525 59.3218 69.3393 59.2319C69.5261 59.1421 69.7253 59.1045 69.924 59.1216C70.127 59.1081 70.33 59.1473 70.5213 59.2368C70.7126 59.3264 70.8884 59.4645 71.0384 59.6431C71.1884 59.8218 71.3097 60.0374 71.3953 60.2776C71.4808 60.5178 71.5289 60.7777 71.5368 61.0423C71.5459 61.3019 71.5128 61.5612 71.4397 61.8031C71.3666 62.045 71.2551 62.264 71.1125 62.4459C70.97 62.6279 70.7995 62.7685 70.6124 62.8588C70.4252 62.949 70.2255 62.9868 70.0264 62.9696C69.823 62.9831 69.6195 62.9437 69.4279 62.8537C69.2363 62.7638 69.0603 62.6251 68.9102 62.4457C68.7602 62.2664 68.639 62.0499 68.5537 61.809C68.4684 61.568 68.4208 61.3074 68.4136 61.0423ZM70.8661 61.0423C70.8675 60.8847 70.8445 60.7284 70.7986 60.5827C70.7526 60.437 70.6846 60.3048 70.5986 60.194C70.5126 60.0832 70.4104 59.9962 70.298 59.9379C70.1856 59.8797 70.0654 59.8516 69.9445 59.8552C69.8258 59.8487 69.7073 59.8755 69.5973 59.9338C69.4872 59.992 69.388 60.0805 69.3064 60.193C69.2249 60.3056 69.1628 60.4397 69.1245 60.5862C69.0862 60.7327 69.0725 60.8882 69.0843 61.0423C69.0822 61.2003 69.1047 61.3574 69.1503 61.5039C69.1959 61.6504 69.2638 61.7834 69.3499 61.8949C69.436 62.0064 69.5384 62.094 69.6512 62.1527C69.7639 62.2113 69.8846 62.2396 70.0059 62.236C70.1249 62.2415 70.2434 62.2138 70.3535 62.1548C70.4636 62.0957 70.5627 62.0067 70.6441 61.8936C70.7256 61.7805 70.7876 61.646 70.8258 61.4992C70.8641 61.3524 70.8778 61.1966 70.8661 61.0423Z" fill="#4341AF"/>
<path d="M71.9873 59.1815H73.2827C73.4844 59.1558 73.6881 59.1844 73.8811 59.2655C74.074 59.3466 74.2521 59.4784 74.4043 59.6529C74.5565 59.8274 74.6795 60.0407 74.7658 60.2797C74.852 60.5187 74.8997 60.7782 74.9057 61.0422C74.917 61.3029 74.8842 61.5637 74.8095 61.8061C74.7349 62.0485 74.6202 62.2665 74.4736 62.4447C74.327 62.6228 74.1522 62.7569 73.9614 62.8372C73.7706 62.9175 73.5686 62.9422 73.3697 62.9095H72.0692L71.9873 59.1815ZM73.3339 62.2026C73.4546 62.2189 73.5767 62.2003 73.6912 62.148C73.8058 62.0958 73.9101 62.0112 73.9967 61.9003C74.0833 61.7894 74.15 61.655 74.1921 61.5067C74.2342 61.3584 74.2506 61.1997 74.2401 61.0422C74.2399 60.8816 74.214 60.7228 74.1642 60.5758C74.1144 60.4289 74.0417 60.297 73.9507 60.1886C73.8598 60.0801 73.7525 59.9974 73.6358 59.9458C73.519 59.8941 73.3953 59.8746 73.2724 59.8884H72.6683L72.7297 62.2026H73.3339Z" fill="#4341AF"/>
<path d="M77.6499 62.2026V62.8695H75.4381L75.3357 59.1415H77.4963V59.8084H76.032V60.6153H77.3581V61.2823H76.032V62.1426L77.6499 62.2026Z" fill="#4341AF"/>
<path d="M58.5628 76.748V78.2418H53.1919V77.0614L56.0488 73.4668C56.7452 72.5798 56.8629 72.0262 56.8578 71.466C56.8578 70.5991 56.3765 70.0922 55.4805 70.0922C55.157 70.071 54.8343 70.15 54.5388 70.3227C54.2433 70.4954 53.9835 70.757 53.7807 71.0859L52.8181 70.1322C53.1491 69.605 53.5713 69.1874 54.0501 68.9138C54.5289 68.6402 55.0507 68.5184 55.5727 68.5583C57.1599 68.5583 58.1992 69.6054 58.2197 71.2926C58.2197 72.213 58.0456 73.06 57.0524 74.3004L55.1324 76.7213L58.5628 76.748Z" fill="#263238"/>
<path d="M64.5121 75.3874C64.5121 76.988 63.6213 78.3752 61.6603 78.3752C60.6726 78.3981 59.7047 78.0129 58.8955 77.2748L59.4638 75.9009C60.0808 76.5211 60.8401 76.8523 61.6193 76.8413C62.587 76.8413 63.1553 76.2811 63.1553 75.4007C63.1553 74.5204 62.6433 73.9802 61.5477 73.9802H60.8821V72.7731L62.4641 70.2055H59.1413V68.725H64.1281V69.9121L62.3873 72.6597C63.7851 72.8732 64.5121 73.9536 64.5121 75.3874Z" fill="#263238"/>
<path d="M71.342 75.5408C71.342 77.3081 70.2003 78.4085 68.3827 78.4085C66.5651 78.4085 65.3875 77.3081 65.367 75.5408C65.3516 75.0549 65.4528 74.5748 65.6565 74.1673C65.8602 73.7597 66.1563 73.445 66.5036 73.2666C66.2202 73.0795 65.9823 72.7932 65.8168 72.4398C65.6513 72.0864 65.5647 71.6799 65.5667 71.2659C65.5667 69.632 66.6316 68.5983 68.2496 68.5983C69.8675 68.5983 70.999 69.6186 71.0195 71.2659C71.0353 71.6775 70.9585 72.0862 70.7984 72.4416C70.6383 72.7971 70.4019 73.0838 70.1184 73.2666C70.4744 73.4412 70.7817 73.7516 71 74.1574C71.2183 74.5632 71.3376 75.0453 71.342 75.5408ZM69.9699 75.4874C69.9699 74.5471 69.3248 73.9602 68.3212 73.9602C67.3177 73.9602 66.7187 74.5471 66.734 75.4874C66.7494 76.4278 67.3587 77.0213 68.3622 77.0213C69.3657 77.0213 69.9852 76.4211 69.9699 75.4541V75.4874ZM66.8979 71.3526C66.8979 72.1662 67.4099 72.6864 68.2956 72.6864C69.1814 72.6864 69.6883 72.1662 69.6729 71.3526C69.6576 70.539 69.0944 70.0188 68.2547 70.0188C67.415 70.0188 66.8979 70.4589 66.9081 71.3193L66.8979 71.3526Z" fill="#263238"/>
<path d="M78.1517 75.5408C78.1517 77.3081 77.01 78.4085 75.1924 78.4085C73.3748 78.4085 72.1921 77.2748 72.1921 75.5408C72.1774 75.0551 72.279 74.5755 72.4825 74.1681C72.6861 73.7608 72.9818 73.4458 73.3287 73.2666C73.045 73.0804 72.8073 72.7941 72.6425 72.4403C72.4777 72.0866 72.3926 71.6796 72.3969 71.2659C72.3713 69.632 73.4567 68.5983 75.0746 68.5983C76.6925 68.5983 77.8241 69.6186 77.8445 71.2659C77.8604 71.6775 77.7835 72.0862 77.6234 72.4416C77.4633 72.7971 77.227 73.0838 76.9434 73.2666C77.2966 73.4444 77.6006 73.7562 77.816 74.1617C78.0315 74.5672 78.1484 75.0477 78.1517 75.5408ZM76.7796 75.4874C76.7796 74.5471 76.1345 73.9602 75.1309 73.9602C74.1274 73.9602 73.5284 74.5471 73.5437 75.4874C73.5591 76.4278 74.1684 77.0213 75.1719 77.0213C76.1754 77.0213 76.8001 76.4211 76.8001 75.4541L76.7796 75.4874ZM73.7076 71.3526C73.7076 72.1662 74.2452 72.6864 75.1053 72.6864C75.9655 72.6864 76.498 72.1662 76.4877 71.3526C76.4775 70.539 75.9041 70.0188 75.0695 70.0188C74.2349 70.0188 73.7281 70.4589 73.7281 71.3193L73.7076 71.3526Z" fill="#263238"/>
<path d="M40.1869 61.0755C40.1216 61.0757 40.0587 61.0433 40.0111 60.985C39.9635 60.9267 39.9348 60.847 39.9309 60.7621L39.0247 44.6428C39.0204 44.5554 39.0428 44.4694 39.0868 44.4032C39.1309 44.3371 39.1932 44.2962 39.2602 44.2894C39.3278 44.2838 39.3945 44.3127 39.4461 44.3699C39.4977 44.4272 39.5302 44.5083 39.5367 44.5962L40.448 60.7154C40.4508 60.7592 40.447 60.8033 40.4366 60.8452C40.4263 60.887 40.4097 60.9258 40.3878 60.9593C40.3659 60.9927 40.3392 61.0202 40.3091 61.0402C40.279 61.0601 40.2462 61.0721 40.2125 61.0755H40.1869Z" fill="#4341AF"/>
<path d="M39.1066 41.8619C39.0421 41.8622 38.98 41.8307 38.9325 41.7738C38.885 41.717 38.8558 41.6389 38.8506 41.5551L38.61 37.3002C38.6076 37.2565 38.6119 37.2125 38.6226 37.1709C38.6333 37.1292 38.6502 37.0907 38.6723 37.0576C38.717 36.9907 38.7802 36.9496 38.8481 36.9434C38.916 36.9373 38.983 36.9664 39.0343 37.0246C39.0857 37.0828 39.1172 37.1651 39.122 37.2536L39.3626 41.5084C39.3669 41.5958 39.3446 41.6819 39.3005 41.748C39.2564 41.8142 39.1941 41.8551 39.1271 41.8619H39.1066Z" fill="#4341AF"/>
<path d="M63.1654 21.5812C63.0975 21.5812 63.0324 21.546 62.9844 21.4835C62.9364 21.421 62.9094 21.3361 62.9094 21.2477V11.4375C62.9094 11.349 62.9364 11.2642 62.9844 11.2017C63.0324 11.1391 63.0975 11.104 63.1654 11.104C63.2333 11.104 63.2984 11.1391 63.3464 11.2017C63.3945 11.2642 63.4214 11.349 63.4214 11.4375V21.2477C63.4214 21.3361 63.3945 21.421 63.3464 21.4835C63.2984 21.546 63.2333 21.5812 63.1654 21.5812Z" fill="#4341AF"/>
<path d="M57.2006 23.6619C57.1559 23.6616 57.1121 23.646 57.0735 23.6168C57.0349 23.5875 57.0028 23.5456 56.9805 23.4952L53.2121 14.9988C53.1782 14.9218 53.1691 14.8305 53.1869 14.7448C53.2046 14.6591 53.2478 14.5862 53.3069 14.5419C53.3659 14.4977 53.4361 14.4859 53.5018 14.509C53.5676 14.5321 53.6236 14.5884 53.6576 14.6653L57.4208 23.1617C57.4381 23.1992 57.4495 23.2409 57.4542 23.2842C57.4589 23.3275 57.457 23.3716 57.4484 23.4139C57.4398 23.4562 57.4247 23.4958 57.4042 23.5304C57.3836 23.565 57.3579 23.5938 57.3286 23.6152C57.2894 23.6439 57.2455 23.6599 57.2006 23.6619Z" fill="#4341AF"/>
<path d="M69.12 23.6619C69.0755 23.6622 69.0316 23.6485 68.992 23.6219C68.9335 23.5761 68.8912 23.5023 68.8739 23.4163C68.8567 23.3303 68.866 23.2389 68.8999 23.1617L72.6631 14.6653C72.697 14.5884 72.753 14.5321 72.8188 14.509C72.8846 14.4859 72.9547 14.4977 73.0138 14.5419C73.0728 14.5862 73.116 14.6591 73.1338 14.7448C73.1515 14.8305 73.1424 14.9218 73.1085 14.9988L69.3504 23.5219C69.3247 23.5693 69.2899 23.6072 69.2495 23.6318C69.2091 23.6564 69.1645 23.6667 69.12 23.6619Z" fill="#4341AF"/>
<path d="M157.353 236.846C156.816 222.888 157.865 208.903 160.466 195.344L160.978 195.505C158.39 209 157.345 222.92 157.875 236.813L157.353 236.846Z" fill="#4341AF"/>
<path d="M158.321 194.851C158.321 196.091 159.201 200.5 160.159 200.466C161.116 200.433 161.807 195.985 161.782 194.738C161.776 194.442 161.726 194.15 161.633 193.879C161.541 193.609 161.409 193.364 161.244 193.16C161.079 192.956 160.885 192.796 160.673 192.69C160.461 192.584 160.235 192.533 160.008 192.54C159.78 192.548 159.556 192.613 159.349 192.733C159.141 192.854 158.953 193.026 158.797 193.24C158.64 193.455 158.517 193.708 158.436 193.984C158.354 194.26 158.315 194.555 158.321 194.851Z" fill="#4341AF"/>
<path d="M162.043 208.849C162.043 207.602 161.162 203.201 160.21 203.227C159.258 203.254 158.561 207.709 158.582 208.956C158.587 209.252 158.637 209.544 158.729 209.815C158.821 210.086 158.953 210.33 159.118 210.534C159.282 210.739 159.476 210.899 159.688 211.006C159.9 211.113 160.126 211.164 160.353 211.157C160.581 211.15 160.804 211.085 161.012 210.965C161.22 210.845 161.408 210.673 161.565 210.459C161.722 210.245 161.845 209.992 161.927 209.716C162.009 209.44 162.048 209.146 162.043 208.849Z" fill="#4341AF"/>
<path d="M154.808 204.254C155.766 204.254 159.145 203.107 159.119 201.86C159.094 200.613 155.684 199.713 154.726 199.746C154.499 199.753 154.275 199.818 154.067 199.938C153.859 200.058 153.671 200.23 153.515 200.444C153.358 200.658 153.235 200.911 153.153 201.187C153.071 201.463 153.031 201.758 153.037 202.054C153.042 202.35 153.092 202.641 153.184 202.912C153.276 203.183 153.408 203.428 153.572 203.632C153.737 203.836 153.931 203.996 154.143 204.103C154.355 204.21 154.581 204.261 154.808 204.254Z" fill="#4341AF"/>
<path d="M165.555 199.426C164.603 199.426 161.218 200.573 161.244 201.814C161.27 203.054 164.685 203.961 165.642 203.934C165.869 203.927 166.093 203.861 166.301 203.741C166.509 203.621 166.696 203.449 166.853 203.234C167.01 203.019 167.132 202.767 167.214 202.49C167.296 202.214 167.335 201.919 167.329 201.623C167.323 201.327 167.273 201.036 167.181 200.765C167.089 200.495 166.956 200.25 166.792 200.046C166.627 199.842 166.433 199.682 166.221 199.576C166.009 199.469 165.782 199.419 165.555 199.426Z" fill="#4341AF"/>
<path d="M155.064 198.612C155.761 199.473 158.756 201.8 159.416 200.893C160.077 199.986 158.147 196.225 157.455 195.351C157.123 194.938 156.679 194.714 156.22 194.728C155.761 194.741 155.325 194.992 155.008 195.425C154.691 195.857 154.519 196.436 154.529 197.034C154.54 197.631 154.732 198.199 155.064 198.612Z" fill="#4341AF"/>
<path d="M165.299 205.081C164.608 204.221 161.613 201.9 160.952 202.801C160.292 203.701 162.217 207.469 162.908 208.349C163.073 208.554 163.267 208.714 163.479 208.821C163.691 208.928 163.918 208.979 164.145 208.972C164.373 208.965 164.597 208.899 164.805 208.779C165.013 208.659 165.201 208.487 165.358 208.273C165.515 208.058 165.638 207.805 165.72 207.529C165.802 207.252 165.841 206.957 165.836 206.661C165.831 206.365 165.78 206.073 165.688 205.802C165.596 205.531 165.464 205.286 165.299 205.081Z" fill="#4341AF"/>
<path d="M157.696 208.516C158.356 207.609 160.138 203.708 159.447 202.847C158.756 201.987 155.863 204.501 155.187 205.402C154.87 205.835 154.698 206.415 154.709 207.013C154.72 207.611 154.913 208.18 155.246 208.593C155.579 209.006 156.024 209.23 156.483 209.215C156.942 209.201 157.379 208.949 157.696 208.516Z" fill="#4341AF"/>
<path d="M162.667 195.184C162.007 196.085 160.22 199.986 160.916 200.847C161.613 201.707 164.5 199.199 165.171 198.299C165.328 198.085 165.451 197.832 165.533 197.556C165.615 197.28 165.655 196.986 165.65 196.69C165.645 196.394 165.595 196.102 165.503 195.831C165.411 195.56 165.279 195.316 165.115 195.111C164.95 194.907 164.757 194.746 164.545 194.639C164.333 194.532 164.107 194.481 163.879 194.488C163.652 194.494 163.428 194.559 163.22 194.679C163.012 194.799 162.824 194.97 162.667 195.184Z" fill="#4341AF"/>
<path d="M158.131 201.914C158.141 202.441 158.271 202.952 158.504 203.383C158.738 203.814 159.064 204.145 159.441 204.335C159.819 204.525 160.231 204.565 160.626 204.449C161.021 204.334 161.381 204.069 161.66 203.687C161.94 203.306 162.126 202.825 162.196 202.305C162.265 201.786 162.215 201.251 162.052 200.769C161.889 200.287 161.619 199.878 161.277 199.595C160.936 199.312 160.538 199.168 160.133 199.179C159.864 199.187 159.598 199.264 159.351 199.406C159.105 199.547 158.882 199.751 158.696 200.005C158.51 200.259 158.365 200.559 158.268 200.886C158.171 201.213 158.124 201.563 158.131 201.914Z" fill="white"/>
<path d="M157.839 221.761C157.839 221.761 158.192 214.952 161.065 213.878C163.937 212.804 164.987 211.337 164.987 211.337C164.987 211.337 164.695 221.894 157.839 221.761Z" fill="#4341AF"/>
<path opacity="0.5" d="M157.839 221.761C157.839 221.761 158.192 214.952 161.065 213.878C163.937 212.804 164.987 211.337 164.987 211.337C164.987 211.337 164.695 221.894 157.839 221.761Z" fill="white"/>
<path d="M157.46 226.976C157.46 226.976 157.107 220.167 154.235 219.086C151.362 218.006 150.313 216.552 150.313 216.552C150.313 216.552 150.605 227.109 157.46 226.976Z" fill="#4341AF"/>
<path opacity="0.5" d="M157.46 226.976C157.46 226.976 157.107 220.167 154.235 219.086C151.362 218.006 150.313 216.552 150.313 216.552C150.313 216.552 150.605 227.109 157.46 226.976Z" fill="white"/>
<path d="M168.294 241.161C168.294 246.496 163.435 250.778 157.445 250.778C151.455 250.778 146.596 246.476 146.596 241.161C146.596 238.494 147.84 236.039 149.852 234.299C151.12 233.221 152.529 232.457 154.009 232.045H160.881C162.399 232.47 163.842 233.264 165.135 234.385C167.091 236.126 168.294 238.514 168.294 241.161Z" fill="#4341AF"/>
<path opacity="0.8" d="M160.881 232.045C162.399 232.47 163.842 233.264 165.135 234.385C167.091 236.126 168.294 238.514 168.294 241.161C168.294 246.496 163.435 250.778 157.445 250.778C151.455 250.778 146.596 246.476 146.596 241.161C146.596 238.494 147.84 236.039 149.852 234.299C151.12 233.221 152.529 232.457 154.009 232.045H160.881Z" fill="white"/>
<path d="M157.732 232.911H157.22V237.667H157.732V232.911Z" fill="#4341AF"/>
<path d="M165.611 231.898L165.038 234.232L165.028 234.259H149.857L149.826 234.132L149.279 231.898H165.611Z" fill="#4341AF"/>
<path d="M167.014 243.095C165.927 245.058 164.499 246.658 162.847 247.764C160.24 249.564 149.279 250.024 148.024 241.928C148.024 241.815 147.978 241.701 147.963 241.588C147.908 241.087 147.941 240.576 148.061 240.094C148.18 239.612 148.382 239.171 148.651 238.806C148.921 238.441 149.251 238.161 149.616 237.986C149.981 237.812 150.371 237.748 150.758 237.8C151.797 237.891 152.841 237.815 153.866 237.573C157.802 236.797 161.818 237.076 165.668 238.394C166.032 238.519 166.369 238.757 166.648 239.088C166.928 239.418 167.142 239.83 167.274 240.291C167.406 240.751 167.451 241.246 167.406 241.734C167.361 242.222 167.227 242.689 167.014 243.095Z" fill="#263238"/>
<path d="M88.3254 240.401C88.4212 240.352 88.5061 240.273 88.5723 240.17C88.6385 240.068 88.6839 239.945 88.7043 239.814C88.7238 239.735 88.7265 239.65 88.7121 239.569C88.6977 239.488 88.6667 239.414 88.6224 239.354C88.2281 238.82 86.6256 239.2 86.4464 239.247C86.4255 239.249 86.4058 239.26 86.3901 239.278C86.3745 239.296 86.3637 239.321 86.3593 239.347C86.3553 239.373 86.357 239.4 86.3642 239.425C86.3715 239.45 86.384 239.471 86.4003 239.487C86.7198 239.791 87.063 240.051 87.4243 240.261C87.7028 240.444 88.0217 240.493 88.3254 240.401ZM88.4688 239.541C88.4876 239.568 88.5005 239.602 88.5059 239.639C88.5113 239.675 88.5091 239.712 88.4995 239.747C88.4877 239.835 88.4589 239.917 88.4159 239.986C88.3729 240.055 88.3171 240.108 88.2537 240.141C87.9619 240.281 87.4038 240.021 86.7177 239.474C87.3833 239.327 88.2589 239.254 88.4688 239.541Z" fill="#4341AF"/>
<path d="M86.4771 239.514C86.9891 239.434 88.095 238.68 88.1923 238.027C88.2093 237.92 88.1971 237.809 88.1578 237.713C88.1186 237.617 88.0547 237.541 87.9772 237.5C87.9051 237.448 87.8252 237.417 87.7431 237.409C87.6609 237.401 87.5784 237.416 87.5011 237.453C86.8867 237.727 86.3849 239.261 86.3644 239.327C86.3571 239.348 86.3533 239.371 86.3533 239.394C86.3533 239.417 86.3571 239.44 86.3644 239.461C86.3764 239.481 86.3923 239.497 86.4105 239.507L86.4771 239.514ZM87.8697 237.74C87.9926 237.827 87.9977 237.913 87.9875 237.973C87.9261 238.374 87.1734 238.994 86.646 239.187C86.8355 238.687 87.2041 237.853 87.5728 237.707C87.6548 237.663 87.7467 237.663 87.8288 237.707L87.8697 237.74Z" fill="#4341AF"/>
<path d="M81.6182 236.826L85.7858 239.02L89.4262 226.476L85.2534 224.282L81.6182 236.826Z" fill="#FFB573"/>
<path d="M86.3132 238.574L81.6335 236.113C81.5538 236.067 81.4641 236.061 81.3812 236.096C81.2983 236.13 81.2278 236.202 81.1829 236.299L79.1349 240.768C79.0866 240.883 79.0576 241.01 79.0499 241.14C79.0422 241.271 79.0561 241.402 79.0905 241.525C79.1249 241.648 79.1791 241.761 79.2495 241.854C79.3198 241.948 79.4047 242.021 79.4985 242.068C81.1471 242.895 81.9714 243.182 84.0297 244.269C85.2994 244.936 87.1017 246.076 88.8425 247.003C90.5833 247.93 91.4025 245.756 90.7317 245.169C87.757 242.548 87.6597 241.035 86.9173 239.274C86.785 238.956 86.5712 238.708 86.3132 238.574Z" fill="#263238"/>
<path d="M89.3698 232.631L82.1301 228.817L82.7957 225.362L90.5628 229.064L89.3698 232.631Z" fill="#4341AF"/>
<path d="M96.6198 87.4319C95.1503 92.9739 90.8034 106.019 87.4498 100.583C86.8461 99.6233 86.3529 98.5539 85.9855 97.4089C84.5673 92.8405 84.214 85.4378 84.0348 83.8173L82.893 78.7421C82.8729 78.6556 82.8625 78.5657 82.8623 78.4753V75.5742C82.8623 74.4005 83.5893 73.7002 84.5724 73.8069C84.5724 73.8069 86.1596 73.5668 86.1596 74.8006L86.4668 79.1555C86.6255 80.6694 86.1647 82.7769 86.4361 84.164C87.4601 89.3859 88.8681 89.626 89.7538 95.0147C90.9877 91.1266 93.1945 84.3975 93.1945 84.3975C94.6588 84.6375 97.101 85.6112 96.6198 87.4319Z" fill="#FFB573"/>
<path d="M91.3666 102.571C91.1362 103.039 90.8221 103.427 90.4512 103.702C90.0803 103.977 89.6637 104.13 89.2372 104.149C88.8107 104.168 88.387 104.052 88.0025 103.811C87.6181 103.57 87.2843 103.21 87.0299 102.764C86.423 101.714 85.9461 100.546 85.6168 99.3029C84.2856 93.6142 83.4613 90.0929 83.3486 84.1507C83.8204 83.5298 84.4165 83.0937 85.069 82.8921C85.7216 82.6905 86.4046 82.7314 87.0402 83.0103L89.2213 92.6338C89.2213 92.6338 93.6603 78.2619 95.4574 77.7484C97.572 77.1415 98.4526 79.6024 99.3486 82.6302C99.9938 84.8043 94.2594 96.762 91.3666 102.571Z" fill="#4341AF"/>
<path d="M109.302 63.363C108.79 66.6976 107.674 73.9802 109.466 76.2077C109.466 76.2077 108.764 79.589 104.008 79.589C98.7702 79.589 101.504 76.2077 101.504 76.2077C104.361 75.3207 104.284 72.5597 103.788 69.9654L109.302 63.363Z" fill="#FFB573"/>
<path d="M101.3 55.5336C101.33 55.5398 101.361 55.5398 101.392 55.5336C101.439 55.4996 101.474 55.4433 101.491 55.3762C101.507 55.3091 101.503 55.2365 101.479 55.1734C101.342 54.7903 101.136 54.456 100.878 54.1994C100.62 53.9427 100.319 53.7712 99.999 53.6996C99.9724 53.6949 99.9453 53.6973 99.9194 53.7067C99.8935 53.716 99.8693 53.732 99.8482 53.7538C99.8272 53.7756 99.8098 53.8027 99.797 53.8335C99.7842 53.8643 99.7763 53.8981 99.7737 53.933C99.7702 53.9677 99.772 54.003 99.7792 54.0367C99.7863 54.0705 99.7987 54.102 99.8154 54.1294C99.8321 54.1568 99.8529 54.1795 99.8766 54.1962C99.9002 54.2129 99.9262 54.2231 99.9529 54.2264C100.205 54.2904 100.442 54.4314 100.644 54.6378C100.846 54.8442 101.007 55.11 101.115 55.4135C101.135 55.453 101.163 55.4848 101.195 55.5059C101.227 55.527 101.263 55.5366 101.3 55.5336Z" fill="#263238"/>
<path d="M99.7377 58.4147C99.3325 59.3898 98.826 60.2875 98.2324 61.0823C98.3932 61.2742 98.584 61.4184 98.7918 61.5047C98.9995 61.5911 99.2192 61.6176 99.4356 61.5825L99.7377 58.4147Z" fill="#ED893E"/>
<path d="M100.148 57.4409C100.224 57.8811 100.101 58.2946 99.8813 58.3546C99.6611 58.4146 99.4154 58.1079 99.3437 57.6877C99.272 57.2675 99.3898 56.8341 99.615 56.7674C99.8403 56.7007 100.076 56.9941 100.148 57.4409Z" fill="#263238"/>
<path d="M99.7173 56.7474L98.8469 56.6674C98.8469 56.6674 99.405 57.381 99.7173 56.7474Z" fill="#263238"/>
<path opacity="0.2" d="M96.4355 84.5909C97.3418 83.5038 97.9715 83.8306 98.3709 84.6909C98.7856 87.1851 96.3229 92.4137 95.3552 94.3944L96.4355 84.5909Z" fill="black"/>
<path d="M117.402 87.8787C117.284 90.6263 117.084 94.0876 116.762 98.4425C116.424 103.038 115.943 108.62 115.282 115.402C108.324 115.402 101.038 115.262 97.654 115.262C97.9407 106.252 98.0431 97.122 94.9404 79.1955C94.9015 78.9732 94.8973 78.7431 94.928 78.5187C94.9588 78.2943 95.0239 78.0802 95.1194 77.8892C95.2149 77.6982 95.3389 77.5342 95.4841 77.4069C95.6293 77.2795 95.7926 77.1915 95.9644 77.1481C97.987 76.6705 100.03 76.3564 102.083 76.2077C104.733 75.9607 107.394 75.9607 110.044 76.2077C113.459 76.6145 117.34 77.6483 117.34 77.6483C117.34 77.6483 117.76 79.3022 117.402 87.8787Z" fill="#4341AF"/>
<path opacity="0.2" d="M117.402 87.8787C117.284 90.6263 117.084 94.0876 116.762 98.4425C114.888 95.6148 113.116 85.8779 113.69 82.55C115.087 83.8957 116.315 85.5156 117.33 87.3518C117.361 87.5256 117.385 87.7015 117.402 87.8787Z" fill="black"/>
<path d="M135.47 100.083L139.054 97.4689L139.72 102.224C139.72 102.224 136.699 103.738 135.112 102.677L135.47 100.083Z" fill="#FFB573"/>
<path d="M141.425 98.0091L141.676 99.563C141.713 99.8013 141.695 100.048 141.625 100.274C141.555 100.499 141.435 100.692 141.282 100.83L139.705 102.217L139.039 97.4622L140.273 97.0621C140.396 97.0218 140.525 97.0146 140.651 97.0409C140.776 97.0671 140.897 97.1263 141.004 97.2148C141.112 97.3033 141.205 97.4193 141.277 97.5558C141.349 97.6924 141.4 97.8465 141.425 98.0091Z" fill="#FFB573"/>
<path d="M113.971 83.157C115.113 86.1847 119.301 97.6222 121.139 100.263L121.503 100.757L121.682 101.003C121.744 101.083 121.795 101.157 121.892 101.27C122.222 101.679 122.587 102.039 122.978 102.344C123.676 102.869 124.427 103.264 125.21 103.518C126.582 103.932 127.991 104.105 129.398 104.031C132.02 103.895 134.619 103.321 137.129 102.324L136.704 99.5496C135.522 99.683 134.282 99.7764 133.084 99.803C131.897 99.8486 130.709 99.7996 129.526 99.6563C128.429 99.5537 127.346 99.2783 126.3 98.836C125.878 98.651 125.478 98.3883 125.113 98.0557C124.973 97.9277 124.844 97.7801 124.729 97.6156C124.688 97.5611 124.65 97.5032 124.616 97.4422L124.483 97.2354L124.211 96.822C122.798 94.5144 119.066 83.3904 117.945 80.6094L113.971 83.157Z" fill="#FFB573"/>
<path d="M135.414 104.818C132.463 106.861 129.011 107.297 125.814 106.032C122.764 104.754 120.191 102.038 118.6 98.4158C116.751 94.8745 111.831 84.8575 112.456 82.2699C113.188 79.1755 114.744 77.2548 117.345 78.0884C119.173 78.662 122.66 90.2262 124.35 94.8479C125.01 96.135 126.28 98.1824 127.698 98.8093C130.202 99.9364 132.045 99.4762 134.666 98.9627C135.148 99.3362 135.112 99.9164 135.352 100.563C135.611 101.22 135.751 101.944 135.761 102.681C135.772 103.419 135.653 104.15 135.414 104.818Z" fill="#4341AF"/>
<path d="M111.883 58.0211C111.099 63.5031 110.859 65.844 108.442 68.3382C104.817 72.0862 99.8147 69.632 99.3283 63.9499C98.888 58.8347 100.245 50.7251 104.607 49.1979C105.568 48.8546 106.58 48.8368 107.547 49.1464C108.514 49.456 109.405 50.0827 110.134 50.9668C110.863 51.8509 111.406 52.9631 111.712 54.1978C112.018 55.4325 112.077 56.7486 111.883 58.0211Z" fill="#FFB573"/>
<path d="M126.823 88.3722C126.019 89.566 125.768 90.2596 124.647 90.9065C123.525 91.5534 121.098 90.9865 120.325 89.7527C120.576 90.7131 122.04 92.4203 122.808 92.5737C121.942 93.1929 120.939 93.4087 119.965 93.1856C118.992 92.9626 118.105 92.3139 117.453 91.3466C117.56 91.9481 117.784 92.5037 118.103 92.9603C118.422 93.4168 118.826 93.7591 119.276 93.9542C109.466 94.2877 113.598 88.2722 107.454 79.7157C100.654 70.2456 102.129 62.4161 102.129 62.4161C102.145 60.466 101.676 58.5615 100.792 56.9874C99.8094 55.3468 100.096 53.1327 100.408 51.8922C100.864 50.0716 102.252 49.4313 103.583 49.3246C103.818 47.5306 106.655 47.8574 106.998 48.1575C107.341 48.4577 107.382 48.3976 107.694 48.1575C108.385 47.5773 110.126 46.9771 111.99 48.9378C113.127 50.1383 114.345 52.2724 114.386 56.8607C114.427 61.6158 112.681 67.2645 118.723 74.4871C122.281 78.7287 120.576 87.872 126.823 88.3722Z" fill="#263238"/>
<path d="M101.32 58.4346C100.844 59.3139 100.646 60.398 100.767 61.4624C100.941 62.8695 101.991 62.9629 102.753 62.0626C103.516 61.1622 104.182 59.535 103.619 58.3679C103.056 57.2008 101.914 57.3675 101.32 58.4346Z" fill="#FFB573"/>
<path d="M110.823 115.395C110.823 115.395 108.728 153.683 106.373 178.932C105.665 186.51 103.891 193.852 101.141 200.593L89.6001 228.977L83.6814 225.942C83.6814 225.942 87.7774 198.966 95.7595 184.254C95.7595 184.254 89.7896 140.284 97.6027 115.262L110.823 115.395Z" fill="#263238"/>
<path opacity="0.2" d="M102.774 124.672C102.774 124.672 104.535 142.012 105.498 152.329C101.888 146.127 99.0875 137.47 102.774 124.672Z" fill="black"/>
<path d="M125.768 243.996C125.837 243.896 125.884 243.775 125.906 243.643C125.927 243.512 125.922 243.376 125.891 243.249C125.879 243.167 125.85 243.091 125.808 243.029C125.765 242.966 125.711 242.92 125.65 242.895C125.102 242.655 123.827 243.956 123.684 244.102C123.668 244.12 123.656 244.143 123.65 244.169C123.644 244.195 123.643 244.223 123.648 244.249C123.655 244.274 123.666 244.295 123.681 244.312C123.697 244.328 123.715 244.339 123.735 244.342C124.133 244.421 124.537 244.441 124.938 244.402C125.243 244.396 125.536 244.252 125.768 243.996ZM125.578 243.155C125.606 243.166 125.63 243.187 125.648 243.215C125.667 243.244 125.678 243.278 125.681 243.315C125.703 243.399 125.709 243.488 125.696 243.575C125.683 243.661 125.653 243.742 125.609 243.809C125.404 244.109 124.821 244.216 124.022 244.109C124.544 243.602 125.292 243.022 125.578 243.155Z" fill="#4341AF"/>
<path d="M123.812 244.322C124.216 243.956 124.938 242.615 124.785 241.982C124.76 241.876 124.709 241.785 124.639 241.723C124.569 241.661 124.485 241.632 124.401 241.641C124.319 241.638 124.238 241.658 124.163 241.7C124.088 241.741 124.021 241.803 123.966 241.882C123.52 242.495 123.638 244.149 123.643 244.222C123.646 244.246 123.653 244.269 123.664 244.288C123.674 244.308 123.688 244.324 123.704 244.336C123.723 244.342 123.742 244.342 123.761 244.336C123.779 244.338 123.796 244.334 123.812 244.322ZM124.396 241.915C124.534 241.915 124.57 241.995 124.585 242.055C124.672 242.448 124.237 243.442 123.843 243.929C123.783 243.286 123.88 242.636 124.119 242.068C124.177 241.984 124.258 241.932 124.344 241.922L124.396 241.915Z" fill="#4341AF"/>
<path d="M118.538 244.863L123.024 244.302L121.651 231.031L117.166 231.598L118.538 244.863Z" fill="#FFB573"/>
<path d="M123.326 243.602L118.288 244.236C118.201 244.244 118.12 244.293 118.059 244.374C117.999 244.456 117.964 244.563 117.96 244.676L117.776 249.858C117.776 249.989 117.797 250.119 117.838 250.239C117.88 250.359 117.94 250.467 118.016 250.554C118.091 250.642 118.18 250.708 118.276 250.747C118.372 250.787 118.474 250.8 118.574 250.785C120.325 250.531 121.134 250.291 123.377 250.011C124.739 249.838 126.746 249.771 128.63 249.538C130.514 249.304 130.427 246.903 129.654 246.783C126.07 246.256 125.41 244.989 124.13 243.862C123.893 243.656 123.609 243.564 123.326 243.602Z" fill="#263238"/>
<path d="M115.256 115.389C115.256 115.389 120.996 161.079 122.097 188.142L122.307 236.626L117.663 237.807C117.663 237.807 110.94 206.875 110.162 188.996C108.114 141.565 96.251 141.485 103.388 115.302L115.256 115.389Z" fill="#263238"/>
<path d="M123.848 236.826L116.163 238.193L115.379 234.352L123.597 232.958L123.848 236.826Z" fill="#4341AF"/>
<path d="M82.4323 66.3709H82.7242C82.6547 66.3707 82.586 66.389 82.5221 66.4246C82.4583 66.4602 82.4006 66.5123 82.3528 66.5778C82.3049 66.6433 82.2677 66.7208 82.2435 66.8056C82.2194 66.8904 82.2087 66.9808 82.2122 67.0711L82.6832 78.682C82.6971 78.8642 82.7624 79.0332 82.8664 79.1564C82.9704 79.2796 83.1058 79.3482 83.2464 79.3489H82.9443C82.8041 79.3467 82.6693 79.2776 82.5655 79.1547C82.4617 79.0318 82.3961 78.8637 82.3811 78.682L81.9203 67.0711C81.9168 66.9808 81.9275 66.8904 81.9517 66.8056C81.9759 66.7208 82.013 66.6433 82.0609 66.5778C82.1088 66.5123 82.1664 66.4602 82.2303 66.4246C82.2941 66.389 82.3629 66.3707 82.4323 66.3709Z" fill="#4341AF"/>
<path opacity="0.1" d="M82.4323 66.3709H82.7242C82.6547 66.3707 82.586 66.389 82.5221 66.4246C82.4583 66.4602 82.4006 66.5123 82.3528 66.5778C82.3049 66.6433 82.2677 66.7208 82.2435 66.8056C82.2194 66.8904 82.2087 66.9808 82.2122 67.0711L82.6832 78.682C82.6971 78.8642 82.7624 79.0332 82.8664 79.1564C82.9704 79.2796 83.1058 79.3482 83.2464 79.3489H82.9443C82.8041 79.3467 82.6693 79.2776 82.5655 79.1547C82.4617 79.0318 82.3961 78.8637 82.3811 78.682L81.9203 67.0711C81.9168 66.9808 81.9275 66.8904 81.9517 66.8056C81.9759 66.7208 82.013 66.6433 82.0609 66.5778C82.1088 66.5123 82.1664 66.4602 82.2303 66.4246C82.2941 66.389 82.3629 66.3707 82.4323 66.3709Z" fill="white"/>
<path d="M83.021 79.3822H86.605C86.7408 79.3822 86.871 79.312 86.967 79.1869C87.063 79.0618 87.117 78.8922 87.117 78.7153L86.6511 67.1044C86.6421 66.9168 86.5791 66.7405 86.4747 66.6107C86.3703 66.4809 86.2322 66.4072 86.0879 66.4042H82.5039C82.4344 66.4041 82.3657 66.4224 82.3018 66.4579C82.238 66.4935 82.1803 66.5456 82.1325 66.6111C82.0846 66.6767 82.0474 66.7542 82.0232 66.839C81.9991 66.9238 81.9884 67.0141 81.9919 67.1044L82.4578 78.7153C82.4728 78.897 82.5384 79.0651 82.6422 79.188C82.746 79.3109 82.8807 79.38 83.021 79.3822Z" fill="#4341AF"/>
<path opacity="0.4" d="M83.021 79.3822H86.605C86.7408 79.3822 86.871 79.312 86.967 79.1869C87.063 79.0618 87.117 78.8922 87.117 78.7153L86.6511 67.1044C86.6421 66.9168 86.5791 66.7405 86.4747 66.6107C86.3703 66.4809 86.2322 66.4072 86.0879 66.4042H82.5039C82.4344 66.4041 82.3657 66.4224 82.3018 66.4579C82.238 66.4935 82.1803 66.5456 82.1325 66.6111C82.0846 66.6767 82.0474 66.7542 82.0232 66.839C81.9991 66.9238 81.9884 67.0141 81.9919 67.1044L82.4578 78.7153C82.4728 78.897 82.5384 79.0651 82.6422 79.188C82.746 79.3109 82.8807 79.38 83.021 79.3822Z" fill="white"/>
<path d="M86.902 78.4419C86.9048 78.5001 86.8985 78.5585 86.8836 78.6135C86.8686 78.6685 86.8453 78.719 86.815 78.762C86.7506 78.8437 86.6642 78.8892 86.5744 78.8887H83.0876C82.9901 78.8872 82.8967 78.8374 82.8264 78.7495C82.756 78.6616 82.7139 78.542 82.7088 78.4152L82.2531 67.1511C82.2498 67.0938 82.2558 67.0363 82.2708 66.9822C82.2858 66.9282 82.3094 66.8789 82.3401 66.8377C82.3709 66.7948 82.4082 66.7607 82.4496 66.7378C82.491 66.7148 82.5357 66.7034 82.5808 66.7043H86.0675C86.165 66.7058 86.2584 66.7556 86.3288 66.8435C86.3991 66.9314 86.4412 67.0509 86.4464 67.1778L86.4771 67.9847L86.902 78.4419Z" fill="#263238"/>
<g opacity="0.1">
<path d="M86.477 67.9847L85.3199 78.8754H83.9324L85.2431 66.6909H86.0674C86.1649 66.6924 86.2583 66.7422 86.3287 66.8301C86.3991 66.9181 86.4411 67.0376 86.4463 67.1644L86.477 67.9847Z" fill="white"/>
<path d="M83.4307 78.8887H83.1184L84.4291 66.7042H84.7414L83.4307 78.8887Z" fill="white"/>
</g>
<path d="M96.5225 116.689C93.9156 123.382 92.5148 130.76 92.4265 138.264C101.131 147.06 109.235 136.757 119.199 138.497C118.851 132.635 117.32 121.824 115.507 116.409C108.908 116.776 102.743 115.916 96.5225 116.689Z" fill="#4341AF"/>
<path d="M97.4287 114.308C97.4287 114.308 96.7273 116.663 96.9167 116.663H115.2C115.359 116.663 115.487 116.563 115.497 116.429L115.656 114.428C115.656 114.288 115.528 114.168 115.359 114.168H97.7155C97.6625 114.159 97.6086 114.167 97.5585 114.191C97.5085 114.216 97.4639 114.256 97.4287 114.308Z" fill="white"/>
<path d="M100.004 116.889H99.533C99.4357 116.889 99.364 116.823 99.3692 116.742L99.5944 114.075C99.5944 113.995 99.6815 113.935 99.7736 113.935H100.25C100.342 113.935 100.414 113.995 100.409 114.075L100.188 116.742C100.174 116.79 100.148 116.83 100.115 116.856C100.082 116.883 100.043 116.894 100.004 116.889Z" fill="#4341AF"/>
<path d="M111.452 116.889H110.981C110.889 116.889 110.817 116.823 110.823 116.742L111.043 114.075C111.043 113.995 111.13 113.935 111.227 113.935H111.698C111.79 113.935 111.862 113.995 111.857 114.075L111.637 116.742C111.616 116.796 111.55 116.889 111.452 116.889Z" fill="#4341AF"/>
</svg>
