<svg xmlns="http://www.w3.org/2000/svg" version="1.1" xmlns:xlink="http://www.w3.org/1999/xlink" width="512" height="512" x="0" y="0" viewBox="0 0 512 512" style="enable-background:new 0 0 512 512" xml:space="preserve" class=""><g><linearGradient id="a" x1="256" x2="256" y1="-1.88" y2="510.12" gradientUnits="userSpaceOnUse"><stop offset="0" stop-color="#fdae3e"></stop><stop offset="1" stop-color="#ff0749"></stop></linearGradient><g data-name="Layer 2"><circle cx="256" cy="256" r="256" fill="url(#a)" opacity="1" data-original="url(#a)" class=""></circle><g fill="#fff"><path d="M172.28 347c5.82 0 11.84 0 18.46.09q2.32 2.32 4.73 4.75c1.93 1.93 3.9 3.91 5.92 5.91h-47.1v-2.32c0-3 0-5.9.09-8.32 5.72-.07 11.61-.11 17.9-.11m164.08 0c6.41 0 13 0 19.32.05h2c.07 3.88.13 7.59 0 10.63h-47.02c2.24-2.16 4.4-4.3 6.51-6.39 1.48-1.46 2.92-2.89 4.34-4.28 4.56 0 9.47-.06 14.93-.06m-164.16-38.28q-11.15 0-22.29.16a34.07 34.07 0 0 0-32.93 27.82c-1.28 7.19-1 14.69-1 22.05 0 22.38 15 37.27 37.32 37.28h207.11c17.36 0 31.7-11.66 34.54-28.75 1.26-7.58 1-15.48.86-23.23-.3-20.09-15.71-35.12-35.86-35.2-7.89 0-15.78-.07-23.67-.07-8.65 0-17.29.05-25.93.21a13.32 13.32 0 0 0-8 3.38c-7.48 6.79-14.45 14.15-21.81 21.07S264.5 344 255.9 344c-8.86 0-17.7-3.73-25.26-11.15-7.07-6.95-13.94-14.11-21.13-20.93a10.71 10.71 0 0 0-6.41-3q-15.42-.21-30.82-.23z" fill="#ffffff" opacity="1" data-original="#ffffff" class=""></path><path d="M238.63 266.37V134.52c0-13.78 11.85-22 24.23-17.07 6.77 2.71 10.38 8.6 10.39 17.29v131.55c2.4-2.16 3.93-3.41 5.31-4.81 11.36-11.46 22.67-23 34.06-34.43 5-5 11-7.07 18.08-5.13 6.66 1.82 10.65 6.22 12.13 12.83a17.21 17.21 0 0 1-4.83 16.63q-34.56 34.75-69.33 69.3c-7.52 7.43-18.06 7.33-25.63-.15q-34.62-34.29-68.9-68.91c-7.45-7.52-7.39-19-.39-25.69s18-6.32 25.64 1.29c11.29 11.26 22.43 22.68 33.65 34 1.46 1.46 3.01 2.78 5.59 5.15z" fill="#ffffff" opacity="1" data-original="#ffffff" class=""></path></g></g></g></svg>