<svg width="24px" height="24px" viewBox="0 0 1.08 1.08" xmlns="http://www.w3.org/2000/svg" xmlns:xlink="http://www.w3.org/1999/xlink" aria-hidden="true" role="img" class="iconify iconify--twemoji" preserveAspectRatio="xMidYMid meet"><path fill="#006C35" d="M0.96 0.15H0.12a0.12 0.12 0 0 0 -0.12 0.12v0.54a0.12 0.12 0 0 0 0.12 0.12h0.84a0.12 0.12 0 0 0 0.12 -0.12V0.27a0.12 0.12 0 0 0 -0.12 -0.12"/><g fill="#FFF"><path d="M0.268 0.421c0.019 0.002 0.008 -0.032 0.015 -0.038 0.001 -0.003 0.004 -0.003 0.004 0.001v0.029c0 0.009 0.006 0.012 0.011 0.014 0.005 0 0.008 0 0.01 0.005l0.002 0.05s0.012 0.003 0.012 -0.028c0.001 -0.018 -0.004 -0.034 -0.001 -0.037 0 -0.004 0.005 -0.004 0.008 -0.002 0.005 0.003 0.007 0.008 0.015 0.006 0.012 -0.003 0.019 -0.009 0.019 -0.018 -0.001 -0.009 -0.002 -0.017 -0.005 -0.026 0.001 -0.002 -0.002 -0.006 -0.002 -0.007 0.002 0.003 0.005 0.003 0.006 0 -0.002 -0.007 -0.005 -0.013 -0.01 -0.016 -0.004 -0.004 -0.01 -0.003 -0.012 0.005 -0.001 0.009 0.003 0.019 0.01 0.028 0.001 0.003 0.003 0.009 0.002 0.014 -0.003 0.002 -0.007 0.001 -0.01 -0.002 0 0 -0.009 -0.007 -0.009 -0.009 0.002 -0.016 0.001 -0.018 -0.001 -0.022 -0.001 -0.006 -0.004 -0.008 -0.006 -0.012 -0.002 -0.002 -0.005 -0.002 -0.007 0 -0.004 0.007 -0.002 0.022 0.001 0.029 0.002 0.006 0.005 0.01 0.004 0.01 -0.001 0.004 -0.004 0.003 -0.006 -0.001 -0.003 -0.009 -0.003 -0.021 -0.003 -0.027 -0.001 -0.007 -0.002 -0.022 -0.006 -0.026 -0.003 -0.004 -0.007 -0.002 -0.009 0.002 0 0.007 0 0.014 0 0.021 0.003 0.011 0.004 0.021 0.006 0.033 0 0.016 -0.009 0.007 -0.009 -0.001 0.002 -0.01 0.002 -0.026 0 -0.03 -0.002 -0.004 -0.003 -0.005 -0.007 -0.004 -0.003 0 -0.011 0.008 -0.013 0.022 0 0 -0.002 0.007 -0.003 0.013 -0.001 0.007 -0.006 0.012 -0.009 -0.001 -0.003 -0.01 -0.005 -0.033 -0.009 -0.028 -0.001 0.018 -0.003 0.051 0.013 0.054"/><path d="M0.296 0.435c-0.016 0 -0.038 0.02 -0.039 0.032 0.016 -0.008 0.033 -0.016 0.049 -0.024 -0.003 -0.004 0 -0.008 -0.01 -0.008"/><path d="M0.382 0.495c0.007 -0.024 -0.001 -0.042 0.003 -0.042 0.008 0.009 0.02 0.001 0.022 -0.002 0.001 -0.002 0.004 -0.003 0.006 -0.001 0.007 0.005 0.018 0.002 0.02 -0.006a0.18 0.18 0 0 0 0.003 -0.025c-0.005 0.002 -0.009 0.003 -0.01 0.005l-0.001 0.007c0 0.002 -0.005 0.002 -0.005 -0.001 -0.002 -0.009 -0.01 -0.01 -0.015 0.004 -0.003 0.003 -0.01 0.003 -0.01 -0.001 0.001 -0.01 -0.003 -0.011 -0.011 -0.006 -0.002 -0.019 -0.005 -0.037 -0.007 -0.056 0.003 0 0.006 0.002 0.009 -0.001 -0.003 -0.01 -0.01 -0.03 -0.014 -0.032 -0.002 -0.002 -0.003 -0.001 -0.006 0 -0.004 0.001 -0.008 0.005 -0.007 0.012 0.005 0.029 0.008 0.051 0.013 0.08 0.001 0.003 -0.002 0.008 -0.006 0.007 -0.006 -0.004 -0.008 -0.013 -0.018 -0.012 -0.008 0 -0.017 0.008 -0.018 0.017 -0.001 0.006 -0.002 0.013 0 0.019 0.005 0.006 0.012 0.006 0.018 0.004 0.005 -0.002 0.009 -0.007 0.01 -0.005 0.001 0.001 0 0.017 -0.022 0.029 -0.013 0.006 -0.024 0.007 -0.03 -0.004 -0.004 -0.007 0 -0.033 -0.009 -0.027 -0.026 0.067 0.061 0.076 0.071 0.003 0.001 -0.003 0.005 -0.006 0.005 -0.001 -0.002 0.067 -0.067 0.071 -0.078 0.05 -0.003 -0.005 -0.004 -0.016 -0.004 -0.023 -0.002 -0.013 -0.009 -0.008 -0.01 0.005 -0.001 0.007 -0.001 0.009 -0.001 0.016 0.003 0.053 0.087 0.03 0.101 -0.013m-0.032 -0.046c-0.001 0.001 -0.003 0.001 -0.005 0.001 -0.002 0 -0.003 0 -0.004 -0.002 -0.001 -0.002 0.001 -0.004 0.002 -0.005 0.001 -0.002 0.006 -0.003 0.008 0.001a0.005 0.005 0 0 1 -0.001 0.005"/><path d="M0.408 0.39c0.005 -0.002 0.03 -0.03 0.03 -0.03 -0.001 -0.001 -0.002 -0.002 -0.004 -0.003 -0.001 -0.001 -0.001 -0.002 0 -0.004 0.006 -0.004 0.004 -0.011 0.001 -0.015a0.015 0.015 0 0 0 -0.013 0c-0.004 0.004 -0.005 0.011 -0.002 0.015 0.003 0.002 0.007 0.005 0.004 0.007 -0.01 0.011 -0.038 0.029 -0.035 0.03 0.001 0.001 0.018 0.001 0.018 0m0.018 -0.044c0.002 0 0.004 0.001 0.005 0.003s0 0.004 -0.001 0.004h0c-0.002 0 -0.004 -0.001 -0.005 -0.003 -0.001 -0.002 0 -0.004 0.001 -0.004m-0.161 0.172c-0.004 0.008 -0.006 0.003 -0.006 -0.002a0.108 0.108 0 0 1 0.001 -0.023c0.001 -0.007 0 -0.005 -0.002 -0.002 -0.009 0.015 -0.01 0.037 -0.005 0.043 0.003 0.003 0.007 0.004 0.01 0.003 0.006 -0.003 0.008 -0.014 0.007 -0.019 -0.002 -0.003 -0.004 -0.004 -0.005 -0.001m0.305 -0.156c0.011 0.014 0.021 0.029 0.031 0.044q0.003 0.019 0.004 0.038c0.002 0.024 0.002 0.05 0.001 0.076 0.004 0 0.012 -0.007 0.014 -0.018 0.002 -0.015 -0.001 -0.042 -0.001 -0.051a0.66 0.66 0 0 0 -0.001 -0.017c0.012 0.019 0.023 0.04 0.035 0.062 0.004 -0.002 0.003 -0.025 0.001 -0.028 -0.009 -0.019 -0.021 -0.038 -0.025 -0.046 -0.001 -0.003 -0.006 -0.01 -0.012 -0.019a0.24 0.24 0 0 0 -0.003 -0.021c-0.002 -0.013 0.005 0.001 0.004 -0.006 -0.002 -0.013 -0.009 -0.022 -0.018 -0.033 -0.003 -0.004 -0.003 -0.005 -0.007 0.001a0.024 0.024 0 0 0 -0.002 0.011 0.09 0.09 0 0 0 -0.004 -0.006l-0.014 -0.012c-0.003 -0.002 -0.01 -0.006 -0.012 0a0.039 0.039 0 0 0 0.001 0.014c0.001 0.003 0.005 0.009 0.008 0.012m0.022 -0.001c0.001 0.002 0.001 0.005 0.002 0.008l0 0.002a0.12 0.12 0 0 0 -0.004 -0.005c-0.005 -0.006 -0.001 -0.005 0.002 -0.005"/><path d="M0.658 0.501c-0.01 0.011 -0.025 0.024 -0.042 0.031 -0.002 0.002 0.004 0.01 0.012 0.01 0.013 -0.002 0.025 -0.009 0.036 -0.029 0.003 -0.005 0.008 -0.014 0.008 -0.022 0.001 -0.045 -0.002 -0.079 -0.009 -0.112a0.018 0.018 0 0 1 0 -0.008c0.001 -0.001 0.004 0 0.005 -0.003 0.002 -0.002 -0.006 -0.022 -0.011 -0.029 -0.002 -0.003 -0.002 -0.006 -0.005 0 -0.003 0.005 -0.005 0.013 -0.005 0.021 0.006 0.044 0.008 0.082 0.012 0.126 0 0.004 0 0.01 -0.003 0.013m0.175 -0.111c0 -0.003 -0.002 -0.01 -0.001 -0.011 0.001 -0.002 0.005 0 0.007 -0.002 0.002 -0.002 -0.011 -0.02 -0.016 -0.027 -0.002 -0.003 -0.002 -0.006 -0.005 0 -0.003 0.005 -0.004 0.013 -0.003 0.021 0.007 0.048 0.012 0.083 0.013 0.126 -0.001 0.004 -0.001 0.006 -0.003 0.011 -0.004 0.005 -0.009 0.012 -0.013 0.015 -0.004 0.003 -0.014 0.006 -0.017 0.009 -0.01 0.006 -0.01 0.012 -0.002 0.012 0.013 -0.002 0.029 -0.003 0.04 -0.019 0.003 -0.005 0.006 -0.017 0.007 -0.025 0.001 -0.045 -0.001 -0.078 -0.007 -0.11m-0.101 0.037c0 -0.006 0.001 -0.014 0.001 -0.019 0 -0.002 0.001 -0.004 0.002 -0.004 0.002 0 0.005 0.002 0.005 0 0 -0.004 -0.001 -0.01 -0.003 -0.012 -0.003 -0.004 -0.011 -0.003 -0.012 0.004 0 0.003 0.001 0.004 0.001 0.006 0 0.001 -0.002 0.002 -0.005 0.001 0.001 0 -0.002 -0.004 -0.002 -0.004 -0.003 -0.002 -0.006 0 -0.008 0.002a0.013 0.013 0 0 0 -0.001 0.01c0.004 0.007 0.016 0.018 0.022 0.018"/><path d="M0.728 0.374q0.013 0.016 0.027 0.033c0.002 0.025 0.002 0.045 0.004 0.07 0 0.01 -0.004 0.02 -0.007 0.021 0 0 -0.005 0.003 -0.008 0 -0.002 -0.001 -0.011 -0.015 -0.011 -0.015 -0.005 -0.004 -0.008 -0.003 -0.011 0 -0.009 0.009 -0.013 0.025 -0.019 0.037 -0.002 0.003 -0.006 0.005 -0.011 0 -0.013 -0.017 -0.005 -0.042 -0.007 -0.036 -0.011 0.013 -0.006 0.034 -0.004 0.038 0.004 0.007 0.007 0.012 0.014 0.016 0.007 0.005 0.012 0.002 0.015 -0.002 0.007 -0.007 0.007 -0.024 0.01 -0.028 0.002 -0.006 0.008 -0.005 0.01 -0.002a0.027 0.027 0 0 0 0.009 0.008c0.006 0.005 0.014 0.006 0.021 0.001 0.005 -0.003 0.008 -0.006 0.011 -0.014 0.003 -0.009 0.001 -0.048 0.001 -0.072 0.005 0.006 0.009 0.012 0.014 0.019 0.002 0.02 0.003 0.04 0.002 0.06 0 0.004 0.014 -0.012 0.014 -0.02q0 -0.009 0 -0.017c0.007 0.011 0.014 0.021 0.02 0.033 0.004 -0.002 0.003 -0.025 0 -0.028 -0.007 -0.012 -0.017 -0.025 -0.024 -0.035 0 -0.001 -0.001 -0.002 -0.001 -0.004 -0.003 -0.006 -0.001 -0.011 -0.002 -0.018 -0.001 -0.007 -0.001 -0.017 -0.003 -0.025 -0.001 -0.003 -0.002 -0.013 -0.002 -0.014 0.001 -0.002 0.004 0 0.005 -0.003 0.002 -0.002 -0.008 -0.028 -0.013 -0.035 -0.002 -0.003 -0.005 -0.002 -0.009 0.003 -0.004 0.003 -0.002 0.011 -0.001 0.019 0.004 0.018 0.006 0.036 0.009 0.053a1.74 1.74 0 0 0 -0.016 -0.021l0 -0.001c0 0 -0.001 -0.016 -0.002 -0.019 0 -0.001 0 -0.002 0.001 -0.002 0.002 0.001 0.002 0.001 0.003 0.002 0.002 0 0.003 -0.003 0.002 -0.005l-0.016 -0.029c-0.001 -0.001 -0.003 -0.003 -0.005 0a0.011 0.011 0 0 0 -0.004 0.008c0 0.007 0.002 0.014 0.002 0.02l0.001 0.004c-0.001 -0.001 -0.002 -0.002 -0.002 -0.002 -0.013 -0.014 0.006 -0.002 -0.003 -0.013 -0.007 -0.008 -0.009 -0.01 -0.016 -0.015 -0.003 -0.002 -0.005 -0.006 -0.006 0.001a0.15 0.15 0 0 0 0 0.017c0 0.003 0.003 0.008 0.005 0.011m-0.267 0.032c0.008 0.003 0.012 -0.011 0.016 -0.027 0.002 -0.004 0.004 -0.005 0.005 -0.003 0 0.021 0.002 0.026 0.007 0.032 0.012 0.009 0.022 0.001 0.023 0l0.009 -0.009c0.002 -0.002 0.005 -0.002 0.008 0 0.003 0.003 0.002 0.007 0.009 0.01 0.005 0.002 0.016 0 0.019 -0.004 0.003 -0.006 0.004 -0.008 0.006 -0.01 0.002 -0.003 0.007 -0.002 0.007 -0.001 0 0.002 -0.003 0.004 -0.001 0.007 0.003 0.002 0.004 0.001 0.005 0 0.006 -0.003 0.011 -0.016 0.011 -0.016 0 -0.005 -0.002 -0.005 -0.004 -0.004 -0.002 0.001 -0.002 0.002 -0.005 0.003 -0.003 0 -0.009 0.002 -0.012 -0.002 -0.003 -0.005 -0.003 -0.013 -0.005 -0.018 0 0 -0.004 -0.008 0 -0.009 0.002 0 0.006 0.001 0.006 -0.002 0.002 -0.003 -0.004 -0.012 -0.008 -0.017 -0.004 -0.004 -0.009 -0.004 -0.013 0 -0.003 0.003 -0.003 0.007 -0.004 0.01a0.015 0.015 0 0 0 0.003 0.013c0.003 0.007 0.009 0.015 0.007 0.027 0 0 -0.004 0.006 -0.01 0.005 -0.003 -0.001 -0.007 -0.002 -0.009 -0.018 -0.002 -0.013 0 -0.03 -0.005 -0.038 -0.002 -0.005 -0.003 -0.01 -0.008 -0.001 -0.001 0.003 -0.007 0.008 -0.003 0.019 0.003 0.007 0.004 0.017 0.003 0.029 -0.002 0.003 -0.003 0.005 -0.006 0.008 -0.004 0.004 -0.008 0.003 -0.012 0.002 -0.003 -0.002 -0.006 -0.003 -0.007 -0.01 0 -0.011 0.001 -0.028 -0.001 -0.032 -0.003 -0.006 -0.008 -0.004 -0.01 -0.002 -0.01 0.009 -0.015 0.024 -0.018 0.036 -0.003 0.009 -0.006 0.006 -0.008 0.003 -0.005 -0.005 -0.005 -0.041 -0.011 -0.035 -0.01 0.027 0.005 0.058 0.016 0.055"/><path d="m0.604 0.466 -0.003 -0.002 -0.056 0c-0.003 -0.001 -0.002 -0.002 0 -0.003 0.013 -0.002 0.037 -0.006 0.039 -0.029 0 -0.012 -0.005 -0.02 -0.02 -0.022 -0.011 0.001 -0.018 0.011 -0.017 0.023 -0.001 0.003 0.001 0.009 -0.002 0.01 -0.021 0.002 -0.043 0.015 -0.044 0.024 -0.001 0.001 -0.004 -0.002 -0.004 -0.006a0.111 0.111 0 0 0 -0.014 -0.048c-0.007 -0.007 -0.004 -0.004 -0.009 -0.001 -0.003 0.003 -0.003 0.005 -0.003 0.012 0 0 0.005 0.015 0.01 0.025 0.003 0.011 0.006 0.023 0.004 0.034 -0.007 0.015 -0.021 0.029 -0.034 0.036 -0.007 0.002 -0.013 0.001 -0.014 0 -0.004 -0.003 -0.004 -0.008 -0.004 -0.008 0.011 -0.008 0.024 -0.014 0.035 -0.036 0.003 -0.008 0.004 -0.013 0.001 -0.026a0.024 0.024 0 0 0 -0.006 -0.012c0.002 -0.001 0.007 0.003 0.008 0a0.037 0.037 0 0 0 -0.01 -0.018c-0.004 -0.004 -0.008 -0.004 -0.012 -0.001 -0.004 0.002 -0.005 0.011 -0.003 0.018 0.002 0.006 0.008 0.006 0.013 0.018 0 0 0.002 0.008 -0.001 0.011 -0.002 0.006 -0.025 0.024 -0.026 0.024 -0.001 0.001 0 0 0 -0.003 0 -0.004 0.001 -0.012 0.001 -0.012 -0.007 0.005 -0.01 0.02 -0.011 0.024 -0.019 0.013 -0.04 0.023 -0.053 0.036 -0.006 0.01 0.044 -0.012 0.05 -0.014 0.001 0.001 0.001 0.005 0.005 0.01 0.005 0.007 0.016 0.012 0.027 0.009 0.018 -0.007 0.029 -0.019 0.04 -0.033 0.002 -0.002 0.004 -0.004 0.006 -0.002 0.007 0.017 0.029 0.028 0.056 0.029 0.006 -0.008 0.003 -0.012 0.001 -0.013 0 0 -0.014 -0.005 -0.016 -0.011 -0.001 -0.005 0.002 -0.009 0.008 -0.012 0.018 -0.002 0.035 -0.004 0.052 -0.01 0 -0.006 0.003 -0.014 0.006 -0.018 0.002 -0.004 0.003 -0.003 0.003 -0.004m-0.046 -0.035c0.001 -0.001 0.004 -0.001 0.006 0s0.004 0.004 0.003 0.005c-0.001 0.001 -0.004 0.001 -0.006 0s-0.004 -0.004 -0.003 -0.005m-0.023 0.057c-0.006 0.002 -0.012 0.004 -0.012 0.012 0.002 0.012 -0.003 0.008 -0.006 0.006 -0.004 -0.003 -0.014 -0.009 -0.016 -0.023 0 -0.003 0.002 -0.006 0.007 -0.006 0.006 0.002 0.016 0.002 0.024 0.003 0.007 0 0.01 0.006 0.004 0.008m-0.209 -0.135c0.006 0.003 0.019 0.002 0.018 -0.009 0 -0.001 0 -0.004 0 -0.005 -0.001 -0.003 -0.005 -0.002 -0.006 0.001 0 0.001 0 0.003 0 0.003 -0.001 0.001 -0.003 0 -0.003 -0.003 0 -0.001 -0.001 -0.002 -0.001 -0.002 0 0 -0.001 0 -0.001 0 -0.001 0 -0.001 0 -0.001 0.001 0 0.001 -0.001 0.002 -0.001 0.002 0 0.001 -0.001 0.001 -0.001 0.002 -0.001 0 -0.001 0 -0.001 0 0 0 -0.001 -0.001 -0.001 -0.001a0.009 0.009 0 0 0 0 -0.003c0 0 -0.001 -0.001 -0.002 -0.001 -0.004 0 -0.004 0.004 -0.004 0.006 0 0 0 0.008 0.004 0.01"/><path d="M0.525 0.421c0 -0.001 -0.001 -0.002 -0.001 -0.002 0 0 -0.001 0 -0.001 0 -0.001 0 -0.001 0 -0.001 0.001 0 0.001 -0.001 0.002 -0.001 0.002 0 0.001 -0.001 0.001 -0.001 0.002 -0.001 0 -0.001 0 -0.001 0 0 0 -0.001 -0.001 -0.001 -0.001a0.009 0.009 0 0 0 0 -0.003q-0.001 -0.001 -0.002 -0.001c-0.004 0 -0.004 0.004 -0.004 0.006 0 0 0 0.008 0.004 0.01 0.007 0.003 0.022 0.001 0.018 -0.009a0.09 0.09 0 0 0 0 -0.005c-0.001 -0.003 -0.005 -0.002 -0.006 0.001 0 0.001 0 0.003 0 0.003 0 0.001 -0.003 0 -0.002 -0.003m0.102 -0.021c0.006 0.003 0.019 0.002 0.018 -0.009a0.09 0.09 0 0 0 0 -0.005c-0.001 -0.003 -0.005 -0.002 -0.006 0.001 0 0.001 0 0.003 -0.001 0.003 -0.001 0.001 -0.003 0 -0.003 -0.003 0 -0.001 -0.001 -0.002 -0.001 -0.002 0 0 -0.001 0 -0.001 0 -0.001 0 -0.001 0 -0.001 0.001 0 0.001 -0.001 0.002 -0.001 0.002 0 0.001 -0.001 0.001 -0.001 0.002 -0.001 0 -0.001 0 -0.001 0 0 0 -0.001 -0.001 -0.001 -0.001a0.009 0.009 0 0 0 0 -0.003q-0.001 -0.001 -0.002 -0.001c-0.004 0 -0.004 0.004 -0.004 0.006 0 0 0 0.008 0.004 0.01m0.004 -0.041c0.002 0.006 -0.002 0.013 0.001 0.014 0.002 0.001 0.005 -0.007 0.006 -0.014 0.001 -0.006 -0.003 -0.018 -0.009 -0.02 -0.004 -0.001 -0.009 0.001 -0.007 0.006 -0.001 0.002 0.007 0.01 0.008 0.014m0.06 0.152c0.005 0 0.01 -0.01 0.012 -0.021 0.001 -0.014 -0.001 -0.023 -0.001 -0.031s-0.009 -0.072 -0.011 -0.078c-0.002 -0.012 0.009 -0.002 0.008 -0.009 -0.004 -0.009 -0.013 -0.021 -0.016 -0.029 -0.002 -0.003 -0.001 -0.006 -0.005 -0.001 -0.004 0.012 -0.005 0.022 -0.004 0.03 0.01 0.05 0.019 0.091 0.018 0.139m0.113 -0.13c0.001 0.003 -0.002 0.014 0.001 0.015 0.002 0.001 0.005 -0.007 0.006 -0.015 0.001 -0.004 -0.003 -0.019 -0.008 -0.022 -0.003 -0.001 -0.008 0.001 -0.006 0.007 -0.001 0.002 0.007 0.011 0.008 0.015m-0.394 0.11c0.002 0.001 0.005 -0.005 0.006 -0.011 0.001 -0.003 -0.002 -0.014 -0.007 -0.016 -0.003 -0.001 -0.007 0 -0.006 0.005 0 0.002 0.007 0.005 0.007 0.011 0.001 0.002 -0.002 0.01 0.001 0.011m-0.137 -0.138c0.001 0.002 -0.001 0.01 0.001 0.011 0.002 0.001 0.005 -0.006 0.006 -0.011 0.001 -0.003 0 -0.014 -0.007 -0.016 -0.003 -0.001 -0.007 0.001 -0.006 0.005 -0.001 0.002 0.006 0.008 0.007 0.012m0.147 0.035c-0.006 0.003 -0.008 0.012 -0.004 0.018 0.003 0.005 0.009 0.003 0.009 0.003 0.006 0.001 0.009 -0.011 0.009 -0.011s0 -0.003 -0.007 0.003c-0.003 0.001 -0.003 -0.001 -0.004 -0.002a0.014 0.014 0 0 1 0.001 -0.009c0.001 -0.003 -0.001 -0.004 -0.004 -0.002m0.043 -0.035a0.008 0.008 0 0 0 0.004 -0.005c0.001 -0.004 -0.005 0.002 -0.005 -0.003 -0.001 -0.005 0.002 -0.006 0.006 -0.011 0 -0.003 0 -0.005 -0.004 -0.003 -0.003 0.002 -0.009 0.008 -0.009 0.015 0 0.004 -0.001 0.004 0.002 0.006 0.002 0.003 0.004 0.002 0.007 0m0.039 0.002c0.004 -0.01 0.004 -0.014 0.004 -0.019 -0.001 -0.007 -0.006 -0.006 -0.008 0.001 -0.001 0.003 -0.003 0.017 -0.002 0.017 -0.001 0.004 0.004 0.006 0.007 0.001m0.245 0.071s-0.03 0.021 -0.031 0.022c-0.003 0.003 -0.002 0.012 0 0.011 0.002 0.001 0.032 -0.02 0.032 -0.022 0.001 0 0.002 -0.012 -0.001 -0.011m-0.004 0.058c0.002 0.001 0.007 -0.005 0.007 -0.014 0.001 -0.004 -0.002 -0.02 -0.007 -0.022 -0.003 -0.001 -0.008 0.002 -0.006 0.007 -0.001 0.002 0.004 0.011 0.005 0.016 0.001 0.003 -0.001 0.012 0.001 0.013m-0.17 0.045c0 0 0.003 0.002 0.006 0.001 0.006 -0.002 0.01 -0.005 0.019 -0.007 0.002 0 0.002 -0.006 -0.002 -0.006 -0.005 0 -0.009 0 -0.014 0.004 -0.003 0.001 -0.003 -0.001 -0.004 -0.003 -0.001 -0.004 0.002 -0.007 0.001 -0.01 0 0 -0.003 -0.002 -0.006 -0.001 0 0 -0.007 0.004 -0.009 0.007 -0.001 0.001 -0.001 0.002 -0.001 0.003 0.001 0.002 0.003 0.002 0.005 0.001 0.003 0 0.004 0.001 0.004 0.005 -0.001 0.004 0.001 0.005 0.001 0.006m0.197 0.005c-0.001 0.002 -0.002 0.004 0.001 0.005 0.006 0.002 0.019 -0.007 0.019 -0.007 0.002 -0.002 0.001 -0.005 0.001 -0.005 -0.001 -0.001 -0.004 -0.001 -0.006 -0.001 -0.001 0 -0.004 0 -0.002 -0.003a0.018 0.018 0 0 0 0.002 -0.005c0.001 -0.002 0 -0.003 -0.003 -0.004 -0.003 -0.001 -0.004 0 -0.008 0 -0.002 0 -0.003 0.001 -0.003 0.004 0 0.004 0.002 0.003 0.004 0.005 0.001 0.002 0.002 0.003 0 0.006 -0.002 0.002 -0.004 0.003 -0.006 0.005M0.765 0.69H0.72v-0.015a0.015 0.015 0 0 0 -0.03 0v0.015H0.33s0 0.03 0.09 0.03h0.27v0.015a0.015 0.015 0 0 0 0.03 0V0.72h0.03v0.015a0.015 0.015 0 0 0 0.03 0v-0.03a0.015 0.015 0 0 0 -0.015 -0.015"/></g></svg>