<?xml version="1.0" encoding="utf-8"?>
<!-- Generator: Adobe Illustrator 25.2.3, SVG Export Plug-In . SVG Version: 6.00 Build 0)  -->
<svg version="1.1" id="Layer_1" xmlns="http://www.w3.org/2000/svg" xmlns:xlink="http://www.w3.org/1999/xlink" x="0px" y="0px"
	 viewBox="0 0 354 342.2" style="enable-background:new 0 0 354 342.2;" xml:space="preserve">
<style type="text/css">
	.st0{fill:none;stroke:#000000;stroke-width:4;stroke-miterlimit:10;}
	.st1{fill:none;stroke:#000202;stroke-width:2;stroke-linecap:round;stroke-linejoin:round;stroke-miterlimit:133.3333;}
	.st2{fill:none;stroke:#00AEEF;stroke-miterlimit:10;}
	.st3{fill:none;stroke:#0B0C0C;stroke-width:2;stroke-linecap:round;stroke-linejoin:round;stroke-miterlimit:133.3333;}
	.st4{display:none;}
</style>
<g id="Layer_1_1_">
	<path class="st0" d="M316.3,218.9l-91.9,91.9c-26.3,26.3-69,26.3-95.3,0l-91.9-91.9c-26.3-26.3-26.3-69,0-95.3L129,31.6
		c26.3-26.3,69-26.3,95.3,0l91.9,91.9C342.6,149.9,342.6,192.6,316.3,218.9z"/>
	<g id="style_x3D_fill">
		<g id="web">
			<g id="Vector">
				<path d="M182.5,149c0.1,1,0.2,1.9,0.2,2.8c0,1.7-0.2,3.6-0.5,5.4c-1.9,0.3-3.8,0.5-5.4,0.5s-3.5-0.2-5.4-0.5
					c-0.3-1.9-0.5-3.8-0.5-5.4c0-0.9,0.1-1.8,0.2-2.8c2,0.3,4,0.5,5.8,0.5C178.5,149.6,180.5,149.4,182.5,149z"/>
				<path d="M185.2,148.6c0.1,1.1,0.2,2.3,0.2,3.3c0,1.5-0.1,3.2-0.4,4.9c3.5-0.7,6.7-1.6,8.4-2.2c0.6-0.2,0.8-0.2,1.1-0.4
					c0.1-0.1,0.3-0.1,0.4-0.2c0.1-0.7,0.1-1.4,0.1-2.2c0-2-0.3-3.9-0.9-5.6l-0.1,0.1C192.2,146.8,188.8,147.8,185.2,148.6z"/>
				<path d="M193.1,143.7c-1.8,0.6-4.9,1.4-8.3,2.1c-0.8-4.7-2.1-9.4-2.8-11.5C186.9,135.8,190.9,139.2,193.1,143.7z"/>
				<path d="M182.1,146.3c-1.9,0.3-3.8,0.5-5.4,0.5c-1.7,0-3.5-0.2-5.4-0.5c0.7-4.4,2-9,2.7-11.1c0.2-0.6,0.2-0.8,0.4-1.1
					c0.1-0.1,0.1-0.3,0.2-0.4c0.7-0.1,1.4-0.1,2.2-0.1c0.8,0,1.5,0.1,2.3,0.1c0,0.1,0,0.1,0.1,0.2c0,0.1,0.1,0.4,0.2,0.7l0,0
					C179.8,136.4,181.3,141.4,182.1,146.3z"/>
				<path d="M168.5,145.8c0.8-4.7,2.1-9.3,2.8-11.4l0-0.1c-4.8,1.5-8.8,4.9-11.1,9.4C162,144.2,165.2,145.1,168.5,145.8z"/>
				<path d="M159.2,146.2c-0.6,1.8-0.9,3.7-0.9,5.6c0,0.8,0.1,1.5,0.1,2.3l0.3,0.1l0,0l0,0l0,0c0.1,0,2.8,0.9,6.4,1.8
					c1,0.2,2.1,0.5,3.2,0.7c-0.2-1.7-0.4-3.4-0.4-4.9c0-1.1,0.1-2.2,0.2-3.3c-3.6-0.7-7-1.7-8.8-2.2h0L159.2,146.2z"/>
				<path d="M176.7,160.6c1.5,0,3.2-0.1,4.9-0.4c-0.7,3.5-1.6,6.7-2.2,8.4c-0.2,0.6-0.2,0.8-0.4,1.1c-0.1,0.1-0.1,0.3-0.2,0.4
					c-0.7,0.1-1.4,0.1-2.2,0.1s-1.5,0-2.2-0.1c-0.1-0.2-0.1-0.3-0.2-0.4c-0.1-0.3-0.2-0.5-0.4-1.1c-0.5-1.7-1.4-4.9-2.2-8.4
					C173.4,160.4,175.1,160.6,176.7,160.6z"/>
				<path d="M164.5,158.7c-2.3-0.6-4.2-1.1-5.4-1.5c1.8,5.8,6.4,10.4,12.2,12.2l0-0.1c-0.6-1.9-1.7-5.6-2.4-9.7
					C167.3,159.4,165.9,159.1,164.5,158.7z"/>
				<path d="M194.2,157.2c-1.9,0.6-5.6,1.7-9.7,2.4c-0.8,4-1.9,7.8-2.4,9.7l0,0.1C187.9,167.6,192.4,163.1,194.2,157.2L194.2,157.2z
					"/>
				<path d="M158.5,154.2c0.1,0,0.1,0,0.1,0c0,0,0,0,0.1,0l0,0h0h0h0C158.7,154.2,158.6,154.2,158.5,154.2z"/>
			</g>
		</g>
	</g>
	<g>
		<path d="M197.7,147.1h8c0.4,0,0.8-0.4,0.8-0.8v-3.5c0-0.4-0.4-0.8-0.8-0.8l0,0c-0.4,0-0.8,0.4-0.8,0.8v2.2c0,0.4-0.4,0.8-0.8,0.8
			h-6.4L197.7,147.1L197.7,147.1z"/>
		<circle cx="205.7" cy="140.8" r="1.9"/>
	</g>
	<g>
		<path d="M155.8,147.1h-8.2c-0.4,0-0.8-0.4-0.8-0.8v-3.5c0-0.4,0.4-0.8,0.8-0.8l0,0c0.4,0,0.8,0.4,0.8,0.8v2.2
			c0,0.4,0.4,0.8,0.8,0.8h6.6L155.8,147.1L155.8,147.1z"/>
		<ellipse cx="147.6" cy="140.8" rx="2" ry="1.9"/>
	</g>
	<g>
		<path d="M155.8,155.1h-8.2c-0.4,0-0.8,0.4-0.8,0.8v3.6c0,0.5,0.4,0.8,0.8,0.8l0,0c0.4,0,0.8-0.4,0.8-0.8v-2.3
			c0-0.5,0.4-0.8,0.8-0.8h6.6L155.8,155.1L155.8,155.1z"/>
		<ellipse cx="147.6" cy="161.6" rx="2" ry="2"/>
	</g>
	<g>
		<path d="M197.7,155.1h8c0.4,0,0.8,0.4,0.8,0.8v3.6c0,0.5-0.4,0.8-0.8,0.8l0,0c-0.4,0-0.8-0.4-0.8-0.8v-2.3c0-0.5-0.4-0.8-0.8-0.8
			h-6.4L197.7,155.1L197.7,155.1z"/>
		<ellipse cx="205.7" cy="161.6" rx="1.9" ry="2"/>
	</g>
	<circle class="st1" cx="147.7" cy="150.8" r="1.3"/>
	<circle class="st1" cx="206.7" cy="151.1" r="1.3"/>
	<path d="M197.8,176c-2.9,0.2-6.7,3.1-10.4,4.8c-1.4,0.6-3,0.9-4.6,1c-1.5,0.1-1.9-2-0.6-2.5c0,0,0,0,0,0c4.7-2.1,4.3-6.4,2.1-6.4
		c-3,0.1-4.7,0.8-10.6,1.6c-4.5,0.6-9.8,0.4-12.4,1.4c-2.9,1.1-7.2,7.3-8.8,9.7c-0.4,0.5-0.3,1.2,0.2,1.7l7.3,7.1
		c0.5,0.5,1.3,0.5,1.8,0c1.7-1.5,5.3-4.6,7.3-4.6c6.1,0,6.4-0.1,12.1-0.4c2.4-0.1,2.9-0.2,4.3-0.7c7.4-2.5,15.3-9.2,15.5-10
		C201.4,176.7,199.3,175.9,197.8,176z"/>
	<path class="st2" d="M176.7,293.5"/>
	<g>
		<polygon points="93,224.6 98.9,208.5 102.9,208.5 110.7,231.8 90.7,231.8 92.3,227.1 105,227.1 104.1,224.1 101.1,214.8 
			96.7,225.6 93,225.6 		"/>
		<polyline points="116.3,214.2 116.3,207 119.9,207 119.9,214.2 		"/>
		<polyline points="129.3,217.1 129.3,231.8 132.6,231.8 132.6,207 129.3,207 		"/>
		<polyline points="129.9,218.6 115.7,218.6 115.7,231.8 119.5,231.8 119.5,222.7 129.9,222.7 		"/>
		<polyline points="202.6,231.8 210.6,231.8 210.6,227.4 202.6,227.4 		"/>
		<polyline points="200.4,231.8 196.8,231.8 196.8,208 200.4,208 		"/>
		<g>
			<path d="M181.6,227.6l1.1,4.1c-0.4,0.1-0.7,0.1-1.1,0.1c-0.1,0-0.2,0-0.3,0c-2.2,0-4.1-0.7-5.7-2.2c-0.1-0.1-0.2-0.2-0.4-0.3
				c-0.1-0.1-0.2-0.2-0.3-0.3c-0.2-0.2-0.4-0.5-0.6-0.7c-0.9-1.1-1.6-2.4-2.1-3.8c-0.5-1.5-0.7-3.1-0.8-4.9v-0.1c0-0.2,0-0.3,0-0.5
				c0.1-3,0.9-5.6,2.3-7.7c0.2-0.2,0.3-0.4,0.5-0.6c0.6-0.8,1.3-1.4,2.1-1.9l1.1,3.9l0.1,0.5c-0.2,0.2-0.4,0.4-0.6,0.6
				c-0.2,0.3-0.4,0.7-0.6,1c-0.4,0.8-0.7,1.7-0.9,2.8c-0.1,0.6-0.1,1.2-0.1,1.9c0,0.2,0,0.4,0,0.6c0,0.3,0,0.7,0.1,1v0
				c0.2,1.6,0.7,3,1.5,4.1c0.1,0.2,0.3,0.4,0.4,0.5c0.6,0.6,1.3,1.1,2.1,1.4c0.5,0.2,1.1,0.3,1.7,0.3h0.2L181.6,227.6z"/>
			<path d="M178.5,209.1l-0.4-1.3c1-0.4,2-0.6,3.1-0.6c0,0,0.1,0,0.1,0c1.9,0,3.5,0.6,5,1.6c0.2,0.1,0.3,0.2,0.5,0.4
				c0.9,0.7,1.6,1.5,2.2,2.5c0.5,0.9,1,1.9,1.3,3.1h-4.6c-0.2-0.4-0.3-0.7-0.5-1.1c-0.4-0.7-1-1.2-1.6-1.6c-0.6-0.4-1.4-0.6-2.3-0.6
				c-0.2,0-0.4,0-0.7,0c-0.5,0.1-0.9,0.2-1.3,0.3l-0.2-0.6L178.5,209.1z"/>
			<path d="M190.3,224.2c-0.2,0.8-0.5,1.6-0.9,2.3c-0.4,0.8-0.9,1.6-1.4,2.2c-0.4,0.4-0.7,0.8-1.1,1.1c-0.6,0.5-1.2,0.9-1.9,1.2
				c-0.1,0.1-0.3,0.1-0.4,0.2l-1.2-4.3c0,0,0.1,0,0.1-0.1c0.9-0.5,1.7-1.4,2.2-2.6L190.3,224.2L190.3,224.2z"/>
			<path d="M181.1,209.8L181.1,209.8L181.1,209.8z"/>
			<path d="M175.5,221.1L175.5,221.1L175.5,221.1z"/>
		</g>
		<g>
			<path d="M284.2,219.6L284.2,219.6c0,0.7,0,1.3-0.1,2c-0.4,2.7-1.5,4.9-3.5,6.7c-0.1,0.1-0.1,0.1-0.2,0.2
				c-0.4,0.3-0.8,0.6-1.2,0.9c-0.9,0.6-2,1.1-3,1.5c-1.5,0.5-3.1,0.8-4.9,0.9c-0.2,0-0.4,0-0.6,0c-0.1,0-0.2,0-0.4,0h-1V228h1
				c1,0,2-0.1,2.9-0.3c0.5-0.1,1-0.3,1.5-0.6c0.3-0.1,0.6-0.3,0.8-0.5c0.4-0.3,0.8-0.6,1.1-0.9c0.2-0.2,0.5-0.5,0.7-0.8
				c0.5-0.6,0.8-1.3,1.1-2c0.2-0.5,0.3-1,0.4-1.6c0.1-0.5,0.1-1.1,0.1-1.7c0-0.5,0-0.9-0.1-1.4c-0.1-0.9-0.3-1.8-0.7-2.6
				c-0.4-0.8-0.9-1.6-1.5-2.2c0,0,0,0-0.1-0.1c-0.3-0.3-0.7-0.6-1-0.8c-0.3-0.2-0.6-0.4-0.9-0.5c-0.4-0.2-0.8-0.3-1.3-0.5
				c-0.9-0.3-2-0.4-3.1-0.4h-1v-3.8h1c0.3,0,0.6,0,0.9,0c1,0,2,0.1,2.9,0.3c2.1,0.4,3.9,1.2,5.4,2.3c0.3,0.2,0.6,0.4,0.9,0.7
				c0.5,0.5,1,1,1.5,1.5c0.5,0.7,1,1.4,1.3,2.1c0.2,0.4,0.3,0.8,0.5,1.2C284,216.9,284.2,218.2,284.2,219.6z"/>
		</g>
		<g>
			<path d="M223.3,207.2l-0.3,0.5l-0.1-0.4C223,207.3,223.1,207.3,223.3,207.2z"/>
			<path d="M226.7,228l1,3.5c-0.7,0.2-1.5,0.3-2.3,0.3c-0.1,0-0.1,0-0.1,0c-0.4,0-0.8,0-1.1-0.1c-1.4-0.1-2.7-0.6-3.9-1.3
				c-0.9-0.5-1.7-1.2-2.4-2.1c-0.8-0.9-1.5-2-1.9-3.1c-0.2-0.4-0.4-0.9-0.5-1.4c-0.4-1.3-0.6-2.8-0.6-4.4c0-0.6,0-1.1,0.1-1.6
				c0-0.2,0.1-0.5,0.1-0.7c0.2-1.8,0.8-3.4,1.6-4.8c0.4-0.6,0.8-1.3,1.3-1.8c0.1-0.1,0.2-0.2,0.3-0.3c0.8-0.9,1.8-1.6,2.8-2.1
				l0.6,2.1l0.7,2.2c-0.4,0.3-0.8,0.6-1.2,1c-0.1,0.1-0.1,0.1-0.2,0.2c-1,1.2-1.6,2.8-1.7,4.7c0,0.3,0,0.7,0,1.1v0.2
				c0,1.1,0.2,2.2,0.5,3.1c0.3,0.9,0.7,1.7,1.3,2.4c0.3,0.4,0.6,0.7,1,1c0.1,0.1,0.1,0.1,0.2,0.2c0,0,0.1,0.1,0.1,0.1
				c0.9,0.6,2,0.9,3.2,0.9c0.4,0,0.8,0,1.2-0.1L226.7,228z"/>
			<path d="M235.8,219.4c0,1.7-0.2,3.2-0.7,4.6c-0.4,1.1-0.9,2.2-1.5,3.1c-0.3,0.4-0.5,0.7-0.8,1.1c-0.5,0.6-1,1.1-1.6,1.5
				c-0.2,0.1-0.4,0.3-0.6,0.4c-0.1,0.1-0.1,0.1-0.2,0.1c-0.2,0.1-0.4,0.3-0.7,0.4l-0.4-1.2l-0.8-2.6l-0.1-0.5c0.5-0.3,1-0.8,1.4-1.3
				c0.3-0.4,0.6-0.8,0.8-1.2c0.3-0.7,0.6-1.4,0.8-2.2c0.1-0.7,0.2-1.5,0.2-2.4c0-2.4-0.6-4.3-1.7-5.7v0c-0.7-0.9-1.6-1.5-2.6-1.9
				c-0.5-0.2-1-0.2-1.6-0.3c-0.1,0-0.2,0-0.3,0c-0.4,0-0.8,0-1.2,0.1l-1.1-3.9l0.3-0.5c0.6-0.1,1.1-0.2,1.7-0.2c0.1,0,0.2,0,0.4,0
				c1.4,0,2.7,0.3,3.9,0.8l2,1.2l0.1,0c0.6,0.4,1.1,0.9,1.6,1.5c1,1.2,1.8,2.5,2.3,4.1c0.3,0.9,0.5,1.8,0.6,2.8
				C235.8,218,235.8,218.7,235.8,219.4z"/>
			<path d="M231.2,209L231.2,209l-2-1.2C229.9,208.1,230.6,208.5,231.2,209z"/>
		</g>
		<g>
			<path d="M257,229.3c0,0.1-0.1,0.1-0.1,0.1l-0.1-0.4L257,229.3z"/>
			<path d="M244.7,219.8L244.7,219.8L244.7,219.8z"/>
			<path d="M254.9,230.8C254.9,230.8,254.9,230.8,254.9,230.8l-1.5-4.3c0,0,0.1,0,0.1,0L254.9,230.8z"/>
			<path d="M253.4,226.5l1.4,4.3c-1.2,0.6-2.4,0.9-3.9,0.9c-0.2,0-0.4,0-0.5,0s-0.4,0-0.6,0c-2.3-0.1-4.2-0.9-5.8-2.3
				c-0.1-0.1-0.1-0.1-0.2-0.2c-0.1-0.1-0.3-0.3-0.4-0.4c-0.8-0.9-1.4-2.1-1.8-3.4c-0.1-0.6-0.3-1.2-0.3-1.8
				c-0.1-0.5-0.1-0.9-0.1-1.5v-14.9h4.6v14.9c0,0.4,0,0.9,0.1,1.2c0.1,1.1,0.5,1.9,1.1,2.6c0.1,0.1,0.3,0.3,0.4,0.4
				c0.5,0.4,1.1,0.6,1.8,0.8c0.4,0.1,0.8,0.1,1.2,0.1c1,0,1.9-0.2,2.6-0.6C253.2,226.6,253.3,226.6,253.4,226.5z"/>
			<path d="M259.8,207.3v15c0,0.6,0,1.3-0.1,1.9c0,0.2-0.1,0.4-0.1,0.5c-0.4,1.9-1.2,3.4-2.5,4.6c0,0,0,0-0.1,0l-0.3-0.2l-1.1-3.4
				l-0.4-1.1l-0.2-0.7c0.1-0.5,0.2-1.1,0.2-1.7v-14.9L259.8,207.3L259.8,207.3z"/>
		</g>
		<g>
			<path d="M157.5,219.6L157.5,219.6c0,0.7-0.1,1.3-0.1,2c-0.4,2.7-1.5,4.9-3.5,6.7c-0.1,0.1-0.1,0.1-0.2,0.2
				c-0.4,0.3-0.8,0.6-1.2,0.9c-0.9,0.6-1.9,1.1-3.1,1.5c-1.5,0.5-3.1,0.8-4.9,0.9c-0.2,0-0.4,0-0.6,0c-0.1,0-0.2,0-0.4,0h-1V228h1
				c1.1,0,2-0.1,2.9-0.3c0.5-0.1,1-0.3,1.5-0.6c0.3-0.1,0.6-0.3,0.8-0.5c0.4-0.3,0.8-0.6,1.1-0.9c0.2-0.2,0.5-0.5,0.7-0.8
				c0.5-0.6,0.8-1.3,1.1-2c0.2-0.5,0.3-1,0.4-1.6c0.1-0.5,0.1-1.1,0.1-1.7c0-0.5,0-0.9-0.1-1.4c-0.1-0.9-0.3-1.8-0.7-2.6
				c-0.4-0.8-0.9-1.6-1.5-2.2c0,0-0.1,0-0.1-0.1c-0.3-0.3-0.7-0.6-1-0.8c-0.3-0.2-0.6-0.4-0.9-0.5c-0.4-0.2-0.8-0.3-1.3-0.5
				c-0.9-0.3-2-0.4-3.1-0.4h-1v-3.8h1c0.3,0,0.6,0,0.9,0c1,0,2,0.1,2.9,0.3c2.1,0.4,3.9,1.2,5.4,2.3c0.3,0.2,0.6,0.4,0.9,0.7
				c0.6,0.5,1,1,1.5,1.5c0.5,0.7,1,1.4,1.3,2.1c0.2,0.4,0.3,0.8,0.5,1.2C157.3,216.9,157.5,218.2,157.5,219.6z"/>
		</g>
		<g>
			<rect x="69.1" y="207.9" width="14.4" height="3.7"/>
			<path d="M72.2,210.8L72.2,210.8L72.2,210.8z"/>
			<polygon points="83.5,221.5 83.5,221.3 83.1,221.5 			"/>
			<polygon points="83.5,217.8 83.5,221.2 82.9,221.5 74,221.5 74,231.8 69.1,231.8 69.1,217.8 74,217.8 			"/>
			<polygon points="83.5,221.2 83.5,221.3 83.1,221.5 82.9,221.5 			"/>
		</g>
	</g>
	<path class="st3" d="M148.3,150.6c-21.2,1.8-37.8-9-36.8-28.5c0.4-7.4,3.1-23.2,26-27.2c0.1-12.9,15.4-35,44.3-34.3
		c21.1,0.5,43.7,22.7,41.1,46.9c12.9,3.3,19.3,7.2,18.8,21.8c-0.7,20.5-16.3,22.3-35.2,21.7"/>
</g>
<g id="Layer_2_1_" class="st4">
	
		<image style="display:inline;overflow:visible;opacity:0.4;enable-background:new    ;" width="608" height="611" xlink:href="A93E12D2.png"  transform="matrix(0.5073 0 0 0.5073 23.717 19.246)">
	</image>
</g>
</svg>
