<svg xmlns="http://www.w3.org/2000/svg" version="1.1" xmlns:xlink="http://www.w3.org/1999/xlink" width="512" height="512" x="0" y="0" viewBox="0 0 66 66" style="enable-background:new 0 0 512 512" xml:space="preserve" class=""><g><path fill="#0e4b5c" d="M24.43 6.86V4c0-1.1.9-2 2-2h15.08c1.1 0 2 .9 2 2v2.86c0 1.1-.9 2-2 2H26.43a2 2 0 0 1-2-2z" opacity="1" data-original="#0e4b5c"></path><path fill="#e1d9e1" d="M50.21 5.43h-6.7v1.43c0 1.1-.9 2-2 2H26.43c-1.1 0-2-.9-2-2V5.43h-6.7c-2.21 0-4 1.79-4 4v32.72c5.86.21 10.55 5.01 10.55 10.92 0 2.08-.59 4.02-1.6 5.67h27.53c2.21 0 4-1.79 4-4V9.43c0-2.21-1.79-4-4-4z" opacity="1" data-original="#e1d9e1"></path><path fill="#1c8fc7" d="M57.81 17.97h5.78v33.84h-5.78z" opacity="1" data-original="#1c8fc7"></path><path fill="#0e4b5c" d="M60.7 11.14c-1.6 0-2.89 1.29-2.89 2.89v3.94h5.78v-3.94c0-1.59-1.29-2.89-2.89-2.89z" opacity="1" data-original="#0e4b5c"></path><path fill="#ffc040" d="M63.59 51.81h-5.78l2.89 5.93z" opacity="1" data-original="#ffc040"></path><path fill="#ff7146" d="M18.29 13.56h9.18v9.18h-9.18z" opacity="1" data-original="#ff7146"></path><path fill="#c3b8c3" d="M49.66 17.31H31.68c-.41 0-.75-.34-.75-.75s.34-.75.75-.75h17.98c.41 0 .75.34.75.75s-.34.75-.75.75zM44.66 20.48H31.68c-.41 0-.75-.34-.75-.75s.34-.75.75-.75h12.98c.41 0 .75.34.75.75s-.34.75-.75.75z" opacity="1" data-original="#c3b8c3"></path><path fill="#ff7146" d="M18.29 26.51h9.18v9.18h-9.18z" opacity="1" data-original="#ff7146"></path><path fill="#c3b8c3" d="M49.66 30.26H31.68c-.41 0-.75-.34-.75-.75s.34-.75.75-.75h17.98c.41 0 .75.34.75.75s-.34.75-.75.75zM44.66 33.43H31.68c-.41 0-.75-.34-.75-.75s.34-.75.75-.75h12.98c.41 0 .75.34.75.75s-.34.75-.75.75z" opacity="1" data-original="#c3b8c3"></path><circle cx="13.34" cy="53.06" r="10.94" fill="#1c8fc7" opacity="1" data-original="#1c8fc7"></circle><path fill="#ffc040" d="m18.36 57.49-3.04-1.01v1.07c0 1.09-.89 1.98-1.98 1.98s-1.98-.89-1.98-1.98V56.48l-3.04 1.01c-1.26.42-2.1 1.59-2.1 2.92v.95C8.14 63 10.63 64 13.34 64c2.72 0 5.2-1 7.11-2.64v-.95c.01-1.32-.84-2.5-2.09-2.92z" opacity="1" data-original="#ffc040"></path><path fill="#0e4b5c" d="M17.7 46.54c-1.1-1.22-2.33-1.66-3.96-1.72-.48-.02-.92.53-1.34.68-.24-.12-.99-.74-1.48-.68-3.01.36-1.76 4.81-1.76 4.81.27-.03.69-.32 1.13-.7.82-.7 2.02-.59 2.72.23.54.64 1.37 1.06 2.85.8 2.45-.44 2.7-2.46 1.84-3.42z" opacity="1" data-original="#0e4b5c"></path><path fill="#d8c5a7" d="M17.17 49.44c-.34.23-.77.41-1.32.51-1.48.26-2.3-.16-2.85-.8-.7-.82-1.9-.93-2.72-.23-.1.08-.19.16-.29.24v.22c-.14 0-.26.02-.39.06-.17.1-.33.18-.45.19a1.54 1.54 0 0 0 .84 2.83c.02 1.85 1.52 3.34 3.37 3.34s3.35-1.49 3.37-3.34c.85 0 1.54-.69 1.54-1.54.01-.71-.46-1.29-1.1-1.48z" opacity="1" data-original="#d8c5a7"></path><path fill="#c7b69a" d="M13.37 55.79c-.75 0-1.44-.26-2-.67v2.44c0 1.09.89 1.98 1.98 1.98s1.98-.89 1.98-1.98v-2.4c-.56.39-1.23.63-1.96.63z" opacity="1" data-original="#c7b69a"></path><path fill="#658c99" d="M50.59 47.47c0 .99-1.32 1.71-1.67 2.56-.37.89.04 2.33-.63 3s-2.11.26-3 .63c-.86.36-1.58 1.67-2.56 1.67-.99 0-1.71-1.32-2.56-1.67-.89-.37-2.33.04-3-.63s-.26-2.11-.63-3c-.36-.86-1.67-1.58-1.67-2.56 0-.99 1.32-1.71 1.67-2.56.37-.89-.04-2.33.63-3s2.11-.26 3-.63c.86-.36 1.58-1.67 2.56-1.67.99 0 1.71 1.32 2.56 1.67.89.37 2.33-.04 3 .63s.26 2.11.63 3c.36.86 1.67 1.57 1.67 2.56z" opacity="1" data-original="#658c99"></path><path fill="#ffffff" d="M22.06 20.31a.75.75 0 0 1-.53-.22l-1.18-1.18c-.29-.29-.29-.77 0-1.06s.77-.29 1.06 0l.65.65 2.29-2.29c.29-.29.77-.29 1.06 0s.29.77 0 1.06l-2.82 2.82a.75.75 0 0 1-.53.22zM22.06 33.26a.75.75 0 0 1-.53-.22l-1.18-1.18c-.29-.29-.29-.77 0-1.06s.77-.29 1.06 0l.65.65 2.29-2.29c.29-.29.77-.29 1.06 0s.29.77 0 1.06l-2.82 2.82a.75.75 0 0 1-.53.22zM41.19 50.77a.75.75 0 0 1-.53-.22l-2.03-2.03c-.29-.29-.29-.77 0-1.06s.77-.29 1.06 0l1.5 1.5 4.57-4.57c.29-.29.77-.29 1.06 0s.29.77 0 1.06l-5.1 5.1a.75.75 0 0 1-.53.22z" opacity="1" data-original="#ffffff"></path><path fill="#e1d9e1" d="M60.7 47.3c-.41 0-.75-.34-.75-.75V23.23c0-.41.34-.75.75-.75s.75.34.75.75v23.32c0 .42-.33.75-.75.75z" opacity="1" data-original="#e1d9e1"></path><path d="M13.73 40.15v2c5.86.21 10.55 5.01 10.55 10.92 0 2.08-.59 4.02-1.6 5.67h2.27c.84-1.72 1.33-3.64 1.33-5.67 0-7.01-5.6-12.72-12.55-12.92z" opacity="1" fill="#00000008" data-original="#00000008"></path></g></svg>