<svg xmlns="http://www.w3.org/2000/svg" version="1.1" xmlns:xlink="http://www.w3.org/1999/xlink" width="512" height="512" x="0" y="0" viewBox="0 0 58 58" style="enable-background:new 0 0 512 512" xml:space="preserve" class=""><g><g fill="none" fill-rule="nonzero"><path fill="#f0c419" d="M57.27 23.48a3.79 3.79 0 0 0-.6-.67L45.48 12.78l-.01-.01H12.53l-.01.01L1.33 22.81A4.053 4.053 0 0 0 0 25.79V54a4.007 4.007 0 0 0 4 4h50a4.007 4.007 0 0 0 4-4V25.79c0-.827-.254-1.634-.73-2.31z" opacity="1" data-original="#f0c419"></path><path fill="#f0c419" d="M57.27 23.48 33.83 40.5l-2.54 1.84a3.998 3.998 0 0 1-4.62.05l-2.62-1.81L.33 24.21a3.838 3.838 0 0 1 1-1.4l11.19-10.03.01-.01h32.94l.01.01 11.19 10.03c.226.199.427.424.6.67z" opacity="1" data-original="#f0c419"></path><path fill="#f29c1f" d="M24.05 40.58 1.37 57.01A3.98 3.98 0 0 1 0 54V25.79a3.858 3.858 0 0 1 .33-1.58z" opacity="1" data-original="#f29c1f"></path><path fill="#e57e25" d="M56.63 57.01A3.985 3.985 0 0 1 54 58H4a3.985 3.985 0 0 1-2.63-.99l22.68-16.43 2.62 1.81a3.998 3.998 0 0 0 4.62-.05l2.54-1.84z" opacity="1" data-original="#e57e25"></path><path fill="#f29c1f" d="M58 25.79V54a3.98 3.98 0 0 1-1.37 3.01L33.83 40.5l23.44-17.02c.476.676.73 1.483.73 2.31z" opacity="1" data-original="#f29c1f"></path><circle cx="29" cy="17" r="17" fill="#ff5364" opacity="1" data-original="#ff5364"></circle><g fill="#fff"><path d="M32 7c0 1.66-3 13-3 13S26 8.66 26 7a3 3 0 0 1 6 0z" fill="#ffffff" opacity="1" data-original="#ffffff"></path><circle cx="29" cy="27" r="3" fill="#ffffff" opacity="1" data-original="#ffffff"></circle></g></g></g></svg>