<svg width="24" height="24" viewBox="0 0 24 24" fill="none" xmlns="http://www.w3.org/2000/svg">
<g id="log-out " clip-path="url(#clip0_1846_10265)">
<path id="Vector" d="M10.9219 0.562702L12.1875 1.96895C15.5908 1.96895 18.8629 3.94245 20.604 6.84395C21.014 7.5273 21.3268 8.24542 21.5781 9.0002C21.6957 9.35336 21.7267 9.79825 21.8983 10.1252C22.1855 10.6723 22.9818 11.365 23.4844 11.719C23.4844 6.73206 19.8868 2.27233 15.1406 0.917954C14.1403 0.632494 13.1307 0.515827 12.0938 0.515827C11.7179 0.515827 11.2836 0.455781 10.9219 0.562702Z" fill="url(#paint0_linear_1846_10265)"/>
<path id="Vector_2" d="M3.84375 3.89079C4.11958 4.08509 4.58193 4.81859 4.92188 4.81859C5.1412 4.81859 5.41852 4.43465 5.57812 4.30112C6.11311 3.85356 6.69525 3.4562 7.3125 3.13052C8.3693 2.5729 9.50536 2.20704 10.6875 2.03587C11.1912 1.96293 11.7467 2.04864 12.2344 1.92204C11.9666 1.54186 11.2897 0.691098 10.8281 0.577604C10.289 0.44503 9.42614 0.755195 8.90625 0.904426C7.57059 1.28781 6.33188 1.88893 5.20312 2.6992C4.73808 3.03302 4.17955 3.42392 3.84375 3.89079Z" fill="#449DFF"/>
<path id="Vector_3" d="M1.82812 6.60949L2.95312 7.64074C3.53357 6.64628 4.10066 5.74319 4.92188 4.92199C4.75697 4.68789 4.15642 3.89619 3.84444 3.93392C3.61708 3.96142 3.35333 4.38324 3.21517 4.54699C2.69522 5.1632 2.14924 5.86427 1.82812 6.60949Z" fill="url(#paint1_linear_1846_10265)"/>
<path id="Vector_4" d="M7.03125 6.32812C7.03125 7.2255 7.71113 7.87898 8.4375 8.39062L8.48438 7.78125H14.2969V9.32812H15.75V6.32812H7.03125Z" fill="#48A3FF"/>
<path id="Vector_5" d="M1.82806 6.60938C1.10692 7.84491 0.672692 9.35953 0.558425 10.7812C0.524633 11.2016 0.394511 11.8293 0.543847 12.2344C0.626005 12.4572 0.867824 12.6335 1.03119 12.7969C1.37685 13.1425 1.70923 13.5463 2.10931 13.8281C2.00447 12.5015 1.88601 11.2601 2.16606 9.9375C2.27398 9.42788 2.42845 8.92341 2.61608 8.4375C2.6951 8.23284 2.91387 7.90758 2.8949 7.6875C2.86618 7.35422 2.11412 6.74278 1.82806 6.60938Z" fill="url(#paint2_linear_1846_10265)"/>
<path id="Vector_6" d="M7.03125 7.03125V10.8281H7.07812V10.4062L8.48438 11.7656V8.29688H8.4375L8.39062 8.39062C8.05139 7.90903 7.51284 7.37048 7.03125 7.03125Z" fill="url(#paint3_linear_1846_10265)"/>
<path id="Vector_7" d="M16.5469 11.2969H11.4375V12.7501H16.5469C16.3442 12.9527 15.8838 13.2632 15.8131 13.5469C15.7563 13.7747 16.5546 14.5685 16.7812 14.5685C17.1243 14.5685 17.7186 13.7346 17.9531 13.5001L18.9375 12.5157C19.0573 12.3959 19.2948 12.2283 19.3162 12.0469C19.3437 11.814 18.9422 11.536 18.7969 11.3907L17.3438 9.93756C17.2124 9.80617 16.9863 9.47852 16.7812 9.47852C16.5546 9.47852 15.7563 10.2723 15.8131 10.5001C15.8838 10.7838 16.3442 11.0942 16.5469 11.2969Z" fill="#4198FF"/>
<path id="Vector_8" d="M21.8907 10.1719C21.972 11.2014 22.0894 12.1813 21.9766 13.2188C21.9358 13.5951 21.6188 14.3094 21.7357 14.6585C21.8514 15.004 22.5526 15.5996 22.875 15.75C23.2742 14.8495 23.4796 13.6856 23.4844 12.7031C23.4857 12.4235 23.5537 12.0303 23.4561 11.7656C23.374 11.5428 23.1321 11.3665 22.9688 11.2031C22.6231 10.8575 22.2907 10.4537 21.8907 10.1719Z" fill="url(#paint4_linear_1846_10265)"/>
<path id="Vector_9" d="M7.07812 10.4062L7.03125 17.6719H12.4688V17.625C11.5584 17.6249 11.3271 16.6336 10.5938 16.2669C10.0915 16.0158 9.04523 16.2188 8.48438 16.2188V13.1719C8.48438 12.775 8.59392 12.1863 8.45611 11.8125C8.28206 11.3405 7.48444 10.6925 7.07812 10.4062Z" fill="#296FFF"/>
<path id="Vector_10" d="M0.515625 12.2812C0.515625 17.5387 4.53523 22.2452 9.65625 23.2758C11.6379 23.6746 13.4745 23.4176 15.4219 23.0156C15.2593 22.667 14.635 21.9533 14.25 21.8587C13.9627 21.788 13.5988 21.9228 13.3125 21.9643C12.8772 22.0274 12.4394 22.0383 12 22.0383C10.3345 22.0383 8.67984 21.6294 7.21875 20.819C5.50561 19.8688 4.04694 18.4246 3.13035 16.6875C2.81234 16.0848 2.5669 15.4611 2.35988 14.8125C2.26519 14.5158 2.24606 14.1501 2.10167 13.875C1.81452 13.3279 1.01818 12.6353 0.515625 12.2812Z" fill="url(#paint5_linear_1846_10265)"/>
<path id="Vector_11" d="M14.2969 14.6719V16.2188H10.5938C10.8801 16.6252 11.5279 17.4225 12 17.5967C12.3666 17.732 12.8799 17.6719 13.2656 17.6719H15.75V14.6719H14.2969Z" fill="url(#paint6_linear_1846_10265)"/>
<path id="Vector_12" d="M21.6563 14.7188C21.3996 15.8284 20.8195 16.8881 20.1694 17.8125C19.964 18.1045 19.738 18.3938 19.4959 18.6562C19.4071 18.7525 19.2285 18.8814 19.2285 19.027C19.2285 19.1618 19.41 19.2737 19.4921 19.3612C19.717 19.6008 19.9675 19.8413 20.1563 20.1094C20.5177 19.8434 20.817 19.4307 21.0931 19.0781C21.8342 18.1319 22.5945 16.9338 22.8751 15.75L21.6563 14.7188Z" fill="url(#paint7_linear_1846_10265)"/>
<path id="Vector_13" d="M19.125 19.0312C17.8299 20.3264 16.02 21.5459 14.1562 21.7969V21.8438C14.6683 21.9875 15.0306 22.9676 15.5625 22.9375C15.8988 22.9185 16.2885 22.6916 16.5938 22.56C17.512 22.1641 18.393 21.6476 19.1719 21.0182C19.4033 20.8312 20.076 20.4201 20.1131 20.1092C20.151 19.7915 19.3723 19.1859 19.125 19.0312Z" fill="url(#paint8_linear_1846_10265)"/>
</g>
<defs>
<linearGradient id="paint0_linear_1846_10265" x1="12" y1="1" x2="22.5" y2="11" gradientUnits="userSpaceOnUse">
<stop stop-color="#449DFF"/>
<stop offset="1" stop-color="#58BEFF"/>
</linearGradient>
<linearGradient id="paint1_linear_1846_10265" x1="3.375" y1="3.93262" x2="2.5" y2="7.5" gradientUnits="userSpaceOnUse">
<stop stop-color="#449DFF"/>
<stop offset="1" stop-color="#327FFF"/>
</linearGradient>
<linearGradient id="paint2_linear_1846_10265" x1="1.68485" y1="6.60938" x2="1.68485" y2="13.8281" gradientUnits="userSpaceOnUse">
<stop stop-color="#3482FF"/>
<stop offset="1" stop-color="#2568FF"/>
</linearGradient>
<linearGradient id="paint3_linear_1846_10265" x1="7.75781" y1="7.03125" x2="7.5" y2="11" gradientUnits="userSpaceOnUse">
<stop stop-color="#48A3FF"/>
<stop offset="1" stop-color="#296FFF"/>
</linearGradient>
<linearGradient id="paint4_linear_1846_10265" x1="22.6093" y1="10.1719" x2="22.6093" y2="15.75" gradientUnits="userSpaceOnUse">
<stop stop-color="#57BCFF"/>
<stop offset="1" stop-color="#3F95FF"/>
</linearGradient>
<linearGradient id="paint5_linear_1846_10265" x1="1.5" y1="13.5" x2="15" y2="23" gradientUnits="userSpaceOnUse">
<stop stop-color="#2568FF"/>
<stop offset="1" stop-color="#1B58FF"/>
</linearGradient>
<linearGradient id="paint6_linear_1846_10265" x1="15" y1="16" x2="10.5" y2="17" gradientUnits="userSpaceOnUse">
<stop stop-color="#3786FF"/>
<stop offset="1" stop-color="#296FFF"/>
</linearGradient>
<linearGradient id="paint7_linear_1846_10265" x1="21.0518" y1="14.7188" x2="20" y2="20" gradientUnits="userSpaceOnUse">
<stop stop-color="#3F95FF"/>
<stop offset="1" stop-color="#2E78FF"/>
</linearGradient>
<linearGradient id="paint8_linear_1846_10265" x1="19.5" y1="19.5" x2="14.5" y2="23" gradientUnits="userSpaceOnUse">
<stop stop-color="#2E78FF"/>
<stop offset="1" stop-color="#1B58FF"/>
</linearGradient>
<clipPath id="clip0_1846_10265">
<rect width="24" height="24" fill="white"/>
</clipPath>
</defs>
</svg>
