<svg width="16" height="16" viewBox="0 0 16 16" fill="none" xmlns="http://www.w3.org/2000/svg">
<g id="location" clip-path="url(#clip0_1708_1552)">
<path id="Vector" d="M7.25 0V0.0625H7.4375L7.25 0Z" fill="#FEBEB7"/>
<path id="Vector_2" d="M8.00004 14.3125V7.5C4.98852 7.47475 4.98397 2.83781 8.00004 2.8125V0C4.92607 0.00203323 2.3611 2.84348 2.90402 5.9375C3.21948 7.73525 4.48613 9.23806 5.4344 10.75C5.98488 11.6277 6.55079 12.4956 7.09854 13.375C7.32829 13.7437 7.5326 14.2397 8.00004 14.3125Z" fill="#FD3018"/>
<path id="Vector_3" d="M8 0V2.8125C9.982 2.97439 11.1528 5.31469 9.61919 6.80162C9.172 7.23525 8.604 7.422 8 7.5V14.375C8.45781 14.2361 8.629 13.8149 8.875 13.4375C9.42744 12.5901 9.96563 11.732 10.5031 10.875C11.4591 9.35075 12.778 7.81219 13.096 6C13.6441 2.87663 11.1303 0.00207043 8 0Z" fill="#E61E14"/>
<path id="Vector_4" d="M8.5625 0V0.0625H8.75L8.5625 0Z" fill="#F68C84"/>
<path id="Vector_5" d="M6.9375 0.0625V0.125H7.125L6.9375 0.0625Z" fill="#FE9286"/>
<path id="Vector_6" d="M7.5 2.8125V2.875H7.6875L7.5 2.8125Z" fill="#FE8374"/>
<path id="Vector_7" d="M8.125 2.8125V2.875H8.3125L8.125 2.8125Z" fill="#FBB9B4"/>
<path id="Vector_8" d="M2.875 4.25V4.5H2.9375L2.875 4.25Z" fill="#FD624F"/>
<path id="Vector_9" d="M2.8125 4.625V5.5625H2.875L2.8125 4.625Z" fill="#FE998D"/>
<path id="Vector_10" d="M13.125 4.625V4.875H13.1875L13.125 4.625Z" fill="#F7887F"/>
<path id="Vector_11" d="M5.625 4.875V5.4375H5.6875L5.625 4.875Z" fill="#FE8D80"/>
<path id="Vector_12" d="M10.3125 4.875V5.4375H10.375L10.3125 4.875Z" fill="#F1574C"/>
<path id="Vector_13" d="M13.125 4.875V5.4375H13.1875L13.125 4.875Z" fill="#F25D52"/>
<path id="Vector_14" d="M13.125 5.4375V5.625H13.1875L13.125 5.4375Z" fill="#F79B92"/>
<path id="Vector_15" d="M2.9375 6.1875V6.375H3L2.9375 6.1875Z" fill="#FE968A"/>
<path id="Vector_16" d="M5.0625 10.5625V10.625H5.3125L5.0625 10.5625Z" fill="#94E98D"/>
<path id="Vector_17" d="M8.00016 16V14.375C7.54778 14.1623 7.31572 13.6584 7.05953 13.25C6.50072 12.359 5.86935 11.4909 5.37516 10.5625C4.62163 10.744 3.85701 10.8351 3.12516 11.1051C1.86322 11.5705 0.106475 12.8988 1.46515 14.2858C1.67949 14.5046 1.92333 14.6831 2.18766 14.8365C3.86648 15.8109 6.09895 16 8.00016 16Z" fill="#61DE56"/>
<path id="Vector_18" d="M8.00021 15.9999C9.0229 15.9999 10.0562 15.9049 11.0627 15.7234C12.3047 15.4993 14.6513 15.0547 14.9758 13.5624C15.3313 11.9277 13.302 11.1689 12.0627 10.8517C11.7389 10.7689 11.0105 10.4806 10.6993 10.6322C10.4225 10.7671 10.2255 11.2485 10.066 11.4999C9.61646 12.2087 9.15971 12.9134 8.71421 13.6249C8.53627 13.9091 8.16777 14.1799 8.03789 14.4617C7.85896 14.8497 8.00021 15.5746 8.00021 15.9999Z" fill="#13C37B"/>
<path id="Vector_19" d="M4.4375 10.6875V10.75H4.625L4.4375 10.6875Z" fill="#B1EFAB"/>
<path id="Vector_20" d="M0.9375 12.9375V13.4375H1L0.9375 12.9375Z" fill="#B3EFAE"/>
<path id="Vector_21" d="M15 12.9375V13.4375H15.0625L15 12.9375Z" fill="#67DA96"/>
<path id="Vector_22" d="M7.8125 14.3125V14.375H8L7.8125 14.3125Z" fill="#BA7B33"/>
<path id="Vector_23" d="M11.375 15.625V15.6875H11.5625L11.375 15.625Z" fill="#84E2A7"/>
<path id="Vector_24" d="M4.8125 15.6875V15.75H5L4.8125 15.6875Z" fill="#A2EC9C"/>
<path id="Vector_25" d="M11.0625 15.6875V15.75H11.25L11.0625 15.6875Z" fill="#7AE0A2"/>
<path id="Vector_26" d="M10.6875 15.75V15.8125H10.875L10.6875 15.75Z" fill="#6ADB97"/>
<path id="Vector_27" d="M5.5 15.8125V15.875H5.75L5.5 15.8125Z" fill="#A0EB99"/>
<path id="Vector_28" d="M6 15.875V15.9375H6.375L6 15.875Z" fill="#9BEA94"/>
<path id="Vector_29" d="M9.75 15.875V15.9375H9.9375L9.75 15.875Z" fill="#6EDC9A"/>
<path id="Vector_30" d="M6.5625 15.9375V16H7L6.5625 15.9375Z" fill="#CCF4C8"/>
<path id="Vector_31" d="M8.6875 15.9375V16H9.25L8.6875 15.9375Z" fill="#4CD288"/>
</g>
<defs>
<clipPath id="clip0_1708_1552">
<rect width="16" height="16" fill="white"/>
</clipPath>
</defs>
</svg>
