<svg xmlns="http://www.w3.org/2000/svg" version="1.1" xmlns:xlink="http://www.w3.org/1999/xlink" width="512" height="512" x="0" y="0" viewBox="0 0 512 512" style="enable-background:new 0 0 512 512" xml:space="preserve" class=""><g><path d="M472 280c-10.285 0-18.285 6.957-21.023 9.688L413.785 312H384a8 8 0 0 0-8 8v16h-17.223l-6.886-41.316a8 8 0 0 0-15.782 2.632L342.557 336h-23.62l-5.832-40.836a24 24 0 0 0-13.027-18.07l-24.5-12.25A8 8 0 0 0 272 264h-32a8 8 0 0 0-3.578.844l-24.5 12.25a24 24 0 0 0-13.022 18.074L193.063 336h-23.62l6.448-38.684a8 8 0 1 0-15.782-2.632L153.223 336H136v-16a8 8 0 0 0-8-8H98.215l-37.192-22.312C58.285 286.957 50.285 280 40 280a24.027 24.027 0 0 0-24 24v96a8 8 0 0 0 5.469 7.59l2.531.844V464h-8v16h480v-16h-8v-71.3l3.152-1.351A8 8 0 0 0 496 384v-80a24.027 24.027 0 0 0-24-24Zm-72 150.873L418.4 464H400ZM400 352h24a8 8 0 0 0 3.578-.844L448 340.945v14.621l-48 30Zm-185.27-54.562a8.014 8.014 0 0 1 4.348-6.032L241.887 280h28.226l22.813 11.406a8.018 8.018 0 0 1 4.344 6.028L302.777 336H288v-32a8 8 0 0 0-8-8h-48a8 8 0 0 0-8 8v32h-14.777ZM272 336h-32v-24h32Zm112 16v16H128v-16Zm-80 33.371V384h48v80h-70.938l6.536-52.285 9.371-9.371A23.841 23.841 0 0 0 304 385.371Zm-88.969 16.973 9.371 9.371L230.938 464H160v-80h48v1.371a23.841 23.841 0 0 0 7.031 16.973ZM112 417.49l-8.336-27.79a8.006 8.006 0 0 0-3.547-4.562L64 363.469v-22.524l20.422 10.211A8 8 0 0 0 88 352h24Zm-72-3.724 25.469 8.488L77.4 464H40ZM94.035 464l-14.344-50.2a8 8 0 0 0-5.16-5.391L32 394.234V304a8.011 8.011 0 0 1 8-8c4.188 0 8.793 3.98 10.039 5.336a7.912 7.912 0 0 0 1.844 1.523l40 24A8.014 8.014 0 0 0 96 328h24v8H89.887l-30.309-15.156A8 8 0 0 0 48 328v40a8 8 0 0 0 3.883 6.859l37.344 22.407L109.246 464ZM128 464v-80h16v80Zm119.062 0-7.125-56.992a7.98 7.98 0 0 0-2.281-4.664l-11.312-11.313a7.951 7.951 0 0 1-2.344-5.66V384h64v1.371a7.951 7.951 0 0 1-2.344 5.66l-11.312 11.313a7.987 7.987 0 0 0-2.282 4.664L264.937 464ZM368 464v-80h16v80Zm68.707 0-34.023-61.242 57.554-35.973A8.006 8.006 0 0 0 464 360v-32a8 8 0 0 0-11.578-7.156L422.113 336H392v-8h24a8.014 8.014 0 0 0 4.117-1.141l40-24a7.912 7.912 0 0 0 1.844-1.523C462.969 300.211 467.633 296 472 296a8.011 8.011 0 0 1 8 8v74.727l-51.152 21.921a8 8 0 0 0-4.61 9.293L437.754 464ZM472 464h-17.753l-12.833-51.332L472 399.56ZM280 134.629V160a8 8 0 0 0 12.437 6.656l27.963-18.645A23.986 23.986 0 0 0 344 168h29.578l45.984 30.656A8 8 0 0 0 432 192v-25.371A24.041 24.041 0 0 0 448 144V96a24.027 24.027 0 0 0-24-24h-32v-8a24.027 24.027 0 0 0-24-24h-80a24.027 24.027 0 0 0-24 24v48a24.04 24.04 0 0 0 16 22.629ZM424 88a8.011 8.011 0 0 1 8 8v48a8.011 8.011 0 0 1-8 8 8 8 0 0 0-8 8v17.051l-35.563-23.707A8.005 8.005 0 0 0 376 152h-32a8.011 8.011 0 0 1-8-8v-6.385l2.422-1.615H368a24.027 24.027 0 0 0 24-24V88Zm-88 32V96a8.011 8.011 0 0 1 8-8h32v24a8.011 8.011 0 0 1-8 8Zm-56-56a8.011 8.011 0 0 1 8-8h80a8.011 8.011 0 0 1 8 8v8h-32a24.027 24.027 0 0 0-24 24v33.052l-24 16V128a8 8 0 0 0-8-8 8.011 8.011 0 0 1-8-8ZM56 160v24a8 8 0 0 0 12.438 6.656L114.422 160H152a24.027 24.027 0 0 0 24-24V88a24.027 24.027 0 0 0-24-24H56a24.027 24.027 0 0 0-24 24v48a24.027 24.027 0 0 0 24 24Zm-8-72a8.011 8.011 0 0 1 8-8h96a8.011 8.011 0 0 1 8 8v48a8.011 8.011 0 0 1-8 8h-40a8.011 8.011 0 0 0-4.438 1.344L72 169.051V152a8 8 0 0 0-8-8h-8a8.011 8.011 0 0 1-8-8Z" fill="#000000" opacity="1" data-original="#000000" class=""></path><path d="M64 104h16v16H64zM96 104h16v16H96zM128 104h16v16h-16zM256 256a32 32 0 1 0-32-32 32.036 32.036 0 0 0 32 32Zm0-48a16 16 0 1 1-16 16 16.016 16.016 0 0 1 16-16ZM432 240a32 32 0 1 0 32-32 32.036 32.036 0 0 0-32 32Zm32-16a16 16 0 1 1-16 16 16.016 16.016 0 0 1 16-16ZM48 272a32 32 0 1 0-32-32 32.036 32.036 0 0 0 32 32Zm0-48a16 16 0 1 1-16 16 16.016 16.016 0 0 1 16-16Z" fill="#000000" opacity="1" data-original="#000000" class=""></path></g></svg>