<svg xmlns="http://www.w3.org/2000/svg" version="1.1" xmlns:xlink="http://www.w3.org/1999/xlink" width="24" height="24" x="0" y="0" viewBox="0 0 23.297 23.297" style="enable-background:new 0 0 512 512" xml:space="preserve" class=""><g><path fill="#f9cfac" d="m22.89 13.931 -7.038 7.366a6.75 6.75 0 0 1 -4.773 1.977h-1.329c-3.417 0 -6.188 -2.77 -6.188 -6.188 0 -1.647 -0.434 -3.264 -1.257 -4.69l-2.105 -3.645c-0.322 -0.558 -0.246 -1.241 0.149 -1.712 0.662 -0.792 1.924 -0.697 2.45 0.212 3.063 5.305 -0.484 -0.838 2.997 5.191 -2.398 -8.951 -2.388 -8.688 -2.303 -9.173 0 -0.049 0.061 -0.291 0.146 -0.46 0.691 -1.419 2.749 -1.196 3.15 0.297l2.211 8.253c0 -10.221 -0.007 -9.704 0.014 -9.862 0.117 -0.876 0.881 -1.47 1.587 -1.47 0.978 -0.048 1.774 0.729 1.774 1.685v9.938c2.821 -9.841 2.587 -9.151 2.796 -9.469 0.439 -0.696 1.432 -0.987 2.223 -0.544 0.628 0.315 1.024 1.124 0.813 1.913l-2.457 9.17v1.994c0 0.668 0.808 1.003 1.28 0.531 2.269 -2.626 2.066 -2.398 2.175 -2.5 1.174 -1.088 2.77 -1.248 3.298 -0.984 0.834 0.359 1.087 1.47 0.388 2.17" opacity="1" data-original="#f9cfac"/><path fill="#ffe4cc" d="m23.206 12.493 -8.045 8.35a6.747 6.747 0 0 1 -3.591 1.626c-4.187 0.544 -7.258 -2.558 -7.258 -6.131 0 -1.647 -0.434 -3.264 -1.257 -4.69 -2.839 -4.829 -2.674 -4.546 -2.706 -4.608a1.499 1.499 0 0 1 1.549 -0.484c0.325 0.089 0.511 0.238 0.723 0.449 1.593 2.668 3.18 5.438 3.175 5.438 0.402 0 0.695 -0.381 0.591 -0.77C4.148 3.317 4.254 3.836 4.269 3.476c0.013 -0.528 0.321 -1.09 0.825 -1.383 0.211 -0.124 0.445 -0.189 0.465 -0.189 0.579 0.141 1.065 0.586 1.231 1.203l2.211 8.253c0 -10.584 -0.011 -9.724 0.026 -9.945 0.046 -0.253 0.152 -0.492 0.274 -0.663 0.145 -0.212 0.34 -0.366 0.345 -0.366 1.144 -0.882 2.73 -0.046 2.73 1.328v9.938c2.737 -9.547 2.59 -9.045 2.616 -9.111 0.4 -1.139 1.925 -1.538 2.833 -0.563 0.058 0.065 0.259 -0.799 -2.823 10.885v1.994c0 0.574 0.64 1.127 1.38 0.84 0.497 -0.194 0.775 -0.594 1.156 -1.035 1.713 -1.983 1.509 -1.75 1.628 -1.875a4.045 4.045 0 0 1 1.895 -1.03c0.314 -0.072 0.811 -0.136 1.115 -0.089a1.324 1.324 0 0 1 0.945 0.647c0.053 0.089 0.085 0.176 0.087 0.181" opacity="1" data-original="#ffe4cc"/><path fill="#f9cfac" d="M10.5 21.353a0.375 0.375 0 0 1 -0.375 -0.375c0 -2.995 2.236 -5.552 5.2 -5.947 0.206 -0.027 0.394 0.117 0.421 0.322a0.375 0.375 0 0 1 -0.322 0.421c-2.594 0.345 -4.55 2.583 -4.55 5.204a0.375 0.375 0 0 1 -0.375 0.375" opacity="1" data-original="#f9cfac"/></g></svg>