<svg xmlns="http://www.w3.org/2000/svg" version="1.1" xmlns:xlink="http://www.w3.org/1999/xlink" width="512" height="512" x="0" y="0" viewBox="0 0 64 64" style="enable-background:new 0 0 512 512" xml:space="preserve" class=""><g><linearGradient id="a" x1="4.98" x2="59.02" y1="32" y2="32" gradientUnits="userSpaceOnUse"><stop offset="0" stop-color="#ffde00"></stop><stop offset="1" stop-color="#fd5900"></stop></linearGradient><path fill="url(#a)" d="M59.02 18.887v14.56a3.092 3.092 0 0 1-2.757 3.063l-10.889 1.14a1 1 0 0 1-.208-1.988l10.88-1.14a1.091 1.091 0 0 0 .974-1.076v-14.56a1.081 1.081 0 0 0-1.08-1.08h-4.66a1 1 0 0 1 0-2h4.66a3.084 3.084 0 0 1 3.08 3.08zm-2.839 29.777H22.163a2.598 2.598 0 0 1 0-5.196h8.818a1 1 0 1 0 0-2h-4.022v-1.879l14.416-1.519a1 1 0 0 0-.21-1.988s-20.002 2.107-20.022 2.11a1.091 1.091 0 0 1-1.155-.807l-5.093-19.581h12.15l-.327 2.504a1 1 0 0 0 1.984.258l.61-4.686a1.896 1.896 0 0 1 1.85-1.65v2.165a1 1 0 1 0 2 0v-6.207a4.21 4.21 0 1 1 8.422 0v2.039H35.59a1 1 0 0 0 0 2h7.96a1.912 1.912 0 0 1 1.889 1.659l1.64 12.601a1.898 1.898 0 0 1-1.889 2.15H29.56a1.92 1.92 0 0 1-1.898-2.152l.51-3.92a1 1 0 0 0-1.983-.257l-.511 3.924a3.935 3.935 0 0 0 3.882 4.405h15.63a3.923 3.923 0 0 0 3.872-4.41l-1.64-12.6a3.915 3.915 0 0 0-3.838-3.397v-2.042c-.29-8.213-12.127-8.226-12.421 0v2.042a3.898 3.898 0 0 0-3.835 3.398l-.023.177-12.93-.001-.317-1.218a4.614 4.614 0 0 0-2.783-3.14l-4.93-1.93a1 1 0 1 0-.73 1.861l4.933 1.932a2.613 2.613 0 0 1 1.574 1.78l5.93 22.802a3.08 3.08 0 0 0 3.293 2.29l3.614-.38v1.667h-2.796a4.598 4.598 0 0 0 0 9.196H56.18a1 1 0 0 0 0-2zM26.484 59.977a4.017 4.017 0 0 1 0-8.034 4.017 4.017 0 0 1 0 8.034zm0-6.034a2.017 2.017 0 0 0 0 4.034 2.017 2.017 0 0 0 0-4.034zm21.779 6.034a4.017 4.017 0 0 1 0-8.034 4.017 4.017 0 0 1 0 8.034zm0-6.034a2.017 2.017 0 0 0 0 4.034 2.017 2.017 0 0 0 0-4.034zM36.796 25.285a1 1 0 0 0 .703-.289l4.473-4.424a1 1 0 1 0-1.406-1.421l-3.843 3.8-1.638-1.302a1 1 0 0 0-1.245 1.566l2.333 1.853a.997.997 0 0 0 .623.217z" opacity="1" data-original="url(#a)"></path></g></svg>