<svg width="24" height="24" viewBox="0 0 24 24" fill="none" xmlns="http://www.w3.org/2000/svg">
<g id="setting " clip-path="url(#clip0_1846_6250)">
<path id="Vector" d="M9.46827 6.09375C9.01827 6.17395 8.50344 6.789 8.08902 6.77193C7.89838 6.76406 7.66091 6.56151 7.49952 6.46875C7.08261 6.22912 6.6816 5.976 6.18702 5.95495C5.10214 5.90878 4.60922 6.71006 4.13157 7.54687C3.75644 8.20411 3.43364 8.78859 3.65219 9.5625C3.82408 10.1712 4.30737 10.4985 4.82764 10.7944C5.06094 10.9271 5.51778 11.0761 5.52383 11.3913C5.52941 11.6824 5.62386 12.5508 5.48253 12.7791C5.35386 12.987 4.98711 13.1143 4.78077 13.2319C4.29112 13.5109 3.84417 13.8275 3.66608 14.3906C3.4175 15.1767 3.74941 15.7836 4.13157 16.4531C4.60922 17.2899 5.10214 18.0912 6.18702 18.045C6.68155 18.024 7.08261 17.7709 7.49952 17.5312C7.6641 17.4367 7.90082 17.236 8.09553 17.2281C8.5048 17.2115 9.02122 17.8266 9.46827 17.9062C9.46827 18.6029 9.34367 19.4218 9.66856 20.0625C10.2225 21.1549 12.0353 21.3711 12.9236 20.5491C13.4254 20.0848 13.4995 19.4909 13.4995 18.8437C13.4995 18.603 13.4305 18.2337 13.5278 18.01C13.6038 17.8353 13.8608 17.7644 14.0151 17.6783C14.4001 17.4636 14.7616 17.2109 15.1401 16.9859C15.5012 16.7714 15.8239 17.1315 16.1245 17.3149C16.9705 17.831 17.7377 18.2547 18.3996 17.2031C18.9326 16.3564 19.7305 15.2834 19.25 14.25C18.8763 13.4464 17.9992 13.4376 17.5122 12.8255C17.4065 12.6926 17.4615 12.5272 17.4759 12.375C17.5085 12.0307 17.3923 11.6292 17.4561 11.2989C17.4973 11.0857 17.7846 10.9837 17.9526 10.8882C18.3491 10.6626 18.769 10.4466 19.0528 10.0781C19.8765 9.009 18.9875 7.35122 18.1827 6.5175C17.963 6.29001 17.6633 6.20437 17.437 6C16.9292 6.17292 16.4303 6.47878 15.9839 6.77419C15.7975 6.89756 15.5241 7.15978 15.2808 7.08595C14.8443 6.95362 14.4231 6.53325 14.0151 6.31786C13.8596 6.23569 13.6036 6.16434 13.5278 5.99001C13.4353 5.77748 13.4995 5.43159 13.4995 5.20312C13.4995 4.54264 13.4668 3.98279 12.9638 3.48936C12.124 2.66542 10.312 2.80279 9.71849 3.84375C9.33931 4.5088 9.46827 5.3572 9.46827 6.09375Z" fill="#5C6BC0"/>
<path id="Vector_2" d="M11.9531 3V3.04688C12.7418 3.11138 13.4618 3.8409 13.4982 4.64062C13.5157 5.0272 13.3629 5.67712 13.5283 6.02859C13.6231 6.2303 14.0193 6.34139 14.2031 6.45014C14.498 6.62461 15.0304 7.13695 15.375 7.12889C15.5685 7.12434 15.7824 6.94608 15.9375 6.84375C15.5946 6.57361 14.7935 6.35147 14.5794 5.98997C14.3638 5.62589 14.5763 4.91663 14.5107 4.5C14.2905 3.10218 13.1035 3 11.9531 3Z" fill="#3F51B5"/>
<path id="Vector_3" d="M17.4375 5.99994C17.6108 6.23638 17.9708 6.33791 18.1831 6.56315C18.8309 7.25024 19.6025 8.56054 19.3107 9.51557C19.1339 10.0941 18.6851 10.4279 18.1875 10.7249C17.9847 10.8459 17.6144 10.9698 17.4857 11.1745C17.3955 11.3179 17.4696 11.5165 17.4802 11.6718C17.5028 12.0022 17.4276 12.3303 17.4421 12.6555C17.4541 12.9246 17.7503 13.0225 17.9531 13.1381C18.3728 13.3772 18.8006 13.6141 19.088 14.0156C19.9945 15.2818 18.5602 17.3988 17.3906 17.9531C18.8752 18.6665 20.233 16.3677 20.4169 15.1874C20.5368 14.4181 20.0839 13.75 19.4531 13.3689C19.2006 13.2163 18.5161 12.9799 18.4776 12.6542C18.4403 12.3402 18.5335 11.9945 18.5114 11.6718C18.5017 11.5292 18.4365 11.353 18.5171 11.2208C18.6438 11.0131 19.0135 10.885 19.2188 10.768C19.6844 10.5027 20.0966 10.2211 20.3003 9.70307C20.598 8.94613 20.3068 8.29508 19.9224 7.64057C19.3 6.58091 18.7768 5.83068 17.4375 5.99994Z" fill="#3F51B5"/>
<path id="Vector_4" d="M11.5781 8.48438V8.53125C12.5776 8.96128 13.4332 9.24998 14.0214 10.2656C15.1876 12.2789 13.9601 15.1011 11.5781 15.4219V15.5156C12.7789 15.5156 13.836 15.2242 14.6637 14.2969C16.0773 12.7132 15.6544 10.0032 13.7812 8.96775C13.0757 8.57775 12.3709 8.48438 11.5781 8.48438Z" fill="#C5CAE9"/>
<path id="Vector_5" d="M11.4378 8.55299C9.22811 8.74654 8.062 11.2247 8.70367 13.1718C9.04661 14.2125 10.2724 15.5335 11.4847 15.4587C13.8118 15.3151 15.1404 12.4739 14.168 10.4999C13.7156 9.58148 12.5713 8.45376 11.4378 8.55299Z" fill="#E8EAF6"/>
<path id="Vector_6" d="M8.48438 11.5781V12.3281H8.53125L8.48438 11.5781Z" fill="#B8BEE3"/>
<path id="Vector_7" d="M11.9531 20.9532V21.0001C12.3447 21.0001 12.788 21.0577 13.1719 20.9758C14.6689 20.6564 14.5312 19.0805 14.5312 17.9063C15.0226 17.8187 15.5443 17.4525 15.9375 17.1563C15.7824 17.054 15.5685 16.8757 15.375 16.8712C15.0315 16.8632 14.4952 17.3659 14.2031 17.5407C14.0212 17.6496 13.6217 17.7728 13.5283 17.9715C13.3785 18.29 13.5136 18.8692 13.4982 19.2188C13.4602 20.0769 12.8415 20.8805 11.9531 20.9532Z" fill="#3F51B5"/>
</g>
<defs>
<clipPath id="clip0_1846_6250">
<rect width="24" height="24" fill="white"/>
</clipPath>
</defs>
</svg>
