<svg xmlns="http://www.w3.org/2000/svg" version="1.1" xmlns:xlink="http://www.w3.org/1999/xlink" width="512" height="512" x="0" y="0" viewBox="0 0 32 32" style="enable-background:new 0 0 512 512" xml:space="preserve"><g><path d="m29.086 24.672-4.379-4.379a1 1 0 0 0-1.414 0l-.293.293-1.12-1.12A10.927 10.927 0 0 0 24 13c0-6.065-4.935-11-11-11S2 6.935 2 13s4.935 11 11 11c2.418 0 4.648-.793 6.466-2.12l1.12 1.12-.293.293a1 1 0 0 0 0 1.414l4.379 4.379c.589.59 1.373.914 2.207.914.833 0 1.617-.324 2.207-.914a3.125 3.125 0 0 0 0-4.414zM4 13c0-4.963 4.037-9 9-9s9 4.037 9 9-4.037 9-9 9-9-4.037-9-9zm23.672 14.67a1.147 1.147 0 0 1-1.586.002L22.414 24 24 22.414l3.672 3.672a1.123 1.123 0 0 1 0 1.585z" fill="#000000" opacity="1" data-original="#000000"></path><path d="M21 15v-4c0-.4-.238-.762-.606-.919l-7-3a1.002 1.002 0 0 0-.788 0l-7 3a.999.999 0 0 0 0 1.838l2.404 1.03c0 .018-.01.033-.01.051v3a1 1 0 0 0 .553.895l4 2a1 1 0 0 0 .894 0l4-2A1 1 0 0 0 18 16v-3c0-.018-.01-.033-.01-.05l1.01-.434V15a1 1 0 1 0 2 0zm-8-5.912L17.46 11 13 12.912 8.54 11zm3 6.294-3 1.5-3-1.5v-1.58l2.606 1.117a1 1 0 0 0 .788 0L16 13.802z" fill="#000000" opacity="1" data-original="#000000"></path></g></svg>