<svg id="vector" xmlns="http://www.w3.org/2000/svg" width="24" height="24" viewBox="0 0 100 100"><g id="group"><path fill="#000000" d="M 32.823 5.21 L 67.209 5.21 C 68.866 5.21 70.458 5.869 71.63 7.041 C 72.802 8.213 73.461 9.805 73.461 11.462 L 73.461 88.57 C 73.461 90.227 72.802 91.819 71.63 92.991 C 70.458 94.163 68.866 94.822 67.209 94.822 L 32.823 94.822 C 31.166 94.822 29.574 94.163 28.402 92.991 C 27.23 91.819 26.571 90.227 26.571 88.57 L 26.571 11.462 C 26.571 9.805 27.23 8.213 28.402 7.041 C 29.574 5.869 31.166 5.21 32.823 5.21 Z" stroke-width="0.520999968"/><path fill="#545454" d="M 32.823 5.21 L 67.209 5.21 C 68.866 5.21 70.458 5.869 71.63 7.041 C 72.802 8.213 73.461 9.805 73.461 11.462 L 73.461 88.57 C 73.461 90.227 72.802 91.819 71.63 92.991 C 70.458 94.163 68.866 94.822 67.209 94.822 L 32.823 94.822 C 31.166 94.822 29.574 94.163 28.402 92.991 C 27.23 91.819 26.571 90.227 26.571 88.57 L 26.571 11.462 C 26.571 9.805 27.23 8.213 28.402 7.041 C 29.574 5.869 31.166 5.21 32.823 5.21 Z M 35.949 13.025 C 34.292 13.025 32.7 13.684 31.528 14.856 C 30.356 16.028 29.697 17.62 29.697 19.277 L 29.697 80.755 C 29.697 82.412 30.356 84.004 31.528 85.176 C 32.7 86.348 34.292 87.007 35.949 87.007 L 64.083 87.007 C 65.74 87.007 67.332 86.348 68.504 85.176 C 69.676 84.004 70.335 82.412 70.335 80.755 L 70.335 19.277 C 70.335 17.62 69.676 16.028 68.504 14.856 C 67.332 13.684 65.74 13.025 64.083 13.025 Z" stroke-width="0.520999968"/></g></svg>