<svg id="vector" xmlns="http://www.w3.org/2000/svg" width="24" height="24" viewBox="0 0 340 340"><g id="group"><path fill="#dde5f4" d="M 318.586 28.226 C 316.917 28.226 315.312 28.883 314.122 30.053 C 312.931 31.224 312.248 32.817 312.219 34.486 L 309.927 169.686 L 327.246 169.686 L 324.953 34.486 C 324.925 32.817 324.241 31.223 323.051 30.053 C 321.86 28.882 320.256 28.226 318.586 28.226 Z" stroke-width="1"/><path fill="#ffd4ca" d="M 287.528 192.289 C 292.112 183.885 297.283 175.814 303 168.136 C 304.915 165.61 307.512 163.681 310.483 162.577 C 313.455 161.472 316.681 161.238 319.781 161.9 C 322.881 162.563 325.729 164.096 327.99 166.319 C 329.258 167.566 330.539 168.904 331.79 170.327 C 334.253 173.092 335.733 176.595 335.997 180.288 C 336.262 183.981 335.297 187.66 333.254 190.748 L 315.183 217.889 C 315.183 217.889 295.8 208.385 287.528 192.289 Z" stroke-width="1"/><path fill="#464659" d="M 130.667 330 L 152.592 330 C 163.007 327.339 173.927 327.339 184.342 330 L 206.268 330 L 211.962 302.49 L 125.293 302.49 Z" stroke-width="1"/><path fill="#ffc676" d="M 152.592 306.97 L 184.341 306.97 L 184.341 330 L 152.592 330 Z" stroke-width="1"/><path fill="#ffffff" d="M 136.057 145.677 L 200.877 145.677 C 200.877 145.677 210.877 211.697 210.554 307.677 C 210.554 307.677 174.416 315.512 125.721 307.677 C 125.721 307.681 118.367 236.69 136.057 145.677 Z" stroke-width="1"/><path fill="#dde5f4" d="M 210.554 307.681 C 210.562 305.454 210.562 303.25 210.554 301.056 C 192.138 301.756 179.181 300.101 170.743 298.222 C 167.192 297.432 164.047 295.375 161.899 292.439 C 159.751 289.502 158.744 285.882 159.067 282.258 L 169.367 166.306 L 156.959 145.677 L 136.057 145.677 C 118.367 236.69 125.721 307.677 125.721 307.677 C 174.416 315.516 210.554 307.681 210.554 307.681 Z" stroke-width="1"/><path fill="#dde5f4" d="M 200.877 145.677 L 136.057 145.677 Q 134.613 153.11 133.39 160.352 C 134.402 162.209 141.704 175.2 151.659 182.352 L 168.279 170 L 183.979 182.35 C 183.979 182.35 194.169 177.336 203.131 163.463 C 201.829 151.963 200.877 145.677 200.877 145.677 Z" stroke-width="1"/><path fill="#7ba7ec" d="M 155.6 233.875 L 152.587 270.341 L 168.462 285.936 L 184.337 270.341 L 178.27 196.917 C 169.172 206.293 161.694 218.762 155.6 233.875 Z" stroke-width="1"/><path fill="#6c83d6" d="M 178.275 196.917 L 174.545 151.765 L 162.39 151.765 L 155.605 233.875 L 178.275 196.917 Z" stroke-width="1"/><path fill="#ffffff" d="M 186.2 135.319 L 150.735 135.319 L 136.057 145.677 C 140.177 154.512 145.634 162.661 152.235 169.835 L 168.467 154.63 L 184.7 169.835 C 191.301 162.661 196.758 154.512 200.878 145.677 Z" stroke-width="1"/><path fill="#ffd4ca" d="M 150.735 125.2 L 150.735 135.319 L 168.467 154.63 L 186.199 135.319 L 186.199 125.884 L 150.735 125.2 Z" stroke-width="1"/><path fill="#f99c9c" d="M 150.735 125.2 C 162.941 130.819 178.629 130.918 186.199 125.884 L 186.199 112.784 L 150.735 112.784 Z" stroke-width="1"/><path fill="#e0898d" d="M 136.057 145.677 C 136.057 145.677 135.113 171.777 133.983 207.037 C 129.871 223.664 129.883 242.063 132.334 261.508 C 131.667 285.088 131.06 309.062 130.667 330 L 91.743 329.982 C 91.743 329.982 84.843 272.374 91.597 218.851 C 92.697 210.104 93.708 201.467 94.56 193.208 C 95.22 186.79 97.252 180.587 100.517 175.022 C 103.783 169.457 108.207 164.659 113.488 160.952 C 120.846 155.791 129.321 149.968 136.057 145.677 Z" stroke-width="1"/><path fill="#b45f6d" d="M 132.334 261.508 C 132.634 250.808 132.952 240.187 133.265 229.967 L 94.831 225.637 L 90.6 226.584 C 83.878 277.774 74.532 329.974 74.532 329.974 L 92.488 329.983 C 94.735 329.984 96.944 329.393 98.891 328.27 C 100.838 327.147 102.455 325.531 103.579 323.585 C 104.703 321.639 105.295 319.43 105.295 317.183 L 105.295 275.683 C 112.538 269.283 112.258 259.542 112.258 259.542 C 119.054 258.518 127.551 260.269 132.334 261.508 Z" stroke-width="1"/><path fill="#e0898d" d="M 287.528 192.289 L 267.52 222.2 L 233.127 173.121 C 227.928 165.694 221.409 159.283 213.897 154.208 C 210.266 151.757 205.882 148.861 200.877 145.673 C 200.877 145.673 204.887 256.527 206.268 329.996 L 235.254 329.996 C 235.254 329.996 234.068 290.034 231.696 245.401 L 262.377 270.112 C 264.362 271.71 266.753 272.725 269.282 273.041 C 271.81 273.358 274.378 272.963 276.695 271.903 C 279.012 270.843 280.989 269.158 282.403 267.038 L 315.185 217.885 Z" stroke-width="1"/><path fill="#ffffff" d="M 3.964 207.17 C 3.964 207.17 54.178 186.857 74.532 232.512 L 19.053 226.321 C 19.053 226.321 14.8 212.78 3.964 207.17 Z M 145.1 207.17 C 145.1 207.17 94.886 186.857 74.532 232.512 L 133.752 228.42 C 133.752 228.42 134.266 212.78 145.1 207.17 Z" stroke-width="1"/><path fill="#ffc676" d="M 74.532 232.512 C 74.532 232.512 48.826 209.469 8.1 226.99 C 7.16 227.397 6.358 228.071 5.796 228.928 C 5.234 229.784 4.934 230.787 4.935 231.812 L 4.935 248.171 C 4.934 248.818 5.155 249.446 5.561 249.949 C 5.966 250.453 6.533 250.802 7.166 250.938 C 7.798 251.074 8.458 250.988 9.035 250.696 C 18.712 245.756 44.441 235.662 74.535 248.568 C 104.635 235.662 130.36 245.756 140.035 250.696 C 140.612 250.988 141.272 251.074 141.904 250.938 C 142.537 250.802 143.104 250.453 143.509 249.949 C 143.915 249.446 144.136 248.818 144.135 248.171 L 144.135 231.812 C 144.136 230.787 143.836 229.784 143.274 228.928 C 142.712 228.071 141.91 227.397 140.97 226.99 C 100.237 209.469 74.532 232.512 74.532 232.512 Z" stroke-width="1"/><path fill="#e0898d" d="M 57.4 264.213 L 57.4 311.913 C 57.4 315.088 58.236 318.207 59.823 320.957 C 61.41 323.707 63.694 325.99 66.444 327.577 C 69.193 329.165 72.313 330 75.488 330 C 80.283 330 84.886 328.093 88.277 324.703 C 91.667 321.312 93.574 316.709 93.574 311.914 L 93.574 258.083 Z" stroke-width="1"/><path fill="#ffd4ca" d="M 62.439 241.868 L 86.625 241.868 C 90.597 241.868 94.41 243.448 97.219 246.256 C 100.027 249.065 101.607 252.878 101.607 256.85 C 101.607 261.843 99.621 266.637 96.09 270.168 C 92.559 273.699 87.765 275.685 82.772 275.685 L 66.291 275.685 C 61.298 275.685 56.504 273.699 52.973 270.168 C 49.442 266.637 47.456 261.843 47.456 256.85 C 47.456 252.878 49.036 249.065 51.844 246.256 C 54.653 243.448 58.466 241.868 62.438 241.868 Z" stroke-width="1"/><path fill="#f99c9c" d="M 126.326 71.629 L 136.561 71.629 L 136.561 98.956 L 126.326 98.956 C 124.317 98.956 122.343 98.427 120.603 97.423 C 118.864 96.418 117.419 94.973 116.414 93.234 C 115.41 91.494 114.881 89.52 114.881 87.511 L 114.881 83.074 C 114.881 80.04 116.088 77.127 118.233 74.981 C 120.379 72.836 123.292 71.629 126.326 71.629 Z M 207.069 98.956 L 196.834 98.956 L 196.834 71.629 L 207.069 71.629 C 209.078 71.629 211.052 72.158 212.792 73.162 C 214.531 74.167 215.976 75.612 216.981 77.352 C 217.985 79.091 218.514 81.065 218.514 83.074 L 218.514 87.511 C 218.514 89.52 217.985 91.494 216.981 93.234 C 215.976 94.973 214.531 96.418 212.792 97.423 C 211.052 98.427 209.078 98.956 207.069 98.956 Z" stroke-width="1"/><path fill="#595975" d="M 140.386 25.455 C 136.274 24.867 132.079 25.386 128.235 26.959 C 124.39 28.531 121.034 31.1 118.512 34.4 C 109.959 45.127 106.836 69.463 136.641 82.1 L 201.392 72.366 C 205.11 72.926 208.87 73.16 212.629 73.066 C 218.636 72.918 224.346 66.266 224.322 60.256 C 224.203 56.559 223.26 52.934 221.561 49.648 C 219.551 45.456 218.157 40.996 217.423 36.406 C 215.862 26.68 208.866 10 179.242 10 C 148.813 10 140.386 25.455 140.386 25.455 Z" stroke-width="1"/><path fill="#ffd4ca" d="M 139.055 104.776 C 142.825 110.157 149.255 115.839 160.214 119.084 C 164.596 120.424 169.221 120.778 173.756 120.121 C 178.292 119.465 182.626 117.812 186.448 115.284 C 192.832 110.917 197.759 104.732 200.59 97.534 C 202.074 93.863 202.827 89.938 202.806 85.979 L 202.806 73.708 C 202.805 72.464 202.459 71.243 201.808 70.183 C 201.157 69.122 200.226 68.262 199.117 67.697 C 194.149 65.151 185.108 59.062 177.961 46.121 C 176.56 43.506 174.376 41.394 171.716 40.081 Q 171.286 39.875 170.816 39.671 C 153.289 32.071 133.754 45.344 133.754 64.448 L 133.754 87.376 C 133.695 93.581 135.547 99.657 139.055 104.776 Z" stroke-width="1"/><path fill="#f99c9c" d="M 158.025 79.225 C 157.097 79.225 156.206 78.856 155.55 78.2 C 154.894 77.544 154.525 76.653 154.525 75.725 L 154.525 72.478 C 154.525 71.55 154.894 70.659 155.55 70.003 C 156.206 69.347 157.097 68.978 158.025 68.978 C 158.953 68.978 159.844 69.347 160.5 70.003 C 161.156 70.659 161.525 71.55 161.525 72.478 L 161.525 75.725 C 161.525 76.653 161.156 77.544 160.5 78.2 C 159.844 78.856 158.953 79.225 158.025 79.225 Z M 180.815 79.225 C 179.887 79.225 178.996 78.856 178.34 78.2 C 177.684 77.544 177.315 76.653 177.315 75.725 L 177.315 72.478 C 177.315 71.55 177.684 70.659 178.34 70.003 C 178.996 69.347 179.887 68.978 180.815 68.978 C 181.743 68.978 182.634 69.347 183.29 70.003 C 183.946 70.659 184.315 71.55 184.315 72.478 L 184.315 75.725 C 184.315 76.653 183.946 77.544 183.29 78.2 C 182.634 78.856 181.743 79.225 180.815 79.225 Z M 169.373 101.607 C 160.957 101.607 156.916 97.83 155.573 96.207 C 154.984 95.492 154.702 94.572 154.79 93.651 C 154.877 92.729 155.327 91.878 156.04 91.287 C 156.752 90.696 157.671 90.411 158.593 90.496 C 159.516 90.58 160.368 91.027 160.961 91.738 C 161.361 92.217 163.632 94.607 169.377 94.607 C 175.122 94.607 177.396 92.217 177.793 91.738 C 178.264 91.167 178.905 90.759 179.622 90.574 C 180.339 90.39 181.097 90.438 181.785 90.711 C 182.474 90.984 183.058 91.469 183.453 92.095 C 183.849 92.721 184.036 93.457 183.987 94.196 C 183.938 94.935 183.656 95.64 183.181 96.208 C 181.83 97.831 177.789 101.607 169.373 101.607 Z" stroke-width="1"/><path fill="#3c3c4f" d="M 330.65 164.036 L 328.45 34.426 C 328.405 31.84 327.345 29.373 325.5 27.56 C 323.655 25.747 321.17 24.73 318.584 24.73 C 315.997 24.73 313.512 25.747 311.667 27.56 C 309.822 29.373 308.762 31.84 308.717 34.426 L 306.579 160.517 C 304.109 161.87 301.951 163.728 300.247 165.97 L 300.237 165.979 L 300.231 165.989 C 300.221 166.002 300.21 166.014 300.201 166.027 C 294.404 173.802 289.164 181.976 284.518 190.489 L 267.453 216.01 L 235.993 171.116 C 230.552 163.335 223.726 156.621 215.855 151.311 C 211.655 148.477 189.7 133.505 189.7 133.505 L 189.7 117.24 C 194.96 113.363 199.229 108.297 202.159 102.456 L 207.068 102.456 C 211.029 102.452 214.83 100.874 217.631 98.074 C 220.431 95.273 222.009 91.472 222.013 87.511 L 222.013 83.074 C 222.014 79.65 220.833 76.328 218.669 73.674 C 221.376 72.63 223.703 70.785 225.337 68.388 C 226.972 65.99 227.839 63.151 227.822 60.249 C 227.696 56.033 226.635 51.896 224.716 48.14 C 222.852 44.252 221.559 40.116 220.879 35.858 C 219.462 27.029 212.571 6.5 179.243 6.5 C 153.466 6.5 142.312 17.162 138.708 21.746 C 134.321 21.484 129.936 22.302 125.939 24.127 C 121.941 25.952 118.451 28.73 115.775 32.216 C 111.39 37.937 109.064 44.976 109.177 52.184 C 109.29 59.392 111.836 66.354 116.398 71.935 C 114.822 73.331 113.56 75.046 112.695 76.966 C 111.83 78.886 111.382 80.968 111.381 83.074 L 111.381 87.511 C 111.385 91.472 112.963 95.273 115.763 98.074 C 118.564 100.874 122.365 102.452 126.326 102.456 L 133.642 102.456 C 134.375 103.964 135.227 105.411 136.188 106.784 C 139.128 110.955 142.887 114.484 147.235 117.156 L 147.235 133.505 C 147.235 133.505 120.735 151.591 111.478 158.086 C 105.785 162.08 101.017 167.251 97.497 173.249 C 93.977 179.246 91.788 185.931 91.078 192.849 C 90.578 197.692 90.001 202.875 89.365 208.255 C 83.269 212.624 78.205 218.277 74.531 224.816 C 62.974 204.844 45.212 199.783 31.76 199.223 C 21.844 198.891 11.958 200.488 2.65 203.923 C 1.819 204.259 1.147 204.902 0.776 205.718 C 0.404 206.535 0.36 207.463 0.653 208.311 C 0.946 209.159 1.554 209.862 2.35 210.275 C 7.391 212.886 10.856 217.608 12.962 221.345 C 9.717 222.478 6.536 223.782 3.43 225.254 C 2.831 225.538 2.326 225.986 1.971 226.546 C 1.617 227.106 1.43 227.755 1.43 228.418 L 1.43 253.018 C 1.449 253.647 1.629 254.261 1.953 254.801 C 2.277 255.341 2.735 255.788 3.282 256.1 C 3.855 256.347 4.477 256.46 5.1 256.429 C 5.723 256.399 6.33 256.225 6.876 255.923 C 19.197 248.689 33.357 245.186 47.629 245.84 C 45.247 249.016 43.958 252.88 43.957 256.85 C 43.958 260.525 44.866 264.143 46.601 267.383 C 48.335 270.622 50.843 273.384 53.9 275.423 L 53.9 311.914 C 53.907 317.635 56.185 323.126 60.23 327.171 C 64.276 331.216 69.767 333.494 75.488 333.5 L 235.311 332.863 C 235.929 332.85 236.532 332.673 237.059 332.351 C 237.586 332.029 238.019 331.573 238.313 331.029 C 238.607 330.486 238.752 329.874 238.733 329.257 C 238.613 325.321 237.558 291.657 235.597 253.041 L 260.182 272.841 C 262.673 274.847 265.674 276.12 268.847 276.517 C 272.021 276.914 275.243 276.42 278.151 275.089 C 281.06 273.758 283.541 271.644 285.315 268.983 L 318.1 219.831 L 336.171 192.69 C 338.636 188.958 339.801 184.514 339.484 180.053 C 339.167 175.591 337.385 171.357 334.417 168.011 C 333.238 166.677 331.969 165.343 330.65 164.036 Z M 196.441 146.831 C 193.151 153.268 189.136 159.307 184.473 164.831 L 173.389 154.449 L 186.7 139.953 Z M 168.467 159.431 L 171.934 162.678 L 180.719 268.999 L 168.467 281.03 L 156.215 268.994 L 165 162.673 Z M 154.235 133.961 L 154.235 120.7 C 155.828 121.347 162.945 123.942 169.447 123.942 C 173.999 123.943 178.506 123.031 182.7 121.261 L 182.7 133.961 L 168.467 149.461 Z M 215.013 87.516 C 215.011 89.622 214.172 91.642 212.683 93.131 C 211.194 94.62 209.174 95.459 207.068 95.461 L 205 95.461 C 205.872 92.378 206.31 89.188 206.3 85.984 L 206.3 75.129 L 207.061 75.129 C 209.167 75.131 211.187 75.97 212.676 77.459 C 214.165 78.948 215.004 80.968 215.006 83.074 Z M 126.326 95.461 C 124.22 95.459 122.2 94.62 120.711 93.131 C 119.222 91.642 118.383 89.622 118.381 87.516 L 118.381 83.074 C 118.383 80.968 119.222 78.948 120.711 77.459 C 122.2 75.97 124.22 75.131 126.326 75.129 L 130.252 75.129 L 130.252 87.376 C 130.25 90.096 130.559 92.807 131.174 95.456 Z M 130.252 64.453 L 130.252 68.134 L 126.326 68.134 C 125.115 68.139 123.91 68.292 122.736 68.589 C 118.733 64.3 116.384 58.723 116.112 52.862 C 115.839 47.002 117.661 41.231 121.249 36.589 C 123.363 33.787 126.184 31.597 129.423 30.244 C 132.661 28.891 136.202 28.424 139.681 28.889 C 140.415 29.04 141.179 28.951 141.859 28.636 C 142.539 28.32 143.1 27.794 143.459 27.136 C 143.533 27 151.215 13.506 179.243 13.506 C 204.832 13.506 212.249 26.266 213.967 36.97 C 214.754 41.893 216.25 46.675 218.406 51.17 C 219.871 53.991 220.696 57.101 220.822 60.277 C 220.812 62.25 220.022 64.14 218.625 65.534 C 217.229 66.927 215.337 67.713 213.364 67.719 C 210.261 67.818 207.172 67.273 204.29 66.119 C 204.238 66.095 204.183 66.085 204.131 66.064 C 204.031 66.018 203.929 65.977 203.825 65.941 C 203.693 65.9 190.54 61.662 181.025 44.434 C 179.017 40.901 175.925 38.107 172.208 36.465 C 167.686 34.464 162.73 33.642 157.804 34.078 C 152.878 34.514 148.143 36.193 144.043 38.957 C 139.806 41.723 136.325 45.504 133.917 49.955 C 131.509 54.405 130.249 59.388 130.252 64.448 Z M 141.922 102.773 C 138.817 98.247 137.186 92.869 137.253 87.381 L 137.253 64.448 C 137.25 60.547 138.221 56.707 140.077 53.276 C 141.933 49.846 144.616 46.932 147.883 44.8 C 151.59 42.328 155.944 40.999 160.4 40.981 C 163.519 40.852 166.621 41.505 169.423 42.881 C 171.662 43.997 173.556 45.702 174.899 47.812 C 183.375 63.16 194.418 69.492 199.309 71.669 L 199.309 85.979 C 199.333 89.483 198.668 92.958 197.354 96.206 C 194.782 102.765 190.299 108.403 184.489 112.388 C 181.099 114.635 177.251 116.101 173.226 116.679 C 169.2 117.257 165.095 116.932 161.21 115.729 C 152.662 113.2 146.173 108.836 141.922 102.768 Z M 150.238 139.958 L 163.546 154.45 L 152.459 164.83 C 147.794 159.308 143.778 153.268 140.492 146.83 Z M 98.038 193.572 C 98.645 187.652 100.519 181.931 103.53 176.798 C 106.542 171.666 110.622 167.24 115.494 163.822 C 121.942 159.3 127.573 155.442 132.316 152.294 C 131.998 161.317 131.396 178.684 130.706 199.959 C 126.269 199.301 121.781 199.056 117.299 199.228 C 110.263 199.462 103.339 201.059 96.911 203.928 C 97.321 200.348 97.7 196.874 98.042 193.567 Z M 137.4 208.379 C 134.093 211.521 131.345 215.203 129.274 219.267 C 109.816 214.244 94.538 217.931 84.697 222.293 C 100.8 201.953 125.715 205.322 137.4 208.379 Z M 11.712 208.417 C 18.161 206.744 24.815 206.003 31.474 206.217 C 45.441 206.799 56.483 212.205 64.443 222.323 C 54.6 217.948 39.3 214.234 19.8 219.267 C 17.734 215.22 14.998 211.551 11.707 208.417 Z M 50.962 256.85 C 50.965 253.807 52.177 250.887 54.328 248.735 C 56.48 246.583 59.4 245.371 62.443 245.368 L 86.624 245.368 C 89.667 245.372 92.587 246.584 94.738 248.736 C 96.89 250.887 98.102 253.807 98.107 256.85 C 98.103 260.914 96.484 264.815 93.611 267.689 C 90.737 270.562 86.836 272.181 82.772 272.185 L 66.291 272.185 C 62.227 272.18 58.327 270.562 55.453 267.688 C 52.58 264.814 50.961 260.914 50.957 256.85 Z M 90.079 311.914 C 90.079 315.781 88.541 319.494 85.807 322.228 C 83.073 324.962 79.36 326.5 75.493 326.5 C 71.626 326.5 67.913 324.962 65.179 322.228 C 62.445 319.494 60.907 315.781 60.907 311.914 L 60.907 278.524 C 62.67 278.963 64.479 279.185 66.296 279.185 L 82.772 279.185 C 85.257 279.185 87.725 278.769 90.072 277.953 Z M 127.233 326.5 L 91.354 326.5 C 95.028 322.533 97.072 317.321 97.074 311.914 L 97.074 273.989 C 99.588 271.896 101.611 269.276 102.999 266.314 C 104.387 263.352 105.107 260.121 105.107 256.85 C 105.105 252.884 103.817 249.024 101.439 245.85 C 110.856 245.458 120.262 246.844 129.166 249.935 C 128.293 279.8 127.644 305.535 127.233 326.5 Z M 78.482 233.879 C 84.615 229.503 107.593 215.971 140.632 230.664 L 140.632 247.064 C 126.004 239.903 109.558 237.296 93.432 239.581 C 93.375 239.589 93.323 239.611 93.267 239.622 C 91.149 238.796 88.896 238.37 86.623 238.367 L 62.438 238.367 C 60.175 238.37 57.932 238.792 55.823 239.612 C 39.638 237.276 23.118 239.874 8.431 247.064 L 8.431 230.664 C 41.331 216.017 64.444 229.55 70.589 233.896 C 71.74 234.706 73.115 235.139 74.523 235.134 C 75.941 235.138 77.325 234.699 78.482 233.879 Z M 149.092 326.5 L 134.235 326.5 Q 134.365 319.8 134.529 312.466 Q 142.059 313.412 149.092 313.907 Z M 180.842 326.5 L 156.092 326.5 L 156.092 314.335 C 160.713 314.553 165.122 314.646 169.283 314.646 C 173.391 314.646 177.251 314.554 180.842 314.402 Z M 134.69 305.439 C 135.057 289.766 135.524 272.13 136.09 252.696 C 138.193 253.635 140.231 254.715 142.19 255.927 C 142.896 256.399 143.75 256.598 144.591 256.487 C 145.433 256.377 146.206 255.964 146.766 255.325 C 147.326 254.687 147.635 253.867 147.635 253.018 L 147.635 228.418 C 147.635 227.755 147.448 227.106 147.094 226.546 C 146.739 225.986 146.234 225.538 145.635 225.254 C 142.529 223.783 139.347 222.477 136.102 221.344 C 138.219 217.587 141.68 212.882 146.714 210.275 C 147.51 209.862 148.118 209.159 148.411 208.311 C 148.704 207.463 148.66 206.535 148.288 205.718 C 147.917 204.902 147.245 204.259 146.414 203.923 C 143.566 202.837 140.645 201.953 137.673 201.277 C 138.247 183.541 138.763 168.444 139.109 158.497 C 142.216 163.408 145.772 168.021 149.73 172.276 C 150.369 172.932 151.241 173.312 152.157 173.333 C 153.073 173.354 153.961 173.014 154.63 172.388 L 157.39 169.803 L 149.1 270.053 C 149.058 270.565 149.129 271.08 149.308 271.561 C 149.487 272.042 149.77 272.478 150.136 272.838 L 166.011 288.433 C 166.665 289.076 167.546 289.436 168.464 289.436 C 169.381 289.436 170.262 289.076 170.916 288.433 L 186.79 272.838 C 187.156 272.478 187.439 272.042 187.618 271.561 C 187.797 271.08 187.868 270.565 187.826 270.053 L 179.547 169.8 C 179.547 169.8 182.7 173.217 184.699 173.331 C 185.168 173.343 185.635 173.255 186.067 173.073 C 186.5 172.891 186.888 172.618 187.207 172.274 C 191.165 168.019 194.72 163.407 197.827 158.496 C 198.767 185.54 200.964 250.815 202.245 305.514 C 179.818 308.403 157.111 308.378 134.69 305.439 Z M 187.842 326.5 L 187.842 314.013 C 193.806 313.601 198.734 313.053 202.406 312.56 C 202.513 317.318 202.606 321.976 202.7 326.5 Z M 315.719 34.545 C 315.733 33.794 316.042 33.078 316.578 32.552 C 317.114 32.026 317.835 31.731 318.587 31.731 C 319.338 31.731 320.059 32.026 320.595 32.552 C 321.131 33.078 321.44 33.794 321.454 34.545 L 323.571 159.4 C 320.384 158.272 316.985 157.867 313.622 158.212 Z M 279.491 265.1 C 278.438 266.679 276.965 267.935 275.239 268.724 C 273.513 269.514 271.6 269.808 269.716 269.572 C 267.833 269.337 266.051 268.581 264.573 267.39 L 235.113 243.663 L 233.103 203.263 C 233.054 202.338 232.64 201.47 231.953 200.849 C 231.265 200.229 230.359 199.906 229.434 199.952 C 228.509 199.997 227.639 200.409 227.017 201.094 C 226.394 201.78 226.068 202.685 226.111 203.61 L 228.2 245.579 L 228.2 245.59 C 230.114 281.617 231.263 314.843 231.623 325.942 L 209.699 326.424 C 208.48 264.274 205.479 176.9 204.612 152.25 C 207.099 153.874 209.548 155.5 211.937 157.113 C 219.098 161.945 225.31 168.054 230.26 175.134 L 264.653 224.213 C 264.984 224.674 265.42 225.05 265.925 225.31 C 266.43 225.569 266.99 225.705 267.558 225.705 C 268.127 225.699 268.686 225.554 269.186 225.283 C 269.686 225.012 270.113 224.623 270.429 224.15 L 287.374 198.813 C 294.357 208.977 304.768 215.958 310.156 219.121 Z M 330.343 188.809 L 314.052 213.275 C 308.915 210.275 297.645 202.849 291.518 192.292 C 295.221 185.683 299.282 179.281 303.681 173.114 L 312.206 179.781 C 312.796 180.219 313.193 180.869 313.311 181.594 C 313.429 182.319 313.26 183.063 312.84 183.665 C 312.627 184.074 312.307 184.417 311.916 184.661 C 311.525 184.904 311.075 185.038 310.614 185.049 C 310.153 185.059 309.698 184.946 309.296 184.721 Q 308.979 184.566 308.653 184.388 C 307.839 183.946 306.882 183.845 305.994 184.106 C 305.106 184.368 304.357 184.971 303.912 185.784 C 303.468 186.596 303.363 187.553 303.622 188.442 C 303.881 189.331 304.482 190.082 305.293 190.529 C 305.612 190.704 305.927 190.866 306.233 191.015 C 307.601 191.694 309.106 192.05 310.633 192.058 C 312.279 192.044 313.893 191.606 315.32 190.786 C 316.747 189.965 317.938 188.79 318.778 187.375 C 320.115 185.307 320.626 182.809 320.208 180.381 C 319.791 177.954 318.474 175.77 316.522 174.268 L 308.243 167.793 C 310.759 165.84 313.902 164.867 317.081 165.054 C 320.261 165.242 323.267 166.579 325.536 168.814 C 326.816 170.074 328.036 171.362 329.173 172.645 C 331.12 174.834 332.291 177.606 332.502 180.528 C 332.714 183.451 331.955 186.362 330.343 188.809 Z" stroke-width="1"/></g></svg>