<svg id="vector" xmlns="http://www.w3.org/2000/svg" width="24" height="24" viewBox="0 0 34 34"><g id="group"><path fill="#ffc923" d="M 28 24.69 L 28 14 C 28 7.925 23.075 3 17 3 C 10.925 3 6 7.925 6 14 L 6 24.69 L 28 24.69 Z" stroke-width="1"/><path fill="#ffb637" d="M 28.5 23 C 30.433 23 32 24.567 32 26.5 C 32 28.433 30.433 30 28.5 30 L 5.5 30 C 3.567 30 2 28.433 2 26.5 C 2 24.567 3.567 23 5.5 23 L 28.5 23 Z" stroke-width="1"/><path fill="#ffb637" d="M 11 28 C 11 31.314 13.686 34 17 34 C 20.314 34 23 31.314 23 28 L 11 28 Z" stroke-width="1"/><path fill="#ffc923" d="M 15 5.063 L 21 5.063 L 21 3.5 C 21 1.567 19.433 0 17.5 0 L 16.5 0 C 14.567 0 13 1.567 13 3.5 L 13 5.063 L 15 5.063 Z" stroke-width="1"/></g></svg>