<svg
    xmlns="http://www.w3.org/2000/svg"
    viewBox="0 0 500 500"
    id="vector">
    <path
        id="path"
        d="M 694.36 468.89 C 694.36 469.03 551.81 469.15 376.02 469.15 C 200.23 469.15 57.64 469 57.64 468.89 C 57.64 468.78 200.16 468.63 376.02 468.63 C 551.88 468.63 694.36 468.75 694.36 468.89 Z M 598.29 165.45 C 598.19 165.45 600.35 154.89 603.11 141.91 C 605.87 128.93 608.2 118.41 608.3 118.43 C 608.4 118.45 606.24 129 603.48 142 C 600.72 155 598.39 165.47 598.29 165.45 Z"
        fill="#263238"
        stroke-width="1"/>
    <path
        id="path_1"
        d="M 60.42 413.6 L 42.45 438 L 72.71 460.52 C 74.71 457.52 63.34 440.04 63.34 440.04 L 75.5 424.88 Z"
        fill="#455a64"
        stroke-width="1"/>
    <path
        id="path_2"
        d="M 55 431.78 C 54.644 431.65 54.253 431.658 53.902 431.8 C 53.551 431.942 53.265 432.209 53.1 432.55 C 52.959 432.903 52.959 433.296 53.098 433.649 C 53.238 434.002 53.507 434.288 53.85 434.45 C 54.227 434.583 54.64 434.571 55.009 434.418 C 55.378 434.265 55.678 433.981 55.85 433.62 C 55.96 433.237 55.918 432.826 55.731 432.473 C 55.545 432.121 55.229 431.854 54.85 431.73"
        fill="#ffffff"
        stroke-width="1"/>
    <path
        id="path_3"
        d="M 42.41 438.06 L 44.32 435.44 L 72.59 458.2 C 72.59 458.2 73.49 459.8 72.59 460.63 Z M 64 440.26 C 63.89 440.41 63.1 439.93 62 439.86 C 60.9 439.79 60.07 440.13 60 439.97 C 59.93 439.81 60.77 439.12 62.07 439.22 C 63.37 439.32 64.08 440.15 64 440.26 Z M 66.15 443.94 C 66.07 444.11 65.25 443.88 64.28 444.13 C 63.31 444.38 62.68 444.94 62.53 444.82 C 62.38 444.7 62.92 443.82 64.13 443.51 C 65.34 443.2 66.25 443.8 66.15 443.94 Z M 65.12 449.08 C 64.96 449.01 65.31 448.08 66.29 447.59 C 67.27 447.1 68.2 447.26 68.17 447.43 C 68.14 447.6 67.39 447.71 66.6 448.16 C 65.81 448.61 65.28 449.17 65.12 449.08 Z M 66.34 436.5 C 66.17 436.59 65.65 435.88 64.77 435.32 C 63.89 434.76 63.05 434.53 63.06 434.32 C 63.07 434.11 64.06 434.07 65.12 434.75 C 66.18 435.43 66.5 436.44 66.34 436.5 Z M 133.58 311.46 C 134.12 314.52 134.98 340.55 135.53 354.28 C 136.08 368.01 134.71 374.76 133.14 377.84 C 131.57 380.92 72.36 424.55 67.85 435 L 52.85 422.91 C 52.85 422.91 74.85 383.42 84.23 376.24 C 93.61 369.06 111.66 362.47 111.66 362.47 L 106.53 287.28 L 131.12 285.94 Z"
        fill="#263238"
        stroke-width="1"/>
    <path
        id="path_4"
        d="M 78.55 437.73 L 78.29 468 L 116 468.52 C 115.83 464.92 96.42 457.41 96.42 457.41 L 97.42 438 Z"
        fill="#455a64"
        stroke-width="1"/>
    <path
        id="path_5"
        d="M 84.78 455.66 C 84.416 455.765 84.104 456.001 83.903 456.322 C 83.702 456.643 83.626 457.027 83.69 457.4 C 83.783 457.768 84.012 458.087 84.332 458.291 C 84.651 458.495 85.037 458.57 85.41 458.5 C 85.794 458.386 86.123 458.134 86.333 457.793 C 86.543 457.451 86.621 457.044 86.55 456.65 C 86.416 456.276 86.142 455.969 85.785 455.793 C 85.429 455.618 85.018 455.588 84.64 455.71"
        fill="#ffffff"
        stroke-width="1"/>
    <path
        id="path_6"
        d="M 78.28 468.11 L 78.28 464.86 L 114.53 466.74 C 114.53 466.74 116.19 467.51 115.98 468.69 Z M 97 457.27 C 97 457.46 96.07 457.53 95.16 458.11 C 94.25 458.69 93.75 459.45 93.58 459.38 C 93.41 459.31 93.7 458.24 94.82 457.56 C 95.94 456.88 97.08 457.1 97 457.27 Z M 101 459 C 101 459.18 100.23 459.48 99.6 460.25 C 98.97 461.02 98.77 461.85 98.6 461.83 C 98.43 461.81 98.31 460.78 99.12 459.83 C 99.93 458.88 101 458.79 101 459 Z M 103.15 463.73 C 102.98 463.73 102.74 462.84 103.22 461.84 C 103.7 460.84 104.58 460.45 104.65 460.6 C 104.72 460.75 104.19 461.29 103.8 462.12 C 103.41 462.95 103.33 463.71 103.15 463.73 Z M 96.76 452.82 C 96.68 452.99 95.84 452.72 94.76 452.82 C 93.68 452.92 92.9 453.19 92.76 453.03 C 92.62 452.87 93.45 452.23 94.68 452.18 C 95.91 452.13 96.85 452.68 96.76 452.82 Z"
        fill="#263238"
        stroke-width="1"/>
    <path
        id="path_7"
        d="M 136.3 282.83 C 136.3 284.6 139.17 329.41 124.52 361.83 C 124.52 361.83 119.45 371.97 118.52 376.4 C 117.59 380.83 98.64 454.31 98.64 454.31 L 76.74 453.51 C 76.74 453.51 73.24 416.7 76.74 395.39 C 80.24 374.08 86.74 376.58 86.74 362.82 C 86.74 349.06 83.47 320.53 83.47 320.53 C 83.47 320.53 78.69 312.74 77.06 297.63 C 75.73 285.36 81.51 272.21 81.51 272.21 L 87.22 262.1 L 135.53 259.57 Z"
        fill="#263238"
        stroke-width="1"/>
    <path
        id="path_8"
        d="M 136.3 282.83 L 136.3 281.3 C 136.3 280.29 136.24 278.79 136.2 276.82 C 136.11 272.87 135.96 267.05 135.78 259.53 L 135.78 259.42 L 135.66 259.42 L 87.35 261.88 L 87.25 261.88 L 87.19 261.97 C 85.42 265.11 83.47 268.54 81.47 272.08 C 79.983 275.668 78.821 279.383 78 283.18 C 77.093 287.177 76.686 291.272 76.79 295.37 C 77.094 299.649 77.763 303.895 78.79 308.06 C 79.78 312.433 81.337 316.659 83.42 320.63 L 83.42 320.53 C 84.25 327.99 85.02 335.72 85.67 343.68 C 85.99 347.68 86.27 351.68 86.47 355.79 C 86.57 357.79 86.65 359.89 86.66 361.96 C 86.66 362.96 86.66 364.03 86.6 365.06 C 86.529 366.093 86.402 367.121 86.22 368.14 C 85.811 370.193 85.085 372.17 84.07 374 C 83.07 375.87 82.07 377.72 81.07 379.67 C 79.259 383.627 77.939 387.792 77.14 392.07 C 75.4 400.67 75.05 409.61 74.95 418.62 C 74.95 430.51 75.51 442.19 76.49 453.48 L 76.49 453.72 L 76.72 453.72 L 98.62 454.52 L 98.83 454.52 L 98.88 454.31 C 105.23 429.7 111.15 406.7 116.37 386.02 L 118.26 378.37 C 118.59 377.1 118.8 375.84 119.19 374.64 C 119.58 373.44 120.02 372.25 120.48 371.09 C 121.42 368.77 122.48 366.52 123.48 364.33 L 124.26 362.7 C 124.537 362.168 124.784 361.62 125 361.06 C 125.45 359.95 125.9 358.86 126.35 357.77 C 129.46 349.705 131.774 341.355 133.26 332.84 C 135.402 320.709 136.506 308.418 136.56 296.1 C 136.62 287.48 136.27 282.8 136.27 282.8 L 136.27 283.66 C 136.27 284.23 136.27 285.1 136.33 286.22 C 136.39 288.47 136.43 291.79 136.33 296.1 C 136.237 308.408 135.124 320.687 133 332.81 C 131.48 341.298 129.135 349.617 126 357.65 L 124.66 360.92 C 124.44 361.48 124.19 362.01 123.92 362.55 C 123.65 363.09 123.39 363.64 123.13 364.19 C 122.13 366.38 121.07 368.63 120.13 370.96 C 119.66 372.13 119.21 373.32 118.82 374.54 C 118.43 375.76 118.2 377.05 117.88 378.29 C 117.25 380.81 116.62 383.35 115.97 385.94 C 110.66 406.6 104.75 429.6 98.42 454.21 L 98.68 454.02 L 76.78 453.21 L 77.04 453.45 C 76.04 442.18 75.46 430.51 75.5 418.64 C 75.6 409.64 75.95 400.74 77.68 392.2 C 78.477 387.962 79.783 383.835 81.57 379.91 C 82.47 377.98 83.57 376.15 84.57 374.25 C 85.579 372.37 86.294 370.346 86.69 368.25 C 86.88 367.208 87.01 366.157 87.08 365.1 C 87.08 364.1 87.18 363 87.14 361.97 C 87.14 359.89 87.05 357.82 86.95 355.77 C 86.75 351.67 86.46 347.63 86.13 343.65 Q 85.13 331.65 83.86 320.48 L 83.86 320.42 C 81.776 316.5 80.213 312.325 79.21 308 C 78.189 303.864 77.52 299.649 77.21 295.4 C 77.102 291.34 77.499 287.282 78.39 283.32 C 79.196 279.561 80.33 275.88 81.78 272.32 L 87.48 262.2 L 87.32 262.3 L 135.63 259.69 L 135.5 259.58 C 135.74 267.09 135.92 272.91 136.04 276.86 C 136.11 278.86 136.16 280.32 136.2 281.34 C 136.24 282.36 136.3 282.83 136.3 282.83 Z"
        fill="#455a64"
        stroke-width="1"/>
    <path
        id="path_9"
        d="M 120.59 191.07 C 120.59 191.07 107.59 188.77 108.8 205.5 C 109.56 215.5 112.5 232.66 114.13 243.61 C 114.69 247.4 115.93 254.18 120.94 258.16 L 156.84 283 L 168.17 269.45 L 136.11 238.92 L 131.11 208.72 Z"
        fill="#76767c"
        stroke-width="1"/>
    <path
        id="path_10"
        d="M 122.12 130.77 C 124.18 132.429 125.811 134.561 126.873 136.984 C 127.935 139.407 128.397 142.05 128.22 144.69 C 128.02 147.25 127.31 150.16 128.98 152.11 C 130.65 154.06 133.85 153.99 135.43 155.97 C 137.28 158.31 135.73 161.79 136.43 164.7 C 136.787 166.059 137.616 167.247 138.768 168.051 C 139.92 168.856 141.321 169.224 142.72 169.09 C 139.438 171.775 135.48 173.506 131.28 174.09 L 128 170 C 129.22 171.44 128.89 173.73 127.72 175.2 C 126.449 176.568 124.81 177.541 123 178 C 118.692 179.325 114.136 179.639 109.687 178.915 C 105.239 178.192 101.016 176.452 97.35 173.83"
        fill="#263238"
        stroke-width="1"/>
    <path
        id="path_11"
        d="M 74.09 153.34 C 74.73 151.34 75.81 149.57 76.24 147.56 C 77.16 143.23 75.05 138.35 77.15 134.45 C 78.65 131.68 81.83 130.32 84.85 129.39 C 87.87 128.46 91.09 127.68 93.34 125.47 C 94.98 123.85 95.92 121.61 97.56 119.99 C 99.9 117.67 103.36 116.88 106.64 116.68 C 110.027 116.353 113.441 116.907 116.55 118.29 C 118.094 118.994 119.45 120.052 120.51 121.377 C 121.57 122.703 122.303 124.259 122.65 125.92 C 122.91 127.54 122.71 129.25 123.23 130.82 C 123.79 132.54 125.14 133.88 125.98 135.49 C 126.821 137.219 127.065 139.179 126.672 141.061 C 126.279 142.943 125.272 144.642 123.81 145.89 L 100.63 175.83 C 95.76 177.67 83.96 175.45 80.2 171.83 C 76.44 168.21 72.48 158.29 74.09 153.34 Z"
        fill="#263238"
        stroke-width="1"/>
    <path
        id="path_12"
        d="M 123.2 142.09 C 122.2 135.29 117.07 127.26 110.32 128.5 L 89.48 135.5 C 87.48 135.88 88.9 139.23 89.1 141.3 L 93.63 188.3 C 93.63 188.3 90.81 190.3 89.81 189.92 C 89.753 189.9 89.691 189.898 89.633 189.915 C 89.575 189.932 89.524 189.967 89.487 190.014 C 89.449 190.061 89.428 190.119 89.425 190.179 C 89.422 190.239 89.438 190.299 89.47 190.35 C 92 194 103.79 209.87 116 205 C 118.72 203.91 115.71 195.34 116 192.17 L 115.64 184.06 C 115.37 179.92 115.24 178.22 115.24 178.26 C 115.24 178.3 123.86 176.14 124.79 164.61 C 125.26 158.9 124.26 149.64 123.2 142.09 Z"
        fill="#ffbf9d"
        stroke-width="1"/>
    <path
        id="path_13"
        d="M 121.75 152.55 C 121.781 152.93 121.663 153.308 121.42 153.603 C 121.177 153.898 120.829 154.087 120.45 154.13 C 120.203 154.17 119.95 154.142 119.717 154.051 C 119.484 153.96 119.279 153.807 119.125 153.61 C 118.971 153.413 118.873 153.178 118.84 152.93 C 118.809 152.55 118.927 152.172 119.17 151.877 C 119.413 151.582 119.761 151.393 120.14 151.35 C 120.387 151.31 120.64 151.338 120.873 151.429 C 121.106 151.52 121.311 151.673 121.465 151.87 C 121.619 152.067 121.717 152.302 121.75 152.55 Z M 107.55 153.44 C 107.584 153.819 107.468 154.198 107.227 154.493 C 106.986 154.788 106.639 154.977 106.26 155.02 C 106.013 155.058 105.761 155.029 105.528 154.938 C 105.296 154.846 105.092 154.694 104.938 154.498 C 104.784 154.301 104.684 154.067 104.65 153.82 C 104.619 153.44 104.737 153.062 104.98 152.767 C 105.223 152.472 105.571 152.283 105.95 152.24 C 106.196 152.2 106.449 152.228 106.681 152.319 C 106.913 152.411 107.116 152.563 107.269 152.761 C 107.422 152.958 107.519 153.192 107.55 153.44 Z M 122.27 147.73 C 122.11 148 120.75 147.14 119.05 147.39 C 117.35 147.64 116.26 148.8 116.05 148.59 C 115.84 148.38 116.05 148.03 116.54 147.5 C 117.155 146.809 117.997 146.36 118.913 146.234 C 119.829 146.108 120.761 146.312 121.54 146.81 C 122.1 147.2 122.35 147.61 122.27 147.73 Z M 107 149 C 106.8 149.25 105.47 148.28 103.64 148.36 C 101.81 148.44 100.51 149.47 100.3 149.24 C 100.09 149.01 100.39 148.7 100.96 148.24 C 101.708 147.622 102.64 147.271 103.61 147.24 C 104.575 147.202 105.525 147.487 106.31 148.05 C 106.88 148.46 107.09 148.88 107 149 Z M 112.73 159.77 C 113.537 159.44 114.385 159.219 115.25 159.11 C 115.64 159.04 116.02 158.93 116.06 158.65 C 116.065 158.232 115.939 157.823 115.7 157.48 C 115.25 156.54 114.78 155.55 114.28 154.48 C 112.28 150.25 110.83 146.77 111 146.69 C 111.17 146.61 112.92 149.97 114.9 154.19 C 115.38 155.24 115.84 156.19 116.27 157.19 C 116.562 157.654 116.68 158.207 116.6 158.75 C 116.554 158.896 116.475 159.03 116.37 159.141 C 116.264 159.252 116.134 159.337 115.99 159.39 C 115.773 159.464 115.548 159.511 115.32 159.53 C 114.469 159.712 113.6 159.793 112.73 159.77 Z"
        fill="#263238"
        stroke-width="1"/>
    <path
        id="path_14"
        d="M 115.24 178.28 C 109.885 178.772 104.498 177.768 99.68 175.38 C 99.68 175.38 104.13 183.08 115.44 181.14 Z M 107.94 164.35 C 108.118 163.955 108.394 163.611 108.74 163.35 C 109.164 163.148 109.646 163.102 110.1 163.22 C 110.775 163.319 111.4 163.635 111.88 164.12 C 112.115 164.365 112.281 164.668 112.36 164.999 C 112.439 165.329 112.429 165.675 112.33 166 C 112.15 166.66 111.17 167 110.5 167.14 C 109.806 167.241 109.098 167.096 108.5 166.73 C 108.24 166.611 108.013 166.431 107.838 166.204 C 107.664 165.978 107.548 165.712 107.5 165.43 C 107.544 165.036 107.697 164.663 107.94 164.35 Z"
        fill="#ff9a6c"
        stroke-width="1"/>
    <path
        id="path_15"
        d="M 108.26 162.14 C 108.51 162.14 108.65 163.81 110.2 164.91 C 111.75 166.01 113.55 165.68 113.58 165.91 C 113.61 166.14 113.21 166.27 112.44 166.35 C 111.441 166.442 110.441 166.176 109.62 165.6 C 108.827 165.053 108.281 164.216 108.1 163.27 C 108 162.58 108.14 162.14 108.26 162.14 Z M 106.86 142.85 C 106.73 143.28 105.15 143.2 103.32 143.57 C 101.49 143.94 100.04 144.57 99.77 144.18 C 99.65 144.01 99.87 143.59 100.44 143.13 C 101.203 142.561 102.087 142.175 103.024 142.002 C 103.96 141.828 104.923 141.872 105.84 142.13 C 106.54 142.33 106.91 142.64 106.86 142.85 Z M 121.3 142 C 121.01 142.38 119.75 142.11 118.3 142.21 C 116.85 142.31 115.57 142.66 115.25 142.31 C 115.11 142.14 115.25 141.76 115.8 141.38 C 116.523 140.903 117.364 140.637 118.23 140.61 C 119.09 140.548 119.95 140.732 120.71 141.14 C 121.23 141.44 121.43 141.8 121.3 142 Z"
        fill="#263238"
        stroke-width="1"/>
    <path
        id="path_16"
        d="M 84.87 137.14 C 85.87 135.52 87.81 134.69 89.61 134 C 97.384 130.998 105.488 128.934 113.75 127.85 C 114.75 129.54 113.83 131.85 112.28 133.08 C 110.73 134.31 108.73 134.8 106.88 135.49 C 105.03 136.18 103.12 137.26 102.35 139.09 C 101.58 140.92 102.23 143.33 101.51 145.31 C 100.28 148.73 95.51 149.83 94.32 153.24 C 93.4 155.83 94.9 158.58 95.32 161.3 C 95.577 163.146 95.302 165.027 94.527 166.722 C 93.753 168.417 92.511 169.857 90.948 170.871 C 89.384 171.886 87.564 172.434 85.7 172.45 Q 84.86 157.76 84.01 143.09 C 83.84 141.05 83.76 138.85 84.87 137.14 Z"
        fill="#263238"
        stroke-width="1"/>
    <path
        id="path_17"
        d="M 65.15 161.87 C 66.7 160.48 68.64 159.28 69.25 157.3 C 70.15 154.41 67.83 151.02 69.33 148.39 C 70.69 145.99 74.7 146.12 75.97 143.67 C 76.97 141.75 75.82 140.06 76.19 138.38 C 76.56 136.7 78.96 135.23 80.66 135.43 L 94 154.8 C 95.24 161.3 96.49 164.8 95.1 168.56 C 94.181 170.585 93.486 172.704 93.03 174.88 C 92.73 177.08 93.3 179.57 95.09 180.88 C 87.09 181.51 79.61 177.33 72.69 173.28 L 65.4 169 C 64.602 168.618 63.914 168.04 63.4 167.32 C 62.31 165.54 63.61 163.25 65.15 161.87 Z"
        fill="#263238"
        stroke-width="1"/>
    <path
        id="path_18"
        d="M 72.52 171.31 C 72.799 171.4 73.088 171.457 73.38 171.48 C 74.214 171.56 75.056 171.499 75.87 171.3 C 77.169 170.989 78.366 170.344 79.34 169.43 C 80.627 168.191 81.435 166.537 81.62 164.76 C 81.74 163.73 81.652 162.685 81.36 161.69 C 81.001 160.629 80.504 159.62 79.88 158.69 C 79.219 157.746 78.703 156.707 78.35 155.61 C 78.163 155.049 78.104 154.453 78.178 153.866 C 78.253 153.279 78.458 152.717 78.78 152.22 C 79.5 151.22 80.85 151.01 82.11 150.51 C 82.79 150.265 83.383 149.823 83.81 149.24 C 84.204 148.616 84.396 147.887 84.36 147.15 C 84.187 145.738 83.882 144.345 83.45 142.99 C 83.296 142.332 83.296 141.648 83.45 140.99 C 83.626 140.327 84.034 139.748 84.6 139.36 C 85.817 138.659 87.196 138.286 88.6 138.28 C 90.054 138.232 91.471 137.816 92.72 137.07 C 93.935 136.329 94.922 135.267 95.57 134 C 96.102 132.784 96.44 131.491 96.57 130.17 C 96.709 128.947 96.97 127.741 97.35 126.57 C 97.771 125.505 98.412 124.541 99.23 123.74 C 100.739 122.308 102.688 121.427 104.76 121.24 C 106.488 121.092 108.222 121.439 109.76 122.24 C 110.917 122.832 111.96 123.624 112.84 124.58 C 113.576 125.414 114.213 126.33 114.74 127.31 C 114.74 127.31 114.74 127.24 114.67 127.1 C 114.588 126.901 114.494 126.708 114.39 126.52 C 114.008 125.794 113.542 125.116 113 124.5 C 112.12 123.506 111.071 122.676 109.9 122.05 C 108.346 121.196 106.58 120.804 104.81 120.92 C 102.639 121.079 100.587 121.98 99 123.47 C 98.126 124.315 97.443 125.338 97 126.47 C 96.604 127.663 96.329 128.892 96.18 130.14 C 96.041 131.418 95.704 132.666 95.18 133.84 C 94.57 135.02 93.651 136.013 92.52 136.71 C 91.329 137.409 89.981 137.797 88.6 137.84 C 87.095 137.837 85.617 138.237 84.32 139 C 83.671 139.441 83.202 140.102 83 140.86 C 82.825 141.6 82.825 142.37 83 143.11 C 83.423 144.44 83.725 145.805 83.9 147.19 C 83.941 147.833 83.78 148.473 83.44 149.02 C 83.054 149.527 82.529 149.913 81.93 150.13 C 81.34 150.38 80.7 150.55 80.08 150.81 C 79.434 151.054 78.865 151.464 78.43 152 C 78.077 152.552 77.851 153.176 77.768 153.826 C 77.685 154.476 77.747 155.137 77.95 155.76 C 78.324 156.893 78.864 157.964 79.55 158.94 C 80.159 159.824 80.647 160.786 81 161.8 C 81.283 162.746 81.378 163.738 81.28 164.72 C 81.116 166.43 80.359 168.03 79.14 169.24 C 78.207 170.143 77.056 170.791 75.8 171.12 C 74.73 171.399 73.615 171.464 72.52 171.31 Z M 61.86 157.54 C 61.729 157.736 61.641 157.958 61.6 158.19 C 61.467 158.876 61.588 159.587 61.94 160.19 C 62.184 160.621 62.527 160.987 62.94 161.26 C 63.455 161.572 64.048 161.731 64.65 161.72 C 65.381 161.704 66.095 161.488 66.712 161.094 C 67.329 160.701 67.826 160.146 68.15 159.49 C 68.53 158.737 68.726 157.904 68.72 157.06 C 68.696 156.153 68.506 155.258 68.16 154.42 C 67.53 152.69 66.37 151 66.35 148.98 C 66.312 148.483 66.375 147.983 66.535 147.51 C 66.695 147.038 66.948 146.602 67.28 146.23 C 68.09 145.561 69.133 145.237 70.18 145.33 C 71.346 145.415 72.517 145.293 73.64 144.97 C 74.228 144.73 74.726 144.31 75.06 143.77 C 75.382 143.233 75.583 142.632 75.65 142.01 C 75.708 140.816 75.61 139.619 75.36 138.45 C 75.181 137.353 75.246 136.229 75.55 135.16 C 76.117 133.119 77.445 131.372 79.26 130.28 C 80.983 129.402 82.896 128.963 84.83 129 C 86.548 129.004 88.257 128.734 89.89 128.2 C 91.218 127.713 92.435 126.965 93.47 126 C 94.262 125.268 94.937 124.418 95.47 123.48 C 95.939 122.702 96.261 121.844 96.42 120.95 C 96.122 121.794 95.751 122.611 95.31 123.39 C 94.05 125.492 92.109 127.102 89.81 127.95 C 88.19 128.446 86.504 128.688 84.81 128.67 C 82.82 128.614 80.847 129.054 79.07 129.95 C 77.162 131.069 75.751 132.877 75.13 135 C 74.81 136.128 74.738 137.312 74.92 138.47 C 75.154 139.601 75.251 140.756 75.21 141.91 C 75.186 142.459 75.012 142.99 74.707 143.447 C 74.402 143.904 73.978 144.268 73.48 144.5 C 72.411 144.803 71.298 144.915 70.19 144.83 C 69.031 144.729 67.877 145.088 66.98 145.83 C 66.614 146.247 66.336 146.734 66.164 147.262 C 65.992 147.79 65.93 148.347 65.98 148.9 C 66.024 149.938 66.272 150.958 66.71 151.9 C 67.1 152.8 67.53 153.64 67.86 154.48 C 68.196 155.276 68.385 156.127 68.42 156.99 C 68.434 157.779 68.262 158.56 67.92 159.27 C 67.63 159.883 67.177 160.405 66.611 160.779 C 66.045 161.152 65.388 161.364 64.71 161.39 C 64.154 161.41 63.604 161.275 63.12 161 C 62.706 160.758 62.362 160.414 62.12 160 C 61.77 159.444 61.624 158.782 61.71 158.13 C 61.76 157.77 61.89 157.55 61.86 157.54 Z M 146.09 162.31 C 146.328 162.986 146.328 163.724 146.09 164.4 C 145.958 164.788 145.74 165.142 145.453 165.434 C 145.165 165.727 144.816 165.951 144.43 166.09 C 143.916 166.242 143.369 166.247 142.851 166.106 C 142.334 165.965 141.866 165.682 141.5 165.29 C 141.08 164.828 140.836 164.233 140.81 163.61 C 140.791 162.93 140.896 162.252 141.12 161.61 C 141.54 160.26 142.41 158.79 142.28 157.02 C 142.217 156.123 141.967 155.248 141.547 154.453 C 141.127 153.657 140.546 152.958 139.84 152.4 C 139.101 151.809 138.256 151.364 137.35 151.09 C 136.425 150.834 135.47 150.696 134.51 150.68 C 133.58 150.672 132.652 150.575 131.74 150.39 C 130.889 150.215 130.127 149.743 129.59 149.06 C 129.114 148.359 128.847 147.537 128.82 146.69 C 128.776 145.865 128.843 145.037 129.02 144.23 C 129.459 142.707 129.701 141.134 129.74 139.55 C 129.659 138.143 129.162 136.792 128.31 135.67 C 127.59 134.779 126.708 134.033 125.71 133.47 C 124.981 133.039 124.283 132.557 123.62 132.03 C 123.077 131.565 122.634 130.993 122.32 130.35 L 122.32 130.49 C 122.359 130.625 122.413 130.756 122.48 130.88 C 122.729 131.366 123.069 131.8 123.48 132.16 C 124.128 132.724 124.82 133.236 125.55 133.69 C 126.504 134.257 127.345 134.997 128.03 135.87 C 128.823 136.946 129.275 138.235 129.33 139.57 C 129.271 141.119 129.019 142.654 128.58 144.14 C 128.387 144.986 128.309 145.854 128.35 146.72 C 128.387 147.653 128.685 148.557 129.21 149.33 C 129.806 150.101 130.657 150.637 131.61 150.84 C 132.548 151.033 133.502 151.136 134.46 151.15 C 135.386 151.162 136.306 151.29 137.2 151.53 C 138.049 151.794 138.842 152.211 139.54 152.76 C 140.197 153.278 140.74 153.927 141.134 154.665 C 141.528 155.404 141.765 156.216 141.83 157.05 C 141.97 158.66 141.17 160.05 140.73 161.5 C 140.499 162.196 140.397 162.928 140.43 163.66 C 140.474 164.359 140.76 165.02 141.24 165.53 C 141.651 165.96 142.174 166.266 142.751 166.413 C 143.327 166.56 143.934 166.541 144.5 166.36 C 144.914 166.2 145.286 165.947 145.587 165.621 C 145.889 165.295 146.112 164.905 146.24 164.48 C 146.421 163.959 146.449 163.396 146.32 162.86 C 146.277 162.664 146.199 162.478 146.09 162.31 Z"
        fill="#263238"
        stroke-width="1"/>
    <path
        id="path_19"
        d="M 136.53 240.64 L 136.53 229.58 C 137.77 223.37 137.18 216.01 134.29 210.34 C 132.193 206.685 129.876 203.162 127.35 199.79 L 116.35 185.5 C 110.29 189.91 100.8 186.72 92.66 183.76 C 92.66 183.76 84.66 188.21 80.88 192.39 C 76.95 196.79 90.39 251.84 90.39 251.84 C 84.3 264.02 76.44 274.84 75.25 285.94 L 138.85 288.39 L 136.15 259.23 Z"
        fill="#76767c"
        stroke-width="1"/>
    <path
        id="path_20"
        d="M 135.65 259.54 C 135.587 259.127 135.57 258.707 135.6 258.29 L 135.6 254.9 C 135.65 251.9 135.71 248.03 135.78 243.72 C 135.85 239.41 135.98 235.4 136.12 232.54 C 136.19 231.11 136.26 229.95 136.32 229.15 C 136.327 228.735 136.381 228.323 136.48 227.92 C 136.52 228.332 136.52 228.748 136.48 229.16 L 136.48 232.55 C 136.43 235.55 136.36 239.42 136.29 243.73 C 136.22 248.04 136.1 252.05 135.96 254.91 C 135.89 256.34 135.82 257.5 135.75 258.3 C 135.766 258.716 135.732 259.132 135.65 259.54 Z"
        fill="#263238"
        stroke-width="1"/>
    <path
        id="path_21"
        d="M 164.7 269.6 C 164.7 269.6 170.9 269.94 174.7 272.34 C 178.5 274.74 184.7 278.48 187.25 283.11 C 188.42 285.24 185.09 285.69 183.44 284.46 C 181.79 283.23 179.28 280.89 178.03 280.61 L 176.78 280.32 C 177.921 282.903 179.193 285.426 180.59 287.88 C 181.88 289.88 183 293.2 179.12 293.35 C 179.12 293.35 176.51 296.75 173.87 294.23 C 173.87 294.23 171.81 297.32 168.49 293.04 C 168.49 293.04 166.55 295.49 165.75 294.55 C 164.95 293.61 162.3 292.13 161.53 289.07 C 160.375 285.508 159.04 282.007 157.53 278.58 Z M 303.51 183.66 C 304.2 183.66 332.59 180.66 332.59 180.66 C 332.59 180.66 335 169.12 334.87 166.12 C 334.74 163.12 332.72 143.27 332.72 143.27 L 343.35 138.27 C 343.35 138.27 357.56 186.19 354.46 190.17 C 351.36 194.15 345.53 197.72 345.03 197.74 C 344.53 197.76 317.52 209.74 298.73 203.51 C 279.94 197.28 303.51 183.66 303.51 183.66 Z"
        fill="#ffbf9d"
        stroke-width="1"/>
    <path
        id="path_22"
        d="M 278.63 209.53 C 282.81 213.68 290.01 217.13 302.03 214.13 C 325.79 208.19 343.6 203.13 350.68 199.33 C 357.76 195.53 355 178.55 355.6 177.78 C 357.39 175.46 355.42 170.48 352.87 169.7 C 345.6 167.5 332.95 168.37 332.31 169.03 C 328.58 172.95 331.98 177.71 331.98 177.71 L 300.65 181.82 C 296.798 181.639 292.938 181.884 289.14 182.55"
        fill="#76767c"
        stroke-width="1"/>
    <path
        id="path_23"
        d="M 289.14 182.55 L 289.89 182.39 C 290.39 182.3 291.13 182.17 292.11 182.05 C 294.945 181.693 297.805 181.573 300.66 181.69 L 331.98 177.49 L 331.83 177.84 C 330.801 176.327 330.295 174.517 330.39 172.69 C 330.475 171.745 330.784 170.833 331.29 170.03 C 331.544 169.627 331.832 169.245 332.15 168.89 C 332.275 168.797 332.413 168.723 332.56 168.67 L 332.92 168.58 C 333.16 168.52 333.39 168.5 333.62 168.45 C 337.5 168.003 341.414 167.922 345.31 168.21 C 347.355 168.335 349.388 168.615 351.39 169.05 C 351.89 169.16 352.39 169.31 352.91 169.44 C 353.443 169.61 353.932 169.897 354.34 170.28 C 355.135 171.035 355.741 171.967 356.11 173 C 356.507 174.034 356.647 175.15 356.52 176.25 C 356.428 176.823 356.213 177.369 355.89 177.85 C 355.8 177.95 355.81 178.22 355.8 178.48 L 355.8 179.28 C 355.87 181.43 355.97 183.62 355.91 185.82 C 355.926 188.943 355.415 192.047 354.4 195 C 353.878 196.48 352.983 197.799 351.8 198.83 C 351.188 199.309 350.515 199.705 349.8 200.01 C 349.14 200.36 348.44 200.63 347.8 200.95 C 345.06 202.12 342.31 203.08 339.6 203.95 C 336.89 204.82 334.23 205.66 331.6 206.43 C 321.14 209.43 311.6 211.86 303.66 213.85 C 301.763 214.351 299.84 214.749 297.9 215.04 C 296.161 215.282 294.405 215.376 292.65 215.32 C 289.831 215.26 287.05 214.655 284.46 213.54 C 282.836 212.823 281.321 211.881 279.96 210.74 C 279.481 210.353 279.033 209.928 278.62 209.47 C 278.62 209.47 279.08 209.91 280.03 210.66 C 281.408 211.759 282.929 212.667 284.55 213.36 C 287.124 214.422 289.876 214.989 292.66 215.03 C 294.396 215.072 296.132 214.965 297.85 214.71 C 299.777 214.406 301.687 213.999 303.57 213.49 C 311.57 211.49 321.03 209.03 331.46 205.97 C 334.07 205.2 336.73 204.38 339.46 203.48 C 342.19 202.58 344.9 201.63 347.61 200.48 C 348.27 200.17 348.96 199.9 349.61 199.55 C 350.278 199.256 350.906 198.88 351.48 198.43 C 352.596 197.46 353.441 196.216 353.93 194.82 C 354.915 191.905 355.405 188.846 355.38 185.77 C 355.44 183.58 355.38 181.41 355.27 179.25 L 355.27 178 C 355.262 177.92 355.262 177.84 355.27 177.76 C 355.292 177.698 355.319 177.638 355.35 177.58 L 355.4 177.5 C 355.681 177.09 355.866 176.622 355.94 176.13 C 356.057 175.113 355.923 174.083 355.55 173.13 C 355.214 172.175 354.659 171.312 353.93 170.61 C 353.576 170.278 353.152 170.029 352.69 169.88 C 352.19 169.75 351.69 169.61 351.2 169.49 C 349.224 169.062 347.218 168.784 345.2 168.66 C 341.345 168.365 337.471 168.439 333.63 168.88 C 333.4 168.88 333.17 168.94 332.95 169 L 332.63 169.07 C 332.56 169.097 332.494 169.131 332.43 169.17 C 332.129 169.498 331.858 169.853 331.62 170.23 C 331.144 170.966 330.856 171.807 330.78 172.68 C 330.693 174.398 331.163 176.1 332.12 177.53 L 332.32 177.84 L 331.97 177.84 L 300.63 181.84 C 297.791 181.696 294.946 181.776 292.12 182.08 C 291.12 182.18 290.39 182.29 289.89 182.36 C 289.39 182.43 289.14 182.55 289.14 182.55 Z"
        fill="#76767c"
        stroke-width="1"/>
    <path
        id="path_24"
        d="M 204.313 215.118 L 191.552 192.19 L 432.922 57.845 C 435.702 56.298 438.986 55.918 442.046 56.789 C 445.106 57.661 447.697 59.714 449.244 62.494 L 450.338 64.46 C 451.885 67.24 452.265 70.524 451.394 73.584 C 450.522 76.643 448.469 79.234 445.689 80.781 L 204.318 215.127 Z"
        fill="#76767c"
        stroke-width="1"/>
    <path
        id="path_25"
        d="M 406.714 93.862 L 377.159 40.763 C 376.87 40.244 376.799 39.631 376.962 39.06 C 377.125 38.489 377.508 38.005 378.027 37.716 L 391.588 30.169 C 392.107 29.88 392.72 29.809 393.291 29.972 C 393.862 30.134 394.346 30.518 394.635 31.036 L 424.189 84.136 L 406.714 93.862 Z M 370.113 107.836 L 348.573 69.136 C 348.296 68.64 348.155 68.078 348.164 67.51 C 348.173 66.941 348.332 66.385 348.624 65.897 C 348.916 65.409 349.331 65.006 349.828 64.73 L 361.642 58.154 C 362.139 57.878 362.7 57.737 363.268 57.746 C 363.837 57.755 364.393 57.913 364.881 58.205 C 365.369 58.497 365.772 58.913 366.048 59.41 L 387.588 98.109 C 387.865 98.606 388.006 99.167 387.997 99.736 C 387.988 100.304 387.829 100.861 387.537 101.349 C 387.245 101.837 386.83 102.239 386.333 102.516 L 374.519 109.091 C 374.023 109.368 373.461 109.509 372.893 109.5 C 372.324 109.491 371.768 109.332 371.28 109.04 C 370.792 108.748 370.389 108.333 370.113 107.836"
        fill="#76767c"
        stroke-width="1"/>
    <path
        id="path_26"
        d="M 380.926 90.835 L 367.591 66.876 L 394.73 51.771 L 408.065 75.73 Z"
        fill="#76767c"
        stroke-width="1"/>
    <path
        id="path_27"
        d="M 429.39 59.86 C 429.46 59.98 382.09 86.48 323.61 119.04 C 265.13 151.6 217.61 177.9 217.61 177.77 C 217.61 177.64 264.9 151.15 323.4 118.58 C 381.9 86.01 429.32 59.73 429.39 59.86 Z"
        fill="#263238"
        stroke-width="1"/>
    <path
        id="path_28"
        d="M 106.56 259.41 C 124.36 291.41 161.89 304.41 190.39 288.56 C 218.89 272.71 227.59 233.91 209.79 201.95 C 191.99 169.99 154.47 156.95 125.96 172.8 C 97.45 188.65 88.77 227.45 106.56 259.41 Z M 194.35 210.55 C 206.82 232.95 200.73 260.12 180.75 271.23 C 160.77 282.34 134.48 273.23 122.01 250.81 C 109.54 228.39 115.63 201.24 135.6 190.12 C 155.57 179 181.88 188.15 194.35 210.55 Z M 245.352 192.961 L 232.182 169.299 C 231.626 168.299 231.342 167.17 231.36 166.026 C 231.378 164.881 231.697 163.762 232.285 162.78 C 232.872 161.798 233.708 160.988 234.708 160.431 L 235.774 159.838 C 237.285 158.997 239.069 158.791 240.731 159.264 C 242.394 159.738 243.801 160.853 244.642 162.364 L 257.812 186.026 C 258.369 187.025 258.652 188.155 258.634 189.299 C 258.616 190.443 258.297 191.563 257.71 192.545 C 257.122 193.527 256.286 194.337 255.286 194.893 L 254.22 195.487 C 253.22 196.043 252.091 196.327 250.947 196.309 C 249.802 196.291 248.683 195.972 247.701 195.384 C 246.719 194.797 245.909 193.961 245.352 192.961 M 270.645 178.882 L 257.475 155.22 C 256.919 154.22 256.635 153.091 256.653 151.947 C 256.671 150.802 256.99 149.683 257.578 148.701 C 258.165 147.719 259.001 146.909 260.001 146.352 L 261.067 145.759 C 262.578 144.918 264.362 144.712 266.024 145.185 C 267.687 145.659 269.094 146.775 269.935 148.285 L 283.105 171.947 C 283.662 172.947 283.945 174.076 283.927 175.22 C 283.909 176.364 283.59 177.484 283.003 178.466 C 282.415 179.448 281.579 180.258 280.579 180.815 L 279.513 181.408 C 278.513 181.964 277.384 182.248 276.24 182.23 C 275.095 182.212 273.976 181.893 272.994 181.305 C 272.012 180.718 271.202 179.882 270.645 178.882"
        fill="#76767c"
        stroke-width="1"/>
    <path
        id="path_29"
        d="M 244.36 162 C 244.49 161.93 247.54 167.3 251.19 174 C 254.84 180.7 257.69 186.16 257.56 186.23 C 257.43 186.3 254.38 180.94 250.73 174.23 C 247.08 167.52 244.23 162 244.36 162 Z M 232.75 170.25 C 232.88 170.18 235.86 175.31 239.42 181.69 C 242.98 188.07 245.75 193.32 245.63 193.39 C 245.51 193.46 242.52 188.33 239 182 C 235.48 175.67 232.63 170.32 232.75 170.25 Z M 269.81 148.07 C 269.94 148 273.05 153.34 276.76 160 C 280.47 166.66 283.37 172.13 283.24 172.2 C 283.11 172.27 280.01 166.92 276.3 160.26 C 272.59 153.6 269.69 148.14 269.81 148.07 Z M 257.6 155.44 C 257.72 155.37 260.77 160.68 264.39 167.3 C 268.01 173.92 270.86 179.3 270.73 179.41 C 270.6 179.52 267.57 174.17 263.94 167.55 C 260.31 160.93 257.47 155.51 257.6 155.44 Z M 330.13 119.37 C 331.294 119.507 332.468 119.206 333.423 118.525 C 334.377 117.845 335.044 116.832 335.294 115.687 C 335.543 114.542 335.357 113.344 334.773 112.328 C 334.188 111.312 333.246 110.55 332.13 110.19 C 332.851 109.452 333.322 108.505 333.475 107.484 C 333.629 106.463 333.457 105.42 332.985 104.502 C 332.513 103.584 331.764 102.838 330.844 102.369 C 329.924 101.9 328.88 101.733 327.86 101.89 C 327.804 100.531 327.278 99.232 326.373 98.216 C 325.468 97.2 324.239 96.528 322.895 96.316 C 321.551 96.103 320.174 96.363 319 97.05 C 317.857 96.115 316.433 95.589 314.956 95.557 C 313.479 95.524 312.034 95.987 310.85 96.87 C 309.856 96.68 308.826 96.816 307.915 97.257 C 307.003 97.698 306.258 98.422 305.79 99.319 C 305.322 100.217 305.156 101.242 305.316 102.242 C 305.476 103.242 305.955 104.163 306.68 104.87"
        fill="#216124"
        stroke-width="1"/>
    <path
        id="path_30"
        d="M 309.84 101.53 L 310.84 101.53 C 315.881 101.534 320.739 103.438 324.44 106.86 C 328.141 110.281 330.42 114.975 330.82 120 C 331.57 129.69 332.27 140.4 332.19 145.6 C 332 156.4 321.26 158 321.26 158 L 322.13 170.94 L 296 170.09 L 293.83 123.19 C 292.91 112 298.64 102.15 309.84 101.53 Z"
        fill="#ffbf9d"
        stroke-width="1"/>
    <path
        id="path_31"
        d="M 321.35 158 C 316.352 157.986 311.461 156.539 307.26 153.83 C 307.26 153.83 310.72 161.98 321.46 161.04 Z"
        fill="#ff9a6c"
        stroke-width="1"/>
    <path
        id="path_32"
        d="M 324.91 130.15 C 324.913 130.551 324.758 130.937 324.48 131.224 C 324.201 131.512 323.82 131.68 323.42 131.69 C 323.159 131.708 322.898 131.657 322.663 131.541 C 322.429 131.425 322.229 131.25 322.084 131.032 C 321.94 130.814 321.855 130.561 321.84 130.3 C 321.84 129.899 321.995 129.514 322.273 129.225 C 322.55 128.936 322.93 128.766 323.33 128.75 C 323.592 128.732 323.854 128.784 324.09 128.901 C 324.325 129.017 324.525 129.195 324.669 129.414 C 324.813 129.634 324.896 129.888 324.91 130.15 Z M 328.49 125.29 C 328.3 125.49 327.13 124.63 325.49 124.63 C 323.85 124.63 322.62 125.45 322.44 125.25 C 322.26 125.05 322.55 124.8 323.08 124.41 C 323.797 123.917 324.65 123.659 325.52 123.67 C 326.38 123.666 327.218 123.94 327.91 124.45 C 328.41 124.84 328.58 125.21 328.49 125.29 Z M 310 129.43 C 310.008 129.837 309.855 130.23 309.574 130.524 C 309.293 130.818 308.907 130.99 308.5 131 C 308.239 131.018 307.978 130.967 307.743 130.851 C 307.509 130.735 307.309 130.56 307.164 130.342 C 307.02 130.124 306.935 129.871 306.92 129.61 C 306.917 129.209 307.071 128.821 307.35 128.532 C 307.628 128.242 308.009 128.073 308.41 128.06 C 308.67 128.04 308.931 128.089 309.166 128.202 C 309.4 128.315 309.601 128.488 309.748 128.704 C 309.894 128.919 309.981 129.17 310 129.43 Z M 312.23 125.55 C 312.04 125.75 310.87 124.89 309.23 124.89 C 307.59 124.89 306.36 125.71 306.18 125.51 C 306 125.31 306.29 125.06 306.82 124.67 C 307.537 124.177 308.39 123.919 309.26 123.93 C 310.12 123.926 310.958 124.2 311.65 124.71 C 312.15 125.1 312.32 125.46 312.23 125.55 Z M 318.19 137.84 C 319.062 137.566 319.967 137.404 320.88 137.36 C 321.3 137.36 321.7 137.24 321.78 136.95 C 321.815 136.515 321.718 136.079 321.5 135.7 L 320.26 132.48 C 318.54 127.89 317.26 124.12 317.48 124.06 C 317.7 124 319.21 127.65 320.93 132.23 C 321.34 133.36 321.74 134.44 322.12 135.47 C 322.379 135.982 322.454 136.569 322.33 137.13 C 322.267 137.278 322.172 137.41 322.05 137.516 C 321.929 137.621 321.785 137.698 321.63 137.74 C 321.4 137.808 321.16 137.842 320.92 137.84 C 320.014 137.953 319.096 137.953 318.19 137.84 Z M 313.68 119.19 C 313.46 119.61 312.05 119.19 310.3 119.09 C 308.55 118.99 307.09 119.32 306.93 118.88 C 306.86 118.67 307.17 118.3 307.8 117.96 C 308.613 117.559 309.515 117.373 310.42 117.42 C 311.317 117.452 312.19 117.721 312.95 118.2 C 313.52 118.59 313.78 119 313.68 119.19 Z M 328.59 118.48 C 328.24 118.85 326.87 118.48 325.23 118.48 C 323.59 118.48 322.23 118.73 321.88 118.33 C 321.74 118.14 321.96 117.76 322.57 117.41 C 323.41 116.97 324.352 116.759 325.3 116.8 C 326.243 116.813 327.165 117.079 327.97 117.57 C 328.55 117.91 328.74 118.29 328.59 118.48 Z"
        fill="#263238"
        stroke-width="1"/>
    <path
        id="path_33"
        d="M 329.8 115.1 C 329.8 115.1 326.98 108.35 323.73 106.77 C 319.8 104.85 318.1 109.16 314.35 108.1 C 310.6 107.04 306.85 105.21 303.01 108.1 C 298.81 111.26 300.77 113.49 300.49 118.27 C 299.39 137.63 295.83 143.09 294.86 133.97 C 294.75 132.97 291.98 132.17 291.58 127.97 C 291.06 122.5 290.87 115.85 292.11 111.97 C 293.11 108.7 295.02 106.44 298.37 103.97 C 303.67 100.05 310.93 99.97 315.86 100.5 C 320.79 101.03 330.27 106.66 329.8 115.1 Z"
        fill="#263238"
        stroke-width="1"/>
    <path
        id="path_34"
        d="M 295.54 133.67 C 295.525 133.142 295.367 132.628 295.083 132.182 C 294.799 131.737 294.4 131.376 293.927 131.14 C 293.455 130.904 292.927 130.8 292.4 130.84 C 290.4 131.03 288.15 132.16 288.27 136.31 C 288.48 143.67 295.83 141.94 295.84 141.72 C 295.85 141.5 295.66 136.75 295.54 133.67 Z"
        fill="#ffbf9d"
        stroke-width="1"/>
    <path
        id="path_35"
        d="M 294.15 139 C 294.15 139 294.03 139.1 293.81 139.2 C 293.511 139.337 293.171 139.355 292.86 139.25 C 292.374 138.963 291.974 138.551 291.702 138.056 C 291.429 137.562 291.294 137.004 291.31 136.44 C 291.272 135.812 291.374 135.183 291.61 134.6 C 291.674 134.369 291.792 134.158 291.956 133.984 C 292.12 133.809 292.324 133.678 292.55 133.6 C 292.697 133.555 292.854 133.564 292.995 133.624 C 293.136 133.685 293.251 133.793 293.32 133.93 C 293.42 134.13 293.38 134.28 293.42 134.29 C 293.46 134.3 293.57 134.16 293.5 133.86 C 293.46 133.678 293.353 133.517 293.2 133.41 C 293.099 133.336 292.984 133.282 292.862 133.253 C 292.74 133.224 292.614 133.22 292.49 133.24 C 292.189 133.308 291.91 133.452 291.681 133.659 C 291.451 133.865 291.279 134.127 291.18 134.42 C 290.883 135.064 290.749 135.772 290.79 136.48 C 290.88 137.96 291.68 139.33 292.79 139.61 C 292.988 139.662 293.196 139.669 293.397 139.629 C 293.597 139.589 293.787 139.504 293.95 139.38 C 294.15 139.18 294.18 139 294.15 139 Z"
        fill="#ff9a6c"
        stroke-width="1"/>
    <path
        id="path_36"
        d="M 295.73 119.41 C 296.63 120.144 297.699 120.642 298.84 120.86 C 299.413 120.95 299.999 120.829 300.49 120.52 C 300.98 120.212 301.343 119.735 301.51 119.18 C 301.6 118.67 301.51 118.07 301.81 117.68 C 302.11 117.29 302.96 117.36 303.57 117.43 C 305.71 117.66 308.22 115.3 308.77 113.22 C 309.048 113.619 309.468 113.897 309.943 113.997 C 310.419 114.097 310.915 114.013 311.33 113.76 C 312.01 113.344 312.613 112.813 313.11 112.19 C 313.4 111.793 313.781 111.472 314.222 111.255 C 314.662 111.037 315.149 110.929 315.64 110.94 C 316.158 111.119 316.695 111.236 317.24 111.29 C 318.24 111.21 318.68 110.08 318.83 109.12 C 318.98 108.16 319.1 107.05 319.92 106.53 C 320.761 106.2 321.692 106.176 322.55 106.46 C 323.44 106.6 324.55 106.39 324.82 105.52 C 324.857 105.288 324.846 105.05 324.79 104.822 C 324.733 104.593 324.631 104.378 324.49 104.19 C 323.895 103.298 323.016 102.633 321.996 102.303 C 320.977 101.972 319.875 101.996 318.87 102.37 C 318.516 101.139 317.804 100.042 316.824 99.217 C 315.844 98.393 314.641 97.879 313.368 97.74 C 312.095 97.602 310.809 97.846 309.675 98.44 C 308.542 99.035 307.61 99.954 307 101.08 C 305.958 100.125 304.634 99.533 303.228 99.393 C 301.821 99.252 300.407 99.571 299.196 100.3 C 297.986 101.029 297.043 102.131 296.51 103.44 C 295.303 103.118 294.017 103.285 292.932 103.903 C 291.848 104.522 291.049 105.544 290.712 106.747 C 290.375 107.949 290.525 109.237 291.13 110.33 C 290.445 110.668 289.857 111.175 289.421 111.803 C 288.986 112.431 288.717 113.16 288.64 113.92 C 288.64 115.44 290.09 116.92 291.56 116.56 C 291.255 117.159 291.191 117.852 291.381 118.497 C 291.571 119.141 292.001 119.689 292.582 120.027 C 293.163 120.364 293.851 120.467 294.505 120.313 C 295.159 120.16 295.73 119.761 296.1 119.2"
        fill="#263238"
        stroke-width="1"/>
    <path
        id="path_37"
        d="M 319.41 104.53 L 319.41 104.67 C 319.41 104.81 319.41 104.89 319.36 105.06 C 319.257 105.559 319.074 106.038 318.82 106.48 C 318.414 107.172 317.857 107.763 317.19 108.21 C 316.309 108.811 315.256 109.109 314.19 109.06 L 314.31 108.9 C 314.526 109.56 314.472 110.28 314.16 110.9 C 313.83 111.558 313.405 112.164 312.9 112.7 C 312.655 113.012 312.376 113.297 312.07 113.55 C 311.526 113.908 310.872 114.061 310.226 113.982 C 309.58 113.904 308.982 113.598 308.54 113.12 L 308.81 113.04 C 308.707 113.804 308.444 114.538 308.039 115.194 C 307.635 115.851 307.096 116.415 306.46 116.85 C 305.761 117.37 304.911 117.647 304.04 117.64 C 303.223 117.595 302.419 117.416 301.66 117.11 L 301.86 117.02 C 301.475 117.91 300.873 118.691 300.11 119.29 C 299.762 119.588 299.351 119.805 298.908 119.925 C 298.465 120.044 298.001 120.063 297.55 119.98 C 296.777 119.812 296.069 119.421 295.515 118.856 C 294.961 118.291 294.583 117.576 294.43 116.8 L 294.6 116.88 C 293.822 117.283 292.93 117.41 292.07 117.24 C 291.43 117.118 290.827 116.847 290.31 116.45 C 289.988 116.198 289.711 115.894 289.49 115.55 C 289.409 115.431 289.348 115.299 289.31 115.16 C 289.589 115.62 289.952 116.023 290.38 116.35 C 290.89 116.719 291.479 116.962 292.1 117.06 C 292.916 117.215 293.762 117.08 294.49 116.68 L 294.63 116.6 L 294.63 116.76 C 294.781 117.483 295.14 118.146 295.662 118.668 C 296.184 119.19 296.847 119.549 297.57 119.7 C 297.982 119.772 298.405 119.751 298.809 119.639 C 299.212 119.526 299.585 119.325 299.9 119.05 C 300.616 118.48 301.18 117.742 301.54 116.9 L 301.6 116.77 L 301.74 116.77 C 302.464 117.061 303.231 117.23 304.01 117.27 C 304.816 117.277 305.603 117.02 306.25 116.54 C 306.849 116.129 307.356 115.597 307.738 114.979 C 308.12 114.361 308.37 113.67 308.47 112.95 L 308.47 112.6 L 308.7 112.87 C 308.96 113.157 309.287 113.377 309.651 113.509 C 310.015 113.642 310.406 113.683 310.79 113.63 C 311.148 113.582 311.49 113.452 311.79 113.25 C 312.079 113.017 312.341 112.752 312.57 112.46 C 313.065 111.95 313.482 111.37 313.81 110.74 C 313.957 110.459 314.047 110.152 314.075 109.836 C 314.102 109.52 314.067 109.202 313.97 108.9 L 313.91 108.72 L 314.1 108.72 C 315.121 108.783 316.136 108.513 316.99 107.95 C 317.646 107.528 318.2 106.964 318.61 106.3 C 318.979 105.762 319.25 105.163 319.41 104.53 Z"
        fill="#313133"
        stroke-width="1"/>
    <path
        id="path_38"
        d="M 318.17 143.33 C 318.11 143.06 316.32 143.5 314.66 142.28 C 313 141.06 312.73 139.1 312.48 139.15 C 312.23 139.2 312.23 139.67 312.41 140.48 C 312.656 141.537 313.27 142.472 314.14 143.12 C 314.971 143.739 316.012 144.012 317.04 143.88 C 317.81 143.76 318.21 143.45 318.17 143.33 Z"
        fill="#263238"
        stroke-width="1"/>
    <path
        id="path_39"
        d="M 373.63 423.12 L 380.73 447.31 C 380.73 447.31 407.73 448.21 409.46 452.56 L 363 468 L 350.38 430.75 Z"
        fill="#455a64"
        stroke-width="1"/>
    <path
        id="path_40"
        d="M 365.71 450.08 C 365.309 450.365 365.027 450.788 364.919 451.267 C 364.81 451.747 364.882 452.25 365.12 452.68 C 365.389 453.091 365.806 453.384 366.283 453.497 C 366.761 453.611 367.265 453.536 367.69 453.29 C 368.115 452.987 368.413 452.537 368.525 452.027 C 368.638 451.518 368.558 450.984 368.3 450.53 C 367.974 450.129 367.506 449.87 366.993 449.807 C 366.481 449.743 365.963 449.881 365.55 450.19"
        fill="#e0e0e0"
        stroke-width="1"/>
    <path
        id="path_41"
        d="M 406.84 450.81 C 406.84 450.81 409.21 451.02 409.46 452.56 L 363 468 L 361.88 464.19 L 406.8 450.79"
        fill="#263238"
        stroke-width="1"/>
    <path
        id="path_42"
        d="M 381.4 446.82 C 381.47 447.05 380.4 447.53 379.5 448.63 C 378.6 449.73 378.35 450.88 378.11 450.86 C 377.87 450.84 377.78 449.42 378.86 448.11 C 379.94 446.8 381.38 446.6 381.4 446.82 Z M 386.94 447.21 C 387.07 447.42 386.22 448.13 385.76 449.34 C 385.3 450.55 385.43 451.65 385.2 451.71 C 384.97 451.77 384.4 450.54 384.99 449.04 C 385.58 447.54 386.87 447 386.94 447.21 Z M 391.65 452.12 C 391.46 452.24 390.77 451.21 390.94 449.78 C 391.11 448.35 392 447.49 392.16 447.65 C 392.32 447.81 391.88 448.65 391.76 449.87 C 391.64 451.09 391.87 452 391.65 452.12 Z M 379.17 441.49 C 379.17 441.73 378 441.76 376.75 442.27 C 375.5 442.78 374.63 443.52 374.45 443.37 C 374.27 443.22 374.96 442.09 376.45 441.5 C 377.94 440.91 379.23 441.27 379.17 441.49 Z"
        fill="#ffffff"
        stroke-width="1"/>
    <path
        id="path_43"
        d="M 265.29 423.33 L 255.18 446.43 C 255.18 446.43 275.27 464.43 273.82 468.91 L 228.32 450.91 L 242.59 414.27 Z"
        fill="#455a64"
        stroke-width="1"/>
    <path
        id="path_44"
        d="M 241.89 438.9 C 241.401 438.861 240.914 439.004 240.523 439.301 C 240.132 439.598 239.864 440.028 239.77 440.51 C 239.714 440.998 239.846 441.489 240.14 441.883 C 240.433 442.277 240.866 442.544 241.35 442.63 C 241.869 442.669 242.385 442.514 242.798 442.197 C 243.211 441.88 243.493 441.422 243.59 440.91 C 243.59 439.91 242.68 438.77 241.7 438.91"
        fill="#e0e0e0"
        stroke-width="1"/>
    <path
        id="path_45"
        d="M 272.93 465.89 C 272.93 465.89 274.61 467.58 273.82 468.89 L 228.32 450.89 L 229.91 447.26 L 272.91 465.86"
        fill="#263238"
        stroke-width="1"/>
    <path
        id="path_46"
        d="M 256 446.49 C 255.91 446.71 254.76 446.37 253.38 446.65 C 252 446.93 251.05 447.65 250.88 447.47 C 250.71 447.29 251.55 446.15 253.22 445.84 C 254.89 445.53 256.14 446.3 256 446.49 Z M 260 450.35 C 260 450.58 258.86 450.58 257.73 451.22 C 256.6 451.86 256 452.77 255.73 452.68 C 255.46 452.59 255.87 451.27 257.28 450.5 C 258.69 449.73 260.08 450.14 260 450.35 Z M 260.46 457.13 C 260.24 457.13 260.37 455.87 261.46 454.88 C 262.55 453.89 263.74 453.81 263.76 454.03 C 263.78 454.25 262.88 454.65 262.03 455.48 C 261.18 456.31 260.69 457.2 260.46 457.13 Z M 257.73 441 C 257.56 441.16 256.66 440.46 255.37 440 C 254.08 439.54 252.95 439.6 252.91 439.37 C 252.87 439.14 254.12 438.71 255.63 439.21 C 257.14 439.71 257.91 440.84 257.73 441 Z"
        fill="#ffffff"
        stroke-width="1"/>
    <path
        id="path_47"
        d="M 282.32 296.43 L 266.38 361.09 C 266.38 361.09 237.63 409.49 232.76 433.71 L 259.06 444.05 C 259.06 444.05 278.19 397.4 283.8 388.84 C 286.324 385.004 289.225 381.429 292.46 378.17 C 294.563 376.084 296.072 373.474 296.83 370.61 L 308.9 324.48 Z"
        fill="#263238"
        stroke-width="1"/>
    <path
        id="path_48"
        d="M 275.53 286.09 C 275.53 286.09 277.75 303.41 294.42 311.09 L 329.54 368.29 C 329.54 368.29 332.29 386.89 337.54 402.56 C 342.79 418.23 353.4 448.43 353.4 448.43 L 382.29 437.63 L 363.88 374.69 L 360.88 352.86 L 332.22 279.86 L 307.6 265.1 Z"
        fill="#263238"
        stroke-width="1"/>
    <path
        id="path_49"
        d="M 275.53 286.09 L 276.06 285.73 L 277.65 284.67 L 283.89 280.55 L 307.55 265 L 307.63 264.95 L 307.71 265 L 332.35 279.73 L 332.35 279.79 L 361.07 352.72 L 361.07 352.77 C 362.02 359.67 363.07 367.06 364.07 374.6 C 369.07 391.6 374.37 409.79 379.85 428.53 Q 381.18 433.06 382.49 437.53 L 382.56 437.76 L 382.33 437.84 L 353.44 448.64 L 353.19 448.73 L 353.11 448.48 C 348.11 433.97 343.27 420 338.7 406.75 C 337.55 403.44 336.42 400.16 335.48 396.88 C 334.54 393.6 333.69 390.34 332.92 387.12 C 331.4 380.68 330.18 374.39 329.22 368.29 L 329.22 368.37 L 294.3 311.15 L 294.36 311.2 C 290.137 309.225 286.385 306.367 283.36 302.82 C 281.142 300.216 279.323 297.297 277.96 294.16 C 277.117 292.223 276.447 290.215 275.96 288.16 C 275.79 287.48 275.69 286.95 275.63 286.59 C 275.57 286.23 275.56 286.05 275.56 286.05 C 275.56 286.05 275.56 286.23 275.67 286.58 C 275.78 286.93 275.84 287.46 276.03 288.15 C 276.546 290.179 277.235 292.159 278.09 294.07 C 279.47 297.175 281.296 300.063 283.51 302.64 C 286.546 306.15 290.297 308.973 294.51 310.92 L 329.7 368.08 L 329.7 368.13 C 330.7 374.21 331.9 380.49 333.42 386.92 C 334.19 390.13 335.03 393.38 335.98 396.65 C 336.93 399.92 338.05 403.18 339.2 406.49 C 343.79 419.74 348.62 433.71 353.64 448.21 L 353.31 448.06 L 382.2 437.26 L 382.04 437.57 Q 380.74 433.1 379.4 428.57 L 363.64 374.63 C 362.64 367.09 361.58 359.7 360.64 352.8 L 360.64 352.86 L 332.03 279.86 L 332.11 279.95 L 307.51 265.16 L 307.66 265.16 L 284 280.64 L 277.7 284.7 L 276.08 285.75 Z"
        fill="#455a64"
        stroke-width="1"/>
    <path
        id="path_50"
        d="M 291 162.52 C 291 162.52 282.58 169 278.49 176.24 C 273.59 184.91 273.06 197.76 272.91 217.72 C 272.76 236.18 275.52 241.31 274.46 248.27 C 272.37 261.86 270.82 307.47 270.82 307.47 C 270.82 307.47 297.82 297.1 303.06 292.47 L 308.33 287.89 L 342.12 299.06 L 335.3 257.54 L 330.62 205.79 L 324.62 178.34 L 323.62 167.57 L 294.6 155.91 Z"
        fill="#76767c"
        stroke-width="1"/>
    <path
        id="path_51"
        d="M 322.53 167 C 322.88 167.07 321.7 169.44 319.62 172.92 L 319.53 173.06 L 319.37 173 C 316.44 171.86 312.56 170.43 308.32 168.88 C 303.54 167.14 299.22 165.52 296.13 164.26 C 294.58 163.63 293.34 163.1 292.49 162.71 C 292.039 162.535 291.604 162.321 291.19 162.07 C 291.664 162.176 292.127 162.33 292.57 162.53 L 296.26 163.92 L 308.5 168.39 C 312.74 169.94 316.61 171.39 319.5 172.63 L 319.26 172.71 C 321.44 169.3 322.73 167.05 322.53 167 Z"
        fill="#263238"
        stroke-width="1"/>
    <path
        id="path_52"
        d="M 357.45 145.44 C 357.45 145.44 355.31 142.11 353.29 139.04 C 351.27 135.97 348.21 134.46 347.72 132.86 C 347.23 131.26 344.54 124.13 344.11 122.36 C 343.736 120.646 343.562 118.894 343.59 117.14 C 343.59 117.14 345.8 116.2 346.86 119.36 C 347.5 121.26 349.54 127.71 349.98 128.03 C 350.42 128.35 350.98 127.88 350.98 127.88 C 350.072 125.465 349.287 123.005 348.63 120.51 C 348.53 119.34 348.94 111.58 348.94 111.58 C 349.488 111.47 350.058 111.559 350.546 111.832 C 351.034 112.106 351.408 112.545 351.6 113.07 C 352.65 115.07 352.69 120.07 352.69 120.07 L 354.28 125.65 L 353.72 120.13 L 354.52 109.98 C 355.297 110.091 356.021 110.438 356.594 110.975 C 357.166 111.512 357.559 112.212 357.72 112.98 C 358.39 115.72 357.5 119.54 357.95 120.35 C 358.4 121.16 358.89 126.06 358.89 126.06 C 358.89 126.06 359.44 114.16 360.71 113.82 C 361.98 113.48 363.02 114.74 362.84 117.14 C 362.66 119.54 362.61 124.62 363.27 126.86 C 363.93 129.1 370.7 137.86 370.15 141.7 C 369.813 144.02 369.603 146.357 369.52 148.7 L 357.92 148.7 Z"
        fill="#ffbf9d"
        stroke-width="1"/>
    <path
        id="path_53"
        d="M 316.76 175.41 C 317.41 175.66 345.12 182.52 345.12 182.52 C 345.12 182.52 351.31 172.52 352.22 169.62 C 353.13 166.72 358 147.4 358 147.4 L 369.71 146.3 C 369.71 146.3 366.71 196.19 362.47 198.88 C 358.23 201.57 351.47 202.93 351.03 202.78 C 350.59 202.63 321.08 204.68 305.53 192.43 C 289.98 180.18 316.76 175.41 316.76 175.41 Z"
        fill="#ffbf9d"
        stroke-width="1"/>
    <path
        id="path_54"
        d="M 296.9 201.82 C 299.874 205.186 303.843 207.519 308.23 208.48 C 315.58 210.1 331.23 212.97 331.23 212.97 L 330.47 205.29 L 296.47 201.65"
        fill="#000000"
        stroke-width="1"/>
    <path
        id="path_55"
        d="M 284.56 191.26 C 287.08 196.58 292.68 202.26 304.99 203.55 C 329.36 206.07 347.81 207.41 355.78 206.21 C 363.75 205.01 366.92 188.14 367.78 187.62 C 370.26 186.06 370.1 180.7 367.96 179.1 C 361.88 174.55 349.69 171.1 348.87 171.47 C 344.02 173.88 345.6 179.52 345.6 179.52 L 314.7 172.7 C 311.141 171.22 307.428 170.14 303.63 169.48"
        fill="#76767c"
        stroke-width="1"/>
    <path
        id="path_56"
        d="M 303.63 169.48 C 303.63 169.48 303.89 169.48 304.39 169.58 C 304.89 169.68 305.64 169.8 306.6 170.01 C 309.387 170.642 312.116 171.505 314.76 172.59 L 345.64 179.31 L 345.38 179.59 C 344.923 177.818 345.063 175.944 345.78 174.26 C 346.175 173.398 346.772 172.643 347.52 172.06 C 347.899 171.764 348.304 171.503 348.73 171.28 C 348.876 171.236 349.028 171.213 349.18 171.21 L 349.55 171.21 C 349.8 171.21 350.02 171.29 350.26 171.33 C 354.06 172.229 357.766 173.484 361.33 175.08 C 363.208 175.898 365.023 176.854 366.76 177.94 C 367.19 178.22 367.62 178.53 368.05 178.83 C 368.495 179.168 368.857 179.602 369.11 180.1 C 369.598 181.082 369.851 182.164 369.85 183.26 C 369.876 184.369 369.628 185.468 369.13 186.46 C 368.854 186.972 368.464 187.413 367.99 187.75 C 367.87 187.81 367.79 188.07 367.69 188.31 L 367.43 189.06 C 366.77 191.06 366.11 193.2 365.31 195.26 C 364.262 198.214 362.728 200.972 360.77 203.42 C 360.06 204.35 359.155 205.114 358.119 205.656 C 357.082 206.199 355.939 206.507 354.77 206.56 C 354.02 206.67 353.27 206.69 352.53 206.75 C 349.53 206.93 346.65 206.89 343.8 206.81 C 340.95 206.73 338.16 206.58 335.45 206.41 C 324.58 205.71 314.83 204.72 306.65 203.87 C 304.696 203.699 302.753 203.418 300.83 203.03 C 299.124 202.665 297.451 202.156 295.83 201.51 C 293.204 200.49 290.797 198.976 288.74 197.05 C 287.456 195.821 286.352 194.417 285.46 192.88 C 285.141 192.353 284.863 191.801 284.63 191.23 C 284.63 191.23 284.91 191.8 285.55 192.83 C 286.474 194.329 287.594 195.698 288.88 196.9 C 290.935 198.784 293.331 200.257 295.94 201.24 C 297.564 201.866 299.236 202.358 300.94 202.71 C 302.858 203.078 304.794 203.341 306.74 203.5 C 314.92 204.31 324.67 205.26 335.52 205.94 C 338.24 206.1 341.02 206.24 343.86 206.31 C 346.7 206.38 349.61 206.42 352.55 206.25 C 353.28 206.18 354.03 206.16 354.76 206.05 C 355.489 206.012 356.209 205.874 356.9 205.64 C 358.281 205.107 359.501 204.225 360.44 203.08 C 362.356 200.679 363.856 197.975 364.88 195.08 C 365.68 193.08 366.33 190.97 366.99 188.91 L 367.27 188.13 C 367.27 188.01 367.37 187.88 367.43 187.74 C 367.466 187.663 367.51 187.589 367.56 187.52 C 367.598 187.472 367.642 187.428 367.69 187.39 L 367.76 187.33 C 368.175 187.043 368.517 186.663 368.76 186.22 C 369.227 185.291 369.454 184.259 369.42 183.22 C 369.423 182.208 369.194 181.209 368.75 180.3 C 368.532 179.871 368.221 179.495 367.84 179.2 C 367.41 178.91 367 178.6 366.57 178.33 C 364.858 177.252 363.066 176.306 361.21 175.5 C 357.686 173.911 354.02 172.659 350.26 171.76 C 350.03 171.76 349.8 171.66 349.58 171.64 L 349.03 171.64 C 348.636 171.85 348.261 172.095 347.91 172.37 C 347.213 172.895 346.654 173.582 346.28 174.37 C 345.618 175.952 345.481 177.705 345.89 179.37 L 345.98 179.72 L 345.63 179.64 L 314.8 172.74 C 312.18 171.638 309.479 170.742 306.72 170.06 C 305.72 169.83 305.03 169.67 304.53 169.57 C 304.03 169.47 303.63 169.48 303.63 169.48 Z"
        fill="#263238"
        stroke-width="1"/>
    <path
        id="path_57"
        d="M 355.78 189.17 C 355.069 188.994 354.393 188.7 353.78 188.3 C 352.247 187.445 350.834 186.389 349.58 185.16 C 348.319 183.936 347.217 182.558 346.3 181.06 C 345.883 180.446 345.562 179.771 345.35 179.06 C 346.721 181.08 348.256 182.983 349.94 184.75 C 351.751 186.395 353.705 187.874 355.78 189.17 Z"
        fill="#263238"
        stroke-width="1"/>
    <path
        id="path_58"
        d="M 138.22 271.53 C 138.22 271.53 144.42 271.86 148.22 274.27 C 152.02 276.68 158.22 280.4 160.77 285.04 C 161.94 287.17 158.61 287.62 156.97 286.38 C 155.33 285.14 152.8 282.82 151.55 282.53 L 150.3 282.25 C 151.44 284.83 152.711 287.35 154.11 289.8 C 155.4 291.8 156.52 295.12 152.65 295.28 C 152.65 295.28 150.03 298.68 147.39 296.16 C 147.39 296.16 145.33 299.24 142.01 294.97 C 142.01 294.97 140.08 297.41 139.27 296.48 C 138.46 295.55 135.82 294.06 135.05 291 C 133.901 287.436 132.566 283.934 131.05 280.51 Z"
        fill="#ffbf9d"
        stroke-width="1"/>
    <path
        id="path_59"
        d="M 85.46 190 C 82.283 191.023 79.539 193.084 77.67 195.85 C 75.29 199.51 74.56 205.85 75.24 210.57 C 76.68 220.52 81.24 237.31 83.81 248.09 C 84.69 251.81 86.5 258.47 91.81 262 L 129.7 284.72 L 139.83 269.72 L 105.29 241.57 L 98.46 202.99 Z"
        fill="#76767c"
        stroke-width="1"/>
    <path
        id="path_60"
        d="M 78.91 227.92 C 78.962 228.046 79.002 228.177 79.03 228.31 L 79.35 229.48 C 79.62 230.54 80 232.06 80.5 234.01 C 81.5 238.01 82.92 243.69 84.69 250.76 C 85.717 254.61 87.895 258.058 90.93 260.64 C 92.664 262.028 94.518 263.26 96.47 264.32 L 102.56 268 L 129.85 284.48 L 129.5 284.56 L 133.15 279.15 L 139.63 269.52 L 139.68 269.87 L 105.45 241.68 L 105.39 241.68 L 105.39 241.61 C 103.13 232.1 101.49 224.31 100.45 218.89 C 99.94 216.18 99.58 214.07 99.35 212.63 C 99.25 211.93 99.17 211.38 99.11 210.99 C 99.05 210.6 99.04 210.43 99.04 210.43 C 99.094 210.611 99.138 210.794 99.17 210.98 C 99.24 211.37 99.34 211.91 99.46 212.61 C 99.73 214.04 100.12 216.15 100.68 218.85 C 101.77 224.25 103.47 232.02 105.78 241.52 L 105.71 241.41 L 140 269.47 L 140.18 269.62 L 140.05 269.81 L 133.57 279.44 L 129.92 284.85 L 129.79 285.05 L 129.57 284.93 L 102.32 268.4 L 96.24 264.71 C 94.275 263.639 92.408 262.397 90.66 261 C 87.572 258.355 85.369 254.826 84.35 250.89 C 82.64 243.8 81.27 238.07 80.35 234.1 C 79.9 232.1 79.54 230.61 79.29 229.55 L 79 228.32 C 78.961 228.189 78.931 228.055 78.91 227.92 Z M 79.53 195.33 C 79.765 195.176 80.026 195.064 80.3 195 C 81.026 194.776 81.768 194.609 82.52 194.5 C 85.028 194.113 87.595 194.461 89.91 195.5 C 92.148 196.667 94.048 198.388 95.43 200.5 C 95.849 201.138 96.185 201.827 96.43 202.55 C 96.537 202.807 96.598 203.081 96.61 203.36 C 96.178 202.442 95.68 201.556 95.12 200.71 C 93.697 198.739 91.834 197.127 89.68 196 C 87.446 195.01 84.989 194.63 82.56 194.9 C 80.69 195.05 79.56 195.42 79.53 195.33 Z"
        fill="#263238"
        stroke-width="1"/>
</svg>
