<svg xmlns="http://www.w3.org/2000/svg" version="1.1" xmlns:xlink="http://www.w3.org/1999/xlink" width="512" height="512" x="0" y="0" viewBox="0 0 512 512" style="enable-background:new 0 0 512 512" xml:space="preserve"><g><path d="M457.667 291v-76.473M54.333 214.527v75.157M372.667 122.85V78.002l-106.071-67.42a19.751 19.751 0 0 0-21.191 0l-106.071 67.42v44.848M201.333 122.85H63.773a13.908 13.908 0 0 0-13.575 10.884L36.393 195.7c-1.935 8.688 4.675 16.932 13.575 16.932h89.366M372.667 212.632h89.365c8.901 0 15.511-8.245 13.575-16.932l-13.805-61.966a13.908 13.908 0 0 0-13.575-10.884H310.416M119.771 90.436l19.562-12.434M392.229 90.436l-19.562-12.434M139.333 291v-29.467" style="stroke-width:15;stroke-linecap:round;stroke-linejoin:round;stroke-miterlimit:10;" fill="none" stroke="#000000" stroke-width="15" stroke-linecap="round" stroke-linejoin="round" stroke-miterlimit="10" data-original="#000000"></path><path d="M139.333 226.529v-51.001a22.642 22.642 0 0 1 10.496-19.109l95.575-60.748a19.751 19.751 0 0 1 21.191 0l95.575 60.748a22.642 22.642 0 0 1 10.496 19.109V291" style="stroke-width:15;stroke-linecap:round;stroke-linejoin:round;stroke-miterlimit:10;" fill="none" stroke="#000000" stroke-width="15" stroke-linecap="round" stroke-linejoin="round" stroke-miterlimit="10" data-original="#000000"></path><path d="M321.333 292v-73.473H190.667V292M256 218.527v73.157M376.338 504.5h94.052c7.807 0 14.137-6.329 14.137-14.137v-20.78H27.474v20.78c0 7.807 6.329 14.137 14.137 14.137h299.724" style="stroke-width:15;stroke-linecap:round;stroke-linejoin:round;stroke-miterlimit:10;" fill="none" stroke="#000000" stroke-width="15" stroke-linecap="round" stroke-linejoin="round" stroke-miterlimit="10" data-original="#000000"></path><path d="M444.649 426.667H67.351c-22.024 0-39.878 17.854-39.878 39.878v3.039h457.053v-3.039c0-22.025-17.853-39.878-39.877-39.878zM7.5 406.667v-93.982c0-11.046 8.954-20 20-20h457c11.046 0 20 8.954 20 20v93.982c0 11.046-8.954 20-20 20h-457c-11.046 0-20-8.955-20-20z" style="stroke-width:15;stroke-linecap:round;stroke-linejoin:round;stroke-miterlimit:10;" fill="none" stroke="#000000" stroke-width="15" stroke-linecap="round" stroke-linejoin="round" stroke-miterlimit="10" data-original="#000000"></path><path d="M433.004 332.705v53.896c.596.102 18.889 0 18.889 0M197.127 332.705v53.941M234.455 332.705v53.941M197.127 358.751h37.328M166.226 337.311a26.848 26.848 0 0 0-15.08-4.606c-14.896 0-26.971 12.075-26.971 26.971s12.075 26.971 26.971 26.971c6.05 0 11.026-1.992 14.802-5.355a21.83 21.83 0 0 0 2.189-2.258M93.354 338.25s-9.679-8.136-21.093-4.698c-10.481 3.157-11.946 15.242-4.364 20.185 0 0 7.44 3.319 15.693 6.363 19.865 7.327 11.308 26.546-4.684 26.546-8.008 0-14.729-3.507-18.797-7.996" style="stroke-width:15;stroke-linecap:round;stroke-linejoin:round;stroke-miterlimit:10;" fill="none" stroke="#000000" stroke-width="15" stroke-linecap="round" stroke-linejoin="round" stroke-miterlimit="10" data-original="#000000"></path><circle cx="291.501" cy="359.676" r="26.971" style="stroke-width:15;stroke-linecap:round;stroke-linejoin:round;stroke-miterlimit:10;" fill="none" stroke="#000000" stroke-width="15" stroke-linecap="round" stroke-linejoin="round" stroke-miterlimit="10" data-original="#000000"></circle><circle cx="375.184" cy="359.676" r="26.971" style="stroke-width:15;stroke-linecap:round;stroke-linejoin:round;stroke-miterlimit:10;" fill="none" stroke="#000000" stroke-width="15" stroke-linecap="round" stroke-linejoin="round" stroke-miterlimit="10" data-original="#000000"></circle></g></svg>